<?xml version="1.0" standalone="no"?>
<!DOCTYPE svg PUBLIC "-//W3C//DTD SVG 1.1//EN" "http://www.w3.org/Graphics/SVG/1.1/DTD/svg11.dtd" >
<svg xmlns="http://www.w3.org/2000/svg" xmlns:xlink="http://www.w3.org/1999/xlink" version="1.1">
<metadata>
Created by FontForge 20201107 at Tue Feb  6 20:02:00 2024
 By 
Copyright (c) 2019 by Abbie Gonzalez. All rights reserved.
</metadata>
<defs>
<font id="OpenDyslexic-Bold" horiz-adv-x="1228" >
  <font-face 
    font-family="OpenDyslexic"
    font-weight="800"
    font-stretch="normal"
    units-per-em="2048"
    panose-1="0 0 9 0 0 0 0 0 0 0"
    ascent="1638"
    descent="-410"
    x-height="1149"
    cap-height="1548"
    bbox="-2154 -831 4282 2599"
    underline-thickness="102"
    underline-position="-204"
    unicode-range="U+0020-FB02"
  />
<missing-glyph horiz-adv-x="1259" 
d="M1032 1966v-2519h-799v2519h799zM840 1798h-416v-84h164v-94h-168v-82h420v82h-168v94h168v84zM672 1473h-252v-263h420v86h-168v177zM588 1386v-90h-84v90h84zM840 1143h-420v-84h168v-92h-168v-84h252v176h168v84zM840 991h-84v-166h-336v-86h420v252zM840 684h-252
v-141h84v57h84v-117h-252v201h-84v-285h420v285zM840 248h-420v-285h420v285zM756 166v-119h-252v119h252zM840 -94h-420v-84h178l-178 -119v-82h420v82h-258l176 119h82v84z" />
    <glyph glyph-name="fi" unicode="fi" horiz-adv-x="1568" 
d="M242 -2l30 885h-163v293h165q6 282 88.5 394.5t282.5 112.5h219v-264h-221q-36 0 -58 -24.5t-29 -65.5t-6.5 -79t5.5 -79l328 5v-293h-291l31 -885h-381zM1126 1268l15 344h270l14 -344h-299zM1096 -2q20 284 26 392t11.5 292t5.5 434h276q-9 -222 -10 -366.5t14 -342.5
t51 -409h-374z" />
    <glyph glyph-name="fl" unicode="fl" horiz-adv-x="1789" 
d="M242 -2l30 885h-163v293h165q6 282 88.5 394.5t282.5 112.5h219v-264h-221q-36 0 -58 -24.5t-29 -65.5t-6.5 -79t5.5 -79l328 5v-293h-291l31 -885h-381zM1102 0q-9 96 16.5 657t73.5 983h285q-54 -422 -72 -1357h235l50 -283h-588z" />
    <glyph glyph-name="f_f" unicode="ff" horiz-adv-x="1982" 
d="M242 -2l30 885h-163v293h165q6 282 88.5 394.5t282.5 112.5h219v-264h-221q-36 0 -58 -24.5t-29 -65.5t-6.5 -79t5.5 -79l328 5v-293h-291l31 -885h-381zM1233 -2l31 885h-164v293h166q6 282 88 394.5t282 112.5h219v-264h-221q-36 0 -58 -24.5t-29 -65.5t-6.5 -79
t5.5 -79l328 5v-293h-291l31 -885h-381z" />
    <glyph glyph-name="f_f_i" unicode="ffi" horiz-adv-x="2560" 
d="M242 -2l30 885h-163v293h165q6 282 88.5 394.5t282.5 112.5h219v-264h-221q-36 0 -58 -24.5t-29 -65.5t-6.5 -79t5.5 -79l328 5v-293h-291l31 -885h-381zM1233 -2l31 885h-164v293h166q6 282 88 394.5t282 112.5h219v-264h-221q-36 0 -58 -24.5t-29 -65.5t-6.5 -79
t5.5 -79l328 5v-293h-291l31 -885h-381zM2118 1268l14 344h270l15 -344h-299zM2087 -2q20 284 26 392t11.5 292t5.5 434h276q-9 -220 -10 -366t14.5 -343.5t51.5 -408.5h-375z" />
    <glyph glyph-name="f_f_l" unicode="ffl" horiz-adv-x="2781" 
d="M242 -2l30 885h-163v293h165q6 282 88.5 394.5t282.5 112.5h219v-264h-221q-36 0 -58 -24.5t-29 -65.5t-6.5 -79t5.5 -79l328 5v-293h-291l31 -885h-381zM1233 -2l31 885h-164v293h166q6 282 88 394.5t282 112.5h219v-264h-221q-36 0 -58 -24.5t-29 -65.5t-6.5 -79
t5.5 -79l328 5v-293h-291l31 -885h-381zM2093 0q-9 96 16.5 657t73.5 983h285q-54 -422 -72 -1357h236l49 -283h-588z" />
    <glyph glyph-name=".notdef" horiz-adv-x="1259" 
d="M1032 1966v-2519h-799v2519h799zM840 1798h-416v-84h164v-94h-168v-82h420v82h-168v94h168v84zM672 1473h-252v-263h420v86h-168v177zM588 1386v-90h-84v90h84zM840 1143h-420v-84h168v-92h-168v-84h252v176h168v84zM840 991h-84v-166h-336v-86h420v252zM840 684h-252
v-141h84v57h84v-117h-252v201h-84v-285h420v285zM840 248h-420v-285h420v285zM756 166v-119h-252v119h252zM840 -94h-420v-84h178l-178 -119v-82h420v82h-258l176 119h82v84z" />
    <glyph glyph-name=".null" horiz-adv-x="0" 
 />
    <glyph glyph-name="nonmarkingreturn" horiz-adv-x="682" 
 />
    <glyph glyph-name="space" unicode=" " horiz-adv-x="1695" 
 />
    <glyph glyph-name="exclam" unicode="!" horiz-adv-x="690" 
d="M229 1696h353v-1149l-482 -125zM115 -111v396h395v-396h-395z" />
    <glyph glyph-name="quotedbl" unicode="&#x22;" horiz-adv-x="1402" 
d="M281 1536l-74 -236l18 -352h-315l8 299h-2l2 8l8 281h355zM817 1536l-74 -236l19 -352h-316l9 299h-2l2 8l8 281h354z" />
    <glyph glyph-name="numbersign" unicode="#" horiz-adv-x="2125" 
d="M1489 942l-35 -387h625l-84 -287h-565l-35 -413h-371l55 413h-262l-37 -418h-397l61 418h-467l123 287h387l58 387h-506l86 287h461l71 481h283l-41 -481h307l64 485h284l-41 -485h629l-98 -287h-555zM842 555h274l51 387h-293z" />
    <glyph glyph-name="dollar" unicode="$" horiz-adv-x="1536" 
d="M1583 387q0 -164 -149.5 -271t-432.5 -136l3 -175l-254 -10l-2 174q-416 0 -672 131l284 326q27 -18 150.5 -65.5t230.5 -73.5l-4 305l-6 2q-263 44 -382.5 147.5t-119.5 284.5q0 193 129 305.5t365 134.5l-2 181l254 12l2 -191q107 -7 213 -22.5t151 -28.5l-151 -235
q-96 28 -209 45l6 -381q285 -55 440.5 -173t155.5 -286zM567 1055q0 -54 36.5 -93t129.5 -67l-6 309q-67 -29 -113.5 -70.5t-46.5 -78.5zM997 264q89 13 137 53t48 84q0 49 -189 127z" />
    <glyph glyph-name="percent" unicode="%" horiz-adv-x="1640" 
d="M1135 1595h256l-988 -1742h-337l618 1007q-83 -65 -209 -65q-157 0 -247.5 102t-90.5 279q0 167 91.5 266.5t246.5 99.5t246.5 -99.5t91.5 -266.5q0 -74 -14 -129zM475 1036q81 0 119.5 34t38.5 124q0 93 -43.5 148t-114.5 55q-72 0 -114 -54.5t-42 -148.5
q0 -90 37.5 -124t118.5 -34zM1171 772q155 0 246.5 -99.5t91.5 -266.5q0 -177 -90.5 -279t-247.5 -102t-247 102t-90 279q0 168 91 267t246 99zM1171 266q81 0 119.5 34t38.5 124q0 93 -43.5 148t-114.5 55q-72 0 -113.5 -54.5t-41.5 -148.5q0 -90 37 -124t118 -34z" />
    <glyph glyph-name="ampersand" unicode="&#x26;" horiz-adv-x="1640" 
d="M1528 709q31 -208 -144 -424q113 -101 132 -115q-26 -34 -41 -52.5t-23.5 -28.5t-32 -37.5t-53.5 -63.5l-152 131q-74 -56 -146 -91t-120 -40q-131 -56 -299 -56q-183 0 -389 148q-57 41 -104 148t-47 192q0 138 56.5 245t184.5 203l-67 58q-97 83 -118 192t38 221
q40 74 144 127.5t231 65.5q316 30 446 -152q52 -73 64.5 -132t-7.5 -132q-36 -127 -233 -262q-6 -4 -28 -18.5t-32 -22.5l392 -346q73 99 53 242h295zM612 1348q-130 -4 -206 -61q-60 -45 -39 -90q5 -11 16 -21q14 -14 41 -38t70 -63t77 -69q150 82 191 112q74 55 74 105
q0 56 -62.5 92t-161.5 33zM772 285q95 0 205 41l-399 344q-46 -39 -69 -77.5t-23 -91.5t32 -116q22 -43 93.5 -71.5t160.5 -28.5z" />
    <glyph glyph-name="quotesingle" unicode="'" horiz-adv-x="1169" 
d="M778 1536l-73 -236l18 -352h-315l8 299h-2l2 8l8 281h354z" />
    <glyph glyph-name="parenleft" unicode="(" horiz-adv-x="894" 
d="M674 -471l-332 25q-76 183 -136 436t-85 489q-54 250 64.5 589.5t361.5 643.5l276 -31q-205 -315 -298 -549.5t-101 -431.5q25 -607 250 -1171z" />
    <glyph glyph-name="parenright" unicode=")" horiz-adv-x="894" 
d="M221 -471q225 564 250 1171q-8 197 -101 431.5t-298 549.5l276 31q243 -304 361.5 -643.5t64.5 -589.5q-25 -236 -85 -489t-136 -436z" />
    <glyph glyph-name="asterisk" unicode="*" horiz-adv-x="1300" 
d="M532 516v330l-251 -207l-164 240l305 165l-344 136l160 239l282 -172l-31 279l269 59v-340l360 234l39 -262l-289 -156l357 -139l-170 -236l-285 172l31 -283z" />
    <glyph glyph-name="plus" unicode="+" horiz-adv-x="1269" 
d="M1161 696v-262l-356 2v-387h-283v389l-413 2v262l413 -2v404h283v-406z" />
    <glyph glyph-name="comma" unicode="," horiz-adv-x="657" 
d="M485 -14v-2l-86 -299h-315l127 348l2 239h354z" />
    <glyph glyph-name="hyphen" unicode="-" horiz-adv-x="1128" 
d="M109 721h911v-215h-911v215z" />
    <glyph glyph-name="period" unicode="." horiz-adv-x="534" 
d="M109 -55v317h317v-317h-317z" />
    <glyph glyph-name="slash" unicode="/" horiz-adv-x="1040" 
d="M61 -422l582 1868l320 164l-459 -1708z" />
    <glyph glyph-name="zero" unicode="0" horiz-adv-x="1359" 
d="M684 -84q-277 0 -426 216t-149 613q0 400 149 615t428 215q277 0 421 -212.5t144 -617.5q0 -402 -145.5 -615.5t-421.5 -213.5zM684 397q121 0 182.5 113.5t81.5 380.5q0 493 -262 493q-129 0 -191.5 -119.5t-62.5 -373.5q0 -258 61 -376t191 -118zM686 602
q-77 0 -120.5 66t-43.5 172q0 290 164 290q85 0 121.5 -72.5t36.5 -217.5q0 -107 -41.5 -172.5t-116.5 -65.5z" />
    <glyph glyph-name="one" unicode="1" horiz-adv-x="1187" 
d="M109 -2v336l282 8l45 872l-258 -137l35 318q250 153 350 153h178v-1204l338 -10v-336h-970z" />
    <glyph glyph-name="two" unicode="2" horiz-adv-x="1308" 
d="M98 -2l62 297q14 68 81.5 135t229.5 172q85 55 147 104.5t101.5 95t62 79.5t45.5 77q31 67 31 123q0 97 -66.5 155t-179.5 58q-90 0 -196 -36.5t-291 -129.5l20 330q272 117 463 117q29 0 59 -2t85.5 -12.5t103.5 -28t104 -54t97.5 -85.5t73 -126.5t40.5 -172.5
q2 -21 2.5 -40t-5 -62.5t-18.5 -86t-42 -107t-70.5 -130t-109.5 -150t-154 -172.5h400l30 -348h-1106z" />
    <glyph glyph-name="three" unicode="3" horiz-adv-x="1310" 
d="M973 827q124 -40 176.5 -129t52.5 -243q0 -74 -12 -136.5t-32.5 -108.5t-52.5 -83t-65.5 -62t-79.5 -43t-87 -28t-94 -16t-95 -7.5t-96 -1.5q-153 0 -252 20t-242 72l137 410q203 -83 344 -90q105 -6 201 25t96 77q0 90 -77.5 146.5t-204.5 56.5h-258l55 270h242
q282 0 282 191q0 102 -78 143t-237 41q-99 0 -182.5 -16.5t-278.5 -69.5l74 260q255 70 405 70q252 0 402.5 -120t150.5 -322q0 -104 -46 -178.5t-148 -127.5z" />
    <glyph glyph-name="four" unicode="4" horiz-adv-x="1464" 
d="M1356 684v-324l-174 5l18 -367h-393l18 375l-639 16v191l50 71h4l647 891l221 14h16l-2 -2l43 -876zM528 659l314 11l26 499z" />
    <glyph glyph-name="five" unicode="5" horiz-adv-x="1294" 
d="M557 -84q-212 0 -459 82l97 461q149 -80 212.5 -101.5t165.5 -21.5q119 0 194 49t75 125q0 38 -6.5 67t-16.5 49t-29 33.5t-37 21t-48.5 11.5t-55.5 5t-65 1q-148 0 -453 -39l37 877l909 12l10 -260h-661l16 -319h146q275 0 436.5 -132t161.5 -358q0 -264 -167 -413.5
t-462 -149.5z" />
    <glyph glyph-name="six" unicode="6" horiz-adv-x="1359" 
d="M696 -23q-118 0 -207.5 20.5t-162.5 69t-120 127t-72 196t-25 274.5q0 65 4 127.5t19.5 159.5t42 179.5t78 171t120 150t174 101.5t235.5 40q1 0 131 -1t240 -1v-286h-362q-43 0 -71 -1t-64 -4.5t-58.5 -11t-50 -20t-44 -31.5t-33.5 -46t-26 -63t-14.5 -83t-5.5 -105
q17 10 52 30.5t46.5 27t38 18.5t44 15.5t45 7t59.5 3.5q164 0 288 -73t189 -200.5t65 -289.5q0 -247 -149 -374.5t-406 -127.5zM696 293q111 0 173.5 50t68.5 132q5 67 -23.5 135t-87 115t-131.5 47q-106 0 -180 -91t-59 -210q23 -178 239 -178z" />
    <glyph glyph-name="seven" unicode="7" horiz-adv-x="1286" 
d="M1190 1518l-10 -54l-232 -1466h-475l365 1264l-732 28l11 256l989 -26l82 2v-4h2z" />
    <glyph glyph-name="eight" unicode="8" horiz-adv-x="1392" 
d="M696 -63q-280 0 -438.5 125.5t-148.5 357.5q6 147 92.5 240t273.5 135q-171 30 -236 116.5t-55 221.5q14 196 147.5 308.5t364.5 112.5q251 0 378.5 -110.5t133.5 -310.5q4 -134 -49 -218t-149 -108q262 -103 274 -387q9 -231 -150 -357t-438 -126zM696 950
q101 0 166.5 63.5t55.5 160.5q-8 78 -66 125t-156 47t-154 -47t-67 -125q-13 -98 52.5 -161t168.5 -63zM698 285q104 0 178 49.5t74 105.5q0 113 -65.5 173.5t-188.5 60.5t-188.5 -60.5t-65.5 -173.5q0 -57 75.5 -106t180.5 -49z" />
    <glyph glyph-name="nine" unicode="9" horiz-adv-x="1357" 
d="M584 -33q-252 6 -451 49l66 320q200 -46 430 -60q78 -5 128.5 2t89.5 32t59.5 73t27.5 125q-72 -39 -134.5 -51t-150.5 -6q-552 40 -540 561q6 259 149.5 411t403.5 152q302 0 444.5 -202.5t142.5 -627.5q0 -110 -8.5 -203t-25 -165t-40 -130.5t-53.5 -99.5t-66 -73
t-77.5 -51t-87.5 -32.5t-95.5 -17.5t-102.5 -6.5t-109 0.5zM643 754q164 3 241 74.5t64 222.5q-13 154 -97.5 221t-217.5 65q-269 -3 -293 -299q-12 -147 61.5 -217t241.5 -67z" />
    <glyph glyph-name="colon" unicode=":" horiz-adv-x="555" 
d="M102 815v350h351v-350h-351zM102 -66v351h351v-351h-351z" />
    <glyph glyph-name="semicolon" unicode=";" horiz-adv-x="712" 
d="M543 1059v-350h-350v350h350zM514 -14v-2l-86 -299h-315l127 348l2 239h354z" />
    <glyph glyph-name="less" unicode="&#x3c;" horiz-adv-x="1587" 
d="M162 408l-64 -31l-4 49l-106 33l102 47l-14 217l1356 596l16 -297l-854 -408l913 -249l2 -363z" />
    <glyph glyph-name="equal" unicode="=" horiz-adv-x="1239" 
d="M188 881l865 53l100 -268l-1077 -41zM188 420l865 53l100 -268l-1077 -41z" />
    <glyph glyph-name="greater" unicode="&#x3e;" horiz-adv-x="1648" 
d="M1524 426l-4 -49l-64 31l-1347 -406l2 363l913 249l-854 408l16 297l1356 -596l-14 -217l102 -47z" />
    <glyph glyph-name="question" unicode="?" horiz-adv-x="1763" 
d="M700 352v205v242l37 51q192 70 233 94q52 30 62 73q4 17 4 42q0 130 -88 149q-65 13 -103.5 14.5t-73.5 -13.5t-61 -40.5t-69 -78.5q-15 19 -32.5 42t-21.5 28.5t-16.5 19.5t-24 25t-36.5 36l-2 76q89 95 217 128t270 -1q134 -31 205.5 -124.5t71.5 -238.5
q0 -161 -52 -254.5t-178 -156.5v-168q0 -41 -44.5 -73.5t-104.5 -48.5t-114 -23.5t-79 -4.5zM711 -47v317h317v-317h-317z" />
    <glyph glyph-name="at" unicode="@" horiz-adv-x="1140" 
d="M930 213l45 -152q5 -11 0 -22t-17 -14q-148 -58 -346 -58q-118 1 -209 34.5t-144 89t-83.5 127t-31.5 151t16 158.5t55 151.5t90 128.5q51 55 128.5 84.5t149 31t121.5 -3.5t70 -12q150 -53 202 -207t-15 -348q-18 -47 -72 -91t-96 -44q-60 0 -86 35.5t-17 101.5h2v2
q-57 -47 -131 -47q-101 0 -149 58t-43 165q5 108 54.5 179.5t133.5 70.5q62 0 113 -28l-4 24h94l51 -448q13 13 41 59q32 51 42.5 88t10.5 98q0 111 -78.5 176.5t-212.5 65.5q-53 0 -100 -18t-77.5 -44t-55 -59.5t-37 -59.5t-18.5 -48q-1 -5 -6 -21t-6.5 -22t-5 -21
t-4.5 -24t-3 -25.5t-2 -30.5t1 -32.5t3 -38.5q9 -92 121 -140q64 -28 126.5 -37t101.5 -6t126 15q53 6 115 22q27 10 37 -14zM551 459q91 0 116.5 22t6.5 86q-2 6 -8 29t-8.5 30.5t-11.5 23t-19 21.5t-27.5 11.5t-40.5 5.5q-33 0 -55 -24t-45 -105q-17 -66 0 -83t92 -17z
M797 326q3 -3 8 0h-8z" />
    <glyph glyph-name="A" unicode="A" horiz-adv-x="1695" 
d="M82 -55l635 1603h264l633 -1603h-414l-57 243h-588l-76 -243h-397zM649 537h400l-203 645z" />
    <glyph glyph-name="B" unicode="B" horiz-adv-x="1406" 
d="M109 -55v1603h522q253 0 394.5 -111.5t141.5 -312.5q0 -212 -135 -309q131 -54 198.5 -155t67.5 -242q0 -99 -17.5 -175t-40.5 -126t-73.5 -84t-88.5 -51t-114.5 -25.5t-123 -10t-140.5 -1.5h-591zM666 1303h-244v-371h244q125 0 181 41t56 129q0 97 -60.5 149t-176.5 52
zM690 657h-268v-305h268q165 0 220 31.5t55 124.5q0 37 -70 98q-57 51 -205 51z" />
    <glyph glyph-name="C" unicode="C" horiz-adv-x="1468" 
d="M1350 1499l-50 -287q-144 31 -233 41t-182 0q-88 -10 -158.5 -28t-134.5 -52t-107 -81.5t-67.5 -118t-22.5 -160.5q5 -203 126.5 -298t383.5 -95q248 0 412 84v-527h-692q-79 9 -146 28t-129 52t-107.5 80t-82 111.5t-52 147t-18.5 187t19 230.5q28 177 82 306t145 222
t223.5 141t312.5 54q229 8 478 -37z" />
    <glyph glyph-name="D" unicode="D" horiz-adv-x="1583" 
d="M109 -2v1550h471q456 0 675.5 -196t219.5 -604q0 -397 -129 -564q-96 -125 -297 -162q-127 -24 -418 -24h-51h-471zM432 444h189q317 0 448 82.5t131 278.5q0 246 -143 367.5t-436 121.5h-189v-850z" />
    <glyph glyph-name="E" unicode="E" horiz-adv-x="1316" 
d="M106 -55l54 1573l1036 32l-74 -260l-663 -37v-338l502 23v-279l-502 -32v-262h671l93 -420h-1117z" />
    <glyph glyph-name="F" unicode="F" horiz-adv-x="1193" 
d="M104 -55l86 1577l895 28v-243l-600 -37l-34 -289l540 37v-320l-536 -36l34 -717h-385z" />
    <glyph glyph-name="G" unicode="G" horiz-adv-x="1718" 
d="M1184 399v86l-273 37l-30 305l686 -77l53 -304l-145 3l20 -332q-26 -6 -131 -45.5t-219.5 -65.5t-235.5 -26q-183 0 -335 62.5t-253 171t-156.5 255.5t-55.5 317q0 120 27 230t88.5 210.5t152.5 174.5t227.5 118t304.5 44q98 0 241.5 -12t215.5 -25l39 -281
q-208 62 -479 62q-132 0 -221.5 -25t-152.5 -86.5t-91.5 -166t-28.5 -261.5q9 -236 116.5 -326t377.5 -90q187 0 258 47z" />
    <glyph glyph-name="H" unicode="H" horiz-adv-x="1579" 
d="M1473 -2h-441l12 330h-524l12 -330h-426l46 1550h319l33 -813h553l28 813h320z" />
    <glyph glyph-name="I" unicode="I" horiz-adv-x="614" 
d="M102 -2q33 280 40.5 610t-2.5 557t-27 383h342q-35 -713 57 -1550h-410z" />
    <glyph glyph-name="J" unicode="J" horiz-adv-x="985" 
d="M487 176l129 1360h349l-158 -1477q-12 -114 -47 -201.5t-88 -142.5t-122.5 -88t-151 -39.5t-173.5 2.5l-354 43l74 414l211 -53q30 -7 47 -11t53.5 -8t61 -1t57 14.5t53 33.5t37.5 61t22 93z" />
    <glyph glyph-name="K" unicode="K" horiz-adv-x="1495" 
d="M102 -2l144 1550h315l-47 -587l330 587h391l-526 -870l759 -680h-643l-346 422v-422h-377z" />
    <glyph glyph-name="L" unicode="L" horiz-adv-x="1288" 
d="M106 -2l58 1550h268v-1196l752 33v-387h-1078z" />
    <glyph glyph-name="M" unicode="M" horiz-adv-x="1789" 
d="M106 -2l58 1550h391l350 -815l340 815h371l67 -1550h-446l92 987l-276 -911h-287l-326 903l76 -979h-410z" />
    <glyph glyph-name="N" unicode="N" horiz-adv-x="1550" 
d="M104 0l127 1520h338l492 -1033l88 1049h297l-88 -1536h-420l-403 952l36 -952h-467z" />
    <glyph glyph-name="O" unicode="O" horiz-adv-x="1710" 
d="M856 1575q225 0 397 -103.5t263.5 -293t85.5 -435.5q-4 -156 -20.5 -271t-53.5 -205.5t-91.5 -149t-138.5 -96.5t-190.5 -53.5t-251.5 -14.5q-212 2 -352.5 43.5t-229.5 137.5t-127 243t-38 368q0 248 92 436t261.5 291t393.5 103zM856 1321q-193 0 -308.5 -156.5
t-115.5 -419.5q0 -182 97 -258.5t327 -76.5t326 76t96 259q0 264 -115 420t-307 156z" />
    <glyph glyph-name="P" unicode="P" horiz-adv-x="1323" 
d="M104 -55l93 1753h432q255 0 414.5 -136t170.5 -352q5 -98 -29.5 -192t-100.5 -171t-173.5 -127.5t-238.5 -57.5l-187 -11l41 -706h-422zM471 1079l217 11q64 3 106.5 9.5t79 20.5t56.5 36.5t29.5 58t7.5 85.5q-3 66 -91 110t-239 44h-166v-375z" />
    <glyph glyph-name="Q" unicode="Q" horiz-adv-x="1779" 
d="M1116 -319l-209 237q-390 -27 -594 189t-204 638q0 175 57 329t156 264t238 173.5t296 63.5q222 0 390 -102t258.5 -290t90.5 -438q0 -203 -53 -360.5t-170 -298.5l369 -405h-625zM725 375l74 2l78 180q214 -123 329 -123q15 0 30 36t25.5 109.5t10.5 165.5
q0 261 -111 408t-305 147q-191 0 -304.5 -156t-113.5 -399q0 -69 7.5 -124.5t21 -93t32 -66.5t40 -44t45 -26t48 -13t48 -4t45.5 1z" />
    <glyph glyph-name="R" unicode="R" horiz-adv-x="1402" 
d="M989 723q124 -112 187 -301l137 -414h-500l21 377q2 49 -11 95t-41 79.5t-72 41.5t-102 -19l-100 -50l37 -524h-441l101 1528h416q257 0 394.5 -120.5t137.5 -352.5q0 -249 -164 -340zM641 1331h-199v-446h199q99 0 178.5 55.5t79.5 122.5q0 268 -258 268z" />
    <glyph glyph-name="S" unicode="S" horiz-adv-x="1556" 
d="M739 -33q-58 0 -85.5 0.5t-116.5 7t-154 19.5t-153.5 42t-159.5 70l264 349q25 -21 146 -74.5t222 -79.5q104 -26 178 -23.5t122 27.5t71 57t23 66q0 30 -62.5 72t-130.5 71.5t-102 36.5l-123 25q-243 47 -354 157.5t-111 303.5q0 232 150.5 354.5t420.5 122.5
q117 0 261.5 -20t199.5 -40l-141 -251q-67 25 -159 42t-138 17q-56 0 -122.5 -30.5t-112.5 -77t-46 -87.5q0 -68 51 -115.5t183 -76.5l121 -25q280 -55 433.5 -181.5t153.5 -313.5q0 -205 -188 -325t-541 -120z" />
    <glyph glyph-name="T" unicode="T" horiz-adv-x="1591" 
d="M109 1260v282h1374v-282l-529 20l41 -1282h-397l39 1282z" />
    <glyph glyph-name="U" unicode="U" horiz-adv-x="1548" 
d="M141 559l-35 989h410l-31 -825q-4 -46 -1.5 -83t3.5 -67t10 -53.5t17.5 -40.5t26.5 -29.5t37.5 -20.5t49.5 -12.5t63 -6.5t79 -2q45 0 78 2t63 6.5t49 12.5t37 20.5t26 29.5t17 40.5t9.5 53.5t3 67t-1.5 83l-31 825h422l-47 -989q-5 -110 -18 -195t-32.5 -145.5
t-46.5 -104t-61 -69.5t-74.5 -41.5t-88 -21t-101 -7t-113.5 0.5q-59 1 -90 1t-91 -1h-130.5t-114 10.5t-96.5 31.5t-78.5 62.5t-59.5 104t-40 156t-19 218.5z" />
    <glyph glyph-name="V" unicode="V" horiz-adv-x="1695" 
d="M1087 -55h-499l-500 1603h326l405 -1013h21l446 1013h322z" />
    <glyph glyph-name="W" unicode="W" horiz-adv-x="2217" 
d="M453 -2l-338 1550h325l236 -977l307 596h244l278 -612l252 993h348l-383 -1550h-376l-238 643l-256 -643h-399z" />
    <glyph glyph-name="X" unicode="X" horiz-adv-x="1615" 
d="M1556 -2h-481l-272 444l-279 -444h-467l555 756l-487 794h328l364 -512l377 514h307l-493 -782z" />
    <glyph glyph-name="Y" unicode="Y" horiz-adv-x="1564" 
d="M588 500l-512 1048h338l370 -659l367 659h338l-518 -1048l18 -502h-444z" />
    <glyph glyph-name="Z" unicode="Z" horiz-adv-x="1648" 
d="M373 1206l-162 330h1329v-295l-772 -887h616l134 -395l-1409 -16v366l856 887z" />
    <glyph glyph-name="bracketleft" unicode="[" horiz-adv-x="964" 
d="M856 1233h-362l-97 -1258h373v-309h-666l138 1823h614v-256z" />
    <glyph glyph-name="backslash" unicode="\" horiz-adv-x="966" 
d="M188 1782l674 -1825l-205 -483l-551 1820z" />
    <glyph glyph-name="bracketright" unicode="]" horiz-adv-x="964" 
d="M723 1489l137 -1823h-665v309h372l-96 1258h-362v256h614z" />
    <glyph glyph-name="asciicircum" unicode="^" horiz-adv-x="753" 
d="M305 1219h158l92 -152l363 -358h-263l-280 190l-277 -190h-262l365 358z" />
    <glyph glyph-name="underscore" unicode="_" horiz-adv-x="1386" 
d="M12 -150l1393 -4l-33 -297l-1392 5z" />
    <glyph glyph-name="grave" unicode="`" horiz-adv-x="839" 
d="M377 1245l-350 338h317l528 -393z" />
    <glyph glyph-name="a" unicode="a" horiz-adv-x="1343" 
d="M606 -41q-255 0 -375.5 147t-109.5 418q5 132 39 247.5t92.5 203.5t147.5 138t196 48q70 -2 151 -23t136 -53l-9 66h238l131 -1153h-303v78q-144 -117 -334 -117zM582 338q95 0 157 8t103 26t57 51t14.5 77.5t-20.5 111.5q-6 20 -15.5 58t-15 57.5t-17 50.5t-23.5 48
t-32 37.5t-45 31t-61 18t-80 7.5q-32 0 -54.5 -4.5t-51 -23t-51.5 -52.5t-48.5 -96t-48.5 -150q-15 -59 -21 -98t0 -69t21 -46.5t49 -26.5t75 -13t108 -3z" />
    <glyph glyph-name="b" unicode="b" horiz-adv-x="1337" 
d="M713 -33q-89 -10 -169 -3.5t-144 29t-112.5 70.5t-74.5 119q-22 51 -37 244t-38 576.5t-48 676.5h322v-647q0 54 94.5 102.5t206.5 51.5q144 3 262.5 -80t189.5 -226.5t84 -320.5q21 -277 -116 -421t-420 -171zM754 354q112 9 170 68.5t75 181.5q-2 140 -66.5 219.5
t-176.5 79.5q-115 0 -178.5 -81t-77.5 -230q-7 -75 1.5 -120.5t39.5 -72.5t80 -36t133 -9z" />
    <glyph glyph-name="c" unicode="c" horiz-adv-x="1214" 
d="M711 -12q-602 0 -602 571q0 311 166 483.5t460 159.5q77 -3 148.5 -16.5t81.5 -32.5v-252q-146 45 -271 39q-47 -2 -83.5 -8t-64.5 -19t-47.5 -27.5t-33 -39.5t-22 -50t-12.5 -65t-5.5 -77t-1.5 -93q7 -96 45.5 -165.5t95.5 -101t132 -18.5t151 74l233 -262
q-113 -61 -188 -80.5t-182 -19.5z" />
    <glyph glyph-name="d" unicode="d" horiz-adv-x="1363" 
d="M625 -27q-107 0 -196 31t-151 85t-105.5 128.5t-64 160.5t-20.5 181q0 170 71.5 316.5t195 232.5t268.5 86q37 0 73.5 -6.5t63.5 -16.5t52.5 -21.5t43.5 -22t34 -17.5t26.5 -8.5t18 5t11 24t4.5 47.5l13 462h294l-51 -1159l27 -483l-307 8l20 90q-21 -12 -63 -36.5
t-53.5 -30.5t-40 -21t-40 -18l-34.5 -9t-43 -7t-47 -1zM604 360q136 0 193 47t57 173q0 150 -69 239.5t-175 89.5q-108 0 -183 -90.5t-75 -238.5q0 -125 58 -172.5t194 -47.5z" />
    <glyph glyph-name="e" unicode="e" horiz-adv-x="1339" 
d="M1239 594l-850 -57q8 -57 36 -99t76.5 -69t107.5 -43t141 -27q133 -17 222.5 3t239.5 97v-338q-231 -108 -467 -108q-295 0 -465.5 155.5t-170.5 440.5v2q12 302 174 476.5t432 174.5h4q230 -19 354.5 -165t165.5 -443zM442 823l516 19q-31 68 -96 109t-147 44
q-94 3 -170.5 -47.5t-102.5 -124.5z" />
    <glyph glyph-name="f" unicode="f" horiz-adv-x="991" 
d="M242 -2l30 885h-163v293h165q6 282 88.5 394.5t282.5 112.5h219v-264h-221q-36 0 -58 -24.5t-29 -65.5t-6.5 -79t5.5 -79l328 5v-293h-291l31 -885h-381z" />
    <glyph glyph-name="g" unicode="g" horiz-adv-x="1349" 
d="M961 1176h282l-45 -1037q-17 -371 -160 -550t-422 -179q-123 0 -252.5 33.5t-226.5 91.5l109 381q114 -74 199 -115t155 -41q88 0 155.5 63t114.5 163q-161 -41 -247 -41q-230 0 -372 173.5t-142 454.5t142 455t372 174q55 0 100 -9.5t83.5 -31.5t62 -39.5t61.5 -50.5z
M573 354q168 0 220.5 44t52.5 186q0 177 -66.5 270.5t-191.5 93.5q-124 0 -191 -93t-67 -269q5 -55 11 -89.5t18.5 -62.5t27 -42t42.5 -23.5t60 -12t84 -2.5zM915 -14q3 5 0 8v-8z" />
    <glyph glyph-name="h" unicode="h" horiz-adv-x="1384" 
d="M1233 680l47 -682h-410q32 155 53 269.5t34 211.5t16 162.5t-5 117t-24 81t-46 48.5t-65.5 25.5t-87.5 6.5q-72 0 -117.5 -12t-82.5 -48.5t-52.5 -98.5t-18 -166.5t11.5 -248t44 -348.5h-426l127 1696h295l-37 -609q69 53 135 73t162 20q155 0 245.5 -44.5t139 -152.5
t62.5 -301z" />
    <glyph glyph-name="i" unicode="i" horiz-adv-x="577" 
d="M135 1268l15 344h270l14 -344h-299zM104 -2q20 284 26 392t11.5 292t5.5 434h277q-9 -222 -10 -366.5t14 -342.5t51 -409h-375z" />
    <glyph glyph-name="j" unicode="j" horiz-adv-x="872" 
d="M440 1270v317h318v-317h-318zM383 -127q44 58 58.5 244t30.5 771q5 150 7 232h287l-76 -1153q-14 -205 -31.5 -287t-58.5 -126q-44 -49 -162.5 -62.5t-320.5 0.5l69 356q20 -7 42 -15.5t32 -13.5t24.5 -9t18.5 -5.5t13.5 0t11.5 3t10.5 9t11.5 13t14 19.5t19 24z" />
    <glyph glyph-name="k" unicode="k" horiz-adv-x="1351" 
d="M106 -2l91 1681h297l-50 -843l215 241h340l-372 -461l698 -618h-586l-286 344l14 -344h-361z" />
    <glyph glyph-name="l" unicode="l" horiz-adv-x="798" 
d="M111 0q-9 96 16.5 657t73.5 983h284q-53 -413 -71 -1357h235l49 -283h-587z" />
    <glyph glyph-name="m" unicode="m" horiz-adv-x="2097" 
d="M1182 1018q156 211 364 184q82 -11 157 -55t132 -111.5t92 -160.5t39 -197l25 -680h-396l76 700q0 125 -32.5 186.5t-112.5 73.5q-103 15 -159 -66.5t-85 -270.5l-92 -623h-371l158 698q21 92 -34 159t-144 95q-115 36 -186.5 -30t-84.5 -228l-57 -694h-369l146 1178h295
l-6 -62q120 91 284 88q117 -2 210.5 -49t150.5 -135z" />
    <glyph glyph-name="n" unicode="n" horiz-adv-x="1370" 
d="M1217 666l49 -668h-406l70 700q24 234 -205 234q-131 0 -206.5 -75t-65.5 -210l53 -649h-402l91 1196h229l25 -92q134 85 296 90q225 7 338.5 -121.5t133.5 -404.5z" />
    <glyph glyph-name="o" unicode="o" horiz-adv-x="1355" 
d="M678 -84q-264 0 -416.5 172.5t-152.5 470.5q0 284 154 452.5t415 168.5t415 -168.5t154 -452.5q0 -297 -152.5 -470t-416.5 -173zM678 324q137 0 200.5 57.5t63.5 210.5q0 158 -71.5 250t-192.5 92q-122 0 -193 -92t-71 -250q0 -153 63.5 -210.5t200.5 -57.5z" />
    <glyph glyph-name="p" unicode="p" horiz-adv-x="1497" 
d="M551 33l-76 -504l-379 -23l176 983l-36 656h286l21 -82q131 131 331 125q228 -6 371.5 -179.5t143.5 -449.5q0 -288 -136 -455t-379 -167q-185 0 -323 96zM1159 592q0 183 -66.5 272.5t-191.5 89.5q-123 0 -189.5 -89.5t-66.5 -272.5q0 -153 56 -207.5t210 -54.5
q147 0 197.5 54t50.5 208z" />
    <glyph glyph-name="q" unicode="q" horiz-adv-x="1576" 
d="M862 -502l47 506q-131 -67 -286 -67q-230 0 -372 170t-142 452q0 281 138.5 451.5t368.5 179.5q108 4 187.5 -31t152.5 -117v134h295l-77 -799l-21 -447l68 21l252 88l-19 -369zM594 336q157 0 210.5 50t53.5 200q0 174 -69.5 270t-194.5 96q-122 0 -187 -95t-65 -271
q0 -151 50 -200.5t202 -49.5z" />
    <glyph glyph-name="r" unicode="r" horiz-adv-x="1048" 
d="M903 1182l45 -312q-109 18 -187 18t-126.5 -16t-77.5 -47t-40 -76.5t-13.5 -102.5t0.5 -126q3 -97 14 -173.5t62 -348.5h-484q71 327 89 542t18 634l301 -11v-63q73 43 156.5 59.5t242.5 22.5z" />
    <glyph glyph-name="s" unicode="s" horiz-adv-x="1288" 
d="M1065 1126l-80 -202q-103 59 -283 75q-29 3 -47 4t-47 0.5t-47.5 -4.5t-40 -13.5t-33 -24.5t-17.5 -40t-3 -57q3 -29 25.5 -50t65 -35t82 -23.5t100 -21.5t96.5 -21q96 -25 169.5 -66.5t113.5 -84t65 -89t31.5 -78t5.5 -53.5q-4 -74 -40 -140.5t-103 -121.5t-177 -88.5
t-248 -34.5q-174 -2 -331 36.5t-248 110.5l274 304q56 -51 121.5 -82t167.5 -41q6 -1 25.5 -3t28.5 -3t27.5 -2t28.5 1t25.5 4.5t25 9t20.5 15.5t19 23t13 32q4 23 6 39t-7.5 30t-18.5 23t-28 17.5t-36 14t-42 11t-46.5 10t-49.5 11t-50 12.5q-151 43 -249 140.5t-98 236.5
q0 45 11 83.5t41.5 77t79.5 64.5t130 42t187 14q94 -2 203.5 -18t181.5 -44z" />
    <glyph glyph-name="t" unicode="t" horiz-adv-x="1159" 
d="M612 317q150 0 367 2l22 -319h-565q-70 6 -89 35.5t-17 107.5q0 9 -1 113t0 284.5t7 362.5h-297l106 248h201q5 122 19 291l301 123l-19 -414h314l65 -248h-389z" />
    <glyph glyph-name="u" unicode="u" horiz-adv-x="1339" 
d="M600 -35q-228 0 -330.5 110.5t-117.5 362.5l-48 738h265l47 -564q8 -105 30.5 -158t66 -77.5t130.5 -34.5q50 -9 91 -2t70 34.5t47.5 95t25.5 179.5l22 527h289l45 -1176h-338l2 39q-102 -74 -297 -74z" />
    <glyph glyph-name="v" unicode="v" horiz-adv-x="1544" 
d="M549 -2l-66 281l-405 897h313l400 -754l360 754h315l-401 -897l-45 -281h-471z" />
    <glyph glyph-name="w" unicode="w" horiz-adv-x="1830" 
d="M414 -55l-322 1231h318l182 -637l229 383h189l209 -383l202 637h318l-322 -1231h-332l-170 325l-178 -325h-323z" />
    <glyph glyph-name="x" unicode="x" horiz-adv-x="1615" 
d="M1475 -2h-439l-239 348l-265 -348h-440l522 612l-374 545h338l239 -309l264 309h330l-412 -543z" />
    <glyph glyph-name="y" unicode="y" horiz-adv-x="1417" 
d="M1331 1149l-442 -1380q-49 -155 -182 -254t-314 -99h-223v355h184q71 0 142.5 38.5t107.5 103t-2 148.5l-539 1088h324l414 -700l219 700h311z" />
    <glyph glyph-name="z" unicode="z" horiz-adv-x="1374" 
d="M291 932v248h938l41 -211l-649 -666h487l170 -305h-1180l64 299l684 635h-555z" />
    <glyph glyph-name="braceleft" unicode="{" horiz-adv-x="1148" 
d="M694 924q-7 -132 -42 -208.5t-103 -117.5q62 -40 85 -107t25 -192l-12 -250q3 -91 29.5 -114t130.5 -23h123l12 -320l-180 7q-137 3 -221 23.5t-138 71.5t-74.5 131t-19.5 208l13 235q-1 47 -1.5 71.5t-5 48t-9 32t-17 15.5t-25.5 8t-39 1h-116l2 60q-2 0 -6.5 -1
t-6.5 -1l6 219l9 -2l2 59h112q6 0 16 1q79 5 93.5 25.5t21.5 135.5v6l11 240q7 123 32.5 198.5t83.5 124t146 67.5t229 21h195l-51 -251h-111q-50 -3 -74.5 -5t-49 -10.5t-32.5 -16t-16.5 -31t-10 -44.5t-3.5 -68z" />
    <glyph glyph-name="bar" unicode="|" horiz-adv-x="524" 
d="M164 1489h254l-58 -1851h-254z" />
    <glyph glyph-name="braceright" unicode="}" horiz-adv-x="1148" 
d="M1051 502q-2 0 -6.5 1t-6.5 1l2 -60h-116q-26 0 -39 -1t-25.5 -8t-17 -15.5t-9 -32t-5 -48t-1.5 -71.5l13 -235q1 -128 -19.5 -208t-74.5 -131t-138 -71.5t-221 -23.5l-180 -7l12 320h123q104 0 130.5 23t29.5 114l-13 250q2 125 25.5 192t85.5 107q-68 41 -103 117.5
t-42 208.5l-13 247q-2 47 -3.5 68t-10 44.5t-16.5 31t-32.5 16t-49 10.5t-74.5 5h-111l-51 251h195q141 -2 229 -21t146 -67.5t83.5 -124t32.5 -198.5l11 -240q7 -111 17 -133q11 -25 50 -30q11 -2 64 -5h112l2 -59l8 2z" />
    <glyph glyph-name="asciitilde" unicode="~" horiz-adv-x="806" 
d="M256 422h-168l-55 59q14 207 65.5 283t182.5 76q51 0 100 -32t78 -70.5t52.5 -70.5t29.5 -32q13 0 19 5.5t7.5 22t1 36.5t0 60t4.5 81h146l55 -56q-3 -213 -51 -289t-180 -73q-45 1 -87.5 23t-72 53.5t-52 63t-36 53.5t-16.5 22q-6 0 -11.5 -18.5t-9.5 -70t-2 -126.5z
" />
    <glyph glyph-name="exclamdown" unicode="&#xa1;" horiz-adv-x="1533" 
d="M537 1636h395v-395h-395v395zM651 -170l-129 1274l482 -125v-1149h-353z" />
    <glyph glyph-name="cent" unicode="&#xa2;" horiz-adv-x="1193" 
d="M1081 88q-113 -61 -188 -80.5t-182 -19.5h-35l-37 -310l-252 23l41 330q-319 113 -319 528q0 263 120 429t338 204l43 348l252 -22l-39 -324q128 -15 142 -41v-252q-92 30 -172 37l-80 -659q64 15 135 71zM424 561q9 -98 47 -170l64 516q-70 -33 -90.5 -109t-20.5 -237z
" />
    <glyph glyph-name="sterling" unicode="&#xa3;" horiz-adv-x="1415" 
d="M1186 195l170 -250h-1247v323q106 37 163.5 61.5t100 55.5t56 65t11.5 85v-11l-34 111h-263v196h201l-72 232q-59 187 -50 283t93 157q163 117 335.5 141t327 -49t261.5 -235l-231 -64q-89 76 -190.5 105t-191.5 8t-149 -88q-22 -24 -20 -63.5t30 -112.5l117 -314h451
v-196h-375q89 -254 -23 -383q93 -1 193.5 -12.5t335.5 -44.5z" />
    <glyph glyph-name="currency" unicode="&#xa4;" horiz-adv-x="1372" 
d="M1286 393l-233 -237l-162 159q-92 -47 -205 -47t-205 47l-162 -159l-233 237l168 170q-31 79 -31 168q0 111 49 209l-141 141l234 238l155 -156q79 31 166 31t166 -31l156 156l233 -238l-141 -141q49 -98 49 -209q0 -89 -31 -168zM684 623q65 0 111.5 46.5t46.5 112.5
q0 65 -46 111.5t-112 46.5q-65 0 -111.5 -46t-46.5 -112t46 -112.5t112 -46.5z" />
    <glyph glyph-name="yen" unicode="&#xa5;" horiz-adv-x="1564" 
d="M1282 549l-319 -12l-7 -195l226 14l100 -268l-334 -12l-8 -273h-383l8 258l-360 -14l112 256l256 16l7 203l-375 -14l112 256l269 16l2 43l-533 725h351l378 -409l375 409h352l-540 -727v-16l211 12z" />
    <glyph glyph-name="brokenbar" unicode="&#xa6;" horiz-adv-x="524" 
d="M418 1489l-21 -670l-10 -346l-27 -835h-254l25 800l10 320l23 731h254zM285 764l-33 -2l-8 -254l35 10z" />
    <glyph glyph-name="section" unicode="&#xa7;" horiz-adv-x="1206" 
d="M1098 635q0 -124 -24.5 -196.5t-76.5 -108.5q58 -74 58 -166q0 -140 -128.5 -221.5t-369.5 -81.5q-294 0 -459 96l181 238q17 -15 99.5 -52t151.5 -55q127 -33 198 1t71 87q0 40 -142 103h-32q-250 0 -367.5 96.5t-60.5 255.5q0 175 122 256q-77 80 -77 215
q0 159 112 252.5t301 93.5q234 0 404 -201l-123 -223q-64 117 -118 159t-146 42q-101 0 -158 -28t-57 -75q0 -34 49 -65t137 -49l82 -17q373 -74 373 -356zM580 770l-29 6q-53 -15 -96 -53t-43 -72q0 -35 16 -59q52 -16 123 -29.5t119 -13.5q70 0 99 7.5t40 26t14 64.5
q2 36 -35.5 62.5t-123.5 44.5z" />
    <glyph glyph-name="dieresis" unicode="&#xa8;" horiz-adv-x="1091" 
d="M109 1192v317h317v-317h-317zM666 1192v317h317v-317h-317z" />
    <glyph glyph-name="copyright" unicode="&#xa9;" horiz-adv-x="1101" 
d="M551 1513q119 0 221 -59t161.5 -160t59.5 -219q0 -185 -129 -314.5t-313 -129.5q-185 0 -313.5 129t-128.5 315q0 181 129.5 309.5t312.5 128.5zM551 811q109 0 186.5 77.5t77.5 186.5q0 69 -33 128t-88 95v-88q-60 18 -104 15q-68 -3 -86.5 -33t-18.5 -113
q6 -77 54 -103.5t110 21.5l90 -100q-44 -24 -73 -31.5t-70 -7.5q-234 0 -234 219q0 121 64.5 187.5t177.5 60.5q17 0 49 -4q-55 20 -102 20q-111 0 -187.5 -77t-76.5 -189q0 -109 77.5 -186.5t186.5 -77.5z" />
    <glyph glyph-name="ordfeminine" unicode="&#xaa;" horiz-adv-x="1343" 
d="M639 844q-134 0 -197 77t-57 218q6 144 71.5 239.5t176.5 94.5q89 -4 149 -41l-4 34h125l68 -604h-158v41q-76 -59 -174 -59zM627 1040q120 0 153 29.5t8 114.5q-3 10 -9 35t-9 34.5t-10.5 28.5t-17 27.5t-24 18.5t-34.5 14t-47 4q-21 0 -35.5 -4.5t-32 -20.5t-34 -52
t-31.5 -93q-23 -88 0 -112t123 -24z" />
    <glyph glyph-name="guillemotleft" unicode="&#xab;" horiz-adv-x="1093" 
d="M530 -41l-516 496l56 153l557 463l-15 -293l-290 -241l278 -265zM987 -49l-516 495l55 154l557 463l-14 -293l-291 -242l279 -264z" />
    <glyph glyph-name="logicalnot" unicode="&#xac;" horiz-adv-x="1251" 
d="M1145 61h-332l-4 379l-700 25v299l1009 -82v-2z" />
    <glyph glyph-name="uni00AD" unicode="&#xad;" 
d="M160 721h911v-215h-911v215z" />
    <glyph glyph-name="registered" unicode="&#xae;" horiz-adv-x="1101" 
d="M551 1513q119 0 221 -59t161.5 -160t59.5 -219q0 -185 -129 -314.5t-313 -129.5q-185 0 -313.5 129t-128.5 315q0 181 129.5 309.5t312.5 128.5zM731 883q84 77 84 192q0 110 -77.5 188t-186.5 78q-69 0 -125 -30h109q74 0 113.5 -35t39.5 -102q0 -72 -47 -99
q34 -27 53 -86zM287 1075q0 -61 26.5 -115t71.5 -90l29 433q-58 -34 -92.5 -95t-34.5 -133zM483 1122h58q27 0 50 16.5t23 35.5q0 77 -73 77h-58v-129zM387 868q69 -57 164 -57t164 57h-125l6 109q2 32 -16.5 52.5t-49.5 4.5l-28 -14l10 -152h-125z" />
    <glyph glyph-name="macron" unicode="&#xaf;" horiz-adv-x="1052" 
d="M184 1442l686 39l80 -197l-856 -31z" />
    <glyph glyph-name="degree" unicode="&#xb0;" horiz-adv-x="1101" 
d="M551 631q-185 0 -313.5 129t-128.5 315q0 118 58.5 218.5t160.5 159.5t223 60q119 1 221 -57.5t161.5 -160t59.5 -220.5q0 -185 -129 -314.5t-313 -129.5zM559 944q67 0 115.5 48t48.5 114q0 69 -48 116.5t-116 47.5t-116 -47.5t-48 -116.5q0 -66 48.5 -114t115.5 -48z
" />
    <glyph glyph-name="plusminus" unicode="&#xb1;" horiz-adv-x="1269" 
d="M805 768l356 -2v-209l-356 2v-309h-283v311l-413 2v209l413 -2v322h283v-324zM190 127l865 45l100 -233l-1077 -35z" />
    <glyph glyph-name="uni00B2" unicode="&#xb2;" horiz-adv-x="1308" 
d="M395 950l27 133q6 30 36 60t105 80q72 46 105.5 82t54.5 77q14 25 14 56q0 43 -29.5 69.5t-80.5 26.5q-40 0 -87.5 -16.5t-133.5 -59.5l10 150q127 53 209 53q20 0 41.5 -2t60 -14.5t67.5 -33.5t54 -64.5t31 -102.5q9 -145 -181 -338h181l14 -156h-498z" />
    <glyph glyph-name="uni00B3" unicode="&#xb3;" horiz-adv-x="1310" 
d="M811 1309q59 -20 84 -62t25 -114q0 -62 -18.5 -106.5t-45 -68t-69 -36.5t-76.5 -16t-82 -3q-72 0 -119 9.5t-115 33.5l64 195q107 -41 164 -43q49 -3 95 12t46 37q0 42 -37 69t-98 27h-121l24 127h115q135 0 135 90q0 49 -37 68.5t-112 19.5q-63 0 -194 -35
q-16 -4 -25 -6l35 123q121 33 192 33q120 0 191 -57t71 -152q0 -50 -21.5 -84.5t-70.5 -60.5z" />
    <glyph glyph-name="acute" unicode="&#xb4;" horiz-adv-x="587" 
d="M285 1559h215l-140 -426h-284z" />
    <glyph glyph-name="uni00B5" unicode="&#xb5;" horiz-adv-x="1339" 
d="M1233 0h-338l2 39q-102 -74 -297 -74q-159 0 -254 53l-12 -294h-254l45 1130l-21 322h265l2 -17h20l-6 -172l31 -375q8 -105 30.5 -158t66 -77.5t130.5 -34.5q50 -9 91 -2t70 34.5t47.5 95t25.5 179.5l22 527h289z" />
    <glyph glyph-name="paragraph" unicode="&#xb6;" horiz-adv-x="1259" 
d="M457 1475h262l-125 -1756h-483l192 975q-89 55 -141.5 151.5t-52.5 211.5q0 158 100 275.5t248 137.5v5zM1118 1473l35 -1754h-268l-35 1754h268z" />
    <glyph glyph-name="periodcentered" unicode="&#xb7;" horiz-adv-x="534" 
d="M109 467v317h317v-317h-317z" />
    <glyph glyph-name="cedilla" unicode="&#xb8;" horiz-adv-x="669" 
d="M94 -293l117 348h184l-59 -164h-17q120 0 187.5 -61t52.5 -158q-17 -97 -89 -152t-179 -55h-195l47 230q72 -16 90.5 -18.5t61.5 -2.5q8 0 27.5 4.5t35 9t15.5 3.5q0 23 -14.5 31t-59.5 8q-48 0 -205 -23z" />
    <glyph glyph-name="uni00B9" unicode="&#xb9;" horiz-adv-x="1187" 
d="M369 946v160l135 2l20 416l-123 -66l17 152q123 73 168 73h84v-573l161 -4v-160h-462z" />
    <glyph glyph-name="ordmasculine" unicode="&#xba;" horiz-adv-x="1355" 
d="M678 807q-137 0 -216 89t-79 243q0 148 80 234.5t215 86.5t215 -86.5t80 -234.5q0 -154 -79 -243t-216 -89zM678 1018q70 0 103.5 29.5t33.5 107.5q0 82 -37.5 130t-99.5 48q-63 0 -100 -47.5t-37 -130.5q0 -78 33.5 -107.5t103.5 -29.5z" />
    <glyph glyph-name="guillemotright" unicode="&#xbb;" horiz-adv-x="1523" 
d="M778 -41l-69 313l278 265l-291 241l-14 293l557 -463l55 -153zM322 -49l-70 313l278 264l-290 242l-15 293l557 -463l56 -154z" />
    <glyph glyph-name="onequarter" unicode="&#xbc;" horiz-adv-x="1947" 
d="M1364 1583h256l-987 -1743h-338l510 832h-617v225l189 4l31 582l-172 -90l22 211q169 102 234 102h118v-803l226 -6v-176zM1745 373v-217l-115 2l12 -244h-262l13 252l-426 10v127l32 47h2l433 594l145 10h12l-2 -2l31 -583zM1194 356l209 6l18 336z" />
    <glyph glyph-name="onehalf" unicode="&#xbd;" horiz-adv-x="1460" 
d="M1155 313q107 68 157.5 122.5t80.5 115.5q20 41 20 82q0 65 -44 103t-120 38q-60 0 -130.5 -24t-192.5 -86l6 122l-529 -933h-337l509 831h-616v225l188 4l31 582l-172 -90l23 211q169 102 233 102h119v-803l225 -6v-176l529 862h256l-387 -684q140 52 243 52
q19 0 39.5 -1.5t57 -8.5t69 -19t69.5 -36.5t64.5 -57.5t48.5 -84.5t27 -114.5q1 -14 1.5 -26.5t-3 -41.5t-12 -57t-27.5 -71.5t-47 -87t-73 -100t-103 -114.5h266l21 -233h-738l41 199q9 44 54.5 88.5t152.5 115.5z" />
    <glyph glyph-name="threequarters" unicode="&#xbe;" horiz-adv-x="1460" 
d="M1135 1595h256l-988 -1742h-337l522 849q-92 -55 -289 -55q-101 0 -168 13.5t-160 48.5l90 272q143 -54 230 -59q69 -5 133.5 16t64.5 51q0 60 -52 97.5t-136 37.5h-172l37 181h162q188 0 188 127q0 69 -52 95.5t-159 26.5q-67 0 -124 -11t-183 -46l49 174q173 47 270 47
q168 0 268.5 -80t100.5 -215q0 -70 -30.5 -118.5t-98.5 -83.5q82 -29 117 -88.5t35 -161.5q0 -36 -7 -80zM1516 385v-217l-115 2l12 -244h-262l12 252l-426 10v127l33 47h2l432 594l146 11h12l-2 -2l31 -584zM965 369l209 6l18 336z" />
    <glyph glyph-name="questiondown" unicode="&#xbf;" horiz-adv-x="1763" 
d="M1055 1251v-317h-318v317h318zM1065 852v-205v-241l-37 -52q-192 -70 -233 -94q-52 -30 -62 -73q-4 -17 -4 -42q0 -130 88 -149q65 -13 103.5 -14.5t73.5 14t61 41t69 78.5q16 -20 32.5 -42.5t21.5 -29t17 -19.5t23.5 -25t36.5 -36l2 -76q-89 -95 -217 -128t-270 1
q-133 31 -204.5 124.5t-71.5 238.5q0 162 51.5 255.5t177.5 156.5v167q0 41 44.5 73.5t104.5 48.5t114 23.5t79 4.5z" />
    <glyph glyph-name="Agrave" unicode="&#xc0;" horiz-adv-x="1695" 
d="M715 1657l-350 338h317l528 -393zM82 -55l635 1603h264l633 -1603h-414l-57 243h-588l-76 -243h-397zM649 537h400l-203 645z" />
    <glyph glyph-name="Aacute" unicode="&#xc1;" horiz-adv-x="1695" 
d="M82 -55l635 1603h264l633 -1603h-414l-57 243h-588l-76 -243h-397zM649 537h400l-203 645zM762 33h215l-139 -426h-285z" />
    <glyph glyph-name="Acircumflex" unicode="&#xc2;" horiz-adv-x="1695" 
d="M780 2034h158l92 -152l363 -358h-263l-280 190l-277 -190h-262l365 358zM82 -55l635 1603h264l633 -1603h-414l-57 243h-588l-76 -243h-397zM649 537h400l-203 645z" />
    <glyph glyph-name="Atilde" unicode="&#xc3;" horiz-adv-x="1695" 
d="M698 1599h-168l-55 60q14 207 65.5 282.5t182.5 75.5q51 0 100 -32t78 -70.5t52.5 -70.5t29.5 -32q13 0 19 5.5t8 22t1.5 36t0 60t4.5 81.5h145l56 -55q-3 -213 -51.5 -289.5t-180.5 -73.5q-45 1 -87.5 23t-72 54t-52 63.5t-36 53.5t-16.5 22q-6 0 -11.5 -18.5
t-9.5 -70.5t-2 -127zM82 -55l635 1603h264l633 -1603h-414l-57 243h-588l-76 -243h-397zM649 537h400l-203 645z" />
    <glyph glyph-name="Adieresis" unicode="&#xc4;" horiz-adv-x="1695" 
d="M414 1622v317h317v-317h-317zM971 1622v317h317v-317h-317zM82 -55l635 1603h264l633 -1603h-414l-57 243h-588l-76 -243h-397zM649 537h400l-203 645z" />
    <glyph glyph-name="Aring" unicode="&#xc5;" horiz-adv-x="1695" 
d="M850 1642q-100 0 -170 74t-70 178q0 103 70.5 176.5t169.5 73.5t169.5 -73.5t70.5 -176.5q0 -104 -70 -178t-170 -74zM850 1866q37 0 43 7t6 48q0 22 -14.5 37.5t-34.5 15.5t-34.5 -15.5t-14.5 -37.5q0 -41 6 -48t43 -7zM82 -55l635 1603h264l633 -1603h-414l-57 243
h-588l-76 -243h-397zM649 537h400l-203 645z" />
    <glyph glyph-name="AE" unicode="&#xc6;" horiz-adv-x="2394" 
d="M1184 -55l2 80l2 159h-588l-135 -237h-397l1028 1569h141v2l1036 32l-73 -260l-664 -37v-338l502 23v-279l-502 -32v-262h672l92 -420h-1116zM780 526h400l-45 631z" />
    <glyph glyph-name="Ccedilla" unicode="&#xc7;" horiz-adv-x="1468" 
d="M395 813q5 -203 126.5 -298t383.5 -95q248 0 412 84v-527h-430l-25 -65h-16q120 0 187 -61t52 -158q-17 -97 -89 -152t-179 -55h-194l47 229q69 -15 88 -17.5t63 -2.5q8 0 27.5 4.5t35 8.5t15.5 3q0 23 -14.5 31t-59.5 8q-54 0 -204 -22l84 249h-80q-79 9 -146 28
t-129 52t-107.5 80t-82 111.5t-52 147t-18.5 187t19 230.5q28 177 82 306t145 222t223.5 141t312.5 54q229 8 478 -37l-50 -287q-144 31 -233 41t-182 0q-88 -10 -158.5 -28t-134.5 -52t-107 -81.5t-67.5 -118t-22.5 -160.5z" />
    <glyph glyph-name="Egrave" unicode="&#xc8;" horiz-adv-x="1316" 
d="M545 1632l-350 338h317l528 -393zM106 -55l54 1573l1036 32l-74 -260l-663 -37v-338l502 23v-279l-502 -32v-262h671l93 -420h-1117z" />
    <glyph glyph-name="Eacute" unicode="&#xc9;" horiz-adv-x="1316" 
d="M686 2109h215l-139 -426h-285zM106 -55l54 1573l1036 32l-74 -260l-663 -37v-338l502 23v-279l-502 -32v-262h671l93 -420h-1117z" />
    <glyph glyph-name="Ecircumflex" unicode="&#xca;" horiz-adv-x="1316" 
d="M459 365h671l93 -420h-1117l54 1554h-19l19 19l346 340l104 151h158l92 -151l311 -308h25l-6 -18l33 -33h-41l-60 -209l-663 -37v-338l502 23v-279l-502 -32v-262zM680 1690l-238 -164l457 14z" />
    <glyph glyph-name="Edieresis" unicode="&#xcb;" horiz-adv-x="1316" 
d="M244 1597v318h317v-318h-317zM801 1597v318h317v-318h-317zM106 -55l54 1573l1036 32l-74 -260l-663 -37v-338l502 23v-279l-502 -32v-262h671l93 -420h-1117z" />
    <glyph glyph-name="Igrave" unicode="&#xcc;" horiz-adv-x="614" 
d="M160 1876l-350 338h317l528 -393zM102 -2q33 280 40.5 610t-2.5 557t-27 383h342q-35 -713 57 -1550h-410z" />
    <glyph glyph-name="Iacute" unicode="&#xcd;" horiz-adv-x="614" 
d="M301 2353h215l-139 -426h-285zM102 -2q33 280 40.5 610t-2.5 557t-27 383h342q-35 -713 57 -1550h-410z" />
    <glyph glyph-name="Icircumflex" unicode="&#xce;" horiz-adv-x="614" 
d="M225 2253h158l92 -152l363 -358h-263l-280 190l-277 -190h-262l365 358zM102 -2q33 280 40.5 610t-2.5 557t-27 383h342q-35 -713 57 -1550h-410z" />
    <glyph glyph-name="Idieresis" unicode="&#xcf;" horiz-adv-x="614" 
d="M-141 1841v318h317v-318h-317zM416 1841v318h317v-318h-317zM102 -2q33 280 40.5 610t-2.5 557t-27 383h342q-35 -713 57 -1550h-410z" />
    <glyph glyph-name="Eth" unicode="&#xd0;" horiz-adv-x="1583" 
d="M580 1548q456 0 675.5 -196t219.5 -604q0 -397 -129 -564q-96 -125 -297 -162q-127 -24 -418 -24h-51h-471v688h-86v215h86v647h471zM621 444q317 0 448 82.5t131 278.5q0 246 -143 367.5t-436 121.5h-189v-393h502v-215h-502v-242h189z" />
    <glyph glyph-name="Ntilde" unicode="&#xd1;" horiz-adv-x="1550" 
d="M1149 1536h297l-88 -1536h-420l-281 659q-4 -71 -2 -143h-104l20 -516h-467l127 1520h338l377 -791q17 2 20.5 21t1.5 64t5 120h125zM537 899l16 10l-18 43zM1042 528l19 -41l4 50q-13 -7 -23 -9z" />
    <glyph glyph-name="Ograve" unicode="&#xd2;" horiz-adv-x="1710" 
d="M713 1733l-351 338h318l528 -394zM856 1575q225 0 397 -103.5t263.5 -293t85.5 -435.5q-4 -156 -20.5 -271t-53.5 -205.5t-91.5 -149t-138.5 -96.5t-190.5 -53.5t-251.5 -14.5q-212 2 -352.5 43.5t-229.5 137.5t-127 243t-38 368q0 248 92 436t261.5 291t393.5 103z
M856 1321q-193 0 -308.5 -156.5t-115.5 -419.5q0 -182 97 -258.5t327 -76.5t326 76t96 259q0 264 -115 420t-307 156z" />
    <glyph glyph-name="Oacute" unicode="&#xd3;" horiz-adv-x="1710" 
d="M-23 1741h216l-140 -426h-284zM856 1575q225 0 397 -103.5t263.5 -293t85.5 -435.5q-4 -156 -20.5 -271t-53.5 -205.5t-91.5 -149t-138.5 -96.5t-190.5 -53.5t-251.5 -14.5q-212 2 -352.5 43.5t-229.5 137.5t-127 243t-38 368q0 248 92 436t261.5 291t393.5 103z
M856 1321q-193 0 -308.5 -156.5t-115.5 -419.5q0 -182 97 -258.5t327 -76.5t326 76t96 259q0 264 -115 420t-307 156z" />
    <glyph glyph-name="Ocircumflex" unicode="&#xd4;" horiz-adv-x="1710" 
d="M778 2109h158l92 -151l363 -359h-263l-280 191l-277 -191h-262l365 359zM856 1575q225 0 397 -103.5t263.5 -293t85.5 -435.5q-4 -156 -20.5 -271t-53.5 -205.5t-91.5 -149t-138.5 -96.5t-190.5 -53.5t-251.5 -14.5q-212 2 -352.5 43.5t-229.5 137.5t-127 243t-38 368
q0 248 92 436t261.5 291t393.5 103zM856 1321q-193 0 -308.5 -156.5t-115.5 -419.5q0 -182 97 -258.5t327 -76.5t326 76t96 259q0 264 -115 420t-307 156z" />
    <glyph glyph-name="Otilde" unicode="&#xd5;" horiz-adv-x="1710" 
d="M696 1675h-168l-55 60q14 207 65.5 282.5t182.5 75.5q51 0 100 -32t78 -70.5t52.5 -70.5t29.5 -32q13 0 19 5.5t8 22t1.5 36t0 60t4.5 81.5h145l55 -55q-3 -213 -51 -289.5t-180 -73.5q-45 1 -87.5 23t-72 53.5t-52 63t-36 53.5t-16.5 22q-6 0 -11.5 -18.5t-9.5 -70
t-2 -126.5zM856 1575q225 0 397 -103.5t263.5 -293t85.5 -435.5q-4 -156 -20.5 -271t-53.5 -205.5t-91.5 -149t-138.5 -96.5t-190.5 -53.5t-251.5 -14.5q-212 2 -352.5 43.5t-229.5 137.5t-127 243t-38 368q0 248 92 436t261.5 291t393.5 103zM856 1321
q-193 0 -308.5 -156.5t-115.5 -419.5q0 -182 97 -258.5t327 -76.5t326 76t96 259q0 264 -115 420t-307 156z" />
    <glyph glyph-name="Odieresis" unicode="&#xd6;" horiz-adv-x="1710" 
d="M412 1698v317h317v-317h-317zM969 1698v317h317v-317h-317zM856 1575q225 0 397 -103.5t263.5 -293t85.5 -435.5q-4 -156 -20.5 -271t-53.5 -205.5t-91.5 -149t-138.5 -96.5t-190.5 -53.5t-251.5 -14.5q-212 2 -352.5 43.5t-229.5 137.5t-127 243t-38 368q0 248 92 436
t261.5 291t393.5 103zM856 1321q-193 0 -308.5 -156.5t-115.5 -419.5q0 -182 97 -258.5t327 -76.5t326 76t96 259q0 264 -115 420t-307 156z" />
    <glyph glyph-name="multiply" unicode="&#xd7;" horiz-adv-x="1208" 
d="M1190 160h-455l-135 139l-127 -139h-450l376 346l-317 325h348l164 -145l151 139h334l-286 -315z" />
    <glyph glyph-name="Oslash" unicode="&#xd8;" horiz-adv-x="1689" 
d="M1761 1831l-325 -524q175 -225 166 -564q-4 -156 -20.5 -271t-53.5 -205.5t-91.5 -149t-138.5 -96.5t-190.5 -53.5t-251.5 -14.5q-135 0 -246 18l-41 -65l-678 -242l347 512q-129 182 -129 569q0 248 92 436t261.5 291t393.5 103q160 0 293 -53l149 219zM432 745
q0 -134 51 -208l514 759q-67 25 -141 25q-193 0 -308.5 -156.5t-115.5 -419.5zM1278 745q0 131 -33 250l-364 -585q217 5 307 81t90 254z" />
    <glyph glyph-name="Ugrave" unicode="&#xd9;" horiz-adv-x="1548" 
d="M643 1821l-350 338h317l529 -394zM141 559l-35 989h410l-31 -825q-4 -46 -1.5 -83t3.5 -67t10 -53.5t17.5 -40.5t26.5 -29.5t37.5 -20.5t49.5 -12.5t63 -6.5t79 -2q45 0 78 2t63 6.5t49 12.5t37 20.5t26 29.5t17 40.5t9.5 53.5t3 67t-1.5 83l-31 825h422l-47 -989
q-5 -110 -18 -195t-32.5 -145.5t-46.5 -104t-61 -69.5t-74.5 -41.5t-88 -21t-101 -7t-113.5 0.5q-59 1 -90 1t-91 -1h-130.5t-114 10.5t-96.5 31.5t-78.5 62.5t-59.5 104t-40 156t-19 218.5z" />
    <glyph glyph-name="Uacute" unicode="&#xda;" horiz-adv-x="1548" 
d="M784 2298h215l-139 -426h-285zM141 559l-35 989h410l-31 -825q-4 -46 -1.5 -83t3.5 -67t10 -53.5t17.5 -40.5t26.5 -29.5t37.5 -20.5t49.5 -12.5t63 -6.5t79 -2q45 0 78 2t63 6.5t49 12.5t37 20.5t26 29.5t17 40.5t9.5 53.5t3 67t-1.5 83l-31 825h422l-47 -989
q-5 -110 -18 -195t-32.5 -145.5t-46.5 -104t-61 -69.5t-74.5 -41.5t-88 -21t-101 -7t-113.5 0.5q-59 1 -90 1t-91 -1h-130.5t-114 10.5t-96.5 31.5t-78.5 62.5t-59.5 104t-40 156t-19 218.5z" />
    <glyph glyph-name="Ucircumflex" unicode="&#xdb;" horiz-adv-x="1548" 
d="M709 2198h157l92 -152l363 -358h-262l-281 190l-276 -190h-262l364 358zM141 559l-35 989h410l-31 -825q-4 -46 -1.5 -83t3.5 -67t10 -53.5t17.5 -40.5t26.5 -29.5t37.5 -20.5t49.5 -12.5t63 -6.5t79 -2q45 0 78 2t63 6.5t49 12.5t37 20.5t26 29.5t17 40.5t9.5 53.5t3 67
t-1.5 83l-31 825h422l-47 -989q-5 -110 -18 -195t-32.5 -145.5t-46.5 -104t-61 -69.5t-74.5 -41.5t-88 -21t-101 -7t-113.5 0.5q-59 1 -90 1t-91 -1h-130.5t-114 10.5t-96.5 31.5t-78.5 62.5t-59.5 104t-40 156t-19 218.5z" />
    <glyph glyph-name="Udieresis" unicode="&#xdc;" horiz-adv-x="1548" 
d="M342 1786v317h317v-317h-317zM899 1786v317h318v-317h-318zM141 559l-35 989h410l-31 -825q-4 -46 -1.5 -83t3.5 -67t10 -53.5t17.5 -40.5t26.5 -29.5t37.5 -20.5t49.5 -12.5t63 -6.5t79 -2q45 0 78 2t63 6.5t49 12.5t37 20.5t26 29.5t17 40.5t9.5 53.5t3 67t-1.5 83
l-31 825h422l-47 -989q-5 -110 -18 -195t-32.5 -145.5t-46.5 -104t-61 -69.5t-74.5 -41.5t-88 -21t-101 -7t-113.5 0.5q-59 1 -90 1t-91 -1h-130.5t-114 10.5t-96.5 31.5t-78.5 62.5t-59.5 104t-40 156t-19 218.5z" />
    <glyph glyph-name="Yacute" unicode="&#xdd;" horiz-adv-x="1564" 
d="M-137 1741h215l-139 -426h-285zM588 500l-512 1048h338l370 -659l367 659h338l-518 -1048l18 -502h-444z" />
    <glyph glyph-name="Thorn" unicode="&#xde;" horiz-adv-x="1146" 
d="M1038 760q0 -121 -89.5 -235t-237 -189.5t-312.5 -91.5v-299h-290v1544h290v-215q165 -16 312.5 -91.5t237 -189t89.5 -233.5zM426 528q40 0 127 49t158 107.5t71 83.5t-73.5 84t-163 108.5t-129.5 49.5q-5 0 -17 -4v-469q23 -9 27 -9z" />
    <glyph glyph-name="germandbls" unicode="&#xdf;" horiz-adv-x="1396" 
d="M1004 721q165 -108 224.5 -190t59.5 -205q0 -195 -128 -302.5t-361 -107.5q-141 0 -303 55l2 -26h-392l62 1194q0 223 135.5 348t376.5 125q233 0 359 -133t126 -379l-53 -56q-128 -6 -196 -49t-68 -114q0 -33 21.5 -60.5t76.5 -62.5zM809 260q182 0 182 72q0 23 -18 53
q-25 31 -117 88l-90 62q-32 41 -50.5 67.5t-45.5 72t-40.5 92t-13.5 93.5q0 155 73.5 244.5t230.5 124.5q-48 102 -94 131t-150 29q-109 0 -161 -57.5t-69 -201.5l35 -788q188 -82 328 -82z" />
    <glyph glyph-name="agrave" unicode="&#xe0;" horiz-adv-x="1343" 
d="M514 1286l-350 338h317l529 -393zM606 -41q-255 0 -375.5 147t-109.5 418q5 132 39 247.5t92.5 203.5t147.5 138t196 48q70 -2 151 -23t136 -53l-9 66h238l131 -1153h-303v78q-144 -117 -334 -117zM582 338q95 0 157 8t103 26t57 51t14.5 77.5t-20.5 111.5
q-6 20 -15.5 58t-15 57.5t-17 50.5t-23.5 48t-32 37.5t-45 31t-61 18t-80 7.5q-32 0 -54.5 -4.5t-51 -23t-51.5 -52.5t-48.5 -96t-48.5 -150q-15 -59 -21 -98t0 -69t21 -46.5t49 -26.5t75 -13t108 -3z" />
    <glyph glyph-name="aacute" unicode="&#xe1;" horiz-adv-x="1343" 
d="M606 -41q-255 0 -375.5 147t-109.5 418q5 132 39 247.5t92.5 203.5t147.5 138t196 48q70 -2 151 -23t136 -53l-9 66h238l131 -1153h-303v78q-144 -117 -334 -117zM582 338q95 0 157 8t103 26t57 51t14.5 77.5t-20.5 111.5q-6 20 -15.5 58t-15 57.5t-17 50.5t-23.5 48
t-32 37.5t-45 31t-61 18t-80 7.5q-32 0 -54.5 -4.5t-51 -23t-51.5 -52.5t-48.5 -96t-48.5 -150q-15 -59 -21 -98t0 -69t21 -46.5t49 -26.5t75 -13t108 -3zM555 -49h215l-139 -426h-285z" />
    <glyph glyph-name="acircumflex" unicode="&#xe2;" horiz-adv-x="1343" 
d="M580 1663h157l92 -152l363 -358h-262l-281 190l-276 -190h-262l364 358zM606 -41q-255 0 -375.5 147t-109.5 418q5 132 39 247.5t92.5 203.5t147.5 138t196 48q70 -2 151 -23t136 -53l-9 66h238l131 -1153h-303v78q-144 -117 -334 -117zM582 338q95 0 157 8t103 26t57 51
t14.5 77.5t-20.5 111.5q-6 20 -15.5 58t-15 57.5t-17 50.5t-23.5 48t-32 37.5t-45 31t-61 18t-80 7.5q-32 0 -54.5 -4.5t-51 -23t-51.5 -52.5t-48.5 -96t-48.5 -150q-15 -59 -21 -98t0 -69t21 -46.5t49 -26.5t75 -13t108 -3z" />
    <glyph glyph-name="atilde" unicode="&#xe3;" horiz-adv-x="1343" 
d="M498 1229h-168l-56 59q14 207 65.5 283t182.5 76q51 0 100 -32t78 -70.5t52.5 -70.5t29.5 -32q13 0 19 5.5t8 22t1.5 36t0 60t4.5 81.5h146l55 -56q-3 -213 -51.5 -289t-180.5 -73q-45 1 -87.5 23t-72 53.5t-52 63t-36 53.5t-16.5 22q-6 0 -11.5 -18.5t-9 -70
t-1.5 -126.5zM606 -41q-255 0 -375.5 147t-109.5 418q5 132 39 247.5t92.5 203.5t147.5 138t196 48q70 -2 151 -23t136 -53l-9 66h238l131 -1153h-303v78q-144 -117 -334 -117zM582 338q95 0 157 8t103 26t57 51t14.5 77.5t-20.5 111.5q-6 20 -15.5 58t-15 57.5t-17 50.5
t-23.5 48t-32 37.5t-45 31t-61 18t-80 7.5q-32 0 -54.5 -4.5t-51 -23t-51.5 -52.5t-48.5 -96t-48.5 -150q-15 -59 -21 -98t0 -69t21 -46.5t49 -26.5t75 -13t108 -3z" />
    <glyph glyph-name="adieresis" unicode="&#xe4;" horiz-adv-x="1343" 
d="M213 1251v318h317v-318h-317zM770 1251v318h317v-318h-317zM606 -41q-255 0 -375.5 147t-109.5 418q5 132 39 247.5t92.5 203.5t147.5 138t196 48q70 -2 151 -23t136 -53l-9 66h238l131 -1153h-303v78q-144 -117 -334 -117zM582 338q95 0 157 8t103 26t57 51t14.5 77.5
t-20.5 111.5q-6 20 -15.5 58t-15 57.5t-17 50.5t-23.5 48t-32 37.5t-45 31t-61 18t-80 7.5q-32 0 -54.5 -4.5t-51 -23t-51.5 -52.5t-48.5 -96t-48.5 -150q-15 -59 -21 -98t0 -69t21 -46.5t49 -26.5t75 -13t108 -3z" />
    <glyph glyph-name="aring" unicode="&#xe5;" horiz-adv-x="1343" 
d="M649 1272q-100 0 -169.5 74t-69.5 178q0 103 70 176.5t169 73.5t169.5 -73.5t70.5 -176.5q0 -104 -70 -178t-170 -74zM649 1495q37 0 43 7t6 48q0 22 -14.5 38t-34.5 16t-34.5 -16t-14.5 -38q0 -41 6 -48t43 -7zM606 -41q-255 0 -375.5 147t-109.5 418q5 132 39 247.5
t92.5 203.5t147.5 138t196 48q70 -2 151 -23t136 -53l-9 66h238l131 -1153h-303v78q-144 -117 -334 -117zM582 338q95 0 157 8t103 26t57 51t14.5 77.5t-20.5 111.5q-6 20 -15.5 58t-15 57.5t-17 50.5t-23.5 48t-32 37.5t-45 31t-61 18t-80 7.5q-32 0 -54.5 -4.5t-51 -23
t-51.5 -52.5t-48.5 -96t-48.5 -150q-15 -59 -21 -98t0 -69t21 -46.5t49 -26.5t75 -13t108 -3z" />
    <glyph glyph-name="ae" unicode="&#xe6;" horiz-adv-x="2146" 
d="M1556 299q134 -17 224 3t239 97v-338q-231 -108 -467 -108q-179 0 -311 57l2 -12h-303v78q-144 -117 -334 -117q-255 0 -375.5 147t-109.5 418q5 132 39 247.5t92.5 203.5t147.5 138t196 48q70 -2 151 -23t136 -53l-9 66h238l10 -90q156 141 400 141h4
q230 -19 354.5 -165t165.5 -443l-850 -57q16 -111 104.5 -163.5t255.5 -74.5zM1522 995q-94 3 -170.5 -47.5t-102.5 -124.5l516 19q-31 68 -96 109t-147 44zM582 338q95 0 157 8t103 26t57 51t14.5 77.5t-20.5 111.5q-6 20 -15.5 58t-15 57.5t-17 50.5t-23.5 48t-32 37.5
t-45 31t-61 18t-80 7.5q-32 0 -54.5 -4.5t-51 -23t-51.5 -52.5t-48.5 -96t-48.5 -150q-15 -59 -21 -98t0 -69t21 -46.5t49 -26.5t75 -13t108 -3z" />
    <glyph glyph-name="ccedilla" unicode="&#xe7;" horiz-adv-x="1214" 
d="M698 -88q120 0 187.5 -61t52.5 -158q-17 -97 -89 -152t-179 -55h-195l47 229q69 -15 88.5 -17.5t63.5 -2.5q8 0 27.5 4.5t35 8.5t15.5 3q0 23 -14.5 31t-59.5 8q-55 0 -205 -22l90 270q-454 64 -454 561q0 311 166 483.5t460 159.5q77 -3 148.5 -16.5t81.5 -32.5v-252
q-146 45 -271 39q-47 -2 -83.5 -8t-64.5 -19t-47.5 -27.5t-33 -39.5t-22 -50t-12.5 -65t-5.5 -77t-1.5 -93q7 -96 45.5 -165.5t95.5 -101t132 -18.5t151 74l233 -262q-105 -57 -177 -77.5t-163 -22.5l-26 -76h-17z" />
    <glyph glyph-name="egrave" unicode="&#xe8;" horiz-adv-x="1339" 
d="M553 1475l-350 337h317l529 -393zM1239 594l-850 -57q8 -57 36 -99t76.5 -69t107.5 -43t141 -27q133 -17 222.5 3t239.5 97v-338q-231 -108 -467 -108q-295 0 -465.5 155.5t-170.5 440.5v2q12 302 174 476.5t432 174.5h4q230 -19 354.5 -165t165.5 -443zM442 823l516 19
q-31 68 -96 109t-147 44q-94 3 -170.5 -47.5t-102.5 -124.5z" />
    <glyph glyph-name="eacute" unicode="&#xe9;" horiz-adv-x="1339" 
d="M750 299q133 -17 222.5 3t239.5 97v-338q-202 -96 -421 -108l-113 -346h-285l178 362q-219 42 -340.5 191t-121.5 389v2q12 302 174 476.5t432 174.5h4q230 -19 354.5 -165t165.5 -443l-850 -57q8 -57 36 -99t76.5 -69t107.5 -43t141 -27zM715 995q-94 3 -170.5 -47.5
t-102.5 -124.5l516 19q-31 68 -96 109t-147 44z" />
    <glyph glyph-name="ecircumflex" unicode="&#xea;" horiz-adv-x="1339" 
d="M618 1851h158l92 -151l363 -359h-262l-281 191l-276 -191h-262l364 359zM1239 594l-850 -57q8 -57 36 -99t76.5 -69t107.5 -43t141 -27q133 -17 222.5 3t239.5 97v-338q-231 -108 -467 -108q-295 0 -465.5 155.5t-170.5 440.5v2q12 302 174 476.5t432 174.5h4
q230 -19 354.5 -165t165.5 -443zM442 823l516 19q-31 68 -96 109t-147 44q-94 3 -170.5 -47.5t-102.5 -124.5z" />
    <glyph glyph-name="edieresis" unicode="&#xeb;" horiz-adv-x="1339" 
d="M252 1440v317h317v-317h-317zM809 1440v317h317v-317h-317zM1239 594l-850 -57q8 -57 36 -99t76.5 -69t107.5 -43t141 -27q133 -17 222.5 3t239.5 97v-338q-231 -108 -467 -108q-295 0 -465.5 155.5t-170.5 440.5v2q12 302 174 476.5t432 174.5h4q230 -19 354.5 -165
t165.5 -443zM442 823l516 19q-31 68 -96 109t-147 44q-94 3 -170.5 -47.5t-102.5 -124.5z" />
    <glyph glyph-name="igrave" unicode="&#xec;" horiz-adv-x="577" 
d="M145 1397l-350 338h318l528 -394zM104 -55q26 379 34.5 583.5t8.5 563.5h277q-9 -222 -10 -373.5t14 -357.5t51 -416h-375z" />
    <glyph glyph-name="iacute" unicode="&#xed;" horiz-adv-x="577" 
d="M287 1874h215l-140 -426h-284zM104 -55q26 379 34.5 583.5t8.5 563.5h277q-9 -222 -10 -373.5t14 -357.5t51 -416h-375z" />
    <glyph glyph-name="icircumflex" unicode="&#xee;" horiz-adv-x="577" 
d="M203 1858h157l93 -152l362 -358h-262l-281 190l-276 -190h-262l364 358zM104 -55q26 379 34.5 583.5t8.5 563.5h277q-9 -222 -10 -373.5t14 -357.5t51 -416h-375z" />
    <glyph glyph-name="idieresis" unicode="&#xef;" horiz-adv-x="577" 
d="M-156 1219v317h318v-317h-318zM401 1219v317h318v-317h-318zM104 -55q26 379 34.5 583.5t8.5 563.5h277q-9 -222 -10 -373.5t14 -357.5t51 -416h-375z" />
    <glyph glyph-name="eth" unicode="&#xf0;" horiz-adv-x="1421" 
d="M1335 991h-196q-3 -30 -7 -61.5t-7 -56t-6 -47.5t-5.5 -39t-4.5 -28t-2.5 -17.5t-0.5 -4.5q-69 -447 -202 -634t-386 -187q-249 0 -402 155t-153 408q0 235 123.5 384t337.5 175v168h469l-6 82q-7 85 -70 111.5t-229 17.5l117 250q202 9 326.5 -79.5t125.5 -244.5
q0 -92 -2 -137h180v-215zM858 858q2 10 10.5 59t12.5 74h-164q80 -45 141 -133zM518 293q109 0 180 53.5t60 124.5q-47 301 -240 301q-114 0 -178 -77.5t-64 -215.5q0 -82 67.5 -134t174.5 -52z" />
    <glyph glyph-name="ntilde" unicode="&#xf1;" horiz-adv-x="1370" 
d="M506 1343h-168l-55 60q14 207 65 282.5t182 75.5q51 0 100 -32t78.5 -70.5t53 -70.5t29.5 -32q13 0 19 5.5t7.5 22t1 36.5t0 60t4.5 81h146l55 -55q-3 -213 -51 -289.5t-180 -73.5q-45 1 -87.5 23t-72 54t-52.5 63.5t-36.5 53.5t-16.5 22q-6 0 -11.5 -19t-9 -70.5
t-1.5 -126.5zM1217 666l49 -668h-406l70 700q24 234 -205 234q-131 0 -206.5 -75t-65.5 -210l53 -649h-402l91 1196h229l25 -92q134 85 296 90q225 7 338.5 -121.5t133.5 -404.5z" />
    <glyph glyph-name="ograve" unicode="&#xf2;" horiz-adv-x="1355" 
d="M502 1434l-350 338h317l528 -394zM678 -84q-264 0 -416.5 172.5t-152.5 470.5q0 284 154 452.5t415 168.5t415 -168.5t154 -452.5q0 -297 -152.5 -470t-416.5 -173zM678 324q137 0 200.5 57.5t63.5 210.5q0 158 -71.5 250t-192.5 92q-122 0 -193 -92t-71 -250
q0 -153 63.5 -210.5t200.5 -57.5z" />
    <glyph glyph-name="oacute" unicode="&#xf3;" horiz-adv-x="1355" 
d="M1247 559q0 -273 -129.5 -442t-357.5 -197l-92 -278h-285l143 290q-197 46 -307 211t-110 416q0 284 154 452.5t415 168.5t415 -168.5t154 -452.5zM678 324q137 0 200.5 57.5t63.5 210.5q0 158 -71.5 250t-192.5 92q-122 0 -193 -92t-71 -250q0 -153 63.5 -210.5
t200.5 -57.5z" />
    <glyph glyph-name="ocircumflex" unicode="&#xf4;" horiz-adv-x="1355" 
d="M567 1810h158l92 -151l363 -359h-262l-281 191l-277 -191h-262l365 359zM678 -84q-264 0 -416.5 172.5t-152.5 470.5q0 284 154 452.5t415 168.5t415 -168.5t154 -452.5q0 -297 -152.5 -470t-416.5 -173zM678 324q137 0 200.5 57.5t63.5 210.5q0 158 -71.5 250t-192.5 92
q-122 0 -193 -92t-71 -250q0 -153 63.5 -210.5t200.5 -57.5z" />
    <glyph glyph-name="otilde" unicode="&#xf5;" horiz-adv-x="1355" 
d="M485 1376h-168l-55 60q14 207 65.5 282.5t182.5 75.5q51 0 100 -32t78 -70.5t52.5 -70.5t29.5 -32q13 0 19 5.5t8 22t1.5 36t0 60t4.5 81.5h145l56 -55q-3 -213 -51.5 -289.5t-180.5 -73.5q-45 1 -87.5 23t-72 53.5t-52 63t-36 53.5t-16.5 22q-6 0 -11.5 -18.5t-9.5 -70
t-2 -126.5zM678 -84q-264 0 -416.5 172.5t-152.5 470.5q0 284 154 452.5t415 168.5t415 -168.5t154 -452.5q0 -297 -152.5 -470t-416.5 -173zM678 324q137 0 200.5 57.5t63.5 210.5q0 158 -71.5 250t-192.5 92q-122 0 -193 -92t-71 -250q0 -153 63.5 -210.5t200.5 -57.5z
" />
    <glyph glyph-name="odieresis" unicode="&#xf6;" horiz-adv-x="1355" 
d="M907 1139q161 -63 250.5 -214.5t89.5 -365.5q0 -297 -152.5 -470t-416.5 -173t-416.5 172.5t-152.5 470.5q0 214 89.5 365.5t250.5 214.5h-207v317h317v-287q68 11 119 11q50 0 121 -11v287h317v-317h-209zM678 324q137 0 200.5 57.5t63.5 210.5q0 158 -71.5 250
t-192.5 92q-122 0 -193 -92t-71 -250q0 -153 63.5 -210.5t200.5 -57.5z" />
    <glyph glyph-name="divide" unicode="&#xf7;" horiz-adv-x="1837" 
d="M713 930v317h317v-317h-317zM338 664l1167 53l135 -268l-1456 -41zM713 -72v318h317v-318h-317z" />
    <glyph glyph-name="oslash" unicode="&#xf8;" horiz-adv-x="1355" 
d="M952 1118q141 -71 218 -216t77 -343q0 -297 -152.5 -470t-416.5 -173q-33 0 -47 2l-10 -37l-443 -323l148 471q-105 82 -161 217.5t-56 312.5q0 284 154 452.5t415 168.5h6l76 245l319 164zM414 592q0 -104 32 -170l158 502q-90 -26 -140 -113.5t-50 -218.5zM739 326
q104 11 153.5 71t49.5 195q0 148 -65 242z" />
    <glyph glyph-name="ugrave" unicode="&#xf9;" horiz-adv-x="1339" 
d="M543 1427l-350 338h317l528 -393zM600 -35q-228 0 -330.5 110.5t-117.5 362.5l-48 738h265l47 -564q8 -105 30.5 -158t66 -77.5t130.5 -34.5q50 -9 91 -2t70 34.5t47.5 95t25.5 179.5l22 527h289l45 -1176h-338l2 39q-102 -74 -297 -74z" />
    <glyph glyph-name="uacute" unicode="&#xfa;" horiz-adv-x="1339" 
d="M1233 0h-338l2 39q-45 -34 -115 -53l-123 -379h-284l176 360q-200 10 -292.5 122t-106.5 349l-48 738h265l47 -564q8 -105 30.5 -158t66 -77.5t130.5 -34.5q50 -9 91 -2t70 34.5t47.5 95t25.5 179.5l22 527h289z" />
    <glyph glyph-name="ucircumflex" unicode="&#xfb;" horiz-adv-x="1339" 
d="M608 1804h158l92 -151l363 -359h-263l-280 191l-277 -191h-262l365 359zM600 -35q-228 0 -330.5 110.5t-117.5 362.5l-48 738h265l47 -564q8 -105 30.5 -158t66 -77.5t130.5 -34.5q50 -9 91 -2t70 34.5t47.5 95t25.5 179.5l22 527h289l45 -1176h-338l2 39
q-102 -74 -297 -74z" />
    <glyph glyph-name="udieresis" unicode="&#xfc;" horiz-adv-x="1339" 
d="M242 1393v317h317v-317h-317zM799 1393v317h317v-317h-317zM600 -35q-228 0 -330.5 110.5t-117.5 362.5l-48 738h265l47 -564q8 -105 30.5 -158t66 -77.5t130.5 -34.5q50 -9 91 -2t70 34.5t47.5 95t25.5 179.5l22 527h289l45 -1176h-338l2 39q-102 -74 -297 -74z" />
    <glyph glyph-name="yacute" unicode="&#xfd;" horiz-adv-x="1417" 
d="M737 1831h215l-139 -426h-285zM1331 1149l-442 -1380q-49 -155 -182 -254t-314 -99h-223v355h184q71 0 142.5 38.5t107.5 103t-2 148.5l-539 1088h324l414 -700l219 700h311z" />
    <glyph glyph-name="thorn" unicode="&#xfe;" horiz-adv-x="1146" 
d="M406 1354q173 -18 319 -102.5t231 -215.5t82 -276q-6 -276 -178 -471t-436 -234l8 -479h-291l-32 2118h290zM782 770q1 50 -65 127t-154.5 135t-146.5 58h-6l10 -754q38 2 96 35.5t117.5 87.5t103 138t45.5 173z" />
    <glyph glyph-name="ydieresis" unicode="&#xff;" horiz-adv-x="1417" 
d="M295 1319v317h317v-317h-317zM852 1319v317h317v-317h-317zM1331 1149l-442 -1380q-49 -155 -182 -254t-314 -99h-223v355h184q71 0 142.5 38.5t107.5 103t-2 148.5l-539 1088h324l414 -700l219 700h311z" />
    <glyph glyph-name="Amacron" unicode="&#x100;" horiz-adv-x="1695" 
d="M420 1917l864 53l100 -268l-1077 -41zM82 -55l635 1603h264l633 -1603h-414l-57 243h-588l-76 -243h-397zM649 537h400l-203 645z" />
    <glyph glyph-name="amacron" unicode="&#x101;" horiz-adv-x="1343" 
d="M219 1546l864 53l101 -268l-1078 -41zM606 -41q-255 0 -375.5 147t-109.5 418q5 132 39 247.5t92.5 203.5t147.5 138t196 48q70 -2 151 -23t136 -53l-9 66h238l131 -1153h-303v78q-144 -117 -334 -117zM582 338q95 0 157 8t103 26t57 51t14.5 77.5t-20.5 111.5
q-6 20 -15.5 58t-15 57.5t-17 50.5t-23.5 48t-32 37.5t-45 31t-61 18t-80 7.5q-32 0 -54.5 -4.5t-51 -23t-51.5 -52.5t-48.5 -96t-48.5 -150q-15 -59 -21 -98t0 -69t21 -46.5t49 -26.5t75 -13t108 -3z" />
    <glyph glyph-name="Abreve" unicode="&#x102;" horiz-adv-x="1695" 
d="M840 1595q-109 0 -193.5 21.5t-147 68t-91.5 126t-19 188.5h250q10 -58 53 -78t148 -20q119 0 164.5 19.5t54.5 78.5h188l60 2q0 -192 -130.5 -299t-336.5 -107zM981 1548l633 -1603h-414l-57 243h-588l-76 -243h-397l635 1603h264zM649 537h400l-203 645z" />
    <glyph glyph-name="abreve" unicode="&#x103;" horiz-adv-x="1343" 
d="M631 1223q-109 0 -193.5 21.5t-147 67.5t-91.5 125.5t-19 188.5h250q10 -58 53 -78t148 -20q119 0 164.5 19.5t54.5 78.5h188l60 2q0 -192 -130 -298.5t-337 -106.5zM1243 -2h-303v78q-144 -117 -334 -117q-255 0 -375.5 147t-109.5 418q5 132 39 247.5t92.5 203.5
t147.5 138t196 48q70 -2 151 -23t136 -53l-9 66h238zM582 338q95 0 157 8t103 26t57 51t14.5 77.5t-20.5 111.5q-6 20 -15.5 58t-15 57.5t-17 50.5t-23.5 48t-32 37.5t-45 31t-61 18t-80 7.5q-32 0 -54.5 -4.5t-51 -23t-51.5 -52.5t-48.5 -96t-48.5 -150q-15 -59 -21 -98
t0 -69t21 -46.5t49 -26.5t75 -13t108 -3z" />
    <glyph glyph-name="Aogonek" unicode="&#x104;" 
d="M981 1548l633 -1603h-414l-57 243h-588l-76 -243h-166q-149 -143 -149 -189q0 1 9 -1t26.5 -4.5t33.5 -2.5q43 0 160 19q8 -79 31 -197l-55 -66q-202 -3 -316 57.5t-114 174.5q0 135 174 289l604 1523h264zM649 537h400l-203 645z" />
    <glyph glyph-name="aogonek" unicode="&#x105;" horiz-adv-x="1343" 
d="M1278 -254q8 -79 31 -197l-56 -65q-202 -3 -316 57t-114 174q0 132 168 283h-51v78q-144 -117 -334 -117q-255 0 -375.5 147t-109.5 418q5 132 39 247.5t92.5 203.5t147.5 138t196 48q70 -2 151 -23t136 -53l-9 66h238l131 -1153h-18l12 -37q-188 -173 -188 -225
q0 1 9 -1t26.5 -4.5t33.5 -2.5q49 0 160 18zM582 338q95 0 157 8t103 26t57 51t14.5 77.5t-20.5 111.5q-6 20 -15.5 58t-15 57.5t-17 50.5t-23.5 48t-32 37.5t-45 31t-61 18t-80 7.5q-32 0 -54.5 -4.5t-51 -23t-51.5 -52.5t-48.5 -96t-48.5 -150q-15 -59 -21 -98t0 -69
t21 -46.5t49 -26.5t75 -13t108 -3z" />
    <glyph glyph-name="Cacute" unicode="&#x106;" horiz-adv-x="1468" 
d="M801 2023h215l-139 -426h-285zM1350 1499l-50 -287q-144 31 -233 41t-182 0q-88 -10 -158.5 -28t-134.5 -52t-107 -81.5t-67.5 -118t-22.5 -160.5q5 -203 126.5 -298t383.5 -95q248 0 412 84v-527h-692q-79 9 -146 28t-129 52t-107.5 80t-82 111.5t-52 147t-18.5 187
t19 230.5q28 177 82 306t145 222t223.5 141t312.5 54q229 8 478 -37z" />
    <glyph glyph-name="cacute" unicode="&#x107;" horiz-adv-x="1214" 
d="M641 1733h215l-139 -426h-285zM711 -12q-602 0 -602 571q0 311 166 483.5t460 159.5q77 -3 148.5 -16.5t81.5 -32.5v-252q-146 45 -271 39q-47 -2 -83.5 -8t-64.5 -19t-47.5 -27.5t-33 -39.5t-22 -50t-12.5 -65t-5.5 -77t-1.5 -93q7 -96 45.5 -165.5t95.5 -101t132 -18.5
t151 74l233 -262q-113 -61 -188 -80.5t-182 -19.5z" />
    <glyph glyph-name="Cdotaccent" unicode="&#x10a;" horiz-adv-x="1468" 
d="M629 1642v318h317v-318h-317zM1350 1499l-50 -287q-144 31 -233 41t-182 0q-88 -10 -158.5 -28t-134.5 -52t-107 -81.5t-67.5 -118t-22.5 -160.5q5 -203 126.5 -298t383.5 -95q248 0 412 84v-527h-692q-79 9 -146 28t-129 52t-107.5 80t-82 111.5t-52 147t-18.5 187
t19 230.5q28 177 82 306t145 222t223.5 141t312.5 54q229 8 478 -37z" />
    <glyph glyph-name="cdotaccent" unicode="&#x10b;" horiz-adv-x="1214" 
d="M469 1352v317h317v-317h-317zM711 -12q-602 0 -602 571q0 311 166 483.5t460 159.5q77 -3 148.5 -16.5t81.5 -32.5v-252q-146 45 -271 39q-47 -2 -83.5 -8t-64.5 -19t-47.5 -27.5t-33 -39.5t-22 -50t-12.5 -65t-5.5 -77t-1.5 -93q7 -96 45.5 -165.5t95.5 -101t132 -18.5
t151 74l233 -262q-113 -61 -188 -80.5t-182 -19.5z" />
    <glyph glyph-name="Ccaron" unicode="&#x10c;" horiz-adv-x="1468" 
d="M721 1579l-105 152l-364 358h262l277 -191l280 191h262l-362 -358l-92 -152h-158zM1350 1499l-50 -287q-144 31 -233 41t-182 0q-88 -10 -158.5 -28t-134.5 -52t-107 -81.5t-67.5 -118t-22.5 -160.5q5 -203 126.5 -298t383.5 -95q248 0 412 84v-527h-692q-79 9 -146 28
t-129 52t-107.5 80t-82 111.5t-52 147t-18.5 187t19 230.5q28 177 82 306t145 222t223.5 141t312.5 54q229 8 478 -37z" />
    <glyph glyph-name="ccaron" unicode="&#x10d;" horiz-adv-x="1214" 
d="M561 1288l-104 152l-365 358h262l277 -190l280 190h263l-363 -358l-92 -152h-158zM711 -12q-602 0 -602 571q0 311 166 483.5t460 159.5q77 -3 148.5 -16.5t81.5 -32.5v-252q-146 45 -271 39q-47 -2 -83.5 -8t-64.5 -19t-47.5 -27.5t-33 -39.5t-22 -50t-12.5 -65
t-5.5 -77t-1.5 -93q7 -96 45.5 -165.5t95.5 -101t132 -18.5t151 74l233 -262q-113 -61 -188 -80.5t-182 -19.5z" />
    <glyph glyph-name="Dcaron" unicode="&#x10e;" horiz-adv-x="1583" 
d="M649 1616l-104 151l-365 359h262l277 -191l280 191h263l-363 -359l-92 -151h-158zM109 -2v1550h471q456 0 675.5 -196t219.5 -604q0 -397 -129 -564q-96 -125 -297 -162q-127 -24 -418 -24h-51h-471zM432 444h189q317 0 448 82.5t131 278.5q0 246 -143 367.5t-436 121.5
h-189v-850z" />
    <glyph glyph-name="dcaron" unicode="&#x10f;" horiz-adv-x="1363" 
d="M625 -27q-107 0 -196 31t-151 85t-105.5 128.5t-64 160.5t-20.5 181q0 170 71.5 316.5t195 232.5t268.5 86q37 0 73.5 -6.5t63.5 -16.5t52.5 -21.5t43.5 -22t34 -17.5t26.5 -8.5t18 5t11 24t4.5 47.5l13 462h294l-51 -1159l27 -483l-307 8l20 90q-21 -12 -63 -36.5
t-53.5 -30.5t-40 -21t-40 -18l-34.5 -9t-43 -7t-47 -1zM1628 1083h-311l72 547h270zM604 360q136 0 193 47t57 173q0 150 -69 239.5t-175 89.5q-108 0 -183 -90.5t-75 -238.5q0 -125 58 -172.5t194 -47.5z" />
    <glyph glyph-name="Dcroat" unicode="&#x110;" horiz-adv-x="1583" 
d="M580 1548q456 0 675.5 -196t219.5 -604q0 -397 -129 -564q-96 -125 -297 -162q-127 -24 -418 -24h-51h-471v688h-86v215h86v647h471zM621 444q317 0 448 82.5t131 278.5q0 246 -143 367.5t-436 121.5h-189v-393h502v-215h-502v-242h189z" />
    <glyph glyph-name="dcroat" unicode="&#x111;" horiz-adv-x="1363" 
d="M1540 1180h-303l-31 -699l27 -483l-307 8l20 90q-21 -12 -63 -36.5t-53.5 -30.5t-40 -21t-40 -18l-34.5 -9t-43 -7t-47 -1q-107 0 -196 31t-151 85t-105.5 128.5t-64 160.5t-20.5 181q0 170 71.5 316.5t195 232.5t268.5 86h6v201h327l7 245h294l-10 -245h293v-215z
M950 1178v2h-219q30 -8 60.5 -21.5t50.5 -24.5t39 -20.5t30.5 -12t20.5 3t13 23.5t5 50zM604 360q136 0 193 47t57 173q0 150 -69 239.5t-175 89.5q-108 0 -183 -90.5t-75 -238.5q0 -125 58 -172.5t194 -47.5z" />
    <glyph glyph-name="Emacron" unicode="&#x112;" horiz-adv-x="1316" 
d="M250 1892l864 54l100 -269l-1077 -41zM106 -55l54 1573l1036 32l-74 -260l-663 -37v-338l502 23v-279l-502 -32v-262h671l93 -420h-1117z" />
    <glyph glyph-name="emacron" unicode="&#x113;" horiz-adv-x="1339" 
d="M258 1735l864 53l101 -268l-1078 -41zM1239 594l-850 -57q8 -57 36 -99t76.5 -69t107.5 -43t141 -27q133 -17 222.5 3t239.5 97v-338q-231 -108 -467 -108q-295 0 -465.5 155.5t-170.5 440.5v2q12 302 174 476.5t432 174.5h4q230 -19 354.5 -165t165.5 -443zM442 823
l516 19q-31 68 -96 109t-147 44q-94 3 -170.5 -47.5t-102.5 -124.5z" />
    <glyph glyph-name="Ebreve" unicode="&#x114;" horiz-adv-x="1316" 
d="M670 1573q-109 0 -193.5 21.5t-147 67.5t-91.5 125.5t-19 188.5h250q10 -58 53 -78t148 -20q119 0 164.5 19.5t54.5 78.5h188l60 2q0 -192 -130 -298.5t-337 -106.5zM1130 365l93 -420h-1117l54 1573l1036 32l-74 -260l-663 -37v-338l502 23v-279l-502 -32v-262h671z" />
    <glyph glyph-name="ebreve" unicode="&#x115;" horiz-adv-x="1339" 
d="M678 1415q-109 0 -193.5 21.5t-147 68t-91.5 126t-19 188.5h250q10 -58 53.5 -78.5t147.5 -20.5q119 0 164.5 20t54.5 79h188l60 2q0 -192 -130.5 -299t-336.5 -107zM750 299q133 -17 222.5 3t239.5 97v-338q-231 -108 -467 -108q-295 0 -465.5 155.5t-170.5 440.5v2
q12 302 174 476.5t432 174.5h4q230 -19 354.5 -165t165.5 -443l-850 -57q8 -57 36 -99t76.5 -69t107.5 -43t141 -27zM715 995q-94 3 -170.5 -47.5t-102.5 -124.5l516 19q-31 68 -96 109t-147 44z" />
    <glyph glyph-name="Edotaccent" unicode="&#x116;" horiz-adv-x="1316" 
d="M512 1679v318h317v-318h-317zM106 -55l54 1573l1036 32l-74 -260l-663 -37v-338l502 23v-279l-502 -32v-262h671l93 -420h-1117z" />
    <glyph glyph-name="edotaccent" unicode="&#x117;" horiz-adv-x="1339" 
d="M520 1522v317h318v-317h-318zM1239 594l-850 -57q8 -57 36 -99t76.5 -69t107.5 -43t141 -27q133 -17 222.5 3t239.5 97v-338q-231 -108 -467 -108q-295 0 -465.5 155.5t-170.5 440.5v2q12 302 174 476.5t432 174.5h4q230 -19 354.5 -165t165.5 -443zM442 823l516 19
q-31 68 -96 109t-147 44q-94 3 -170.5 -47.5t-102.5 -124.5z" />
    <glyph glyph-name="Eogonek" unicode="&#x118;" 
d="M981 -252q43 0 160 19q9 -90 30 -197l-55 -66q-202 -3 -316 57.5t-114 174.5q0 96 96 209h-676l54 1573l1036 32l-74 -260l-663 -37v-338l502 23v-279l-502 -32v-262h671l93 -420h-162q-150 -144 -150 -189q0 1 9 -1t27 -4.5t34 -2.5z" />
    <glyph glyph-name="eogonek" unicode="&#x119;" 
d="M750 299q133 -17 222.5 3t239.5 97v-338q-231 -108 -467 -108q-157 0 -284 47l6 -18q-90 -83 -139 -142.5t-49 -83.5q0 1 9 -1t26.5 -4.5t33.5 -2.5q43 0 160 19q8 -79 31 -197l-56 -66q-202 -3 -316 57.5t-114 174.5q0 159 244 344h16q-204 156 -204 469v2
q12 302 174 476.5t432 174.5h4q230 -19 354.5 -165t165.5 -443l-850 -57q8 -57 36 -99t76.5 -69t107.5 -43t141 -27zM715 995q-94 3 -170.5 -47.5t-102.5 -124.5l516 19q-31 68 -96 109t-147 44z" />
    <glyph glyph-name="Ecaron" unicode="&#x11a;" horiz-adv-x="1316" 
d="M604 1616l-104 151l-365 359h262l277 -191l280 191h263l-363 -359l-92 -151h-158zM106 -55l54 1573l1036 32l-74 -260l-663 -37v-338l502 23v-279l-502 -32v-262h671l93 -420h-1117z" />
    <glyph glyph-name="ecaron" unicode="&#x11b;" horiz-adv-x="1339" 
d="M612 1458l-104 152l-365 358h263l276 -190l281 190h262l-363 -358l-92 -152h-158zM1239 594l-850 -57q8 -57 36 -99t76.5 -69t107.5 -43t141 -27q133 -17 222.5 3t239.5 97v-338q-231 -108 -467 -108q-295 0 -465.5 155.5t-170.5 440.5v2q12 302 174 476.5t432 174.5h4
q230 -19 354.5 -165t165.5 -443zM442 823l516 19q-31 68 -96 109t-147 44q-94 3 -170.5 -47.5t-102.5 -124.5z" />
    <glyph glyph-name="Gbreve" unicode="&#x11e;" horiz-adv-x="1718" 
d="M1620 446l-145 3l20 -332q-26 -6 -131 -45.5t-219.5 -65.5t-235.5 -26q-183 0 -335 62.5t-253 171t-156.5 255.5t-55.5 317q0 105 21 203t68.5 190.5t117.5 166t174.5 127t232.5 75.5q-309 65 -281 387h250q10 -58 53 -78t148 -20q119 0 164.5 19.5t54.5 78.5h188l60 2
q0 -147 -77 -244t-210 -137q199 -14 293 -30l39 -281q-208 62 -479 62q-132 0 -221.5 -25t-152.5 -86.5t-91.5 -166t-28.5 -261.5q9 -236 116.5 -326t377.5 -90q187 0 258 47v86l-273 37l-30 305l686 -77z" />
    <glyph glyph-name="gbreve" unicode="&#x11f;" horiz-adv-x="1349" 
d="M686 1225q-109 0 -193 21.5t-147 67.5t-91.5 125.5t-18.5 188.5h249q10 -58 53 -78t148 -20q119 0 164.5 19.5t54.5 78.5h189l59 2q0 -192 -130 -298.5t-337 -106.5zM961 1176h282l-45 -1037q-17 -371 -160 -550t-422 -179q-123 0 -252.5 33.5t-226.5 91.5l109 381
q114 -74 199 -115t155 -41q88 0 155.5 63t114.5 163q-161 -41 -247 -41q-230 0 -372 173.5t-142 454.5t142 455t372 174q55 0 100 -9.5t83.5 -31.5t62 -39.5t61.5 -50.5zM573 354q168 0 220.5 44t52.5 186q0 177 -66.5 270.5t-191.5 93.5q-124 0 -191 -93t-67 -269
q5 -55 11 -89.5t18.5 -62.5t27 -42t42.5 -23.5t60 -12t84 -2.5zM915 -14q3 5 0 8v-8z" />
    <glyph glyph-name="Gdotaccent" unicode="&#x120;" horiz-adv-x="1718" 
d="M735 1638v318h318v-318h-318zM1184 399v86l-273 37l-30 305l686 -77l53 -304l-145 3l20 -332q-26 -6 -131 -45.5t-219.5 -65.5t-235.5 -26q-183 0 -335 62.5t-253 171t-156.5 255.5t-55.5 317q0 120 27 230t88.5 210.5t152.5 174.5t227.5 118t304.5 44q98 0 241.5 -12
t215.5 -25l39 -281q-208 62 -479 62q-132 0 -221.5 -25t-152.5 -86.5t-91.5 -166t-28.5 -261.5q9 -236 116.5 -326t377.5 -90q187 0 258 47z" />
    <glyph glyph-name="gdotaccent" unicode="&#x121;" horiz-adv-x="1349" 
d="M846 1649v-318h-318v318h318zM961 1176h282l-45 -1037q-17 -371 -160 -550t-422 -179q-123 0 -252.5 33.5t-226.5 91.5l109 381q114 -74 199 -115t155 -41q88 0 155.5 63t114.5 163q-161 -41 -247 -41q-230 0 -372 173.5t-142 454.5t142 455t372 174q55 0 100 -9.5
t83.5 -31.5t62 -39.5t61.5 -50.5zM573 354q168 0 220.5 44t52.5 186q0 177 -66.5 270.5t-191.5 93.5q-124 0 -191 -93t-67 -269q5 -55 11 -89.5t18.5 -62.5t27 -42t42.5 -23.5t60 -12t84 -2.5zM915 -14q3 5 0 8v-8z" />
    <glyph glyph-name="uni0122" unicode="&#x122;" horiz-adv-x="1718" 
d="M997 1565h-315l127 348l2 239h354l-82 -286v-2zM1620 446l-145 3l20 -332q-26 -6 -131 -45.5t-219.5 -65.5t-235.5 -26q-183 0 -335 62.5t-253 171t-156.5 255.5t-55.5 317q0 120 27 230t88.5 210.5t152.5 174.5t227.5 118t304.5 44q98 0 241.5 -12t215.5 -25l39 -281
q-208 62 -479 62q-132 0 -221.5 -25t-152.5 -86.5t-91.5 -166t-28.5 -261.5q9 -236 116.5 -326t377.5 -90q187 0 258 47v86l-273 37l-30 305l686 -77z" />
    <glyph glyph-name="uni0123" unicode="&#x123;" horiz-adv-x="1349" 
d="M791 1257h-316l127 349l2 239h354l-81 -286v-3zM961 1176h282l-45 -1037q-17 -371 -160 -550t-422 -179q-123 0 -252.5 33.5t-226.5 91.5l109 381q114 -74 199 -115t155 -41q88 0 155.5 63t114.5 163q-161 -41 -247 -41q-230 0 -372 173.5t-142 454.5t142 455t372 174
q55 0 100 -9.5t83.5 -31.5t62 -39.5t61.5 -50.5zM573 354q168 0 220.5 44t52.5 186q0 177 -66.5 270.5t-191.5 93.5q-124 0 -191 -93t-67 -269q5 -55 11 -89.5t18.5 -62.5t27 -42t42.5 -23.5t60 -12t84 -2.5zM915 -14q3 5 0 8v-8z" />
    <glyph glyph-name="Hbar" unicode="&#x126;" horiz-adv-x="1579" 
d="M1624 1223l-27 -297h-165l41 -928h-441l12 330h-524l12 -330h-426l27 932h-180l24 297h164l11 321h319l12 -323h592l10 323h320l14 -325h205zM1057 735l8 193h-569l8 -193h553z" />
    <glyph glyph-name="hbar" unicode="&#x127;" horiz-adv-x="1363" 
d="M1280 -2h-410q32 155 53 269.5t34 211.5t16 162.5t-5 117t-24 81t-46 48.5t-65.5 25.5t-87.5 6.5q-72 0 -117.5 -12t-82.5 -48.5t-52.5 -98.5t-18 -166.5t11.5 -248t44 -348.5h-426l97 1292l-146 -14v213l162 16l14 189h295l-10 -162l424 41v-213l-436 -41l-15 -234
q69 53 135 73t162 20q155 0 245.5 -44.5t139 -152.5t62.5 -301z" />
    <glyph glyph-name="Itilde" unicode="&#x128;" horiz-adv-x="614" 
d="M141 1782h-168l-55 59q14 207 65.5 283t182.5 76q51 0 100 -32t78 -70.5t52.5 -70.5t29.5 -32q13 0 19 5.5t8 22t1.5 36t0 60t4.5 81.5h145l55 -56q-3 -213 -51 -289t-180 -73q-45 1 -87.5 23t-72 53.5t-52 63t-36 53.5t-16.5 22q-6 0 -11.5 -18.5t-9.5 -70t-2 -126.5z
M102 -2q33 280 40.5 610t-2.5 557t-27 383h342q-35 -713 57 -1550h-410z" />
    <glyph glyph-name="itilde" unicode="&#x129;" horiz-adv-x="577" 
d="M127 1303h-168l-55 59q14 207 65.5 282.5t182.5 75.5q51 0 100 -32t78 -70t52.5 -70t29.5 -32q13 0 19 5.5t7.5 22t1 36t0 59.5t4.5 81h146l55 -55q-3 -213 -51 -289t-180 -73q-45 1 -87.5 23t-72 53.5t-52 63t-36 53.5t-16.5 22q-6 0 -11.5 -18.5t-9.5 -70t-2 -126.5z
M104 -55q26 379 34.5 583.5t8.5 563.5h277q-9 -222 -10 -373.5t14 -357.5t51 -416h-375z" />
    <glyph glyph-name="Imacron" unicode="&#x12a;" horiz-adv-x="614" 
d="M-135 2136l864 53l100 -268l-1077 -41zM102 -2q33 280 40.5 610t-2.5 557t-27 383h342q-35 -713 57 -1550h-410z" />
    <glyph glyph-name="imacron" unicode="&#x12b;" horiz-adv-x="577" 
d="M-150 1657l865 53l100 -268l-1077 -41zM104 -55q26 379 34.5 583.5t8.5 563.5h277q-9 -222 -10 -373.5t14 -357.5t51 -416h-375z" />
    <glyph glyph-name="Iogonek" unicode="&#x12e;" horiz-adv-x="614" 
d="M307 -231q49 0 160 18q8 -79 31 -197l-56 -65q-202 -3 -316 57t-114 174t125 242h-35q33 280 40.5 610t-2.5 557t-27 383h342q-35 -713 57 -1550h-90q-184 -169 -184 -221q0 1 9 -1t26.5 -4.5t33.5 -2.5z" />
    <glyph glyph-name="iogonek" unicode="&#x12f;" horiz-adv-x="577" 
d="M430 1761v-317h-317v317h317zM266 -272q49 0 160 18q8 -79 31 -197l-56 -65q-202 -3 -316 57t-114 174q0 118 135 250q25 370 33 573t8 554h277q-9 -222 -10 -373.5t14 -357.5t51 -416h-112q-81 -76 -125.5 -131.5t-44.5 -77.5q0 1 9 -1t26.5 -4.5t33.5 -2.5z" />
    <glyph glyph-name="Idotaccent" unicode="&#x130;" horiz-adv-x="614" 
d="M127 1923v318h317v-318h-317zM102 -2q33 280 40.5 610t-2.5 557t-27 383h342q-35 -713 57 -1550h-410z" />
    <glyph glyph-name="dotlessi" unicode="&#x131;" horiz-adv-x="577" 
d="M104 -55q26 379 34.5 583.5t8.5 563.5h277q-9 -222 -10 -373.5t14 -357.5t51 -416h-375z" />
    <glyph glyph-name="uni0136" unicode="&#x136;" horiz-adv-x="1495" 
d="M709 678l759 -680h-643l-346 422v-422h-377l144 1550h297l121 330l2 240h354l-82 -287v-2l-80 -281h377zM559 1530l-45 -569l320 569h-275z" />
    <glyph glyph-name="uni0137" unicode="&#x137;" horiz-adv-x="1351" 
d="M1325 -2h-586l-286 344l14 -344h-361l91 1681h260l125 344l2 240h354l-82 -287v-2l-86 -299h-276l-50 -839l215 241h340l-372 -461z" />
    <glyph glyph-name="Lacute" unicode="&#x139;" horiz-adv-x="1288" 
d="M297 2087h215l-139 -426h-285zM106 -2l58 1550h268v-1196l752 33v-387h-1078z" />
    <glyph glyph-name="lacute" unicode="&#x13a;" horiz-adv-x="798" 
d="M649 283l49 -283h-587q-9 94 15.5 637.5t70.5 964.5h-82l209 426h215l-127 -388h73q-53 -413 -71 -1357h235z" />
    <glyph glyph-name="uni013B" unicode="&#x13b;" horiz-adv-x="1288" 
d="M387 1632h-315l127 348l2 240h354l-82 -287v-2zM432 352l752 33v-387h-1078l58 1550h268v-1196z" />
    <glyph glyph-name="uni013C" unicode="&#x13c;" horiz-adv-x="798" 
d="M649 283l49 -283h-587q-8 89 15 621t67 952h-95l127 348l2 240h355l-82 -287v-2l-68 -232h53q-53 -413 -71 -1357h235z" />
    <glyph glyph-name="Lcaron" unicode="&#x13d;" horiz-adv-x="1288" 
d="M995 1022h-311l72 547h270zM106 -2l58 1550h268v-1196l752 33v-387h-1078z" />
    <glyph glyph-name="lcaron" unicode="&#x13e;" horiz-adv-x="798" 
d="M111 0q-9 96 16.5 657t73.5 983h284q-53 -413 -71 -1357h235l49 -283h-587zM897 700h-311l71 547h271z" />
    <glyph glyph-name="Ldot" unicode="&#x13f;" horiz-adv-x="1288" 
d="M106 -2l58 1550h268v-1196l752 33v-387h-1078zM707 1167v318h317v-318h-317z" />
    <glyph glyph-name="ldot" unicode="&#x140;" horiz-adv-x="798" 
d="M111 0q-9 96 16.5 657t73.5 983h284q-53 -413 -71 -1357h235l49 -283h-587zM608 846v317h318v-317h-318z" />
    <glyph glyph-name="Lslash" unicode="&#x141;" horiz-adv-x="1288" 
d="M432 352l752 33v-387h-1078l19 510l-240 53l250 187l29 800h268v-579l430 321l199 -90l-629 -516v-332z" />
    <glyph glyph-name="lslash" unicode="&#x142;" horiz-adv-x="798" 
d="M414 283h235l49 -283h-587q-5 51 3.5 333t28.5 597l-225 45l234 108q21 290 49 557h284q-23 -176 -36 -421l159 73l252 -73l-424 -232q-16 -339 -22 -704z" />
    <glyph glyph-name="Nacute" unicode="&#x143;" horiz-adv-x="1550" 
d="M854 1985h215l-139 -426h-285zM104 0l127 1520h338l492 -1033l88 1049h297l-88 -1536h-420l-403 952l36 -952h-467z" />
    <glyph glyph-name="nacute" unicode="&#x144;" horiz-adv-x="1370" 
d="M662 1829h215l-140 -426h-284zM1217 666l49 -668h-406l70 700q24 234 -205 234q-131 0 -206.5 -75t-65.5 -210l53 -649h-402l91 1196h229l25 -92q134 85 296 90q225 7 338.5 -121.5t133.5 -404.5z" />
    <glyph glyph-name="uni0145" unicode="&#x145;" horiz-adv-x="1550" 
d="M1149 1536h297l-88 -1536h-420l-403 952l36 -952h-467l127 1520h338l492 -1033zM1339 -66l-82 -286v-2l-86 -299h-315l127 348l2 239h354z" />
    <glyph glyph-name="uni0146" unicode="&#x146;" horiz-adv-x="1370" 
d="M930 698q24 234 -205 234q-131 0 -206.5 -75t-65.5 -210l53 -649h-402l91 1196h229l25 -92q134 85 296 90q225 7 338.5 -121.5t133.5 -404.5l49 -668h-406zM1260 -51l-82 -287v-2l-86 -299h-316l127 348l2 240h355z" />
    <glyph glyph-name="Ncaron" unicode="&#x147;" horiz-adv-x="1550" 
d="M774 1540l-104 152l-365 358h262l277 -190l280 190h262l-362 -358l-92 -152h-158zM104 0l127 1520h338l492 -1033l88 1049h297l-88 -1536h-420l-403 952l36 -952h-467z" />
    <glyph glyph-name="ncaron" unicode="&#x148;" horiz-adv-x="1370" 
d="M582 1384l-105 152l-364 358h262l276 -190l281 190h262l-363 -358l-92 -152h-157zM1217 666l49 -668h-406l70 700q24 234 -205 234q-131 0 -206.5 -75t-65.5 -210l53 -649h-402l91 1196h229l25 -92q134 85 296 90q225 7 338.5 -121.5t133.5 -404.5z" />
    <glyph glyph-name="napostrophe" unicode="&#x149;" 
d="M788 -2l70 700q24 234 -205 234q-131 0 -206.5 -75t-65.5 -210l53 -649h-401l84 1110l-221 -33l528 527h317l-350 -453l-26 -4l12 -43q134 85 297 90q225 7 338 -121t133 -405l49 -668h-406z" />
    <glyph glyph-name="Eng" unicode="&#x14a;" horiz-adv-x="1550" 
d="M1364 90q6 -9 6 -22q15 -309 -92 -394q-41 -34 -199.5 -56.5t-311.5 -18.5t-179 36q10 22 24.5 65t31 97.5t24.5 77.5h161q54 0 61 3q18 7 20 50q1 19 1 78q0 15 11 33l-387 913l36 -952h-467l127 1520h338l492 -1033l88 1049h297z" />
    <glyph glyph-name="eng" unicode="&#x14b;" horiz-adv-x="1370" 
d="M1266 -2h-6q-3 -235 -80 -309q-36 -34 -170.5 -56.5t-265 -18.5t-152.5 36q13 36 67 239h138h16q18 -1 25 0.5t15 5t9.5 18t2.5 31.5t1 54h-6l70 700q24 234 -205 234q-131 0 -206.5 -75t-65.5 -210l53 -649h-402l91 1196h229l25 -92q134 85 296 90q225 7 338.5 -121.5
t133.5 -404.5z" />
    <glyph glyph-name="Omacron" unicode="&#x14c;" horiz-adv-x="1710" 
d="M418 1993l864 53l100 -268l-1077 -41zM856 1575q225 0 397 -103.5t263.5 -293t85.5 -435.5q-4 -156 -20.5 -271t-53.5 -205.5t-91.5 -149t-138.5 -96.5t-190.5 -53.5t-251.5 -14.5q-212 2 -352.5 43.5t-229.5 137.5t-127 243t-38 368q0 248 92 436t261.5 291t393.5 103z
M856 1321q-193 0 -308.5 -156.5t-115.5 -419.5q0 -182 97 -258.5t327 -76.5t326 76t96 259q0 264 -115 420t-307 156z" />
    <glyph glyph-name="omacron" unicode="&#x14d;" horiz-adv-x="1355" 
d="M207 1694l864 53l100 -268l-1077 -41zM678 -84q-264 0 -416.5 172.5t-152.5 470.5q0 284 154 452.5t415 168.5t415 -168.5t154 -452.5q0 -297 -152.5 -470t-416.5 -173zM678 324q137 0 200.5 57.5t63.5 210.5q0 158 -71.5 250t-192.5 92q-122 0 -193 -92t-71 -250
q0 -153 63.5 -210.5t200.5 -57.5z" />
    <glyph glyph-name="Obreve" unicode="&#x14e;" horiz-adv-x="1710" 
d="M834 1657q-109 0 -193.5 21.5t-147 67.5t-91.5 125.5t-19 188.5h250q10 -58 53 -78t148 -20q119 0 164.5 19.5t54.5 78.5h188l59 2q0 -192 -129.5 -298.5t-336.5 -106.5zM856 1575q225 0 397 -103.5t263.5 -293t85.5 -435.5q-4 -156 -20.5 -271t-53.5 -205.5t-91.5 -149
t-138.5 -96.5t-190.5 -53.5t-251.5 -14.5q-212 2 -352.5 43.5t-229.5 137.5t-127 243t-38 368q0 248 92 436t261.5 291t393.5 103zM856 410q230 0 326 76t96 259q0 264 -115 420t-307 156q-193 0 -308.5 -156.5t-115.5 -419.5q0 -182 97 -258.5t327 -76.5z" />
    <glyph glyph-name="obreve" unicode="&#x14f;" horiz-adv-x="1355" 
d="M627 1374q-109 0 -193.5 21.5t-147 68t-91.5 126t-19 188.5h250q10 -58 53.5 -78.5t147.5 -20.5q119 0 164.5 20t54.5 79h188l60 2q0 -192 -130.5 -299t-336.5 -107zM678 1180q261 0 415 -168.5t154 -452.5q0 -297 -152.5 -470t-416.5 -173t-416.5 172.5t-152.5 470.5
q0 284 154 452.5t415 168.5zM678 324q137 0 200.5 57.5t63.5 210.5q0 158 -71.5 250t-192.5 92q-122 0 -193 -92t-71 -250q0 -153 63.5 -210.5t200.5 -57.5z" />
    <glyph glyph-name="Ohungarumlaut" unicode="&#x150;" horiz-adv-x="1710" 
d="M1329 1704l-495 -55l528 393h317zM657 1677l-495 -55l528 393h318zM856 1575q225 0 397 -103.5t263.5 -293t85.5 -435.5q-4 -156 -20.5 -271t-53.5 -205.5t-91.5 -149t-138.5 -96.5t-190.5 -53.5t-251.5 -14.5q-212 2 -352.5 43.5t-229.5 137.5t-127 243t-38 368
q0 248 92 436t261.5 291t393.5 103zM856 1321q-193 0 -308.5 -156.5t-115.5 -419.5q0 -182 97 -258.5t327 -76.5t326 76t96 259q0 264 -115 420t-307 156z" />
    <glyph glyph-name="ohungarumlaut" unicode="&#x151;" horiz-adv-x="1355" 
d="M1118 1405l-495 -55l528 393h317zM446 1378l-495 -55l528 393h318zM678 -84q-264 0 -416.5 172.5t-152.5 470.5q0 284 154 452.5t415 168.5t415 -168.5t154 -452.5q0 -297 -152.5 -470t-416.5 -173zM678 324q137 0 200.5 57.5t63.5 210.5q0 158 -71.5 250t-192.5 92
q-122 0 -193 -92t-71 -250q0 -153 63.5 -210.5t200.5 -57.5z" />
    <glyph glyph-name="OE" unicode="&#x152;" horiz-adv-x="2463" 
d="M2370 -78h-1117l2 82q-149 -54 -399 -51q-212 2 -352.5 43.5t-229.5 137.5t-127 243t-38 368q0 248 92 436t261.5 291t393.5 103q262 0 449 -139l2 59l1036 33l-74 -260l-663 -37v-338l501 22v-278l-501 -33v-262h671zM856 410q230 0 326 76t96 259q0 264 -115 420
t-307 156q-193 0 -308.5 -156.5t-115.5 -419.5q0 -182 97 -258.5t327 -76.5z" />
    <glyph glyph-name="oe" unicode="&#x153;" horiz-adv-x="2191" 
d="M1602 299q133 -17 222.5 3t239.5 97v-338q-231 -108 -467 -108q-309 0 -477 168q-153 -205 -442 -205q-264 0 -416.5 172.5t-152.5 470.5q0 284 154 452.5t415 168.5q275 0 430 -185q162 207 459 207h4q230 -19 354.5 -165t165.5 -443l-844 -57q0 -17 -2 -27
q25 -96 112.5 -143.5t244.5 -67.5zM1567 995q-94 3 -170.5 -47.5t-102.5 -124.5l516 19q-31 68 -96 109t-147 44zM678 324q137 0 200.5 57.5t63.5 210.5q0 158 -71.5 250t-192.5 92q-122 0 -193 -92t-71 -250q0 -153 63.5 -210.5t200.5 -57.5z" />
    <glyph glyph-name="Racute" unicode="&#x154;" horiz-adv-x="1402" 
d="M659 1985h215l-139 -426h-284zM989 723q124 -112 187 -301l137 -414h-500l21 377q2 49 -11 95t-41 79.5t-72 41.5t-102 -19l-100 -50l37 -524h-441l101 1528h416q257 0 394.5 -120.5t137.5 -352.5q0 -249 -164 -340zM641 1331h-199v-446h199q99 0 178.5 55.5t79.5 122.5
q0 268 -258 268z" />
    <glyph glyph-name="racute" unicode="&#x155;" horiz-adv-x="1048" 
d="M457 1690h215l-140 -426h-284zM903 1182l45 -312q-109 18 -187 18t-126.5 -16t-77.5 -47t-40 -76.5t-13.5 -102.5t0.5 -126q3 -97 14 -173.5t62 -348.5h-484q71 327 89 542t18 634l301 -11v-63q73 43 156.5 59.5t242.5 22.5z" />
    <glyph glyph-name="uni0156" unicode="&#x156;" horiz-adv-x="1402" 
d="M813 8l21 377q2 49 -11 95t-41 79.5t-72 41.5t-102 -19l-100 -50l37 -524h-441l101 1528h231l125 342l2 240h355l-82 -287v-2l-86 -299h-21q206 -25 315 -143.5t109 -323.5q0 -249 -164 -340q124 -112 187 -301l137 -414h-500zM641 885q99 0 178.5 55.5t79.5 122.5
q0 268 -258 268h-199v-446h199z" />
    <glyph glyph-name="uni0157" unicode="&#x157;" horiz-adv-x="1048" 
d="M547 1235h-316l127 348l2 240h355l-82 -287v-2zM948 870q-109 18 -187 18t-126.5 -16t-77.5 -47t-40 -76.5t-13.5 -102.5t0.5 -126q3 -97 14 -173.5t62 -348.5h-484q71 327 89 542t18 634l301 -11v-63q73 43 156.5 59.5t242.5 22.5z" />
    <glyph glyph-name="Rcaron" unicode="&#x158;" horiz-adv-x="1402" 
d="M580 1540l-105 152l-364 358h262l276 -190l281 190h262l-363 -358l-92 -152h-157zM989 723q124 -112 187 -301l137 -414h-500l21 377q2 49 -11 95t-41 79.5t-72 41.5t-102 -19l-100 -50l37 -524h-441l101 1528h416q257 0 394.5 -120.5t137.5 -352.5q0 -249 -164 -340z
M641 1331h-199v-446h199q99 0 178.5 55.5t79.5 122.5q0 268 -258 268z" />
    <glyph glyph-name="rcaron" unicode="&#x159;" horiz-adv-x="1048" 
d="M377 1245l-105 152l-364 358h262l276 -190l281 190h262l-362 -358l-92 -152h-158zM903 1182l45 -312q-109 18 -187 18t-126.5 -16t-77.5 -47t-40 -76.5t-13.5 -102.5t0.5 -126q3 -97 14 -173.5t62 -348.5h-484q71 327 89 542t18 634l301 -11v-63q73 43 156.5 59.5
t242.5 22.5z" />
    <glyph glyph-name="Sacute" unicode="&#x15a;" horiz-adv-x="1556" 
d="M772 2046h215l-139 -426h-285zM739 -33q-58 0 -85.5 0.5t-116.5 7t-154 19.5t-153.5 42t-159.5 70l264 349q25 -21 146 -74.5t222 -79.5q104 -26 178 -23.5t122 27.5t71 57t23 66q0 30 -62.5 72t-130.5 71.5t-102 36.5l-123 25q-243 47 -354 157.5t-111 303.5
q0 232 150.5 354.5t420.5 122.5q117 0 261.5 -20t199.5 -40l-141 -251q-67 25 -159 42t-138 17q-56 0 -122.5 -30.5t-112.5 -77t-46 -87.5q0 -68 51 -115.5t183 -76.5l121 -25q280 -55 433.5 -181.5t153.5 -313.5q0 -205 -188 -325t-541 -120z" />
    <glyph glyph-name="sacute" unicode="&#x15b;" horiz-adv-x="1288" 
d="M684 1722h215l-139 -426h-285zM1065 1126l-80 -202q-103 59 -283 75q-29 3 -47 4t-47 0.5t-47.5 -4.5t-40 -13.5t-33 -24.5t-17.5 -40t-3 -57q3 -29 25.5 -50t65 -35t82 -23.5t100 -21.5t96.5 -21q96 -25 169.5 -66.5t113.5 -84t65 -89t31.5 -78t5.5 -53.5
q-4 -74 -40 -140.5t-103 -121.5t-177 -88.5t-248 -34.5q-174 -2 -331 36.5t-248 110.5l274 304q56 -51 121.5 -82t167.5 -41q6 -1 25.5 -3t28.5 -3t27.5 -2t28.5 1t25.5 4.5t25 9t20.5 15.5t19 23t13 32q4 23 6 39t-7.5 30t-18.5 23t-28 17.5t-36 14t-42 11t-46.5 10
t-49.5 11t-50 12.5q-151 43 -249 140.5t-98 236.5q0 45 11 83.5t41.5 77t79.5 64.5t130 42t187 14q94 -2 203.5 -18t181.5 -44z" />
    <glyph glyph-name="Scircumflex" unicode="&#x15c;" horiz-adv-x="1556" 
d="M690 2079h158l92 -152l363 -358h-263l-280 190l-277 -190h-262l365 358zM739 -33q-58 0 -85.5 0.5t-116.5 7t-154 19.5t-153.5 42t-159.5 70l264 349q25 -21 146 -74.5t222 -79.5q104 -26 178 -23.5t122 27.5t71 57t23 66q0 30 -62.5 72t-130.5 71.5t-102 36.5l-123 25
q-243 47 -354 157.5t-111 303.5q0 232 150.5 354.5t420.5 122.5q117 0 261.5 -20t199.5 -40l-141 -251q-67 25 -159 42t-138 17q-56 0 -122.5 -30.5t-112.5 -77t-46 -87.5q0 -68 51 -115.5t183 -76.5l121 -25q280 -55 433.5 -181.5t153.5 -313.5q0 -205 -188 -325t-541 -120
z" />
    <glyph glyph-name="scircumflex" unicode="&#x15d;" horiz-adv-x="1288" 
d="M602 1755h158l92 -151l362 -359h-262l-280 191l-277 -191h-262l365 359zM1065 1126l-80 -202q-103 59 -283 75q-29 3 -47 4t-47 0.5t-47.5 -4.5t-40 -13.5t-33 -24.5t-17.5 -40t-3 -57q3 -29 25.5 -50t65 -35t82 -23.5t100 -21.5t96.5 -21q96 -25 169.5 -66.5t113.5 -84
t65 -89t31.5 -78t5.5 -53.5q-4 -74 -40 -140.5t-103 -121.5t-177 -88.5t-248 -34.5q-174 -2 -331 36.5t-248 110.5l274 304q56 -51 121.5 -82t167.5 -41q6 -1 25.5 -3t28.5 -3t27.5 -2t28.5 1t25.5 4.5t25 9t20.5 15.5t19 23t13 32q4 23 6 39t-7.5 30t-18.5 23t-28 17.5
t-36 14t-42 11t-46.5 10t-49.5 11t-50 12.5q-151 43 -249 140.5t-98 236.5q0 45 11 83.5t41.5 77t79.5 64.5t130 42t187 14q94 -2 203.5 -18t181.5 -44z" />
    <glyph glyph-name="Scedilla" unicode="&#x15e;" horiz-adv-x="1556" 
d="M825 -31l-18 -51h-16q120 0 187 -61t52 -158q-17 -97 -89 -152t-179 -55h-195l47 229q69 -15 88.5 -17.5t63.5 -2.5q8 0 27.5 4.5t35 8.5t15.5 3q0 23 -14.5 31t-59.5 8q-55 0 -205 -22l78 233q-350 10 -573 139l264 349q25 -21 146 -74.5t222 -79.5q104 -26 178 -23.5
t122 27.5t71 57t23 66q0 30 -62.5 72t-130.5 71.5t-102 36.5l-123 25q-243 47 -354 157.5t-111 303.5q0 232 150.5 354.5t420.5 122.5q117 0 261.5 -20t199.5 -40l-141 -251q-67 25 -159 42t-138 17q-56 0 -122.5 -30.5t-112.5 -77t-46 -87.5q0 -68 51 -115.5t183 -76.5
l121 -25q280 -55 433.5 -181.5t153.5 -313.5q0 -192 -165.5 -310t-477.5 -133z" />
    <glyph glyph-name="scedilla" unicode="&#x15f;" horiz-adv-x="1288" 
d="M1065 1126l-80 -202q-103 59 -283 75q-29 3 -47 4t-47 0.5t-47.5 -4.5t-40 -13.5t-33 -24.5t-17.5 -40t-3 -57q3 -29 25.5 -50t65 -35t82 -23.5t100 -21.5t96.5 -21q96 -25 169.5 -66.5t113.5 -84t65 -89t31.5 -78t5.5 -53.5q-4 -74 -40 -140.5t-103 -121.5t-177 -88.5
t-248 -34.5q-174 -2 -331 36.5t-248 110.5l274 304q56 -51 121.5 -82t167.5 -41q6 -1 25.5 -3t28.5 -3t27.5 -2t28.5 1t25.5 4.5t25 9t20.5 15.5t19 23t13 32q4 23 6 39t-7.5 30t-18.5 23t-28 17.5t-36 14t-42 11t-46.5 10t-49.5 11t-50 12.5q-151 43 -249 140.5t-98 236.5
q0 45 11 83.5t41.5 77t79.5 64.5t130 42t187 14q94 -2 203.5 -18t181.5 -44zM451 -401l116 348h185l-60 -164h-16q120 0 187 -61t52 -158q-17 -97 -89 -152t-179 -55h-194l47 229q69 -15 88 -17.5t63 -2.5q8 0 27.5 4.5t35 8.5t15.5 3q0 23 -14.5 31t-59.5 8q-54 0 -204 -22
z" />
    <glyph glyph-name="Scaron" unicode="&#x160;" horiz-adv-x="1556" 
d="M692 1602l-104 151l-365 358h262l277 -190l280 190h263l-363 -358l-92 -151h-158zM739 -33q-58 0 -85.5 0.5t-116.5 7t-154 19.5t-153.5 42t-159.5 70l264 349q25 -21 146 -74.5t222 -79.5q104 -26 178 -23.5t122 27.5t71 57t23 66q0 30 -62.5 72t-130.5 71.5t-102 36.5
l-123 25q-243 47 -354 157.5t-111 303.5q0 232 150.5 354.5t420.5 122.5q117 0 261.5 -20t199.5 -40l-141 -251q-67 25 -159 42t-138 17q-56 0 -122.5 -30.5t-112.5 -77t-46 -87.5q0 -68 51 -115.5t183 -76.5l121 -25q280 -55 433.5 -181.5t153.5 -313.5q0 -205 -188 -325
t-541 -120z" />
    <glyph glyph-name="scaron" unicode="&#x161;" horiz-adv-x="1556" 
d="M881 907q280 -55 433.5 -181.5t153.5 -313.5q0 -205 -188 -325t-541 -120q-58 0 -85.5 0.5t-116.5 7t-154 19.5t-153.5 42t-159.5 70l264 349q25 -21 146 -74.5t222 -79.5q104 -26 178 -23.5t122 27.5t71 57t23 66q0 30 -62.5 72t-130.5 71.5t-102 36.5l-123 25
q-243 47 -354 157.5t-111 303.5q0 208 121 327.5t344 143.5l-82 118l-365 359h263l276 -191l281 191h262l-363 -359l-69 -116q104 -6 212 -23t152 -33l-141 -251q-67 25 -159 42t-138 17q-56 0 -122.5 -30.5t-112.5 -77t-46 -87.5q0 -68 51 -115.5t183 -76.5z" />
    <glyph glyph-name="uni0162" unicode="&#x162;" horiz-adv-x="1591" 
d="M109 1260v282h1374v-282l-529 20l41 -1282h-397l39 1282zM592 -354l117 348h184l-59 -164h-17q120 0 187.5 -61t52.5 -158q-17 -96 -89 -151.5t-180 -55.5h-194l47 229q69 -15 88 -17.5t64 -2.5q8 0 27.5 4.5t34.5 8.5t15 3q0 24 -14 31.5t-59 7.5q-55 0 -205 -22z" />
    <glyph glyph-name="uni0163" unicode="&#x163;" horiz-adv-x="1159" 
d="M612 317q150 0 367 2l22 -319h-565q-70 6 -89 35.5t-17 107.5q0 9 -1 113t0 284.5t7 362.5h-297l106 248h201q5 122 19 291l301 123l-19 -414h314l65 -248h-389zM705 -229q120 0 187 -61.5t52 -158.5q-17 -96 -88.5 -151t-179.5 -55h-195l47 229q69 -15 88.5 -17.5
t63.5 -2.5q8 0 27.5 4.5t35 8.5t15.5 3q0 23 -14.5 31t-59.5 8q-48 0 -205 -23l117 348h184l-59 -163h-16z" />
    <glyph glyph-name="Tcaron" unicode="&#x164;" horiz-adv-x="1591" 
d="M719 1610l-105 151l-364 359h262l276 -191l281 191h262l-362 -359l-92 -151h-158zM109 1260v282h1374v-282l-529 20l41 -1282h-397l39 1282z" />
    <glyph glyph-name="tcaron" unicode="&#x165;" horiz-adv-x="1159" 
d="M469 1624l-104 152l-365 358h262l277 -190l280 190h262l-362 -358l-92 -152h-158zM1026 903h-389l-25 -586q150 0 367 2l22 -319h-565q-70 6 -89 35.5t-17 107.5q0 9 -1 113t0 284.5t7 362.5h-297l106 248h201q5 122 19 291l301 123l-19 -414h314z" />
    <glyph glyph-name="Tbar" unicode="&#x166;" horiz-adv-x="1591" 
d="M1483 1260l-529 20l15 -424h264v-215h-258l20 -643h-397l20 643h-296v215h303l12 424l-528 -20v282h1374v-282z" />
    <glyph glyph-name="tbar" unicode="&#x167;" horiz-adv-x="1159" 
d="M612 317q150 0 367 2l22 -319h-565q-70 6 -89 35.5t-17 107.5q1 10 0 73t-1.5 154.5t1.5 221.5h-307v215h309q1 16 2 48t2 48h-297l106 248h201q5 122 19 291l301 123l-19 -414h314l65 -248h-389l-4 -96h301v-215h-309z" />
    <glyph glyph-name="Utilde" unicode="&#x168;" horiz-adv-x="1548" 
d="M625 1726h-168l-56 60q14 207 65.5 282.5t182.5 75.5q51 0 100 -32t78 -70.5t52.5 -70.5t29.5 -32q13 0 19 5.5t8 22t1.5 36t0 60t4.5 81.5h145l56 -55q-3 -213 -51.5 -289.5t-180.5 -73.5q-45 1 -87.5 23t-72 54t-52 63.5t-36 53.5t-16.5 22q-6 0 -11.5 -19t-9 -70.5
t-1.5 -126.5zM141 559l-35 989h410l-31 -825q-4 -46 -1.5 -83t3.5 -67t10 -53.5t17.5 -40.5t26.5 -29.5t37.5 -20.5t49.5 -12.5t63 -6.5t79 -2q45 0 78 2t63 6.5t49 12.5t37 20.5t26 29.5t17 40.5t9.5 53.5t3 67t-1.5 83l-31 825h422l-47 -989q-5 -110 -18 -195
t-32.5 -145.5t-46.5 -104t-61 -69.5t-74.5 -41.5t-88 -21t-101 -7t-113.5 0.5q-59 1 -90 1t-91 -1h-130.5t-114 10.5t-96.5 31.5t-78.5 62.5t-59.5 104t-40 156t-19 218.5z" />
    <glyph glyph-name="utilde" unicode="&#x169;" horiz-adv-x="1339" 
d="M524 1333h-168l-55 60q14 207 65.5 282.5t182.5 75.5q51 0 100 -32t78 -70.5t52.5 -70.5t29.5 -32q13 0 19 5.5t8 22t1.5 36t0 60t4.5 81.5h145l55 -55q-3 -213 -51 -289.5t-180 -73.5q-45 1 -87.5 23t-72 53.5t-52 63t-36 53.5t-16.5 22q-6 0 -11.5 -18.5t-9.5 -70
t-2 -126.5zM600 -35q-228 0 -330.5 110.5t-117.5 362.5l-48 738h265l47 -564q8 -105 30.5 -158t66 -77.5t130.5 -34.5q50 -9 91 -2t70 34.5t47.5 95t25.5 179.5l22 527h289l45 -1176h-338l2 39q-102 -74 -297 -74z" />
    <glyph glyph-name="Umacron" unicode="&#x16a;" horiz-adv-x="1548" 
d="M348 2081l864 53l101 -268l-1077 -41zM141 559l-35 989h410l-31 -825q-4 -46 -1.5 -83t3.5 -67t10 -53.5t17.5 -40.5t26.5 -29.5t37.5 -20.5t49.5 -12.5t63 -6.5t79 -2q45 0 78 2t63 6.5t49 12.5t37 20.5t26 29.5t17 40.5t9.5 53.5t3 67t-1.5 83l-31 825h422l-47 -989
q-5 -110 -18 -195t-32.5 -145.5t-46.5 -104t-61 -69.5t-74.5 -41.5t-88 -21t-101 -7t-113.5 0.5q-59 1 -90 1t-91 -1h-130.5t-114 10.5t-96.5 31.5t-78.5 62.5t-59.5 104t-40 156t-19 218.5z" />
    <glyph glyph-name="umacron" unicode="&#x16b;" horiz-adv-x="1339" 
d="M248 1688l864 53l100 -268l-1077 -41zM600 -35q-228 0 -330.5 110.5t-117.5 362.5l-48 738h265l47 -564q8 -105 30.5 -158t66 -77.5t130.5 -34.5q50 -9 91 -2t70 34.5t47.5 95t25.5 179.5l22 527h289l45 -1176h-338l2 39q-102 -74 -297 -74z" />
    <glyph glyph-name="Uring" unicode="&#x16e;" horiz-adv-x="1548" 
d="M772 1858q-100 0 -170 73.5t-70 177.5q0 103 70.5 176.5t169.5 73.5t169.5 -73.5t70.5 -176.5q0 -104 -70 -177.5t-170 -73.5zM772 2081q37 0 43 7t6 48q0 22 -14.5 37.5t-34.5 15.5t-34.5 -15.5t-14.5 -37.5q0 -41 6 -48t43 -7zM141 559l-35 989h410l-31 -825
q-4 -46 -1.5 -83t3.5 -67t10 -53.5t17.5 -40.5t26.5 -29.5t37.5 -20.5t49.5 -12.5t63 -6.5t79 -2q45 0 78 2t63 6.5t49 12.5t37 20.5t26 29.5t17 40.5t9.5 53.5t3 67t-1.5 83l-31 825h422l-47 -989q-5 -110 -18 -195t-32.5 -145.5t-46.5 -104t-61 -69.5t-74.5 -41.5t-88 -21
t-101 -7t-113.5 0.5q-59 1 -90 1t-91 -1h-130.5t-114 10.5t-96.5 31.5t-78.5 62.5t-59.5 104t-40 156t-19 218.5z" />
    <glyph glyph-name="uring" unicode="&#x16f;" horiz-adv-x="1339" 
d="M672 1464q-100 0 -170 74t-70 178q0 103 70.5 176.5t169.5 73.5t169 -73.5t70 -176.5q0 -104 -69.5 -178t-169.5 -74zM672 1688q37 0 43 7t6 48q0 22 -14.5 37.5t-34.5 15.5t-34.5 -15.5t-14.5 -37.5q0 -41 6 -48t43 -7zM600 -35q-228 0 -330.5 110.5t-117.5 362.5
l-48 738h265l47 -564q8 -105 30.5 -158t66 -77.5t130.5 -34.5q50 -9 91 -2t70 34.5t47.5 95t25.5 179.5l22 527h289l45 -1176h-338l2 39q-102 -74 -297 -74z" />
    <glyph glyph-name="Uhungarumlaut" unicode="&#x170;" horiz-adv-x="1548" 
d="M1260 1792l-496 -55l528 393h318zM588 1765l-496 -55l529 393h317zM141 559l-35 989h410l-31 -825q-4 -46 -1.5 -83t3.5 -67t10 -53.5t17.5 -40.5t26.5 -29.5t37.5 -20.5t49.5 -12.5t63 -6.5t79 -2q45 0 78 2t63 6.5t49 12.5t37 20.5t26 29.5t17 40.5t9.5 53.5t3 67
t-1.5 83l-31 825h422l-47 -989q-5 -110 -18 -195t-32.5 -145.5t-46.5 -104t-61 -69.5t-74.5 -41.5t-88 -21t-101 -7t-113.5 0.5q-59 1 -90 1t-91 -1h-130.5t-114 10.5t-96.5 31.5t-78.5 62.5t-59.5 104t-40 156t-19 218.5z" />
    <glyph glyph-name="uhungarumlaut" unicode="&#x171;" horiz-adv-x="1339" 
d="M1159 1399l-495 -56l528 394h317zM487 1372l-495 -55l528 393h318zM600 -35q-228 0 -330.5 110.5t-117.5 362.5l-48 738h265l47 -564q8 -105 30.5 -158t66 -77.5t130.5 -34.5q50 -9 91 -2t70 34.5t47.5 95t25.5 179.5l22 527h289l45 -1176h-338l2 39q-102 -74 -297 -74z
" />
    <glyph glyph-name="Uogonek" unicode="&#x172;" horiz-adv-x="1548" 
d="M1020 1548h422l-47 -989q-10 -201 -46.5 -323t-92.5 -174.5t-144 -71.5q-176 -167 -176 -215q0 1 9 -1t27 -4.5t34 -2.5q48 0 159 18q8 -79 31 -197l-55 -65q-202 -3 -316 57t-114 174q0 106 108 223h-49q-31 0 -91 -1h-130.5t-114 10.5t-96.5 31.5t-78.5 62.5t-59.5 104
t-40 156t-19 218.5l-35 989h410l-31 -825q-4 -46 -1.5 -83t3.5 -67t10 -53.5t17.5 -40.5t26.5 -29.5t37.5 -20.5t49.5 -12.5t63 -6.5t79 -2q45 0 78 2t63 6.5t49 12.5t37 20.5t26 29.5t17 40.5t9.5 53.5t3 67t-1.5 83z" />
    <glyph glyph-name="uogonek" unicode="&#x173;" 
d="M1245 -233q8 -79 31 -197l-55 -66q-202 -3 -316 57.5t-114 174.5q0 124 149 264h-45l2 39q-102 -74 -297 -74q-228 0 -330.5 110.5t-117.5 362.5l-48 738h265l47 -564q8 -105 30.5 -158t66 -77.5t130.5 -34.5q50 -9 91 -2t70 34.5t47.5 95t25.5 179.5l22 527h289
l45 -1176h-35l6 -18q-90 -83 -139 -142.5t-49 -83.5q0 1 9 -1t26.5 -4.5t33.5 -2.5q43 0 160 19z" />
    <glyph glyph-name="Wcircumflex" unicode="&#x174;" horiz-adv-x="2217" 
d="M1034 1933h158l92 -151l363 -359h-263l-280 191l-277 -191h-262l365 359zM453 -2l-338 1550h325l236 -977l307 596h244l278 -612l252 993h348l-383 -1550h-376l-238 643l-256 -643h-399z" />
    <glyph glyph-name="wcircumflex" unicode="&#x175;" horiz-adv-x="1830" 
d="M846 1724h158l92 -151l362 -359h-262l-281 191l-276 -191h-262l364 359zM414 -55l-322 1231h318l182 -637l229 383h189l209 -383l202 637h318l-322 -1231h-332l-170 325l-178 -325h-323z" />
    <glyph glyph-name="Ycircumflex" unicode="&#x176;" horiz-adv-x="1564" 
d="M698 2138h158l92 -151l363 -359h-262l-281 191l-276 -191h-263l365 359zM588 500l-512 1048h338l370 -659l367 659h338l-518 -1048l18 -502h-444z" />
    <glyph glyph-name="ycircumflex" unicode="&#x177;" horiz-adv-x="1417" 
d="M662 1731h157l92 -152l363 -358h-262l-281 190l-276 -190h-262l364 358zM1331 1149l-442 -1380q-49 -155 -182 -254t-314 -99h-223v355h184q71 0 142.5 38.5t107.5 103t-2 148.5l-539 1088h324l414 -700l219 700h311z" />
    <glyph glyph-name="Ydieresis" unicode="&#x178;" horiz-adv-x="1564" 
d="M332 1726v318h317v-318h-317zM889 1726v318h317v-318h-317zM588 500l-512 1048h338l370 -659l367 659h338l-518 -1048l18 -502h-444z" />
    <glyph glyph-name="Zacute" unicode="&#x179;" horiz-adv-x="1648" 
d="M823 1985h215l-139 -426h-285zM373 1206l-162 330h1329v-295l-772 -887h616l134 -395l-1409 -16v366l856 887z" />
    <glyph glyph-name="zacute" unicode="&#x17a;" horiz-adv-x="1374" 
d="M768 1683h215l-139 -426h-285zM291 932v248h938l41 -211l-649 -666h487l170 -305h-1180l64 299l684 635h-555z" />
    <glyph glyph-name="Zdotaccent" unicode="&#x17b;" horiz-adv-x="1648" 
d="M651 1604v317h318v-317h-318zM373 1206l-162 330h1329v-295l-772 -887h616l134 -395l-1409 -16v366l856 887z" />
    <glyph glyph-name="zdotaccent" unicode="&#x17c;" horiz-adv-x="1374" 
d="M596 1303v317h317v-317h-317zM291 932v248h938l41 -211l-649 -666h487l170 -305h-1180l64 299l684 635h-555z" />
    <glyph glyph-name="Zcaron" unicode="&#x17d;" horiz-adv-x="1648" 
d="M743 1540l-104 152l-365 358h263l276 -190l281 190h262l-363 -358l-92 -152h-158zM373 1206l-162 330h1329v-295l-772 -887h616l134 -395l-1409 -16v366l856 887z" />
    <glyph glyph-name="zcaron" unicode="&#x17e;" horiz-adv-x="1374" 
d="M688 1239l-104 152l-365 358h262l277 -190l280 190h262l-362 -358l-92 -152h-158zM291 932v248h938l41 -211l-649 -666h487l170 -305h-1180l64 299l684 635h-555z" />
    <glyph glyph-name="uni0181" unicode="&#x181;" horiz-adv-x="1406" 
d="M1032 815q131 -54 198.5 -155t67.5 -242q0 -99 -17.5 -175t-40.5 -126t-73.5 -84t-88.5 -51t-114.5 -25.5t-123 -10t-140.5 -1.5h-591v1239q-100 -24 -121 -152q-13 -76 -13 -467l-243 371v154q0 200 128 337.5t318 137.5l17 -17h436q253 0 394.5 -111.5t141.5 -312.5
q0 -212 -135 -309zM422 1303v-371h244q125 0 181 41t56 129q0 97 -60.5 149t-176.5 52h-244zM690 352q165 0 220 31.5t55 124.5q0 37 -70 98q-57 51 -205 51h-268v-305h268z" />
    <glyph glyph-name="uni0186" unicode="&#x186;" horiz-adv-x="1468" 
d="M119 1499q249 45 477 37q180 -6 313 -54t223.5 -141t145 -222t82.5 -306q22 -126 19 -230.5t-18.5 -187t-52 -147t-82 -111.5t-107.5 -80t-129 -52t-146 -28h-692v527q164 -84 411 -84q262 0 383.5 95t126.5 298q2 90 -22.5 160.5t-67 118t-107 81.5t-134.5 52t-158 28
q-93 10 -183 0t-233 -41z" />
    <glyph glyph-name="uni0187" unicode="&#x187;" horiz-adv-x="1468" 
d="M1196 1702q3 77 40 97t165 18v-111q-32 -2 -53 -1q-14 1 -16 0t-1 -9v-10v-3v-86v-94q3 -1 9.5 -2t9.5 -2l-19 -106v-68h-12l-19 -113q-144 31 -233 41t-182 0q-88 -10 -158.5 -28t-134.5 -52t-107 -81.5t-67.5 -118t-22.5 -160.5q5 -203 126.5 -298t383.5 -95
q248 0 412 84v-527h-692q-79 9 -146 28t-129 52t-107.5 80t-82 111.5t-52 147t-18.5 187t19 230.5q28 177 82 306t145 222t223.5 141t312.5 54q142 4 322 -14v75v5v81h2v19z" />
    <glyph glyph-name="uni0188" unicode="&#x188;" horiz-adv-x="1214" 
d="M1106 1399q-51 -1 -107 1q-30 0 -35 -1t-4 -9q1 -6 1 -10v-4v-84v-135q4 0 4 -4v-252q-146 45 -271 39q-47 -2 -83.5 -8t-64.5 -19t-47.5 -27.5t-33 -39.5t-22 -50t-12.5 -65t-5.5 -77t-1.5 -93q7 -96 45.5 -165.5t95.5 -101t132 -18.5t151 74l233 -262
q-113 -61 -188 -80.5t-182 -19.5q-602 0 -602 571q0 295 150 466t417 177v90v2v82h2q0 2 1 9t1 12q3 27 10 44t27.5 30.5t47.5 20.5t78 11.5t110 5.5t153 0v-110z" />
    <glyph glyph-name="uni0189" unicode="&#x189;" horiz-adv-x="1583" 
d="M580 1548q456 0 675.5 -196t219.5 -604q0 -397 -129 -564q-96 -125 -297 -162q-127 -24 -418 -24h-51h-471v721h-129v215h129v614h471zM621 444q317 0 448 82.5t131 278.5q0 246 -143 367.5t-436 121.5h-189v-360h459v-215h-459v-275h189z" />
    <glyph glyph-name="uni018A" unicode="&#x18a;" horiz-adv-x="1583" 
d="M580 1548q456 0 675.5 -196t219.5 -604q0 -397 -129 -564q-96 -125 -297 -162q-127 -24 -418 -24h-51h-471v1178q-101 -21 -123 -152q-13 -76 -13 -467l-243 371v153q0 200 128 337.5t318 137.5l8 -8h396zM621 444q317 0 448 82.5t131 278.5q0 246 -143 367.5t-436 121.5
h-189v-850h189z" />
    <glyph glyph-name="uni018E" unicode="&#x18e;" horiz-adv-x="1316" 
d="M1210 -55h-1116l92 420h672v262l-502 32v279l502 -23v338l-663 37l-74 260l1036 -32z" />
    <glyph glyph-name="uni018F" unicode="&#x18f;" horiz-adv-x="1339" 
d="M100 479l852 25q-11 111 -98 167.5t-254 84.5q-135 21 -224 5t-241 -87l12 338q236 99 471 90q295 -12 460 -175t153 -448v-2q-25 -301 -193.5 -469t-437.5 -158l-4 3q-229 28 -348 178.5t-148 447.5zM887 219l-516 2q28 -69 92 -113.5t145 -50.5q94 -6 172 41.5
t107 120.5z" />
    <glyph glyph-name="uni0190" unicode="&#x190;" horiz-adv-x="1427" 
d="M733 -76q-246 0 -394.5 138t-148.5 364q0 272 209 348q-176 102 -176 305q0 189 140.5 300.5t379.5 111.5q43 0 94 -10.5t111 -39.5t107 -72t75 -115t21 -162l-217 -45q17 113 -28 174t-142 61q-150 0 -235 -50t-85 -138q0 -103 68.5 -150t218.5 -47h103l51 -235h-117
q-133 0 -210 -49t-77 -134q0 -98 61 -152.5t171 -56.5q38 -2 70.5 0t58 9t42 26.5t22.5 51t-1 84t-28 124.5l313 27q44 -117 48.5 -216.5t-22 -166t-75.5 -119.5t-105.5 -83t-118 -50t-106.5 -26.5t-78 -6.5z" />
    <glyph glyph-name="uni0191" unicode="&#x191;" horiz-adv-x="1193" 
d="M1085 1307l-600 -37l-34 -289l540 37v-320l-536 -36l30 -617q41 -80 41 -104q0 -96 -86 -186t-224.5 -144.5t-285.5 -54.5l-55 57q0 27 1 48.5t2.5 47t2 37t3.5 42.5t4 39.5t6 51.5t6 55q163 -27 211 109l22 428v39l2 -2l55 1014l895 28v-243z" />
    <glyph glyph-name="florin" unicode="&#x192;" horiz-adv-x="1814" 
d="M1397 1612q136 0 254 -56v-305q-72 73 -116 100t-101 27q-77 0 -120.5 -49.5t-60.5 -157.5l-45 -282l355 18l10 -215l-399 -22l-62 -459q-16 -113 -37 -206t-42 -161t-52 -120.5t-54.5 -86.5t-63 -57.5t-64.5 -35.5t-71.5 -18t-70.5 -6.5t-75 -0.5h-19q-39 0 -100 16.5
t-134.5 49.5t-140 96t-98.5 143l334 172q107 -74 190 -74q73 0 114.5 56.5t70.5 201.5l69 473l-204 -10l-11 215l250 14l53 314q34 201 150.5 313.5t290.5 112.5z" />
    <glyph glyph-name="uni0193" unicode="&#x193;" horiz-adv-x="1718" 
d="M1620 446l-145 3l20 -332q-26 -6 -131 -45.5t-219.5 -65.5t-235.5 -26q-183 0 -335 62.5t-253 171t-156.5 255.5t-55.5 317q0 120 27 230t88.5 210.5t152.5 174.5t227.5 118t304.5 44q103 0 240 -13v168v4v117h2q0 2 1 11t1 16q3 46 12.5 74t29 47.5t61.5 28t95.5 11
t145.5 1.5v-156q-32 -1 -83 0q-28 0 -32.5 -2t-3.5 -14v-13v-4v-121v-280l27 -193q-208 62 -479 62q-132 0 -221.5 -25t-152.5 -86.5t-91.5 -166t-28.5 -261.5q9 -236 116.5 -326t377.5 -90q187 0 258 47v86l-273 37l-30 305l686 -77z" />
    <glyph glyph-name="uni0194" unicode="&#x194;" horiz-adv-x="1941" 
d="M1386 1694h537q-231 -276 -227 -267q-371 -498 -584 -804q92 -163 148 -267.5t112 -224.5t74 -191.5t22.5 -148.5t-29.5 -118.5t-94.5 -77t-160.5 -49t-240 -11.5q-142 2 -249 17.5t-181.5 42t-116.5 71.5t-61 95t-7.5 124t36.5 147.5t78.5 175.5t111.5 198.5t141 226.5
l-499 825q-1 2 -51 82t-99 154h457q17 -25 34 -49t28 -41t26 -43q122 -233 323 -592q257 389 412 641q13 21 26 37.5t33 46.5zM938 -94q84 -2 102 22q27 37 -41 177q-35 71 -102 188q-70 -118 -99 -193.5t-18.5 -117.5t48 -58t110.5 -18z" />
    <glyph glyph-name="uni0196" unicode="&#x196;" horiz-adv-x="733" 
d="M557 223l59 -65v-238h-329q-187 0 -187 293v2h-4q1 12 2 36t2 36v69h4q20 354 27.5 590.5t7.5 628.5h277q-14 -275 -8 -592t45 -627h2v-24q2 -15 6 -43t6 -43q8 -23 30.5 -26.5t59.5 3.5z" />
    <glyph glyph-name="uni0197" unicode="&#x197;" horiz-adv-x="614" 
d="M666 817v-215h-205q13 -263 51 -604h-410q34 273 41 604h-34v215h36q0 441 -32 731h342q-17 -340 -4 -731h215z" />
    <glyph glyph-name="uni0198" unicode="&#x198;" horiz-adv-x="1495" 
d="M709 678l759 -680h-643l-346 422v-422h-377l144 1550h315l-47 -587l330 587h6q-2 16 -2 51l55 58q164 0 289 -109h43l-16 -26q131 -137 131 -340v-154l-244 -371q0 397 -12 467t-50 111z" />
    <glyph glyph-name="uni0199" unicode="&#x199;" horiz-adv-x="1351" 
d="M1325 -2h-586l-286 344l14 -344h-361l80 1491v22h2l9 168h6q7 40 20 68t36.5 48t52 31.5t76 18t99 8t129.5 0.5v-282q-33 -2 -60 -2t-46.5 1t-22.5 1l-16 -279v-2v-424l188 211h340l-372 -461z" />
    <glyph glyph-name="uni019D" unicode="&#x19d;" horiz-adv-x="2418" 
d="M1446 1536l-88 -1536h-268v-10q0 -96 -86 -186t-224.5 -144.5t-285.5 -54.5l-56 57q2 111 25 322q94 -15 150 23.5t71 129.5q12 70 12 422l9 -10l-170 403l36 -952h-467l127 1520h338l492 -1033l88 1049h297z" />
    <glyph glyph-name="Ohorn" unicode="&#x1a0;" horiz-adv-x="1710" 
d="M1442 1298q169 -225 160 -555q-4 -156 -20.5 -271t-53.5 -205.5t-91.5 -149t-138.5 -96.5t-190.5 -53.5t-251.5 -14.5q-212 2 -352.5 43.5t-229.5 137.5t-127 243t-38 368q0 248 92 436t261.5 291t393.5 103q249 0 438 -131q9 34 9 104q0 14 -8 34.5t-42 94.5l232 -28
q22 -70 22 -117q0 -137 -65 -234zM856 410q230 0 326 76t96 259q0 264 -115 420t-307 156q-193 0 -308.5 -156.5t-115.5 -419.5q0 -182 97 -258.5t327 -76.5z" />
    <glyph glyph-name="ohorn" unicode="&#x1a1;" horiz-adv-x="1355" 
d="M1217 838q-9 -9 -13 -11q43 -119 43 -268q0 -297 -152.5 -470t-416.5 -173t-416.5 172.5t-152.5 470.5q0 284 154 452.5t415 168.5q266 0 418 -172q18 23 18 122q0 22 -49 130l231 -29q23 -73 23 -117q0 -85 -27.5 -159t-74.5 -117zM678 324q137 0 200.5 57.5t63.5 210.5
q0 158 -71.5 250t-192.5 92q-122 0 -193 -92t-71 -250q0 -153 63.5 -210.5t200.5 -57.5z" />
    <glyph glyph-name="uni01A4" unicode="&#x1a4;" horiz-adv-x="1323" 
d="M1214 1210q5 -98 -29.5 -192t-100.5 -171t-173.5 -127.5t-238.5 -57.5l-187 -11l41 -706h-422l64 1212q-112 -21 -133 -156q-12 -70 -12 -466l-244 370v154q0 125 52.5 230.5t146.5 169.5t210 73l9 166h432q255 0 414.5 -136t170.5 -352zM688 1090q64 3 106.5 9.5
t79 20.5t56.5 36.5t29.5 58t7.5 85.5q-3 66 -91 110t-239 44h-166v-375z" />
    <glyph glyph-name="uni01A5" unicode="&#x1a5;" horiz-adv-x="1497" 
d="M874 1188q228 -6 371.5 -179.5t143.5 -449.5q0 -288 -136 -455t-379 -167q-185 0 -323 96l-76 -504l-379 -23l137 766v879h3q2 12 2 49q3 70 11 115t30 80.5t51 53.5t84 29.5t118.5 14t165.5 0.5v-283q-61 -3 -114 -1q-33 1 -38 -2t-4 -23q1 -15 1 -25v-8v-88
q131 131 331 125zM911 330q147 0 197.5 54t50.5 208q0 183 -66.5 272.5t-191.5 89.5q-123 0 -189.5 -89.5t-66.5 -272.5q0 -153 56 -207.5t210 -54.5z" />
    <glyph glyph-name="uni01A9" unicode="&#x1a9;" horiz-adv-x="1226" 
d="M1118 1489v-256h-643l371 -430l-12 -29l10 -160l-307 -348h581v-334h-1009v334h38l467 369l-481 598h-24v256h1009z" />
    <glyph glyph-name="uni01AC" unicode="&#x1ac;" horiz-adv-x="1591" 
d="M1483 1542v-282l-529 20l41 -1282h-397l39 1282l-528 -20v26q-34 -23 -37 -74q-2 -42 49 -286l-281 213q-6 33 -20 94q-26 122 78.5 214.5t285.5 104.5l19 -10h1280z" />
    <glyph glyph-name="uni01AD" unicode="&#x1ad;" horiz-adv-x="1159" 
d="M612 317q150 0 367 2l22 -319h-565q-70 6 -89 35.5t-17 107.5q0 9 -1 113t0 284.5t7 362.5h-297l106 248h201q5 122 19 291l4 2v100q0 200 128 337.5t318 137.5l55 -57q-2 -122 -24 -322q-148 24 -201 -84l21 9l-19 -414h314l65 -248h-389z" />
    <glyph glyph-name="uni01AE" unicode="&#x1ae;" horiz-adv-x="1591" 
d="M1483 1260l-529 20l41 -1255q53 -93 193 -72q22 -200 24 -322l-55 -57q-147 0 -285.5 54.5t-224.5 144.5t-86 186q0 26 39 98l37 1223l-528 -20v282h1374v-282z" />
    <glyph glyph-name="Uhorn" unicode="&#x1af;" horiz-adv-x="1548" 
d="M1581 1716q23 -73 23 -117q0 -85 -28 -159t-75 -117q-45 -39 -74 -55l-32 -709q-5 -110 -18 -195t-32.5 -145.5t-46.5 -104t-61 -69.5t-74.5 -41.5t-88 -21t-101 -7t-113.5 0.5q-59 1 -90 1t-91 -1h-130.5t-114 10.5t-96.5 31.5t-78.5 62.5t-59.5 104t-40 156t-19 218.5
l-35 989h410l-31 -825q-4 -46 -1.5 -83t3.5 -67t10 -53.5t17.5 -40.5t26.5 -29.5t37.5 -20.5t49.5 -12.5t63 -6.5t79 -2q45 0 78 2t63 6.5t49 12.5t37 20.5t26 29.5t17 40.5t9.5 53.5t3 67t-1.5 83l-31 825h377q2 18 2 68q0 15 -8.5 37t-40.5 92z" />
    <glyph glyph-name="uhorn" unicode="&#x1b0;" horiz-adv-x="1339" 
d="M1341 1274q23 -73 23 -117q0 -85 -27.5 -159t-74.5 -117q-7 -5 -19 -15.5t-21.5 -17.5t-21.5 -14l33 -834h-338l2 39q-102 -74 -297 -74q-228 0 -330.5 110.5t-117.5 362.5l-48 738h265l47 -564q8 -105 30.5 -158t66 -77.5t130.5 -34.5q50 -9 91 -2t70 34.5t47.5 95
t25.5 179.5l22 527h260q0 3 -0.5 6.5t-1.5 8t-2 8t-3.5 10t-4.5 11.5t-7 15.5t-8 18t-10 22.5t-12 27z" />
    <glyph glyph-name="uni01B1" unicode="&#x1b1;" horiz-adv-x="1757" 
d="M1649 1366l-47 -55q-78 -9 -136 -19q38 -32 66.5 -70.5t53.5 -96.5t38.5 -142.5t13.5 -191.5q0 -249 -92 -437t-261 -290.5t-392 -102.5q-339 0 -543.5 227.5t-204.5 602.5q0 197 46 310t120 185q-124 17 -202 35v291q20 3 49 4t53.5 1t73 -0.5t80.5 -0.5h419
q-7 -222 -26 -379q-75 40 -142.5 -11t-107 -168.5t-39.5 -266.5q0 -263 115.5 -419.5t308.5 -156.5q192 0 307 156t115 420q0 155 -84 285.5t-209 168.5l-39 45q-14 118 -20 326h389q20 0 105.5 3t132.5 0.5t59 -13.5v-240z" />
    <glyph glyph-name="uni01B2" unicode="&#x1b2;" horiz-adv-x="1548" 
d="M1440 1505v-129l-6 -6l-39 -811q-5 -110 -18 -195t-32.5 -145.5t-46.5 -104t-61 -69.5t-74.5 -41.5t-88 -21t-101 -7t-113.5 0.5q-59 1 -90 1t-91 -1h-130.5t-114 10.5t-96.5 31.5t-78.5 62.5t-59.5 104t-40 156t-19 218.5l-35 989h410l-31 -825q-4 -46 -1.5 -83t3.5 -67
t10 -53.5t17.5 -40.5t26.5 -29.5t37.5 -20.5t49.5 -12.5t63 -6.5t79 -2q45 0 78 2t63 6.5t49 12.5t37 20.5t26 29.5t17 40.5t9.5 53.5t3 67t-1.5 83l-31 825h22q-79 102 -278 78q-19 122 -25.5 177.5t-9.5 144.5l78 57q263 0 443.5 -131.5t189.5 -325.5h2z" />
    <glyph glyph-name="uni01B3" unicode="&#x1b3;" horiz-adv-x="1564" 
d="M1481 1530q81 -65 126.5 -164.5t45.5 -214.5v-154l-244 -370q0 397 -12 467q-15 89 -70 129l-356 -723l18 -502h-444l43 502l-512 1048h338l370 -659l367 659v21l55 57q135 0 250 -78h33z" />
    <glyph glyph-name="uni01B4" unicode="&#x1b4;" horiz-adv-x="1417" 
d="M1079 1255q190 0 318.5 -137.5t128.5 -337.5v-153l-244 -371q0 397 -12 467q-13 69 -43 102l-338 -1056q-49 -155 -182 -254t-314 -99h-223v355h184q71 0 142.5 38.5t107.5 103t-2 148.5l-539 1088h324l414 -700l219 700h6q-2 14 -2 49z" />
    <glyph glyph-name="uni01B7" unicode="&#x1b7;" horiz-adv-x="1404" 
d="M870 678q165 -46 286.5 -176t133.5 -279q59 -688 -542 -688q-379 0 -666 311l346 285q68 -77 141 -118t135.5 -41t113 30t79 96t27.5 156q-9 96 -162.5 143t-372.5 17v276q77 72 228.5 207t234.5 221q-333 -3 -737 0v303q8 0 479 3t551 -3l53 -45q11 -64 17.5 -113
t12 -103t7.5 -75l-14 -43q-46 -51 -83 -91t-73.5 -77.5t-58 -59.5t-66.5 -66.5t-70 -69.5z" />
    <glyph glyph-name="uni01C0" unicode="&#x1c0;" horiz-adv-x="524" 
d="M164 1489h254l-58 -1851h-254z" />
    <glyph glyph-name="uni01C1" unicode="&#x1c1;" horiz-adv-x="1312" 
d="M262 1489h254l-57 -1851h-254zM854 1489h254l-57 -1851h-254z" />
    <glyph glyph-name="uni01C2" unicode="&#x1c2;" horiz-adv-x="1239" 
d="M1055 748l100 -269l-450 -16l-25 -825h-254l25 815l-373 -15l112 256l269 17l6 202l-387 -14l112 256l283 19l10 315h254l-10 -301l328 20l100 -268l-436 -16l-6 -197z" />
    <glyph glyph-name="uni01C3" unicode="&#x1c3;" horiz-adv-x="577" 
d="M104 1538h375q-36 -211 -51 -409t-14 -342.5t10 -366.5h-277q0 250 -5.5 434t-11.5 292t-26 392zM135 268h299l-14 -344h-270z" />
    <glyph glyph-name="uni01C4" unicode="&#x1c4;" horiz-adv-x="3231" 
d="M2331 1577l-105 152l-364 358h262l276 -191l281 191h262l-363 -358l-92 -152h-157zM109 -2v1550h471q456 0 675.5 -196t219.5 -604q0 -397 -129 -564q-96 -125 -297 -162q-127 -24 -418 -24h-51h-471zM1956 1206l-162 330h1329v-295l-772 -887h617l133 -395l-1409 -16
v366l856 887zM432 444h189q317 0 448 82.5t131 278.5q0 246 -143 367.5t-436 121.5h-189v-850z" />
    <glyph glyph-name="uni01C5" unicode="&#x1c5;" horiz-adv-x="2957" 
d="M2271 1239l-104 152l-365 358h262l277 -190l280 190h263l-363 -358l-92 -152h-158zM109 -2v1550h471q456 0 675.5 -196t219.5 -604q0 -397 -129 -564q-96 -125 -297 -162q-127 -24 -418 -24h-51h-471zM432 444h189q317 0 448 82.5t131 278.5q0 246 -143 367.5t-436 121.5
h-189v-850zM1874 932v248h938l41 -211l-649 -666h487l170 -305h-1180l64 299l684 635h-555z" />
    <glyph glyph-name="uni01C6" unicode="&#x1c6;" horiz-adv-x="1363" 
d="M1704 1212l-105 152l-364 358h262l277 -190l280 190h262l-362 -358l-92 -152h-158zM1636 276h488l170 -305h-1180l6 29l-194 6l20 90q-21 -12 -63 -36.5t-53.5 -30.5t-40 -21t-40 -18l-34.5 -9t-43 -7t-47 -1q-107 0 -196 31t-151 85t-105.5 128.5t-64 160.5t-20.5 181
q0 170 71.5 316.5t195 232.5t268.5 86q37 0 73.5 -6.5t63.5 -16.5t52.5 -21.5t43.5 -22t34 -17.5t26.5 -8.5t18 5t11 24t4.5 47.5l13 462h294l-51 -1159l11 -176l645 600h-555v248h938l41 -211zM604 360q136 0 193 47t57 173q0 150 -69 239.5t-175 89.5q-108 0 -183 -90.5
t-75 -238.5q0 -125 58 -172.5t194 -47.5z" />
    <glyph glyph-name="uni01C7" unicode="&#x1c7;" horiz-adv-x="2396" 
d="M106 -2l58 1550h268v-1196l752 33v-387h-1078zM1898 176l130 1360h348l-158 -1477q-12 -114 -47 -201.5t-88 -142.5t-122.5 -88t-151 -39.5t-173.5 2.5l-354 43l74 414l211 -53q30 -7 47 -11t53.5 -8t61 -1t57 14.5t53 33.5t37.5 61t22 93z" />
    <glyph glyph-name="uni01C8" unicode="&#x1c8;" horiz-adv-x="1288" 
d="M106 -2l58 1550h268v-1196l752 33v-387h-1078zM1376 1188v317h318v-317h-318zM1319 -209q44 58 58.5 244t30.5 771q5 150 7 232h287l-76 -1153q-14 -205 -31.5 -287t-58.5 -126q-44 -49 -162.5 -62.5t-320.5 0.5l69 357q20 -7 42 -15.5t32.5 -13.5t24 -9t18 -6t14 -0.5
t11.5 3t10.5 9t11.5 13t14 19.5t19 24z" />
    <glyph glyph-name="uni01C9" unicode="&#x1c9;" horiz-adv-x="798" 
d="M602 854h287l-76 -1153q-14 -205 -31.5 -287.5t-58.5 -126.5q-44 -49 -162.5 -62t-320.5 1l69 356q20 -7 42 -15.5t32 -13.5t24.5 -9t18.5 -5.5t13.5 0t11.5 3t10.5 9t11.5 13t14 19.5t19 24q29 37 43.5 125.5t23.5 267.5h-462q-9 96 16.5 657t73.5 983h284
q-53 -413 -71 -1357h172zM881 1321v-317h-318v317h318z" />
    <glyph glyph-name="uni01CA" unicode="&#x1ca;" horiz-adv-x="2576" 
d="M104 0l127 1520h338l492 -1033l88 1049h297l-88 -1536h-420l-403 952l36 -952h-467zM2079 176l129 1360h348l-158 -1477q-15 -142 -64.5 -242t-127.5 -153t-174.5 -70.5t-214.5 -3.5l-355 43l74 414l211 -53q29 -7 46.5 -11t54.5 -8t61.5 -1t56.5 14.5t53 33.5t38 61
t22 93z" />
    <glyph glyph-name="uni01CB" unicode="&#x1cb;" horiz-adv-x="2265" 
d="M1776 1221v317h317v-317h-317zM104 0l127 1520h338l492 -1033l88 1049h297l-88 -1536h-420l-403 952l36 -952h-467zM1718 -176q45 59 59.5 252.5t31.5 788.5q4 134 6 206h286l-76 -1153q-14 -205 -31.5 -287.5t-58.5 -126.5q-44 -49 -162.5 -62t-320.5 1l70 356
q20 -7 42 -15.5t32 -13.5t24 -9t18.5 -5.5t13.5 0t11.5 3t10.5 8.5t11.5 13t14 19.5t18.5 24.5z" />
    <glyph glyph-name="uni01CC" unicode="&#x1cc;" horiz-adv-x="1370" 
d="M1493 1241v318h317v-318h-317zM1217 666l49 -668h-406l70 700q24 234 -205 234q-131 0 -206.5 -75t-65.5 -210l53 -649h-402l91 1196h229l25 -92q134 85 296 90q225 7 338.5 -121.5t133.5 -404.5zM1436 -156q44 58 58.5 244t30.5 771q5 150 7 233h287l-76 -1153
q-14 -205 -31.5 -287.5t-58.5 -126.5q-44 -49 -163 -62.5t-321 0.5l70 357q20 -7 42 -15.5t32.5 -13.5t24 -9t18 -6t14 -0.5t11.5 3t10.5 9t11.5 13t14 19.5t19 24z" />
    <glyph glyph-name="uni01CD" unicode="&#x1cd;" horiz-adv-x="1695" 
d="M774 1640l-104 152l-365 358h262l277 -190l280 190h262l-362 -358l-92 -152h-158zM82 -55l635 1603h264l633 -1603h-414l-57 243h-588l-76 -243h-397zM649 537h400l-203 645z" />
    <glyph glyph-name="uni01CE" unicode="&#x1ce;" horiz-adv-x="1343" 
d="M573 1270l-104 151l-365 359h263l276 -191l281 191h262l-363 -359l-92 -151h-158zM606 -41q-255 0 -375.5 147t-109.5 418q5 132 39 247.5t92.5 203.5t147.5 138t196 48q70 -2 151 -23t136 -53l-9 66h238l131 -1153h-303v78q-144 -117 -334 -117zM582 338q95 0 157 8
t103 26t57 51t14.5 77.5t-20.5 111.5q-6 20 -15.5 58t-15 57.5t-17 50.5t-23.5 48t-32 37.5t-45 31t-61 18t-80 7.5q-32 0 -54.5 -4.5t-51 -23t-51.5 -52.5t-48.5 -96t-48.5 -150q-15 -59 -21 -98t0 -69t21 -46.5t49 -26.5t75 -13t108 -3z" />
    <glyph glyph-name="uni01CF" unicode="&#x1cf;" horiz-adv-x="614" 
d="M219 1860l-104 151l-365 359h262l277 -191l280 191h262l-362 -359l-92 -151h-158zM102 -2q33 280 40.5 610t-2.5 557t-27 383h342q-35 -713 57 -1550h-410z" />
    <glyph glyph-name="uni01D0" unicode="&#x1d0;" horiz-adv-x="577" 
d="M205 1380l-105 152l-364 358h262l276 -190l281 190h262l-362 -358l-93 -152h-157zM104 -55q26 379 34.5 583.5t8.5 563.5h277q-9 -222 -10 -373.5t14 -357.5t51 -416h-375z" />
    <glyph glyph-name="uni01D1" unicode="&#x1d1;" horiz-adv-x="1710" 
d="M772 1716l-104 152l-365 358h262l277 -190l280 190h262l-362 -358l-92 -152h-158zM856 1575q225 0 397 -103.5t263.5 -293t85.5 -435.5q-4 -156 -20.5 -271t-53.5 -205.5t-91.5 -149t-138.5 -96.5t-190.5 -53.5t-251.5 -14.5q-212 2 -352.5 43.5t-229.5 137.5t-127 243
t-38 368q0 248 92 436t261.5 291t393.5 103zM856 1321q-193 0 -308.5 -156.5t-115.5 -419.5q0 -182 97 -258.5t327 -76.5t326 76t96 259q0 264 -115 420t-307 156z" />
    <glyph glyph-name="uni01D2" unicode="&#x1d2;" horiz-adv-x="1355" 
d="M561 1417l-104 152l-365 358h262l277 -190l280 190h263l-363 -358l-92 -152h-158zM678 -84q-264 0 -416.5 172.5t-152.5 470.5q0 284 154 452.5t415 168.5t415 -168.5t154 -452.5q0 -297 -152.5 -470t-416.5 -173zM678 324q137 0 200.5 57.5t63.5 210.5q0 158 -71.5 250
t-192.5 92q-122 0 -193 -92t-71 -250q0 -153 63.5 -210.5t200.5 -57.5z" />
    <glyph glyph-name="uni01D3" unicode="&#x1d3;" horiz-adv-x="1548" 
d="M702 1804l-104 152l-365 358h263l276 -190l281 190h262l-363 -358l-92 -152h-158zM141 559l-35 989h410l-31 -825q-4 -46 -1.5 -83t3.5 -67t10 -53.5t17.5 -40.5t26.5 -29.5t37.5 -20.5t49.5 -12.5t63 -6.5t79 -2q45 0 78 2t63 6.5t49 12.5t37 20.5t26 29.5t17 40.5
t9.5 53.5t3 67t-1.5 83l-31 825h422l-47 -989q-5 -110 -18 -195t-32.5 -145.5t-46.5 -104t-61 -69.5t-74.5 -41.5t-88 -21t-101 -7t-113.5 0.5q-59 1 -90 1t-91 -1h-130.5t-114 10.5t-96.5 31.5t-78.5 62.5t-59.5 104t-40 156t-19 218.5z" />
    <glyph glyph-name="uni01D4" unicode="&#x1d4;" horiz-adv-x="1339" 
d="M602 1411l-104 152l-365 358h262l277 -190l280 190h262l-362 -358l-92 -152h-158zM600 -35q-228 0 -330.5 110.5t-117.5 362.5l-48 738h265l47 -564q8 -105 30.5 -158t66 -77.5t130.5 -34.5q50 -9 91 -2t70 34.5t47.5 95t25.5 179.5l22 527h289l45 -1176h-338l2 39
q-102 -74 -297 -74z" />
    <glyph glyph-name="uni01D5" unicode="&#x1d5;" horiz-adv-x="1548" 
d="M352 2269l865 53l100 -268l-1077 -41zM342 1642v318h317v-318h-317zM899 1642v318h318v-318h-318zM141 559l-35 989h410l-31 -825q-4 -46 -1.5 -83t3.5 -67t10 -53.5t17.5 -40.5t26.5 -29.5t37.5 -20.5t49.5 -12.5t63 -6.5t79 -2q45 0 78 2t63 6.5t49 12.5t37 20.5
t26 29.5t17 40.5t9.5 53.5t3 67t-1.5 83l-31 825h422l-47 -989q-5 -110 -18 -195t-32.5 -145.5t-46.5 -104t-61 -69.5t-74.5 -41.5t-88 -21t-101 -7t-113.5 0.5q-59 1 -90 1t-91 -1h-130.5t-114 10.5t-96.5 31.5t-78.5 62.5t-59.5 104t-40 156t-19 218.5z" />
    <glyph glyph-name="uni01D6" unicode="&#x1d6;" horiz-adv-x="1339" 
d="M252 1876l864 53l101 -268l-1078 -41zM242 1249v318h317v-318h-317zM799 1249v318h317v-318h-317zM600 -35q-228 0 -330.5 110.5t-117.5 362.5l-48 738h265l47 -564q8 -105 30.5 -158t66 -77.5t130.5 -34.5q50 -9 91 -2t70 34.5t47.5 95t25.5 179.5l22 527h289l45 -1176
h-338l2 39q-102 -74 -297 -74z" />
    <glyph glyph-name="uni01D7" unicode="&#x1d7;" horiz-adv-x="1548" 
d="M786 2437h215l-139 -426h-284zM342 1642v318h317v-318h-317zM899 1642v318h318v-318h-318zM141 559l-35 989h410l-31 -825q-4 -46 -1.5 -83t3.5 -67t10 -53.5t17.5 -40.5t26.5 -29.5t37.5 -20.5t49.5 -12.5t63 -6.5t79 -2q45 0 78 2t63 6.5t49 12.5t37 20.5t26 29.5
t17 40.5t9.5 53.5t3 67t-1.5 83l-31 825h422l-47 -989q-5 -110 -18 -195t-32.5 -145.5t-46.5 -104t-61 -69.5t-74.5 -41.5t-88 -21t-101 -7t-113.5 0.5q-59 1 -90 1t-91 -1h-130.5t-114 10.5t-96.5 31.5t-78.5 62.5t-59.5 104t-40 156t-19 218.5z" />
    <glyph glyph-name="uni01D8" unicode="&#x1d8;" horiz-adv-x="1339" 
d="M686 2044h215l-139 -426h-285zM242 1249v318h317v-318h-317zM799 1249v318h317v-318h-317zM600 -35q-228 0 -330.5 110.5t-117.5 362.5l-48 738h265l47 -564q8 -105 30.5 -158t66 -77.5t130.5 -34.5q50 -9 91 -2t70 34.5t47.5 95t25.5 179.5l22 527h289l45 -1176h-338
l2 39q-102 -74 -297 -74z" />
    <glyph glyph-name="uni01D9" unicode="&#x1d9;" horiz-adv-x="1548" 
d="M707 1993l-105 151l-364 359h262l276 -191l281 191h262l-363 -359l-92 -151h-157zM342 1642v318h317v-318h-317zM899 1642v318h318v-318h-318zM141 559l-35 989h410l-31 -825q-4 -46 -1.5 -83t3.5 -67t10 -53.5t17.5 -40.5t26.5 -29.5t37.5 -20.5t49.5 -12.5t63 -6.5
t79 -2q45 0 78 2t63 6.5t49 12.5t37 20.5t26 29.5t17 40.5t9.5 53.5t3 67t-1.5 83l-31 825h422l-47 -989q-5 -110 -18 -195t-32.5 -145.5t-46.5 -104t-61 -69.5t-74.5 -41.5t-88 -21t-101 -7t-113.5 0.5q-59 1 -90 1t-91 -1h-130.5t-114 10.5t-96.5 31.5t-78.5 62.5
t-59.5 104t-40 156t-19 218.5z" />
    <glyph glyph-name="uni01DA" unicode="&#x1da;" horiz-adv-x="1339" 
d="M606 1599l-104 152l-365 358h262l277 -190l280 190h263l-363 -358l-92 -152h-158zM242 1249v318h317v-318h-317zM799 1249v318h317v-318h-317zM600 -35q-228 0 -330.5 110.5t-117.5 362.5l-48 738h265l47 -564q8 -105 30.5 -158t66 -77.5t130.5 -34.5q50 -9 91 -2
t70 34.5t47.5 95t25.5 179.5l22 527h289l45 -1176h-338l2 39q-102 -74 -297 -74z" />
    <glyph glyph-name="uni01DB" unicode="&#x1db;" horiz-adv-x="1548" 
d="M659 1958v-316h-317v318h315l-311 301h318l405 -301h148v-318h-318v259l-203 22zM1020 1548h422l-47 -989q-5 -110 -18 -195t-32.5 -145.5t-46.5 -104t-61 -69.5t-74.5 -41.5t-88 -21t-101 -7t-113.5 0.5q-59 1 -90 1t-91 -1h-130.5t-114 10.5t-96.5 31.5t-78.5 62.5
t-59.5 104t-40 156t-19 218.5l-35 989h410l-31 -825q-4 -46 -1.5 -83t3.5 -67t10 -53.5t17.5 -40.5t26.5 -29.5t37.5 -20.5t49.5 -12.5t63 -6.5t79 -2q45 0 78 2t63 6.5t49 12.5t37 20.5t26 29.5t17 40.5t9.5 53.5t3 67t-1.5 83z" />
    <glyph glyph-name="uni01DC" unicode="&#x1dc;" horiz-adv-x="1339" 
d="M559 1565v-316h-317v318h315l-311 301h317l406 -301h147v-318h-317v258l-203 23zM1233 0h-338l2 39q-102 -74 -297 -74q-228 0 -330.5 110.5t-117.5 362.5l-48 738h265l47 -564q8 -105 30.5 -158t66 -77.5t130.5 -34.5q50 -9 91 -2t70 34.5t47.5 95t25.5 179.5l22 527
h289z" />
    <glyph glyph-name="uni01DD" unicode="&#x1dd;" horiz-adv-x="1339" 
d="M100 500l850 55q-16 111 -104.5 163.5t-255.5 74.5q-133 18 -223 -1.5t-240 -97.5l2 338q235 110 467 107q295 0 465.5 -156.5t169.5 -441.5v-2q-14 -302 -176 -476t-432 -174h-5q-230 20 -354 167t-164 444zM895 268l-516 -16q31 -67 96.5 -109t147.5 -47
q94 -3 170 47.5t102 124.5z" />
    <glyph glyph-name="uni01DE" unicode="&#x1de;" horiz-adv-x="1695" 
d="M1288 2159l101 -269l-1078 -41l113 256zM1008 1479l606 -1534h-414l-57 243h-588l-76 -243h-397l608 1534h-276v317h317v-248h240v248h317v-317h-280zM649 537h400l-203 645z" />
    <glyph glyph-name="uni01DF" unicode="&#x1df;" horiz-adv-x="1343" 
d="M1087 1788l101 -268l-1077 -41l112 256zM1243 -2h-303v78q-144 -117 -334 -117q-255 0 -375.5 147t-109.5 418q8 198 77.5 354.5t192.5 229.5h-178v317h317v-268q20 4 66 4q86 -3 174 -28v292h317v-274h25zM881 1108h-43q14 -5 45 -23zM582 338q95 0 157 8t103 26t57 51
t14.5 77.5t-20.5 111.5q-6 20 -15.5 58t-15 57.5t-17 50.5t-23.5 48t-32 37.5t-45 31t-61 18t-80 7.5q-32 0 -54.5 -4.5t-51 -23t-51.5 -52.5t-48.5 -96t-48.5 -150q-15 -59 -21 -98t0 -69t21 -46.5t49 -26.5t75 -13t108 -3z" />
    <glyph glyph-name="Gcaron" unicode="&#x1e6;" horiz-adv-x="1718" 
d="M827 1575l-104 151l-365 359h263l276 -191l281 191h262l-363 -359l-92 -151h-158zM1184 399v86l-273 37l-30 305l686 -77l53 -304l-145 3l20 -332q-26 -6 -131 -45.5t-219.5 -65.5t-235.5 -26q-183 0 -335 62.5t-253 171t-156.5 255.5t-55.5 317q0 120 27 230t88.5 210.5
t152.5 174.5t227.5 118t304.5 44q98 0 241.5 -12t215.5 -25l39 -281q-208 62 -479 62q-132 0 -221.5 -25t-152.5 -86.5t-91.5 -166t-28.5 -261.5q9 -236 116.5 -326t377.5 -90q187 0 258 47z" />
    <glyph glyph-name="gcaron" unicode="&#x1e7;" horiz-adv-x="1349" 
d="M621 1268l-105 151l-364 359h262l276 -191l281 191h262l-363 -359l-92 -151h-157zM961 1176h282l-45 -1037q-17 -371 -160 -550t-422 -179q-123 0 -252.5 33.5t-226.5 91.5l109 381q114 -74 199 -115t155 -41q88 0 155.5 63t114.5 163q-161 -41 -247 -41
q-230 0 -372 173.5t-142 454.5t142 455t372 174q55 0 100 -9.5t83.5 -31.5t62 -39.5t61.5 -50.5zM573 354q168 0 220.5 44t52.5 186q0 177 -66.5 270.5t-191.5 93.5q-124 0 -191 -93t-67 -269q5 -55 11 -89.5t18.5 -62.5t27 -42t42.5 -23.5t60 -12t84 -2.5zM915 -14q3 5 0 8
v-8z" />
    <glyph glyph-name="uni01E9" unicode="&#x1e9;" horiz-adv-x="1351" 
d="M600 1686l-104 151l-365 358h262l277 -190l280 190h262l-362 -358l-92 -151h-158zM106 -2l91 1681h297l-50 -843l215 241h340l-372 -461l698 -618h-586l-286 344l14 -344h-361z" />
    <glyph glyph-name="uni01EE" unicode="&#x1ee;" horiz-adv-x="1404" 
d="M614 1466l-104 152l-365 358h263l276 -190l281 190h262l-363 -358l-92 -152h-158zM870 678q165 -46 286.5 -176t133.5 -279q59 -688 -542 -688q-379 0 -666 311l346 285q68 -77 141 -118t135.5 -41t113 30t79 96t27.5 156q-9 96 -162.5 143t-372.5 17v276
q77 72 228.5 207t234.5 221q-333 -3 -737 0v303q8 0 479 3t551 -3l53 -45q11 -64 17.5 -113t12 -103t7.5 -75l-14 -43q-46 -51 -83 -91t-73.5 -77.5t-58 -59.5t-66.5 -66.5t-70 -69.5z" />
    <glyph glyph-name="uni01EF" unicode="&#x1ef;" horiz-adv-x="1404" 
d="M614 1466l-104 152l-365 358h263l276 -190l281 190h262l-363 -358l-92 -152h-158zM870 678q165 -46 286.5 -176t133.5 -279q59 -688 -542 -688q-379 0 -666 311l346 285q68 -77 141 -118t135.5 -41t113 30t79 96t27.5 156q-9 96 -162.5 143t-372.5 17v276
q77 72 228.5 207t234.5 221q-333 -3 -737 0v303q8 0 479 3t551 -3l53 -45q11 -64 17.5 -113t12 -103t7.5 -75l-14 -43q-46 -51 -83 -91t-73.5 -77.5t-58 -59.5t-66.5 -66.5t-70 -69.5z" />
    <glyph glyph-name="uni01F1" unicode="&#x1f1;" horiz-adv-x="3231" 
d="M109 -2v1550h471q456 0 675.5 -196t219.5 -604q0 -397 -129 -564q-96 -125 -297 -162q-127 -24 -418 -24h-51h-471zM1956 1206l-162 330h1329v-295l-772 -887h617l133 -395l-1409 -16v366l856 887zM432 444h189q317 0 448 82.5t131 278.5q0 246 -143 367.5t-436 121.5
h-189v-850z" />
    <glyph glyph-name="uni01F2" unicode="&#x1f2;" horiz-adv-x="2957" 
d="M109 -2v1550h471q456 0 675.5 -196t219.5 -604q0 -397 -129 -564q-96 -125 -297 -162q-127 -24 -418 -24h-51h-471zM432 444h189q317 0 448 82.5t131 278.5q0 246 -143 367.5t-436 121.5h-189v-850zM1874 932v248h938l41 -211l-649 -666h487l170 -305h-1180l64 299
l684 635h-555z" />
    <glyph glyph-name="uni01F3" unicode="&#x1f3;" horiz-adv-x="1363" 
d="M2294 -29h-1180l6 29l-194 6l20 90q-21 -12 -63 -36.5t-53.5 -30.5t-40 -21t-40 -18l-34.5 -9t-43 -7t-47 -1q-107 0 -196 31t-151 85t-105.5 128.5t-64 160.5t-20.5 181q0 170 71.5 316.5t195 232.5t268.5 86q37 0 73.5 -6.5t63.5 -16.5t52.5 -21.5t43.5 -22t34 -17.5
t26.5 -8.5t18 5t11 24t4.5 47.5l13 462h294l-51 -1159l11 -176l645 600h-555v248h938l41 -211l-650 -666h488zM604 360q136 0 193 47t57 173q0 150 -69 239.5t-175 89.5q-108 0 -183 -90.5t-75 -238.5q0 -125 58 -172.5t194 -47.5z" />
    <glyph glyph-name="uni01F4" unicode="&#x1f4;" horiz-adv-x="1718" 
d="M907 2019h215l-139 -426h-285zM1184 399v86l-273 37l-30 305l686 -77l53 -304l-145 3l20 -332q-26 -6 -131 -45.5t-219.5 -65.5t-235.5 -26q-183 0 -335 62.5t-253 171t-156.5 255.5t-55.5 317q0 120 27 230t88.5 210.5t152.5 174.5t227.5 118t304.5 44q98 0 241.5 -12
t215.5 -25l39 -281q-208 62 -479 62q-132 0 -221.5 -25t-152.5 -86.5t-91.5 -166t-28.5 -261.5q9 -236 116.5 -326t377.5 -90q187 0 258 47z" />
    <glyph glyph-name="uni01F5" unicode="&#x1f5;" horiz-adv-x="1349" 
d="M915 1712l-139 -426h-284l208 426h215zM961 1176h282l-45 -1037q-17 -371 -160 -550t-422 -179q-123 0 -252.5 33.5t-226.5 91.5l109 381q114 -74 199 -115t155 -41q88 0 155.5 63t114.5 163q-161 -41 -247 -41q-230 0 -372 173.5t-142 454.5t142 455t372 174
q55 0 100 -9.5t83.5 -31.5t62 -39.5t61.5 -50.5zM573 354q168 0 220.5 44t52.5 186q0 177 -66.5 270.5t-191.5 93.5q-124 0 -191 -93t-67 -269q5 -55 11 -89.5t18.5 -62.5t27 -42t42.5 -23.5t60 -12t84 -2.5zM915 -14q3 5 0 8v-8z" />
    <glyph glyph-name="uni01F8" unicode="&#x1f8;" horiz-adv-x="1550" 
d="M1149 1536h297l-88 -1536h-420l-403 952l36 -952h-467l127 1520h338l492 -1033l80 943l-377 40l-350 338h317l416 -309z" />
    <glyph glyph-name="uni01F9" unicode="&#x1f9;" horiz-adv-x="1370" 
d="M571 1315l-350 338h318l528 -393zM1217 666l49 -668h-406l70 700q24 234 -205 234q-131 0 -206.5 -75t-65.5 -210l53 -649h-402l91 1196h229l25 -92q134 85 296 90q225 7 338.5 -121.5t133.5 -404.5z" />
    <glyph glyph-name="Oslashacute" unicode="&#x1fe;" horiz-adv-x="1689" 
d="M1067 2161l-139 -426h-285l209 426h215zM1761 1831l-325 -524q175 -225 166 -564q-4 -156 -20.5 -271t-53.5 -205.5t-91.5 -149t-138.5 -96.5t-190.5 -53.5t-251.5 -14.5q-135 0 -246 18l-41 -65l-678 -242l347 512q-129 182 -129 569q0 248 92 436t261.5 291t393.5 103
q160 0 293 -53l149 219zM432 745q0 -134 51 -208l514 759q-67 25 -141 25q-193 0 -308.5 -156.5t-115.5 -419.5zM1278 745q0 131 -33 250l-364 -585q217 5 307 81t90 254z" />
    <glyph glyph-name="oslashacute" unicode="&#x1ff;" horiz-adv-x="1355" 
d="M856 1862l-139 -426h-285l209 426h215zM952 1118q141 -71 218 -216t77 -343q0 -297 -152.5 -470t-416.5 -173q-33 0 -47 2l-10 -37l-443 -323l148 471q-105 82 -161 217.5t-56 312.5q0 284 154 452.5t415 168.5h6l76 245l319 164zM414 592q0 -104 32 -170l158 502
q-90 -26 -140 -113.5t-50 -218.5zM739 326q104 11 153.5 71t49.5 195q0 148 -65 242z" />
    <glyph glyph-name="uni0218" unicode="&#x218;" horiz-adv-x="1556" 
d="M862 1591h-315l127 348l2 240h354l-82 -287v-2zM881 907q280 -55 433.5 -181.5t153.5 -313.5q0 -205 -188 -325t-541 -120q-58 0 -85.5 0.5t-116.5 7t-154 19.5t-153.5 42t-159.5 70l264 349q25 -21 146 -74.5t222 -79.5q104 -26 178 -23.5t122 27.5t71 57t23 66
q0 30 -62.5 72t-130.5 71.5t-102 36.5l-123 25q-243 47 -354 157.5t-111 303.5q0 232 150.5 354.5t420.5 122.5q117 0 261.5 -20t199.5 -40l-141 -251q-67 25 -159 42t-138 17q-56 0 -122.5 -30.5t-112.5 -77t-46 -87.5q0 -68 51 -115.5t183 -76.5z" />
    <glyph glyph-name="uni0219" unicode="&#x219;" horiz-adv-x="1288" 
d="M774 1268h-315l127 348l2 239h354l-82 -286v-2zM836 713q96 -25 169.5 -66.5t113.5 -84t65 -89t31.5 -78t5.5 -53.5q-4 -74 -40 -140.5t-103 -121.5t-177 -88.5t-248 -34.5q-174 -2 -331 36.5t-248 110.5l274 304q56 -51 121.5 -82t167.5 -41q6 -1 25.5 -3t28.5 -3
t27.5 -2t28.5 1t25.5 4.5t25 9t20.5 15.5t19 23t13 32q4 23 6 39t-7.5 30t-18.5 23t-28 17.5t-36 14t-42 11t-46.5 10t-49.5 11t-50 12.5q-151 43 -249 140.5t-98 236.5q0 45 11 83.5t41.5 77t79.5 64.5t130 42t187 14q94 -2 203.5 -18t181.5 -44l-80 -202q-103 59 -283 75
q-29 3 -47 4t-47 0.5t-47.5 -4.5t-40 -13.5t-33 -24.5t-17.5 -40t-3 -57q3 -29 25.5 -50t65 -35t82 -23.5t100 -21.5t96.5 -21z" />
    <glyph glyph-name="uni021A" unicode="&#x21a;" horiz-adv-x="1591" 
d="M889 1599h-316l127 349l2 239h355l-82 -286v-3zM1483 1542v-282l-529 20l41 -1282h-397l39 1282l-528 -20v282h1374z" />
    <glyph glyph-name="uni021B" unicode="&#x21b;" horiz-adv-x="1159" 
d="M639 1614h-315l127 348l2 240h354l-82 -287v-2zM612 317q150 0 367 2l22 -319h-565q-70 6 -89 35.5t-17 107.5q0 9 -1 113t0 284.5t7 362.5h-297l106 248h201q5 122 19 291l301 123l-19 -414h314l65 -248h-389z" />
    <glyph glyph-name="uni0228" unicode="&#x228;" horiz-adv-x="1316" 
d="M700 -109q120 0 187.5 -61t52.5 -158q-17 -97 -89 -152t-179 -55h-195l47 230q72 -16 90.5 -18.5t61.5 -2.5q8 0 27.5 4.5t35 9t15.5 3.5q0 23 -14.5 31t-59.5 8q-48 0 -205 -23l80 238h-449l54 1573l1036 32l-74 -260l-663 -37v-338l502 23v-279l-502 -32v-262h671
l93 -420h-488l-18 -54h-17z" />
    <glyph glyph-name="uni0229" unicode="&#x229;" horiz-adv-x="1339" 
d="M750 299q133 -17 222.5 3t239.5 97v-338q-228 -108 -462 -108l-23 -62h-16q120 0 187 -61t52 -158q-17 -97 -89 -152t-179 -55h-195l48 230q72 -16 90 -18.5t61 -2.5q8 0 27.5 4.5t35 9t15.5 3.5q0 23 -14.5 31t-59.5 8q-48 0 -205 -23l88 262q-219 42 -341.5 191.5
t-122.5 388.5v2q12 302 174 476.5t432 174.5h4q230 -19 354.5 -165t165.5 -443l-850 -57q8 -57 36 -99t76.5 -69t107.5 -43t141 -27zM715 995q-94 3 -170.5 -47.5t-102.5 -124.5l516 19q-31 68 -96 109t-147 44z" />
    <glyph glyph-name="uni022A" unicode="&#x22a;" horiz-adv-x="1710" 
d="M1286 2234l100 -268l-1077 -41l113 256zM1044 1554q263 -61 414 -277.5t144 -533.5q-4 -156 -20.5 -271t-53.5 -205.5t-91.5 -149t-138.5 -96.5t-190.5 -53.5t-251.5 -14.5q-212 2 -352.5 43.5t-229.5 137.5t-127 243t-38 368q0 318 150 533.5t411 275.5h-258v318h317
v-305q82 8 127 8q58 0 113 -6v303h317v-318h-242zM856 410q230 0 326 76t96 259q0 264 -115 420t-307 156q-193 0 -308.5 -156.5t-115.5 -419.5q0 -182 97 -258.5t327 -76.5z" />
    <glyph glyph-name="uni022B" unicode="&#x22b;" horiz-adv-x="1355" 
d="M211 1882l864 53l101 -268l-1078 -41zM201 1255v318h317v-318h-317zM758 1255v318h317v-318h-317zM678 -84q-264 0 -416.5 172.5t-152.5 470.5q0 284 154 452.5t415 168.5t415 -168.5t154 -452.5q0 -297 -152.5 -470t-416.5 -173zM678 324q137 0 200.5 57.5t63.5 210.5
q0 158 -71.5 250t-192.5 92q-122 0 -193 -92t-71 -250q0 -153 63.5 -210.5t200.5 -57.5z" />
    <glyph glyph-name="uni0237" unicode="&#x237;" horiz-adv-x="872" 
d="M375 -127q44 58 58.5 244t30.5 771q5 150 7 232h287l-76 -1153q-14 -205 -31.5 -287t-58.5 -126q-44 -49 -162.5 -62.5t-320.5 0.5l69 356q20 -7 42 -15.5t32 -13.5t24.5 -9t18.5 -5.5t13.5 0t11.5 3t10.5 9t11.5 13t14 19.5t19 24z" />
    <glyph glyph-name="uni0242" unicode="&#x242;" 
d="M412 395q-7 131 15.5 258.5t64.5 194.5q25 39 74 72.5t90 52.5t72.5 49.5t31.5 67.5q0 130 -88 149q-59 11 -91 9.5t-49 -16.5t-18.5 -46t2.5 -78h-227l-56 55q0 59 19.5 109t52 84t75 60t89 40.5t92.5 21.5t86.5 6t71.5 -9q130 -29 200 -121t76 -240q3 -92 -25 -167
t-70 -118.5t-85 -72.5t-73.5 -43.5t-30.5 -16.5q0 -31 4.5 -93t4.5 -113.5t-9 -94.5h-299z" />
    <glyph glyph-name="uni0243" unicode="&#x243;" horiz-adv-x="1406" 
d="M1032 815q131 -54 198.5 -155t67.5 -242q0 -99 -17.5 -175t-40.5 -126t-73.5 -84t-88.5 -51t-114.5 -25.5t-123 -10t-140.5 -1.5h-591v456h-142v215h142v932h522q253 0 394.5 -111.5t141.5 -312.5q0 -212 -135 -309zM422 1303v-371h244q125 0 181 41t56 129
q0 97 -60.5 149t-176.5 52h-244zM690 352q165 0 220 31.5t55 124.5q0 37 -70 98q-57 51 -205 51h-268v-41h457v-215h-457v-49h268z" />
    <glyph glyph-name="uni0244" unicode="&#x244;" horiz-adv-x="2308" 
d="M2206 1202l-33 -297h-412l-16 -346q-5 -110 -18 -195t-32.5 -145.5t-46.5 -104t-61 -69.5t-74.5 -41.5t-88 -21t-101 -7t-113.5 0.5q-59 1 -90 1t-91 -1h-130.5t-114 10.5t-96 31.5t-78 62.5t-59.5 104t-40 156t-19 218.5l-13 350h-377l31 297h336l-12 342h409l-12 -344
h528l-12 344h422l-16 -346h430zM1401 723l-6 184h-553l-6 -184q-4 -46 -1.5 -83t3.5 -67t9.5 -53.5t17 -40.5t26.5 -29.5t37.5 -20.5t50 -12.5t63 -6.5t78.5 -2q45 0 78 2t63 6.5t49 12.5t37 20.5t26 29.5t17 40.5t9.5 53.5t3 67t-1.5 83z" />
    <glyph glyph-name="uni0245" unicode="&#x245;" horiz-adv-x="1695" 
d="M1087 1591l521 -1603h-322l-446 1013h-21l-405 -1013h-326l500 1603h499z" />
    <glyph glyph-name="uni024B" unicode="&#x24b;" horiz-adv-x="1576" 
d="M1366 27q99 -126 178 -250l-18 -78q-102 -61 -221 -88.5t-228 -18.5l-321 -94l39 414q-7 57 -29 68l2 8q-115 -51 -252 -51q-230 0 -372 170t-142 452q0 281 139 451.5t369 179.5q108 4 187.5 -31t152.5 -117v134h295l-78 -799l-12 -277q22 -33 32 -43q58 -67 119 -73
l142 49q4 2 8 6l2 -2l8 2v-12zM487 336q158 0 211.5 50t53.5 200q0 174 -70 270t-195 96q-122 0 -186.5 -95t-64.5 -271q0 -151 49.5 -200.5t201.5 -49.5zM883 -350l4 2q-2 0 -4 2v-4z" />
    <glyph glyph-name="uni024C" unicode="&#x24c;" horiz-adv-x="1402" 
d="M813 8l21 377q3 72 -26 133.5t-83 77.5l-76 2q-16 -5 -41 -16l-100 -50l37 -524h-441l39 592h-204l14 285h209l43 651h416q257 0 394.5 -120.5t137.5 -352.5q0 -249 -164 -340q124 -112 187 -301l137 -414h-500zM442 1331v-446h199q99 0 178.5 55.5t79.5 122.5
q0 268 -258 268h-199z" />
    <glyph glyph-name="uni0250" unicode="&#x250;" horiz-adv-x="1343" 
d="M737 1188q255 0 376 -147t110 -418q-5 -132 -39 -247.5t-92.5 -203.5t-147.5 -138t-196 -48q-70 2 -151 22.5t-136 52.5l8 -65h-238l-131 1153h303v-78q144 117 334 117zM762 809q-95 0 -157 -8t-103 -26t-57 -51t-14.5 -77.5t20.5 -111.5q6 -21 15.5 -58t14.5 -57.5
t16.5 -51t23.5 -47.5t32.5 -37.5t45 -31t60.5 -18t80 -7.5q32 0 54.5 4.5t51 23t51.5 52.5t48.5 96t48.5 150q15 59 21 98t0 69t-21 46.5t-48.5 26.5t-74.5 13t-108 3z" />
    <glyph glyph-name="uni0251" unicode="&#x251;" horiz-adv-x="1343" 
d="M606 -41q-255 0 -375.5 147t-109.5 418q5 132 39 247.5t92.5 203.5t147.5 138t196 48q70 -2 151 -23t136 -53l-9 66h238l131 -1153h-303v78q-144 -117 -334 -117zM582 338q95 0 157 8t103 26t57 51t14.5 77.5t-20.5 111.5q-6 20 -15.5 58t-15 57.5t-17 50.5t-23.5 48
t-32 37.5t-45 31t-61 18t-80 7.5q-32 0 -54.5 -4.5t-51 -23t-51.5 -52.5t-48.5 -96t-48.5 -150q-15 -59 -21 -98t0 -69t21 -46.5t49 -26.5t75 -13t108 -3z" />
    <glyph glyph-name="uni0252" unicode="&#x252;" horiz-adv-x="1343" 
d="M737 1188q255 0 376 -147t110 -418q-5 -132 -39 -247.5t-92.5 -203.5t-147.5 -138t-196 -48q-70 2 -151 22.5t-136 52.5l8 -65h-238l-131 1153h303v-78q144 117 334 117zM762 809q-95 0 -157 -8t-103 -26t-57 -51t-14.5 -77.5t20.5 -111.5q6 -21 15.5 -58t14.5 -57.5
t16.5 -51t23.5 -47.5t32.5 -37.5t45 -31t60.5 -18t80 -7.5q32 0 54.5 4.5t51 23t51.5 52.5t48.5 96t48.5 150q15 59 21 98t0 69t-21 46.5t-48.5 26.5t-74.5 13t-108 3z" />
    <glyph glyph-name="uni0253" unicode="&#x253;" horiz-adv-x="1316" 
d="M1249 559q21 -277 -116 -421t-420 -171q-89 -10 -169 -3.5t-144 29t-112.5 70.5t-74.5 119q-20 47 -34 205.5t-34.5 511.5t-38.5 584l-12 96q-5 39 -2 84q-2 6 -2 16h2q17 164 141.5 277.5t311.5 128.5l69 -51q13 -140 11 -316q-163 9 -213 -90v-352l22 -184l-22 24v-84
q0 54 94.5 102.5t206.5 51.5q144 3 262.5 -80t189.5 -226.5t84 -320.5zM754 354q112 9 170 68.5t75 181.5q-2 140 -66.5 219.5t-176.5 79.5q-115 0 -178.5 -81t-77.5 -230q-7 -75 1.5 -120.5t39.5 -72.5t80 -36t133 -9z" />
    <glyph glyph-name="uni0254" unicode="&#x254;" horiz-adv-x="1214" 
d="M504 1159q602 0 602 -571q0 -311 -166.5 -483.5t-460.5 -159.5q-76 3 -147.5 16.5t-81.5 32.5v252q145 -45 270 -39q54 3 94 11.5t69 21.5t48.5 37.5t31.5 50t18 68.5t8 84.5t2 105.5q-7 96 -45.5 165.5t-95.5 101t-132 18.5t-151 -74l-234 262q113 61 188.5 80.5
t182.5 19.5z" />
    <glyph glyph-name="uni0255" unicode="&#x255;" horiz-adv-x="1404" 
d="M1296 375q0 -135 -117 -257.5t-286 -174.5q17 -228 14 -408h-336v391q-236 34 -349 189.5t-113 443.5q0 293 170 468t456 175q70 0 145 -15t85 -34v-252q-145 45 -271 45q-140 0 -205 -92.5t-65 -294.5q1 -107 39.5 -181.5t107.5 -105.5v88q0 166 89 272.5t227 106.5
q119 0 239 -84q170 -116 170 -280zM874 301q48 24 76.5 51t28.5 51v3q-38 28 -61 28q-18 0 -31 -32t-13 -91v-10z" />
    <glyph glyph-name="uni0256" unicode="&#x256;" horiz-adv-x="1363" 
d="M1384 31q23 -211 25 -322l-55 -57q-177 0 -302.5 120.5t-142.5 303.5q-83 -49 -112.5 -64.5t-72 -27t-99.5 -11.5q-107 0 -196 31t-151 85t-105.5 128.5t-64 160.5t-20.5 181q0 170 71.5 316.5t195 232.5t268.5 86q37 0 73.5 -6.5t63.5 -16.5t52.5 -21.5t43.5 -22
t34 -17.5t26.5 -8.5t18 5t11 24t4.5 47.5l13 462h294l-51 -1159l23 -424q55 -41 155 -26zM604 360q136 0 193 47t57 173q0 150 -69 239.5t-175 89.5q-108 0 -183 -90.5t-75 -238.5q0 -125 58 -172.5t194 -47.5z" />
    <glyph glyph-name="uni0257" unicode="&#x257;" horiz-adv-x="1363" 
d="M1374 2036l56 -58q0 -27 -1 -48.5t-2.5 -47t-2 -37t-3.5 -42.5t-4 -39.5t-6 -51.5t-6 -55q-92 15 -148 -23l-51 -1153l27 -483l-307 8l20 90q-21 -12 -63 -36.5t-53.5 -30.5t-40 -21t-40 -18l-34.5 -9t-43 -7t-47 -1q-107 0 -196 31t-151 85t-105.5 128.5t-64 160.5
t-20.5 181q0 170 71.5 316.5t195 232.5t268.5 86q37 0 73.5 -6.5t63.5 -16.5t52.5 -21.5t43.5 -22t34 -17.5t26.5 -8.5t18 5t11 24t4.5 47.5l4 188l-26 41v154q0 200 128 337.5t318 137.5zM604 360q136 0 193 47t57 173q0 150 -69 239.5t-175 89.5q-108 0 -183 -90.5
t-75 -238.5q0 -125 58 -172.5t194 -47.5z" />
    <glyph glyph-name="uni0258" unicode="&#x258;" horiz-adv-x="1339" 
d="M100 594q41 297 166 443t355 165h4q270 0 432 -174.5t174 -476.5v-2q0 -285 -171 -440.5t-466 -155.5q-236 0 -467 108v338q149 -77 239 -97t224 -3q167 22 255.5 74.5t104.5 163.5zM897 823q-26 74 -102 124.5t-170 47.5q-82 -3 -147.5 -44t-96.5 -109z" />
    <glyph glyph-name="uni0259" unicode="&#x259;" horiz-adv-x="1339" 
d="M100 553l850 57q-16 111 -104.5 163.5t-255.5 74.5q-134 17 -224 -3t-239 -97v337q233 109 467 109q295 0 466 -155.5t171 -440.5v-2q-12 -302 -174 -476.5t-432 -174.5h-4q-230 19 -355 165t-166 443zM897 324l-516 -19q31 -68 96.5 -109t147.5 -44q94 -3 170 47.5
t102 124.5z" />
    <glyph glyph-name="uni025A" unicode="&#x25a;" horiz-adv-x="1339" 
d="M1501 469q15 -103 15 -147l-56 -56q-98 0 -154.5 64.5t-56.5 175.5v2l-26 -2q-34 -263 -192 -412t-406 -149h-4q-230 19 -355 165t-166 443l850 57q-16 111 -104.5 163.5t-255.5 74.5q-134 17 -224 -3t-239 -97v337q233 109 467 109q264 0 430.5 -126.5t198.5 -360.5
l198 16q0 -157 6 -186q4 -29 5 -36t5.5 -11t9.5 -1t20 -2t34 -18zM625 152q94 -3 170 47.5t102 124.5l-516 -19q31 -68 96.5 -109t147.5 -44z" />
    <glyph glyph-name="uni025B" unicode="&#x25b;" horiz-adv-x="1007" 
d="M518 -53q-173 0 -278 97t-105 257q0 191 148 246q-125 71 -125 215q0 134 98.5 212.5t267.5 78.5q30 0 66.5 -7.5t78.5 -28t75 -51t53.5 -82t15.5 -114.5l-154 -31q12 79 -19.5 122.5t-100.5 43.5q-105 0 -165.5 -35.5t-60.5 -97.5q0 -72 48.5 -105.5t154.5 -33.5h72
l37 -166h-82q-95 0 -149 -34.5t-54 -94.5q0 -69 43 -107.5t121 -40.5h43t36.5 4t28.5 11.5t19 22.5t8.5 37.5t-4 56t-17.5 77.5l222 19q31 -83 34.5 -153t-15.5 -117t-54 -84.5t-74.5 -58.5t-83 -35t-75 -18.5t-54.5 -4.5z" />
    <glyph glyph-name="uni025C" unicode="&#x25c;" horiz-adv-x="1007" 
d="M489 -53q-23 0 -54.5 4.5t-75 18.5t-83 35t-74 58.5t-53.5 84.5t-15.5 117t34.5 153l221 -19q-12 -44 -17.5 -77.5t-4 -56t8.5 -37.5t19.5 -22.5t29 -11.5t36.5 -4h43q78 2 121 40.5t43 107.5q0 60 -54 94.5t-149 34.5h-82l37 166h72q105 0 153.5 33.5t48.5 105.5
q0 62 -60 97.5t-165 35.5q-69 0 -101 -43.5t-20 -122.5l-153 31q-5 63 15 114.5t53 82t75.5 51t78.5 28t66 7.5q169 0 268 -78.5t99 -212.5q0 -144 -125 -215q147 -54 147 -246q0 -160 -105 -257t-278 -97z" />
    <glyph glyph-name="uni025D" unicode="&#x25d;" horiz-adv-x="1007" 
d="M489 -53q-23 0 -54.5 4.5t-75 18.5t-83 35t-74 58.5t-53.5 84.5t-15.5 117t34.5 153l221 -19q-12 -44 -17.5 -77.5t-4 -56t8.5 -37.5t19.5 -22.5t29 -11.5t36.5 -4h43q78 2 121 40.5t43 107.5q0 60 -54 94.5t-149 34.5h-82l37 166h72q105 0 153.5 33.5t48.5 105.5
q0 62 -60 97.5t-165 35.5q-69 0 -101 -43.5t-20 -122.5l-153 31q-5 63 15 114.5t53 82t75.5 51t78.5 28t66 7.5q169 0 268 -78.5t99 -212.5q0 -144 -125 -215q147 -54 147 -246q0 -160 -105 -257t-278 -97z" />
    <glyph glyph-name="uni025E" unicode="&#x25e;" horiz-adv-x="1187" 
d="M109 510q0 275 143.5 422t411.5 147q179 0 286 -85.5t107 -231.5q0 -83 -20 -132.5t-70 -84.5q112 -69 112 -244t-115.5 -282t-295.5 -99q-259 12 -409 170.5t-150 419.5zM346 516q0 -129 95.5 -214t242.5 -85q137 0 137 121q0 48 -46.5 75.5t-129.5 26.5h-115l50 219h92
q95 0 135.5 26.5t40.5 86.5q0 48 -52.5 77.5t-146.5 29.5q-137 0 -220 -100t-83 -263z" />
    <glyph glyph-name="uni025F" unicode="&#x25f;" horiz-adv-x="1128" 
d="M1020 643v-215h-307l-31 -461q-14 -205 -31.5 -287t-58.5 -126q-44 -49 -162.5 -62.5t-320.5 0.5l69 356q20 -7 42 -15.5t32 -13.5t24.5 -9t18.5 -5.5t13.5 0t11.5 3t10.5 9t11.5 13t14 19.5t19 24q34 45 50.5 167t25.5 388h-342v215h348l14 477h287l-31 -477h293z" />
    <glyph glyph-name="uni0260" unicode="&#x260;" horiz-adv-x="1329" 
d="M965 1452q5 52 12 89t20 68.5t29 51.5t44 35t59.5 21.5t80.5 9t101.5 0.5t128.5 -7l-17 -280q-56 0 -116 5q-31 2 -36.5 -0.5t-4.5 -23.5v-24q-1 -22 -6 -98.5t-7 -131.5h-2l-34 -698h-5l-14 -330q-17 -371 -160 -550t-422 -179q-123 0 -252.5 33.5t-226.5 91.5l109 381
q114 -74 199 -115t155 -41q88 0 155.5 63t114.5 163q-161 -41 -247 -41q-230 0 -372 173.5t-142 454.5t142 455t372 174q55 0 100 -9.5t83.5 -31.5t62 -39.5t61.5 -50.5l12 39l14 293h5q0 9 4 49zM573 354q168 0 220.5 44t52.5 186q0 177 -66.5 270.5t-191.5 93.5
q-124 0 -191 -93t-67 -269q5 -55 11 -89.5t18.5 -62.5t27 -42t42.5 -23.5t60 -12t84 -2.5zM915 -14q3 5 0 8v-8z" />
    <glyph glyph-name="uni0261" unicode="&#x261;" horiz-adv-x="1349" 
d="M961 1176h282l-45 -1037q-17 -371 -160 -550t-422 -179q-123 0 -252.5 33.5t-226.5 91.5l109 381q114 -74 199 -115t155 -41q88 0 155.5 63t114.5 163q-161 -41 -247 -41q-230 0 -372 173.5t-142 454.5t142 455t372 174q55 0 100 -9.5t83.5 -31.5t62 -39.5t61.5 -50.5z
M573 354q168 0 220.5 44t52.5 186q0 177 -66.5 270.5t-191.5 93.5q-124 0 -191 -93t-67 -269q5 -55 11 -89.5t18.5 -62.5t27 -42t42.5 -23.5t60 -12t84 -2.5zM915 -14q3 5 0 8v-8z" />
    <glyph glyph-name="uni0262" unicode="&#x262;" horiz-adv-x="1161" 
d="M801 270v58l-185 24l-20 207l463 -51l37 -207l-99 2l15 -223q-17 -4 -89 -31t-149.5 -45t-159.5 -18q-165 0 -289 73t-187.5 196t-63.5 277q0 81 18.5 155.5t60 142.5t103 118t153.5 79.5t205 29.5q66 0 162.5 -8.5t147.5 -16.5l26 -190q-140 43 -323 43
q-120 0 -190.5 -32t-107 -112.5t-36.5 -220.5q6 -161 78 -221.5t256 -60.5q121 0 174 32z" />
    <glyph glyph-name="uni0263" unicode="&#x263;" horiz-adv-x="1441" 
d="M1124 1130l230 -206q-63 -81 -74 -90q-209 -191 -377 -377q203 -282 253 -488.5t-60.5 -318t-376.5 -109.5q-143 2 -243.5 26t-157.5 66t-77.5 104.5t-9 137t54.5 168t106 192t151 214.5q-162 192 -381 401q-12 11 -76 90l236 193q17 -21 33 -41t22.5 -28.5t15.5 -19
t19 -20.5q188 -191 317 -344q124 149 305 350q8 9 21.5 27t29.5 36.5t39 36.5zM715 -150q120 -3 117 99q-3 99 -119 274q-82 -117 -110 -199.5t0 -127t112 -46.5z" />
    <glyph glyph-name="uni0264" unicode="&#x264;" horiz-adv-x="1425" 
d="M1001 872q-34 0 -64.5 -47.5t-72.5 -152.5q8 -17 23.5 -50t23.5 -49q85 -172 104 -224q61 -161 8 -257q-5 -9 -11 -18q-101 -146 -312 -146q-112 0 -170.5 30t-115.5 116q-20 29 -25 68.5t-2 73.5t23 92.5t34 93.5t47 111t48 112l36 92q-31 80 -57 112.5t-55 32.5
q-86 0 -101.5 -28.5t-15.5 -175.5v-19h-237q-1 31 0.5 68t1 75.5t8 77t20.5 74t38.5 66.5t62.5 53.5t91.5 35.5t125.5 13q126 0 239 -139q50 69 122.5 105.5t182.5 37.5q63 1 113 -16t82.5 -43.5t56 -68t35.5 -79.5t19 -90.5t8.5 -87.5t1.5 -82h-242q-1 112 -22 172.5
t-52 60.5zM700 172q19 0 25 6t3.5 30.5t-17.5 78.5q-38 -113 -11 -115z" />
    <glyph glyph-name="uni0265" unicode="&#x265;" horiz-adv-x="1384" 
d="M152 467l-48 682h410q-32 -155 -53 -269.5t-34 -211.5t-16 -162.5t5 -117t24 -81t46 -48.5t65.5 -25.5t87.5 -6.5q72 0 117.5 12t82.5 48.5t52.5 98.5t18 166.5t-11.5 248t-44 348.5h426l-127 -1696h-295l37 608q-69 -53 -134.5 -72.5t-162.5 -19.5q-155 0 -245 44.5
t-138.5 152t-62.5 301.5z" />
    <glyph glyph-name="uni0266" unicode="&#x266;" horiz-adv-x="1384" 
d="M1280 -2h-410q32 155 53 269.5t34 211.5t16 162.5t-5 117t-24 81t-46 48.5t-65.5 25.5t-87.5 6.5q-89 0 -143.5 -22t-85.5 -79v-14h-6q-39 -91 -34.5 -278t54.5 -529h-426l127 1696v30h2q0 5 1.5 22t1.5 28q3 70 10 115t27.5 80t47.5 53.5t78 29.5t110 13.5t153 0.5v-282
q-57 -3 -107 -1q-31 1 -36 -2t-4 -24q1 -14 1 -24v-9v-30h10l-10 -168v-23v-399q60 42 121.5 58t148.5 16q155 0 245.5 -44.5t139 -152.5t62.5 -301z" />
    <glyph glyph-name="uni0267" unicode="&#x267;" horiz-adv-x="1384" 
d="M1264 238q7 -24 48.5 -106t41.5 -112q0 -102 -86 -198t-225 -154.5t-285 -58.5l-56 61q2 117 25 344q95 -18 152 27q66 320 82 459v129l10 -13q8 124 -15 191t-72 90t-139 23q-89 0 -143.5 -22t-85.5 -79v-14h-6q-39 -91 -34.5 -278t54.5 -529h-426l127 1696v30h2
q0 5 1.5 22t1.5 28q3 70 10 115t27.5 80t47.5 53.5t78 29.5t110 13.5t153 0.5v-282q-57 -3 -107 -1q-31 1 -36 -2t-4 -24q1 -14 1 -24v-9v-30h10l-10 -168v-23v-399q60 42 121.5 58t148.5 16q155 0 245.5 -44.5t139 -152.5t62.5 -301l27 -393l4 -4q-2 -2 -2 -7z" />
    <glyph glyph-name="uni0268" unicode="&#x268;" horiz-adv-x="577" 
d="M420 1612l14 -344h-299l15 344h270zM756 692v-215h-334q12 -222 57 -479h-375q19 268 31 479h-291v215h299q4 234 4 424h277q-10 -250 -10 -424h342z" />
    <glyph glyph-name="uni0269" unicode="&#x269;" horiz-adv-x="577" 
d="M502 -55q-44 1 -95.5 0t-80.5 -1.5t-64 0.5t-55 4.5t-43 11.5t-38.5 21t-32 33t-32.5 49l-6 33q22 211 23 395.5t-6.5 349.5t-5.5 251h278q-6 -49 -7 -228t1 -353t0 -314q10 -5 13.5 -6.5t9.5 -2t14.5 1t27.5 2t48 1.5t77 0z" />
    <glyph glyph-name="uni026A" unicode="&#x26a;" horiz-adv-x="421" 
d="M70 -2q23 192 27.5 421t-2 382t-17.5 264h235q-26 -494 39 -1067h-282z" />
    <glyph glyph-name="uni026B" unicode="&#x26b;" horiz-adv-x="798" 
d="M649 283l49 -283h-587q-9 97 14 610h-152l-55 60q14 201 62 277.5t170 80.5q16 280 51 612h284q-38 -294 -57 -817q12 1 17.5 7t7 22.5t1 36.5t0.5 59.5t5 79.5h145l55 -55q-3 -213 -51 -289.5t-180 -73.5h-6q-2 -78 -4.5 -188t-3.5 -139h235z" />
    <glyph glyph-name="uni026C" unicode="&#x26c;" horiz-adv-x="1376" 
d="M1268 539q-260 0 -443 14q-2 -66 -3.5 -157t-2.5 -113h236l49 -283h-588q-3 28 0 158h-8q-2 168 16 442q-150 39 -245.5 114.5t-141.5 200.5q-90 241 103 375q101 72 256 72q40 0 82 -10q10 122 28 288h285q-31 -243 -55 -763q67 -1 210.5 -4.5t221.5 -2.5v-331z
M403 1026q0 -24 39 -55t99 -56v19q0 54 -22 88.5t-54 34.5q-23 0 -62 -29v-2z" />
    <glyph glyph-name="uni026D" unicode="&#x26d;" horiz-adv-x="1136" 
d="M1030 106q-5 -369 -109 -514q-75 -105 -232 -133q-92 -17 -325 -16h-79q-56 0 -93 30t-55.5 91t-23.5 138.5t0 186.5q25 482 61 1007.5t62 764.5h288q-13 -51 -22 -210t-11.5 -361t-4 -433t-1 -427t-0.5 -343q-1 -69 46 -94q44 -24 89 13q69 56 66 203l-2 36z" />
    <glyph glyph-name="uni026E" unicode="&#x26e;" horiz-adv-x="1595" 
d="M1481 68q59 -689 -543 -689q-378 0 -666 312l310 254h65q66 -66 135 -99.5t128 -29.5t106 35.5t73 96t25 150.5q-8 88 -138 135.5t-325 32.5l47 -266h-8l-39 266q-46 -4 -71 -8v277q74 70 226.5 206t235.5 222q-278 -3 -608 0q-14 -343 -20 -680l47 -283h-350
q-9 96 16.5 657t73.5 983h284q-16 -121 -34 -374q774 6 884 0l54 -45q11 -64 17.5 -113.5t11 -101.5t7.5 -76l-14 -43q-39 -43 -73.5 -81t-56.5 -61t-57 -59t-47 -48.5t-57 -57t-59 -58.5q165 -46 286.5 -175.5t133.5 -278.5zM647 -55l-29 30l-36 -30h-111l-10 55h229l8 -55
h-51z" />
    <glyph glyph-name="uni026F" unicode="&#x26f;" horiz-adv-x="2097" 
d="M915 129q-156 -211 -364 -184q-82 11 -157 55t-132 111.5t-92 160.5t-39 197l-25 680h396l-76 -700q0 -125 32.5 -187t112.5 -74q103 -15 159 67t85 271l92 623h371l-158 -698q-21 -92 34 -159t144 -95q115 -36 186.5 30t84.5 228l57 694h369l-146 -1178h-295l7 62
q-120 -91 -285 -88q-117 2 -210.5 49t-150.5 135z" />
    <glyph glyph-name="uni0270" unicode="&#x270;" horiz-adv-x="2105" 
d="M1999 1149l-23 -184l-112 -1430h-334l29 494q-116 -87 -279 -84q-117 2 -210 49t-150 135q-156 -211 -365 -184q-82 11 -157 55t-132 111.5t-92 160.5t-39 197l-24 680h395l-76 -700q0 -125 32.5 -187t112.5 -74q103 -15 159 67t85 271l92 623h371l-158 -698
q-21 -92 34.5 -159t144.5 -95q115 -36 186 30t84 228l37 456l10 160h4l6 78h369z" />
    <glyph glyph-name="uni0271" unicode="&#x271;" horiz-adv-x="2097" 
d="M1991 -2h-2q0 -243 -80 -317q-35 -34 -168.5 -56t-263 -18t-150.5 35q9 22 66 233h137h15q40 -1 47 14.5t7 108.5h-4l76 700q0 125 -32.5 186.5t-112.5 73.5q-103 15 -159 -66.5t-85 -270.5l-92 -623h-371l158 698q21 92 -34 159t-144 95q-115 36 -186.5 -30t-84.5 -228
l-57 -694h-369l146 1178h295l-6 -62q120 91 284 88q117 -2 210.5 -49t150.5 -135q156 211 364 184q82 -11 157 -55t132 -111.5t92 -160.5t39 -197z" />
    <glyph glyph-name="uni0272" unicode="&#x272;" horiz-adv-x="1538" 
d="M1028 -2l70 700q24 234 -205 234q-131 0 -206.5 -75t-65.5 -210l53 -649h-17q0 -71 -0.5 -116t-3 -96t-6.5 -80.5t-11.5 -61.5t-18.5 -48.5t-27 -31t-36.5 -20t-47.5 -5.5h-397v330q40 3 91 1q29 -1 39 -0.5t18 14.5t8.5 37t0.5 76v58h10l86 1139h230l24 -92
q134 85 297 90q225 7 338 -121t133 -405l50 -668h-406z" />
    <glyph glyph-name="uni0273" unicode="&#x273;" horiz-adv-x="1517" 
d="M1251 -2v-48t2 -33t4 -22.5t8.5 -12t13 -6.5t20 -0.5t27.5 0.5t37 1.5t46 -2.5v-330h-397q-36 0 -61 9.5t-42 36t-26.5 56.5t-14.5 88t-6.5 113.5t-1.5 149.5v63h6l64 637q24 234 -205 234q-131 0 -206.5 -75t-65.5 -210l53 -649h-402l91 1196h229l25 -92q134 85 296 90
q225 7 338.5 -121.5t133.5 -404.5l49 -668h-15z" />
    <glyph glyph-name="uni0274" unicode="&#x274;" horiz-adv-x="1069" 
d="M72 0l88 1049h233l340 -713l60 725h204l-59 -1061h-291l-278 657l26 -657h-323z" />
    <glyph glyph-name="uni0275" unicode="&#x275;" horiz-adv-x="1335" 
d="M678 1180q261 0 415 -168.5t154 -452.5q0 -297 -152.5 -470t-416.5 -173t-416.5 172.5t-152.5 470.5q0 284 154 452.5t415 168.5zM678 934q-98 0 -165 -62.5t-89 -171.5l502 27q-28 99 -92 153t-156 54zM678 324q123 0 186 45t76 161l-520 -18q14 -105 77.5 -146.5
t180.5 -41.5z" />
    <glyph glyph-name="uni0276" unicode="&#x276;" horiz-adv-x="1675" 
d="M1612 -53h-760l2 55q-98 -35 -272 -35q-283 3 -395.5 124t-112.5 417q0 254 139 408.5t369 154.5q174 0 305 -94l2 39l704 22l-51 -176l-450 -24v-232l342 17v-191l-342 -20v-179h456zM582 279q156 0 221 52t65 177q0 178 -77.5 284.5t-208.5 106.5t-210 -106.5
t-79 -284.5q0 -124 66 -176.5t223 -52.5z" />
    <glyph glyph-name="uni0278" unicode="&#x278;" horiz-adv-x="1710" 
d="M950 1571q303 -34 482 -258.5t170 -569.5q-4 -151 -19.5 -262.5t-49.5 -201t-84.5 -148.5t-127.5 -99t-175.5 -58t-230.5 -21l-12 -526h-254l13 538q-303 38 -428 218t-125 562q0 327 158 545t429 271l11 456h254zM926 412q190 10 271 87t81 246q0 231 -89.5 381.5
t-244.5 184.5zM432 745q0 -139 57 -216t183 -103l18 858q-121 -58 -189.5 -199t-68.5 -340z" />
    <glyph glyph-name="uni0279" unicode="&#x279;" horiz-adv-x="1048" 
d="M145 -35l-45 311q109 -18 187 -18t126.5 16.5t77.5 47.5t40.5 76t14 102.5t-0.5 126.5q-3 97 -14 173.5t-62 348.5h483q-70 -326 -88 -540.5t-18 -635.5l-301 11v63q-73 -43 -156.5 -59.5t-243.5 -22.5z" />
    <glyph glyph-name="uni027A" unicode="&#x27a;" horiz-adv-x="1103" 
d="M944 1149h19q-6 -30 -31 -143l-2 -37h-4q-45 -240 -57.5 -435.5t-12.5 -560.5l-301 11v63q-73 -43 -156.5 -59.5t-242.5 -22.5l-45 311q109 -18 187 -18t126.5 16.5t77.5 47.5t40 76t13.5 102.5t-0.5 126.5q-3 83 -10 140.5t-33 201.5h-27l-77 725h581z" />
    <glyph glyph-name="uni027B" unicode="&#x27b;" horiz-adv-x="1048" 
d="M1010 -96q22 -200 24 -322l-55 -57q-190 0 -318.5 137.5t-128.5 337.5v41q-69 -40 -150.5 -55t-236.5 -21l-45 311q109 -18 187 -18t126.5 16.5t77.5 47.5t40.5 76t14 102.5t-0.5 126.5q-3 97 -14 173.5t-62 348.5h483q-70 -326 -88 -540.5t-18 -635.5h-29
q56 -90 193 -69z" />
    <glyph glyph-name="uni027D" unicode="&#x27d;" horiz-adv-x="1048" 
d="M575 25q56 -53 162 -35q23 -211 25 -322l-55 -57q-147 0 -285.5 54.5t-224.5 144.5t-86 186v2h-15q71 327 89 542t18 634l301 -11v-63q73 43 156.5 59.5t242.5 22.5l45 -312q-78 13 -139.5 17t-107 -2t-79 -16.5t-55.5 -33.5t-35.5 -47.5t-20 -63t-8.5 -74t-1 -87.5l2 2
v-45q3 -98 13.5 -171.5t57.5 -323.5z" />
    <glyph glyph-name="uni027E" unicode="&#x27e;" horiz-adv-x="647" 
d="M113 922q3 70 10 115t27.5 80t47.5 53.5t78 29.5t110 13.5t153 0.5v-282q-57 -3 -107 -1q-31 1 -36 -2t-4 -24q1 -14 1 -24v-9v-221v-698h-284v919h2q0 5 1 22t1 28z" />
    <glyph glyph-name="uni0280" unicode="&#x280;" horiz-adv-x="968" 
d="M682 500q86 -77 129 -209l94 -285h-344l14 260q2 47 -15 86t-52 57t-88 -8l-70 -34l27 -361h-305l69 1055h287q178 0 273.5 -84t95.5 -244q0 -169 -115 -233zM442 920h-137v-310h137q68 0 123.5 38.5t55.5 84.5q0 187 -179 187z" />
    <glyph glyph-name="uni0281" unicode="&#x281;" horiz-adv-x="968" 
d="M287 647q-86 77 -129 209l-95 285h345l-15 -260q-2 -47 15 -86.5t52.5 -57.5t88.5 8l69 35l-26 361h305l-70 -1055h-286q-178 0 -273.5 84t-95.5 244q0 169 115 233zM526 227h138v310h-138q-68 0 -123 -38.5t-55 -84.5q0 -187 178 -187z" />
    <glyph glyph-name="uni0282" unicode="&#x282;" horiz-adv-x="1288" 
d="M836 713q96 -25 169.5 -66.5t113.5 -84t65 -89t31.5 -78t5.5 -53.5q-4 -74 -40 -140.5t-103 -121.5t-177 -88.5t-248 -34.5q-162 0 -295 29q3 -66 11 -95q31 -131 221 -110q22 -143 24 -234l-55 -41q-190 0 -318 99.5t-128 244.5v228q-25 14 -39 26l274 304
q56 -51 121.5 -82t167.5 -41q6 -1 25.5 -3t28.5 -3t27.5 -2t28.5 1t25.5 4.5t25 9t20.5 15.5t19 23t13 32q4 23 6 39t-7.5 30t-18.5 23t-28 17.5t-36 14t-42 11t-46.5 10t-49.5 11t-50 12.5q-151 43 -249 140.5t-98 236.5q0 45 11 83.5t41.5 77t79.5 64.5t130 42t187 14
q94 -2 203.5 -18t181.5 -44l-80 -202q-103 59 -283 75q-29 3 -47 4t-47 0.5t-47.5 -4.5t-40 -13.5t-33 -24.5t-17.5 -40t-3 -57q3 -29 25.5 -50t65 -35t82 -23.5t100 -21.5t96.5 -21z" />
    <glyph glyph-name="uni0283" unicode="&#x283;" horiz-adv-x="1759" 
d="M1651 1556v-305q-72 73 -116 100t-101 27q-77 0 -120.5 -49.5t-60.5 -157.5l-75 -475l-66 -485q-16 -113 -37 -206t-42 -161t-52 -120.5t-54.5 -86.5t-63 -57.5t-64.5 -35.5t-71.5 -18t-70.5 -6.5t-75 -0.5h-19q-39 0 -100 16.5t-134.5 49.5t-140 96t-98.5 143l334 172
q107 -74 190 -74q73 0 114.5 56.5t70.5 201.5l78 533l79 473q34 201 150.5 313.5t290.5 112.5q136 0 254 -56z" />
    <glyph glyph-name="uni0284" unicode="&#x284;" horiz-adv-x="1013" 
d="M1034 524v-215h-348l-22 -342q-14 -206 -31 -287.5t-58 -125.5q-43 -49 -158 -62.5t-311 0.5l68 356q22 -8 49.5 -19t35.5 -15.5t24 -7t18 -3.5t13.5 6.5t13 12t15 22.5t22.5 29q29 39 44.5 138t24.5 298h-92v215h94l17 437q1 13 2 38.5t2 36.5v43q2 14 2 41l2 41h2
q1 6 2 21t2 22q4 54 12 91t22 68t35.5 47.5t53.5 30.5t75.5 16t101.5 4.5t132 -3.5l-10 -256q-49 -1 -104 3q-32 1 -37 -1.5t-5 -22.5v-22v-6l-8 -188v-15l-18 -426h317z" />
    <glyph glyph-name="uni0288" unicode="&#x288;" horiz-adv-x="1159" 
d="M635 78q201 0 283 -4l22 -418l-530 2q-59 0 -96.5 46.5t-37.5 111.5q0 22 11.5 213.5t32 492t40.5 545.5h-280l106 248h195q11 129 25 250h299l-13 -250h309l66 -248h-385z" />
    <glyph glyph-name="uni0289" unicode="&#x289;" horiz-adv-x="1318" 
d="M1440 670l-232 -4l25 -666h-338l2 39q-102 -74 -297 -74q-228 0 -330.5 110.5t-117.5 362.5l-13 207l-270 -6l164 188l94 2l-23 347h265l28 -338l488 16l14 322h289l12 -312l92 2zM877 649v10l-465 -10l4 -37q8 -105 30.5 -158t66 -77.5t130.5 -34.5q50 -9 91 -2t70 34.5
t47.5 95t25.5 179.5z" />
    <glyph glyph-name="uni028A" unicode="&#x28a;" horiz-adv-x="1804" 
d="M1673 915l-47 -55q-94 -11 -135 -18q80 -68 126 -182.5t46 -319.5q0 -376 -203.5 -602.5t-541.5 -226.5q-339 0 -543.5 227t-204.5 602q0 105 14 189t40.5 142t52 95t59.5 70q-138 19 -203 34v291q20 3 49 4t53.5 1t73 -0.5t80.5 -0.5h420q-6 -212 -27 -379
q-75 40 -142 -11t-106.5 -168.5t-39.5 -266.5q0 -263 115.5 -419.5t308.5 -156.5q192 0 306.5 156t114.5 420q0 155 -84 286t-208 169l-39 45q-15 130 -21 325h389q20 0 105.5 3t132.5 0.5t59 -13.5v-240z" />
    <glyph glyph-name="uni028B" unicode="&#x28b;" horiz-adv-x="1146" 
d="M109 442v734h284v-568q0 -101 7 -154t36.5 -78.5t59 -29.5t104.5 -4q27 0 44 1.5t33.5 9.5t26 18t18 32t12.5 47t7 68t3.5 89.5t0.5 117.5q0 47 -0.5 76.5t-4 57t-7.5 42.5t-14 28t-20 18t-30.5 8t-39 3t-51.5 -2v265q99 4 173 -6t123.5 -34t82.5 -61t49.5 -86
t24.5 -109.5t8 -132v-151.5q-1 -74 -1 -113q0 -15 1 -47q2 -184 -22 -280q-72 -289 -417 -289q-252 0 -371.5 128.5t-119.5 401.5z" />
    <glyph glyph-name="uni028C" unicode="&#x28c;" horiz-adv-x="1695" 
d="M608 1546h500l500 -1603h-326l-405 1013h-21l-446 -1013h-322z" />
    <glyph glyph-name="uni028D" unicode="&#x28d;" horiz-adv-x="1830" 
d="M414 1202h323l178 -325l170 325h332l322 -1231h-318l-202 637l-209 -383h-189l-229 383l-182 -637h-318z" />
    <glyph glyph-name="uni028E" unicode="&#x28e;" horiz-adv-x="1417" 
d="M86 -23l442 1381q49 154 182 253t314 99h223v-354h-184q-71 0 -142.5 -39t-107.5 -103.5t2 -148.5l539 -1088h-324l-414 701l-219 -701h-311z" />
    <glyph glyph-name="uni028F" unicode="&#x28f;" horiz-adv-x="1071" 
d="M403 342l-352 719h232l254 -453l251 453h232l-354 -719l12 -344h-305z" />
    <glyph glyph-name="uni0290" unicode="&#x290;" horiz-adv-x="1390" 
d="M1364 -74q14 -96 14 -147l-55 -55q-94 0 -150 59t-61 162h-80l-4 12l-135 -14v55h-795l64 299l684 635h-555v248h938l41 -211l-649 -666h661v-123h2q0 -157 6 -186q4 -29 5 -36t5.5 -11t9.5 -1t20 -2t34 -18z" />
    <glyph glyph-name="uni0291" unicode="&#x291;" horiz-adv-x="1486" 
d="M1180 575q80 -21 129 -76t62 -123.5t-3 -144t-57 -138t-109.5 -104.5t-150.5 -44q-11 -223 -9 -396h-313q-3 193 8 396h-639l64 352l684 635h-555v248h938l41 -211l-649 -666h167q49 184 143.5 248t248.5 24z" />
    <glyph glyph-name="uni0292" unicode="&#x292;" horiz-adv-x="1404" 
d="M870 678q165 -46 286.5 -176t133.5 -279q59 -688 -542 -688q-379 0 -666 311l346 285q68 -77 141 -118t135.5 -41t113 30t79 96t27.5 156q-9 96 -162.5 143t-372.5 17v276q77 72 228.5 207t234.5 221q-333 -3 -737 0v303q8 0 479 3t551 -3l53 -45q11 -64 17.5 -113
t12 -103t7.5 -75l-14 -43q-46 -51 -83 -91t-73.5 -77.5t-58 -59.5t-66.5 -66.5t-70 -69.5z" />
    <glyph glyph-name="uni0294" unicode="&#x294;" horiz-adv-x="978" 
d="M297 66l2 491q0 95 12.5 143t55.5 117q25 39 74 72.5t90 52.5t72.5 49.5t31.5 67.5q0 130 -88 149q-58 12 -90.5 10.5t-49.5 -17t-19 -46.5t3 -78h-227l-55 56q0 59 19.5 108.5t52 84t75 60.5t88.5 40t92 21t86.5 6t71.5 -9q130 -29 200 -121t76 -240q3 -92 -25 -167
t-70 -118.5t-85 -72.5t-73.5 -43t-30.5 -16l-2 -541q0 -14 -6 -26t-20 -21.5t-27.5 -16.5t-37 -14.5t-39.5 -12t-44.5 -11.5t-42.5 -11z" />
    <glyph glyph-name="uni0295" unicode="&#x295;" horiz-adv-x="978" 
d="M682 66l-70 -54q-14 4 -42.5 11t-44.5 11.5t-39.5 12t-37 14.5t-27.5 16.5t-20 21.5t-6 26l-2 541q0 2 -30.5 16t-73.5 43t-85 72.5t-70 118.5t-25 167q6 148 76 240t200 121q31 8 71.5 9t86.5 -6t92 -21t88.5 -40t75 -60.5t52 -84t19.5 -108.5l-55 -56h-227
q5 38 3.5 65.5t-8.5 44.5t-26 25t-49 6.5t-76 -10.5q-88 -19 -88 -149q0 -37 31.5 -67.5t72.5 -49.5t90 -52.5t74 -72.5q43 -69 55.5 -117t12.5 -143z" />
    <glyph glyph-name="uni0298" unicode="&#x298;" horiz-adv-x="1710" 
d="M856 1575q225 0 397 -103.5t263.5 -293t85.5 -435.5q-4 -156 -20.5 -271t-53.5 -205.5t-91.5 -149t-138.5 -96.5t-190.5 -53.5t-251.5 -14.5q-212 2 -352.5 43.5t-229.5 137.5t-127 243t-38 368q0 248 92 436t261.5 291t393.5 103zM856 1321q-193 0 -308.5 -156.5
t-115.5 -419.5q0 -182 97 -258.5t327 -76.5t326 76t96 259q0 264 -115 420t-307 156zM698 -410v318h318v-318h-318z" />
    <glyph glyph-name="uni0299" unicode="&#x299;" horiz-adv-x="956" 
d="M74 -37v1090h354q172 0 268.5 -76.5t96.5 -212.5q0 -143 -91 -209q88 -37 134.5 -106t46.5 -164q0 -68 -12 -119.5t-27.5 -85.5t-50 -57t-60.5 -35t-78 -17.5t-84 -6.5t-96 -1h-401zM453 885h-166v-252h166q85 0 123 28t38 89q0 135 -161 135zM469 446h-182v-206h182
q113 0 149.5 21t36.5 85q0 25 -47 66q-37 34 -139 34z" />
    <glyph glyph-name="uni029B" unicode="&#x29b;" horiz-adv-x="1808" 
d="M1419 301l-98 2l14 -223q-17 -4 -88.5 -31t-149 -45t-159.5 -18q-165 0 -289 72.5t-188 196t-64 277.5q0 81 18.5 155.5t60.5 142.5t103.5 118t153.5 79.5t205 29.5h27q0 13 0.5 25t1.5 32.5t2 44.5q3 70 10.5 115t27.5 80t47 53.5t78 30t110 14t153 0.5v-283
q-57 -3 -107 -1q-31 1 -36 -2t-4 -24q1 -14 1 -24v-100l25 -176q-140 43 -324 43q-120 0 -190.5 -32t-107 -112.5t-36.5 -220.5q6 -161 78 -221.5t256 -60.5q121 0 174 32v58l-184 24l-20 207l462 -51z" />
    <glyph glyph-name="uni029C" unicode="&#x29c;" horiz-adv-x="1083" 
d="M1010 -2h-301l8 227h-361l9 -227h-291l30 1065h220l22 -559h381l18 559h220z" />
    <glyph glyph-name="uni029D" unicode="&#x29d;" horiz-adv-x="1697" 
d="M1014 229h438v-335q-171 -3 -440 12q-9 -100 -19.5 -164t-32 -114t-46 -75.5t-71 -42t-97 -20.5t-134.5 -4q-23 0 -68 -2q-43 -4 -82 -1t-72 12t-59 36.5t-44.5 73.5t-28.5 123.5t-10 185.5q0 138 106.5 226.5t272.5 88.5h129q8 131 30 899h287zM676 -74
q-32 0 -57.5 -7.5t-40 -18.5t-22.5 -24t-7.5 -24.5t8.5 -19.5l25 -10h2q49 0 102 104h-10z" />
    <glyph glyph-name="uni029E" unicode="&#x29e;" horiz-adv-x="1351" 
d="M1245 1034l-90 -1681h-297l49 844l-215 -242h-340l373 461l-698 618h585l287 -344l-14 344h360z" />
    <glyph glyph-name="uni029F" unicode="&#x29f;" horiz-adv-x="882" 
d="M74 -2l39 1065h184v-821l514 22v-266h-737z" />
    <glyph glyph-name="uni02A0" unicode="&#x2a0;" horiz-adv-x="1556" 
d="M1221 -49l252 88l-19 -369l-592 -172l47 506q-131 -67 -286 -67q-230 0 -372 170t-142 452q0 281 138.5 451.5t368.5 179.5q102 4 178.5 -26.5t145.5 -102.5l6 65v9l25 211h2q4 22 6 49q8 52 17 88.5t24 67t31.5 49.5t45 32.5t59 19t78.5 5.5t98.5 -4t123.5 -13l-31 -280
q-53 3 -110 10q-21 5 -31 3t-11.5 -5.5t-2.5 -18.5q-1 -14 -2 -24l-2 -8q-10 -110 -19 -191l-73 -749l-21 -447zM594 336q157 0 210.5 50t53.5 200q0 174 -69.5 270t-194.5 96q-122 0 -187 -95t-65 -271q0 -151 50 -200.5t202 -49.5z" />
    <glyph glyph-name="uni02A1" unicode="&#x2a1;" horiz-adv-x="978" 
d="M586 666v-115h219v-184h-221v-242q0 -14 -6 -26t-20 -21.5t-27.5 -16.5t-37 -14.5t-39.5 -12t-44.5 -11.5t-42.5 -11l-70 54q0 178 2 301h-92v184h92v6q0 95 12.5 143t55.5 117q25 39 74 72.5t90 52.5t72.5 49.5t31.5 67.5q0 130 -88 149q-58 12 -90.5 10.5t-49.5 -17
t-19 -46.5t3 -78h-227l-55 56q0 59 19.5 108.5t52 84t75 60.5t88.5 40t92 21t86.5 6t71.5 -9q130 -29 200 -121t76 -240q3 -92 -25 -167t-70 -118.5t-85 -72.5t-73.5 -43t-30.5 -16z" />
    <glyph glyph-name="uni02A2" unicode="&#x2a2;" horiz-adv-x="978" 
d="M815 1077h-227q5 38 3.5 65.5t-8.5 44.5t-26 25t-49 6.5t-76 -10.5q-88 -19 -88 -149q0 -37 31.5 -67.5t72.5 -49.5t90 -52.5t74 -72.5q43 -69 55.5 -117t12.5 -143v-6h92v-184h-92q2 -123 2 -301l-70 -54q-14 4 -42.5 11t-44.5 11.5t-39.5 12t-37 14.5t-27.5 16.5
t-20 21.5t-6 26v242h-221v184h219v115q0 2 -30.5 16t-73.5 43t-85 72.5t-70 118.5t-25 167q6 148 76 240t200 121q31 8 71.5 9t86.5 -6t92 -21t88.5 -40t75 -60.5t52 -84t19.5 -108.5z" />
    <glyph glyph-name="uni02A3" unicode="&#x2a3;" horiz-adv-x="2390" 
d="M2294 -29h-1180l6 29l-194 6l20 90q-21 -12 -63 -36.5t-53.5 -30.5t-40 -21t-40 -18l-34.5 -9t-43 -7t-47 -1q-107 0 -196 31t-151 85t-105.5 128.5t-64 160.5t-20.5 181q0 170 71.5 316.5t195 232.5t268.5 86q37 0 73.5 -6.5t63.5 -16.5t52.5 -21.5t43.5 -22t34 -17.5
t26.5 -8.5t18 5t11 24t4.5 47.5l13 462h294l-22 -487h1010l41 -211l-650 -666h488zM604 360q136 0 193 47t57 173q0 150 -69 239.5t-175 89.5q-108 0 -183 -90.5t-75 -238.5q0 -125 58 -172.5t194 -47.5zM1225 905l-19 -424l11 -176l645 600h-637z" />
    <glyph glyph-name="uni02A4" unicode="&#x2a4;" horiz-adv-x="1363" 
d="M2202 178q59 -688 -543 -688q-379 0 -666 311l240 197l-307 8l20 90q-21 -12 -63 -36.5t-53.5 -30.5t-40 -21t-40 -18l-34.5 -9t-43 -7t-47 -1q-107 0 -196 31t-151 85t-105.5 128.5t-64 160.5t-20.5 181q0 170 71.5 316.5t195 232.5t268.5 86q37 0 73.5 -6.5t63.5 -16.5
t52.5 -21.5t43.5 -22t34 -17.5t26.5 -8.5t18 5t11 24t4.5 47.5l13 462h294l-12 -264q650 10 811 0l53 -45q11 -64 17.5 -113t12 -103t7.5 -75l-14 -43q-46 -51 -82 -90t-74.5 -79t-56.5 -58l-68.5 -68.5l-68.5 -68.5q165 -46 286.5 -176t133.5 -279zM1339 86
q68 -77 141 -118t135.5 -41t113 30t79 96t27.5 156q-9 96 -162.5 143t-372.5 17v276q77 72 228.5 207t234.5 221q-162 -2 -530 -2l-27 -590l27 -483zM604 360q136 0 193 47t57 173q0 150 -69 239.5t-175 89.5q-108 0 -183 -90.5t-75 -238.5q0 -125 58 -172.5t194 -47.5z" />
    <glyph glyph-name="uni02A5" unicode="&#x2a5;" horiz-adv-x="2516" 
d="M2210 573q80 -21 129 -76t62 -123.5t-3 -144t-57 -138t-109.5 -104.5t-150.5 -44q-11 -208 -8 -396h-314q-3 193 8 396h-639l11 57l-213 6l20 90q-21 -12 -63 -36.5t-53.5 -30.5t-40 -21t-40 -18l-34.5 -9t-43 -7t-47 -1q-107 0 -196 31t-151 85t-105.5 128.5t-64 160.5
t-20.5 181q0 170 71.5 316.5t195 232.5t268.5 86q37 0 73.5 -6.5t63.5 -16.5t52.5 -21.5t43.5 -22t34 -17.5t26.5 -8.5t18 5t11 24t4.5 47.5l13 462h294l-20 -462h1022l41 -211l-649 -666h168q49 184 143 248t248 24zM1227 930l-21 -449l8 -164l662 613h-649zM604 360
q136 0 193 47t57 173q0 150 -69 239.5t-175 89.5q-108 0 -183 -90.5t-75 -238.5q0 -125 58 -172.5t194 -47.5z" />
    <glyph glyph-name="uni02A6" unicode="&#x2a6;" horiz-adv-x="2019" 
d="M1567 784q96 -27 169.5 -71t113.5 -89t65 -93.5t31.5 -81.5t5.5 -56q-3 -62 -25.5 -120t-68.5 -110t-111 -90.5t-158.5 -62t-204.5 -24.5q-257 -3 -446 77l4 -63h-526q-64 6 -82.5 36t-16.5 107q1 48 0 122.5t0.5 265t6.5 372.5h-277l98 248h189q4 97 16 291l281 123
l-17 -414h17v164l844 -6v-25q213 -16 321 -63l-80 -213q-94 57 -241 75v-14h-230q-55 -34 -47 -125q3 -30 25.5 -52.5t65 -37.5t82 -25t100.5 -22.5t96 -22.5zM1581 414q6 20 6 37.5t-4.5 30t-14.5 23.5t-22.5 18.5t-30 14.5t-35 12t-39.5 10t-42 9.5t-45 10.5t-45 12
q-151 44 -248.5 147.5t-97.5 249.5q0 46 10 80h-47l41 -166h-363l-22 -586q139 0 340 2l2 -38l155 180q57 -54 122 -86.5t167 -42.5q7 -1 26 -3t28 -3t27 -2t28.5 1t26 5t25 10t20.5 16.5t19 24t13 33.5z" />
    <glyph glyph-name="uni02A7" unicode="&#x2a7;" horiz-adv-x="1886" 
d="M1735 1751l69 -297q-87 55 -135.5 71t-103.5 3q-76 -17 -107 -75t-22 -167l32 -479l45 -488q10 -114 10 -209.5t-4.5 -166.5t-24 -129.5t-33.5 -97t-49 -70.5t-54.5 -48.5t-66 -33.5t-67 -22t-72.5 -17q-11 -3 -17 -4q-29 -7 -75 -8t-109.5 8t-124 29t-121.5 61.5
t-101 99.5l287 244q118 -49 203 -31q71 17 97.5 81.5t22.5 213.5l-43 535l-18 315h-172l37 -166h-387l-47 -586q149 0 366 2l13 -319h-566q-69 6 -87 35.5t-15 107.5q0 6 2 77.5t4.5 161t9.5 234.5t17 287h-297l116 248h201q15 178 29 291l305 123l-33 -414h107v164h387
q8 172 94 285t238 147q137 30 260 4z" />
    <glyph glyph-name="uni02A8" unicode="&#x2a8;" horiz-adv-x="1159" 
d="M1901 631q0 -135 -117.5 -257.5t-286.5 -174.5q17 -228 14 -408h-335v391q-107 15 -191 56l16 -238h-565q-70 6 -89 35.5t-17 107.5q0 9 -1 113t0 284.5t7 362.5h-297l106 248h201q5 122 19 291l301 123l-19 -414h141q76 146 218.5 226.5t332.5 80.5q70 0 145 -15t85 -34
v-252q-145 45 -271 45q-140 0 -205 -92.5t-65 -294.5q1 -107 40 -181.5t108 -105.5v88q0 166 88.5 272.5t226.5 106.5q120 0 240 -84q170 -116 170 -280zM612 317q108 0 260 2q-159 152 -159 496q0 30 4 88h-80zM1479 557q104 53 104 102v3q-38 28 -61 28q-18 0 -30.5 -32
t-12.5 -91v-10z" />
    <glyph glyph-name="uni02A9" unicode="&#x2a9;" horiz-adv-x="1906" 
d="M1802 -14h-6q-3 -236 -80 -310q-36 -34 -170.5 -56t-265 -18t-152.5 36q17 46 68 239h137h16q19 -1 26 0.5t14.5 5t9.5 17.5t3 31.5t1 54.5h-6l69 700q24 234 -204 234q-131 0 -207 -75t-66 -210l53 -649h-401l68 897h-117l31 -885h-381l30 885h-163v293h165
q6 282 88.5 394.5t282.5 112.5h219v-264h-221q-36 0 -58 -24.5t-29 -65.5t-6.5 -79t5.5 -79l176 3v8h230l24 -92q134 85 297 90q225 7 338 -121.5t133 -405.5z" />
    <glyph glyph-name="uni02AA" unicode="&#x2aa;" horiz-adv-x="1757" 
d="M1305 731q96 -25 169.5 -66.5t113.5 -84t65 -89t31.5 -78t5.5 -53.5q-3 -66 -32.5 -126.5t-84 -112.5t-142 -89t-198.5 -50v-37h-1026v55h-96q-9 96 16.5 657t73.5 983h284q-53 -412 -71 -1355h276l127 141q56 -51 121.5 -82t167.5 -41q5 -1 25.5 -3t28.5 -2.5t27 -2
t28.5 0.5t25.5 5t25.5 9.5t20.5 15.5t19 23t13 32q4 23 6 39t-7.5 30t-18.5 23t-28 17.5t-36 14t-42 11t-46.5 10t-49.5 11t-50 12.5q-151 43 -249 140.5t-98 236.5q0 287 449 280q95 -2 204 -17.5t181 -43.5l-80 -203q-105 61 -283 76q-29 3 -47 4t-47 0.5t-47.5 -4.5
t-40 -13.5t-33 -24.5t-17.5 -40t-3 -57q3 -29 25.5 -50t65 -35.5t82 -23.5t100.5 -21.5t96 -21.5z" />
    <glyph glyph-name="uni02AB" unicode="&#x2ab;" horiz-adv-x="1757" 
d="M1661 -4h-1180v4h-370q-9 96 16.5 657t73.5 983h284q-28 -229 -39 -460h367v-2h799l41 -211l-649 -666h487zM432 932q-13 -354 -18 -649h129l2 12l684 635h-555v2h-242z" />
    <glyph glyph-name="uni02AC" unicode="&#x2ac;" horiz-adv-x="1251" 
d="M317 752l-196 755h194l111 -391l141 236h117l127 -236l125 391h194l-196 -755h-205l-104 200l-109 -200h-199zM317 -35l-196 756h194l111 -391l141 235h117l127 -235l125 391h194l-196 -756h-205l-104 201l-109 -201h-199z" />
    <glyph glyph-name="uni02AD" unicode="&#x2ad;" horiz-adv-x="606" 
d="M649 1087v-425h-252v192h-188v-192h-252v425h692zM649 387v-426h-252v193h-188v-193h-252v426h692z" />
    <glyph glyph-name="uni02B0" unicode="&#x2b0;" horiz-adv-x="1384" 
d="M1233 680l47 -682h-410q32 155 53 269.5t34 211.5t16 162.5t-5 117t-24 81t-46 48.5t-65.5 25.5t-87.5 6.5q-72 0 -117.5 -12t-82.5 -48.5t-52.5 -98.5t-18 -166.5t11.5 -248t44 -348.5h-426l127 1696h295l-37 -609q69 53 135 73t162 20q155 0 245.5 -44.5t139 -152.5
t62.5 -301z" />
    <glyph glyph-name="uni02B2" unicode="&#x2b2;" horiz-adv-x="872" 
d="M440 1270v317h318v-317h-318zM383 -127q44 58 58.5 244t30.5 771q5 150 7 232h287l-76 -1153q-14 -205 -31.5 -287t-58.5 -126q-44 -49 -162.5 -62.5t-320.5 0.5l69 356q20 -7 42 -15.5t32 -13.5t24.5 -9t18.5 -5.5t13.5 0t11.5 3t10.5 9t11.5 13t14 19.5t19 24z" />
    <glyph glyph-name="uni02B7" unicode="&#x2b7;" horiz-adv-x="1097" 
d="M248 737l-193 738h191l108 -381l138 229h112l125 -229l123 381h190l-192 -738h-201l-100 195l-107 -195h-194z" />
    <glyph glyph-name="uni02B9" unicode="&#x2b9;" 
d="M485 1245v-2l-86 -299h-315l127 348l2 240h354z" />
    <glyph glyph-name="uni02BA" unicode="&#x2ba;" 
d="M485 1245v-2l-86 -299h-315l127 348l2 240h354z" />
    <glyph glyph-name="uni02BC" unicode="&#x2bc;" horiz-adv-x="839" 
d="M463 1149l-496 -74l529 527h317z" />
    <glyph glyph-name="uni02C1" unicode="&#x2c1;" horiz-adv-x="714" 
d="M575 1407q-111 18 -159 18h-4q135 -112 149 -325q-35 -6 -182 -6l-53 45q-10 49 -36.5 92.5t-53 68.5t-59 55t-46.5 50q-64 87 24 161q87 74 268 97q95 12 193 4q-8 -37 -23.5 -138t-17.5 -122z" />
    <glyph glyph-name="circumflex" unicode="&#x2c6;" horiz-adv-x="1138" 
d="M498 1593h157l93 -151l362 -359h-262l-281 191l-276 -191h-262l364 359z" />
    <glyph glyph-name="caron" unicode="&#x2c7;" horiz-adv-x="1138" 
d="M498 1083l-105 152l-364 358h262l276 -190l281 190h262l-362 -358l-93 -152h-157z" />
    <glyph glyph-name="uni02C8" unicode="&#x2c8;" horiz-adv-x="0" 
d="M-111 1585h263v-598h-310z" />
    <glyph glyph-name="uni02CC" unicode="&#x2cc;" horiz-adv-x="522" 
d="M152 272h262v-598h-310z" />
    <glyph glyph-name="uni02D0" unicode="&#x2d0;" horiz-adv-x="745" 
d="M-20 1182h786l-393 -570zM-20 -51l393 569l393 -569h-786z" />
    <glyph glyph-name="uni02D1" unicode="&#x2d1;" horiz-adv-x="905" 
d="M59 1180h787l-393 -570z" />
    <glyph glyph-name="breve" unicode="&#x2d8;" horiz-adv-x="1132" 
d="M965 1432l59 2q0 -192 -130.5 -299t-336.5 -107q-109 0 -193.5 21.5t-147 68t-91.5 126t-19 188.5h250q10 -58 53.5 -78.5t147.5 -20.5q119 0 164.5 20t54.5 79h189z" />
    <glyph glyph-name="dotaccent" unicode="&#x2d9;" horiz-adv-x="534" 
d="M109 1180v317h317v-317h-317z" />
    <glyph glyph-name="ring" unicode="&#x2da;" horiz-adv-x="696" 
d="M348 1079q-100 0 -169.5 74t-69.5 178q0 103 70 176.5t169 73.5t169.5 -73.5t70.5 -176.5q0 -104 -70 -178t-170 -74zM348 1303q37 0 43 7t6 48q0 22 -14.5 37.5t-34.5 15.5t-34.5 -15.5t-14.5 -37.5q0 -41 6 -48t43 -7z" />
    <glyph glyph-name="ogonek" unicode="&#x2db;" horiz-adv-x="702" 
d="M563 -233q8 -79 31 -197l-55 -66q-202 -3 -316 57.5t-114 174.5q0 160 243 344q104 0 137 -2l33 -96q-90 -83 -139 -142.5t-49 -83.5q0 1 9 -1t26.5 -4.5t33.5 -2.5q43 0 160 19z" />
    <glyph glyph-name="tilde" unicode="&#x2dc;" horiz-adv-x="958" 
d="M332 1130h-168l-55 60q14 207 65 282.5t182 75.5q51 0 100 -32t78 -70.5t52.5 -70.5t29.5 -32q13 0 19 5.5t8 22t1.5 36t0 60t4.5 81.5h146l55 -55q-3 -213 -51.5 -289.5t-180.5 -73.5q-45 1 -87.5 23t-72 54t-52 63.5t-36 53.5t-16.5 22q-6 0 -11.5 -19t-9 -70.5
t-1.5 -126.5z" />
    <glyph glyph-name="hungarumlaut" unicode="&#x2dd;" horiz-adv-x="1214" 
d="M1042 1266l-495 -56l528 394h318zM371 1239l-496 -55l528 393h318z" />
    <glyph glyph-name="uni02DE" unicode="&#x2de;" horiz-adv-x="768" 
d="M406 586q0 -158 6 -189q4 -32 8 -39.5t14 -7.5q22 0 30.5 6.5t8.5 22.5q0 38 -8 65t-37 78l231 76v-203q0 -122 -58.5 -195t-156.5 -73t-154.5 64.5t-56.5 175.5v-2l-124 -23v209z" />
    <glyph glyph-name="uni02E0" unicode="&#x2e0;" horiz-adv-x="901" 
d="M657 1475l119 -107q-35 -44 -39 -47q-101 -93 -194 -193q160 -220 136.5 -347t-230.5 -124q-85 0 -141.5 16t-82 46t-29 70.5t17.5 94t56 111t88 127.5q-80 99 -194 207q-9 7 -39 47l121 99q14 -16 26 -32.5t19 -23.5q94 -94 164 -176q108 126 157 180q3 3 16 21t29 31z
M446 815q80 -2 54 87q-14 44 -54 106q-43 -60 -58 -102t-0.5 -65.5t58.5 -25.5z" />
    <glyph glyph-name="uni02E1" unicode="&#x2e1;" horiz-adv-x="798" 
d="M111 0q-9 96 16.5 657t73.5 983h284q-53 -413 -71 -1357h235l49 -283h-587z" />
    <glyph glyph-name="uni02E5" unicode="&#x2e5;" horiz-adv-x="1163" 
d="M1049 1079v-69h-2l-39 -1155h-342l110 1155l-667 2v313h940v-2h8z" />
    <glyph glyph-name="uni02E6" unicode="&#x2e6;" horiz-adv-x="1163" 
d="M1057 1323l-10 -330h2v-315h-15l-26 -823h-342l77 823l-634 2v313h665l31 330h252z" />
    <glyph glyph-name="uni02E7" unicode="&#x2e7;" horiz-adv-x="1163" 
d="M805 1323h252l-49 -1468h-342l55 577h-612v316h641z" />
    <glyph glyph-name="uni02E8" unicode="&#x2e8;" horiz-adv-x="1163" 
d="M805 1323h252l-49 -1468h-342l30 329h-587v314l618 2z" />
    <glyph glyph-name="uni02E9" unicode="&#x2e9;" horiz-adv-x="1163" 
d="M1057 -143h-8v-2h-940v313l667 2l-110 1155h342l39 -1155h2v-68z" />
    <glyph glyph-name="uni02EC" unicode="&#x2ec;" horiz-adv-x="978" 
d="M348 -139l-31 159l-198 510h168l198 -428l209 428h170l-233 -510l-31 -159h-252z" />
    <glyph glyph-name="uni02ED" unicode="&#x2ed;" horiz-adv-x="1239" 
d="M190 881l865 53l100 -268l-1077 -41zM190 420l865 53l100 -268l-1077 -41z" />
    <glyph glyph-name="uni02F3" unicode="&#x2f3;" horiz-adv-x="696" 
d="M348 -623q-100 0 -169.5 74t-69.5 178q0 103 70 176.5t169 73.5t169.5 -73.5t70.5 -176.5q0 -104 -70 -178t-170 -74zM348 -399q37 0 43 7t6 48q0 22 -14.5 37.5t-34.5 15.5t-34.5 -15.5t-14.5 -37.5q0 -41 6 -48t43 -7z" />
    <glyph glyph-name="gravecomb" unicode="&#x300;" horiz-adv-x="0" 
d="M-463 1204l-350 338h317l529 -393z" />
    <glyph glyph-name="acutecomb" unicode="&#x301;" horiz-adv-x="0" 
d="M-303 1559h215l-139 -426h-285z" />
    <glyph glyph-name="uni0302" unicode="&#x302;" horiz-adv-x="0" 
d="M-641 1573h158l92 -152l362 -358h-262l-280 190l-277 -190h-262l365 358z" />
    <glyph glyph-name="tildecomb" unicode="&#x303;" horiz-adv-x="0" 
d="M-627 1130h-168l-55 60q14 207 65.5 282.5t182.5 75.5q51 0 100 -32t78 -70.5t52.5 -70.5t29.5 -32q13 0 19 5.5t8 22t1.5 36t0 60t4.5 81.5h145l55 -55q-3 -213 -51 -289.5t-180 -73.5q-45 1 -87.5 23t-72 54t-52 63.5t-36 53.5t-16.5 22q-6 0 -11.5 -18.5t-9.5 -70.5
t-2 -127z" />
    <glyph glyph-name="uni0304" unicode="&#x304;" horiz-adv-x="0" 
d="M-1051 1368l865 53l100 -268l-1077 -41z" />
    <glyph glyph-name="uni0305" unicode="&#x305;" horiz-adv-x="0" 
d="M-1339 1759l1144 47l134 -235l-1428 -37z" />
    <glyph glyph-name="uni0306" unicode="&#x306;" horiz-adv-x="0" 
d="M-168 1432l59 2q0 -192 -130 -299t-336 -107q-109 0 -193.5 21.5t-147 68t-91.5 126t-19 188.5h250q10 -58 53.5 -78.5t147.5 -20.5q119 0 164.5 20t54.5 79h188z" />
    <glyph glyph-name="uni0307" unicode="&#x307;" horiz-adv-x="0" 
d="M-426 1180v317h317v-317h-317z" />
    <glyph glyph-name="uni0308" unicode="&#x308;" horiz-adv-x="0" 
d="M-983 1192v317h317v-317h-317zM-426 1192v317h317v-317h-317z" />
    <glyph glyph-name="hookabovecomb" unicode="&#x309;" horiz-adv-x="0" 
d="M-631 1225q50 0 85.5 -22t35.5 -62q0 -47 -43 -78l-22 -19l-19 -14l-12 -12h-21l-26 12q-8 9 -8 16.5t4 10.5t11 8t9 8q4 3 17 15.5t20 17.5l22 14q19 11 19 17q0 2 -6 6q-21 12 -53 12q-10 0 -22 -1.5t-20 -3.5l-8 -1v72q24 4 37 4z" />
    <glyph glyph-name="uni030A" unicode="&#x30a;" horiz-adv-x="0" 
d="M-348 1079q-100 0 -170 74t-70 178q0 103 70.5 176.5t169.5 73.5t169 -73.5t70 -176.5q0 -104 -69.5 -178t-169.5 -74zM-348 1303q37 0 43 7t6 48q0 22 -14.5 37.5t-34.5 15.5t-34.5 -15.5t-14.5 -37.5q0 -41 6 -48t43 -7z" />
    <glyph glyph-name="uni030B" unicode="&#x30b;" horiz-adv-x="0" 
d="M-172 1266l-496 -56l529 394h317zM-844 1239l-495 -55l528 393h317z" />
    <glyph glyph-name="uni030C" unicode="&#x30c;" horiz-adv-x="0" 
d="M-641 1083l-104 152l-365 358h262l277 -190l280 190h262l-362 -358l-92 -152h-158z" />
    <glyph glyph-name="uni030F" unicode="&#x30f;" horiz-adv-x="0" 
d="M-1042 1266l-351 338h318l528 -394zM-371 1239l-350 338h318l528 -393z" />
    <glyph glyph-name="uni0312" unicode="&#x312;" horiz-adv-x="0" 
d="M-84 936h-315l-86 299v2l-82 287h354l2 -240z" />
    <glyph glyph-name="uni0313" unicode="&#x313;" horiz-adv-x="0" 
d="M-172 1208v-2l-86 -299h-315l127 348l2 240h354z" />
    <glyph glyph-name="uni0314" unicode="&#x314;" horiz-adv-x="0" 
d="M-84 907h-315l-86 299v2l-82 287h354l2 -240z" />
    <glyph glyph-name="uni0318" unicode="&#x318;" horiz-adv-x="0" 
d="M-338 -39h229v-524h-229v155h-188v215h188v154z" />
    <glyph glyph-name="uni0319" unicode="&#x319;" horiz-adv-x="0" 
d="M-109 -193v-215h-188v-155h-229v524h229v-154h188z" />
    <glyph glyph-name="uni031A" unicode="&#x31a;" horiz-adv-x="0" 
d="M-115 1108h-284l-4 311l-601 19v245l867 -65v-2z" />
    <glyph glyph-name="uni031B" unicode="&#x31b;" horiz-adv-x="0" 
d="M-346 819l-90 187q39 25 68.5 41t42 22.5t18.5 11.5q22 22 22 129q0 15 -8.5 37t-40.5 92l232 -28q22 -70 22 -117q0 -85 -27.5 -159t-74.5 -117q-6 -5 -21.5 -18.5t-22.5 -18.5t-24 -15.5t-40 -21.5t-56 -25z" />
    <glyph glyph-name="uni031C" unicode="&#x31c;" horiz-adv-x="0" 
d="M-109 -575q-117 -27 -205.5 49t-88.5 196q0 119 89.5 195t204.5 49v-164q-104 0 -104 -53q0 -43 6 -49t54 -6h44v-217z" />
    <glyph glyph-name="uni031D" unicode="&#x31d;" horiz-adv-x="0" 
d="M-262 74h153v-230h-524v230h156v188h215v-188z" />
    <glyph glyph-name="uni031E" unicode="&#x31e;" horiz-adv-x="0" 
d="M-109 -10v-230h-155v-188h-215v188h-154v230h524z" />
    <glyph glyph-name="uni031F" unicode="&#x31f;" horiz-adv-x="0" 
d="M-141 -354v-105l-144 2v-153h-114v153l-168 2v103h168v159h114v-161h144z" />
    <glyph glyph-name="uni0320" unicode="&#x320;" horiz-adv-x="0" 
d="M-1051 -293l865 53l100 -268l-1077 -41z" />
    <glyph glyph-name="dotbelowcomb" unicode="&#x323;" horiz-adv-x="0" 
d="M-426 -354v317h317v-317h-317z" />
    <glyph glyph-name="uni0324" unicode="&#x324;" horiz-adv-x="0" 
d="M-983 -449v318h317v-318h-317zM-426 -449v318h317v-318h-317z" />
    <glyph glyph-name="uni0325" unicode="&#x325;" horiz-adv-x="0" 
d="M-348 -592q-100 0 -170 74t-70 178q0 103 70.5 176.5t169.5 73.5t169 -73.5t70 -176.5q0 -104 -69.5 -178t-169.5 -74zM-348 -369q37 0 43 7.5t6 48.5q0 22 -14.5 37.5t-34.5 15.5t-34.5 -15.5t-14.5 -37.5q0 -41 6 -48.5t43 -7.5z" />
    <glyph glyph-name="uni0326" unicode="&#x326;" horiz-adv-x="0" 
d="M-172 -14v-2l-86 -299h-315l127 348l2 239h354z" />
    <glyph glyph-name="uni0327" unicode="&#x327;" horiz-adv-x="0" 
d="M-575 -293l116 348h185l-60 -164h-16q120 0 187 -61t52 -158q-17 -97 -89 -152t-179 -55h-194l47 230q72 -16 90 -18.5t61 -2.5q8 0 27.5 4.5t35 9t15.5 3.5q0 23 -14.5 31t-59.5 8q-47 0 -204 -23z" />
    <glyph glyph-name="uni0328" unicode="&#x328;" horiz-adv-x="0" 
d="M-139 -233q9 -90 30 -197l-55 -66q-202 -3 -316 57.5t-114 174.5q0 159 244 344q104 0 137 -2l33 -96q-189 -174 -189 -226q0 1 9 -1t27 -4.5t34 -2.5q43 0 160 19z" />
    <glyph glyph-name="uni0329" unicode="&#x329;" horiz-adv-x="0" 
d="M-371 -96h262v-598h-309z" />
    <glyph glyph-name="uni032A" unicode="&#x32a;" horiz-adv-x="0" 
d="M-109 -39v-426h-251v193h-189v-193h-252v426h692z" />
    <glyph glyph-name="uni032C" unicode="&#x32c;" horiz-adv-x="0" 
d="M-641 -487l-104 151l-365 359h262l277 -191l280 191h262l-362 -359l-92 -151h-158z" />
    <glyph glyph-name="uni032D" unicode="&#x32d;" horiz-adv-x="0" 
d="M-641 -176h158l92 -152l362 -358h-262l-280 190l-277 -190h-262l365 358z" />
    <glyph glyph-name="uni0330" unicode="&#x330;" horiz-adv-x="0" 
d="M-627 -477h-168l-55 59q14 207 65.5 283t182.5 76q51 0 100 -32t78 -70.5t52.5 -70.5t29.5 -32q13 0 19 5.5t8 22t1.5 36t0 60t4.5 81.5h145l55 -56q-3 -213 -51 -289t-180 -73q-45 1 -87.5 23t-72 53.5t-52 63t-36 53.5t-16.5 22q-6 0 -11.5 -18.5t-9.5 -70t-2 -126.5z
" />
    <glyph glyph-name="uni0331" unicode="&#x331;" horiz-adv-x="0" 
d="M-868 -76l686 39l80 -196l-856 -31z" />
    <glyph glyph-name="uni0332" unicode="&#x332;" horiz-adv-x="0" 
d="M-909 -166l727 47l84 -235l-906 -37z" />
    <glyph glyph-name="uni0334" unicode="&#x334;" horiz-adv-x="0" 
d="M-627 553h-168l-55 59q14 207 65.5 283t182.5 76q51 0 100 -32t78 -70.5t52.5 -70.5t29.5 -32q13 0 19 5.5t8 22t1.5 36t0 60t4.5 81.5h145l55 -56q-3 -213 -51 -289t-180 -73q-45 1 -87.5 23t-72 53.5t-52 63t-36 53.5t-16.5 22q-6 0 -11.5 -18.5t-9.5 -70t-2 -126.5z
" />
    <glyph glyph-name="uni0339" unicode="&#x339;" horiz-adv-x="0" 
d="M-403 -575v217h49q41 -1 48 5t7 41v9q0 53 -104 53v164q115 27 204.5 -49t89.5 -195q0 -120 -88.5 -196t-205.5 -49z" />
    <glyph glyph-name="uni033A" unicode="&#x33a;" horiz-adv-x="0" 
d="M-360 -45h251v-426h-692v426h252v-193h189v193z" />
    <glyph glyph-name="uni033B" unicode="&#x33b;" horiz-adv-x="0" 
d="M-772 29h663v-592h-663v592zM-561 -170v-188h239v188h-239z" />
    <glyph glyph-name="uni033C" unicode="&#x33c;" horiz-adv-x="0" 
d="M-309 45q83 0 128.5 -56.5t45.5 -156.5v-207l-139 -18l-7 215q0 20 -7 31.5t-15 11.5q-9 0 -17.5 -10t-37.5 -62l-7 -182h-100l-6 -10q0 2 1 5t1 5h-45l-2 199v28q-25 45 -49 45q-19 0 -28 9.5t-9 19.5l-31 -305l-141 16l18 232q14 103 63 147.5t150 44.5q64 0 111 -41
q55 39 123 39z" />
    <glyph glyph-name="uni033D" unicode="&#x33d;" horiz-adv-x="0" 
d="M-156 1108h-155l-84 123l-94 -123h-156l184 217l-131 193h119l84 -109l94 109h117l-146 -193z" />
    <glyph glyph-name="uni0342" unicode="&#x342;" horiz-adv-x="0" 
d="M-627 1130h-168l-55 60q14 207 65.5 282.5t182.5 75.5q51 0 100 -32t78 -70.5t52.5 -70.5t29.5 -32q13 0 19 5.5t8 22t1.5 36t0 60t4.5 81.5h145l55 -55q-3 -213 -51 -289.5t-180 -73.5q-45 1 -87.5 23t-72 54t-52 63.5t-36 53.5t-16.5 22q-6 0 -11.5 -18.5t-9.5 -70.5
t-2 -127z" />
    <glyph glyph-name="uni0343" unicode="&#x343;" horiz-adv-x="0" 
d="M-868 1747q133 1 231 -72.5t98 -173.5q0 -92 -87.5 -149t-241.5 -66v150q36 16 74 31.5t42 17.5q-33 7 -116 10v252z" />
    <glyph glyph-name="uni0344" unicode="&#x344;" horiz-adv-x="0" 
d="M-604 1950h215l-139 -426h-285zM-1051 1192v317h318v-317h-318zM-494 1192v317h318v-317h-318z" />
    <glyph glyph-name="uni0346" unicode="&#x346;" horiz-adv-x="0" 
d="M-109 1640v-426h-251v193h-189v-193h-252v426h692z" />
    <glyph glyph-name="uni0347" unicode="&#x347;" horiz-adv-x="0" 
d="M-1049 -43l865 53l100 -268l-1077 -41zM-1049 -504l865 53l100 -268l-1077 -41z" />
    <glyph glyph-name="uni0348" unicode="&#x348;" horiz-adv-x="0" 
d="M-371 41h262v-598h-309zM-872 39h262v-598h-310z" />
    <glyph glyph-name="uni0349" unicode="&#x349;" horiz-adv-x="0" 
d="M-106 -674h-340l2 258l-340 -10v301l655 -31v-4z" />
    <glyph glyph-name="uni034A" unicode="&#x34a;" horiz-adv-x="0" 
d="M-164 1548l55 -55q-3 -213 -51 -289.5t-180 -73.5q-46 0 -106 33l-19 -71l-205 -134l107 328q-9 13 -19.5 29.5t-15 23.5t-6.5 7q-6 0 -11.5 -18.5t-9.5 -70.5t-2 -127h-168l-55 60q14 207 65.5 282.5t182.5 75.5q59 0 113 -41l28 88l150 72l-74 -272q5 -7 12 -17t11 -15
t8 -10.5t7 -7.5t5 -2q13 0 19 5.5t8 22t1.5 36t0 60t4.5 81.5h145z" />
    <glyph glyph-name="uni034B" unicode="&#x34b;" horiz-adv-x="0" 
d="M-336 1548l55 -55q-3 -213 -51 -289.5t-180 -73.5q-45 1 -87.5 23t-72 54t-52 63.5t-36 53.5t-16.5 22q-6 0 -11.5 -18.5t-9.5 -70.5t-2 -127h-168l-55 60q14 207 65.5 282.5t182.5 75.5q71 0 141 -63v241h262v-178h35zM-514 1343q20 0 24.5 15t4.5 61v45h-127
q22 -24 45 -55.5t35.5 -48.5t17.5 -17z" />
    <glyph glyph-name="uni034C" unicode="&#x34c;" horiz-adv-x="0" 
d="M-164 1509l47 -49q-3 -186 -44 -252t-156 -63q-39 1 -76.5 20t-63.5 46.5t-46 54.5t-32 46t-14 19q-5 0 -9.5 -16t-8 -60.5t-2.5 -109.5h-146l-49 51q9 150 43 223h-2l-47 51q11 178 55 243t156 65q36 0 70.5 -18t59 -44t44 -52l33 -44t18.5 -18q11 0 16 4.5t6 19
t0.5 31.5t0.5 51.5t4 69.5h125l47 -47q0 -151 -29 -222zM-580 1507q10 2 33 2q37 0 72 -18q-21 22 -41 50.5t-30.5 45.5t-12.5 17q-18 0 -21 -97zM-319 1329q16 0 20 11t4 44v35h-39q-36 0 -76 21q19 -21 40.5 -50t33.5 -45t17 -16z" />
    <glyph glyph-name="uni034D" unicode="&#x34d;" horiz-adv-x="0" 
d="M-598 -211v-104h145v-109h-145v-106l-182 159zM-94 -414l-182 -159v104h-146v109h146v106z" />
    <glyph glyph-name="uni034E" unicode="&#x34e;" horiz-adv-x="0" 
d="M-98 -315h-105v-146h-108v146h-107l160 182z" />
    <glyph glyph-name="uni035C" unicode="&#x35c;" horiz-adv-x="0" 
d="M-979 -432q-338 0 -533 83t-329 281q39 46 90 84l82 -10q173 -254 690 -254q295 0 490 81t270 235q23 -34 57.5 -65.5t40.5 -39.5l2 -67q-123 -170 -330 -249t-530 -79z" />
    <glyph glyph-name="uni0361" unicode="&#x361;" horiz-adv-x="0" 
d="M-979 1638q323 0 530 -78.5t330 -248.5l-2 -68q-6 -8 -40.5 -39t-57.5 -65q-75 154 -270 234.5t-490 80.5q-517 0 -690 -254l-82 -10q-51 38 -90 84q134 198 329 281t533 83z" />
    <glyph glyph-name="uni0362" unicode="&#x362;" horiz-adv-x="0" 
d="M-39 -371l-596 -303v178h-1519v236h1519v172z" />
    <glyph glyph-name="uni0370" unicode="&#x370;" horiz-adv-x="1579" 
d="M1219 735v-407h-449l14 -383h-426l45 1603h320l31 -813h465z" />
    <glyph glyph-name="uni0371" unicode="&#x371;" horiz-adv-x="1044" 
d="M805 485v-268h-297l10 -254h-280l28 1061h211l21 -539h307z" />
    <glyph glyph-name="uni0372" unicode="&#x372;" horiz-adv-x="1591" 
d="M109 1548h1376v-6v-282v-78q0 -35 -17 -58.5t-49 -23.5q-36 0 -65 45q-26 51 -98 87t-158 42l-35 2h-107l41 -1278h-397l39 1276q-87 0 -145 -4q-103 -8 -176.5 -53.5t-110.5 -124.5l-21 -80q-19 43 -36 76t-24.5 46t-12 24.5t-4.5 23.5v366z" />
    <glyph glyph-name="uni0373" unicode="&#x373;" horiz-adv-x="1046" 
d="M72 1018h905v-4v-187v-51q0 -22 -11 -37.5t-32 -15.5q-24 0 -43 31q-17 31 -60.5 53.5t-97.5 30.5l-55 2h-49l26 -842h-260l25 840q-76 0 -96 -2q-140 -12 -189 -119l-12 -51q-13 28 -24.5 49.5t-16 29.5t-7.5 15.5t-3 15.5v242z" />
    <glyph glyph-name="uni0374" unicode="&#x374;" horiz-adv-x="587" 
d="M285 1559h215l-140 -426h-284z" />
    <glyph glyph-name="uni0375" unicode="&#x375;" horiz-adv-x="657" 
d="M485 -14v-2l-86 -299h-315l127 348l2 239h354z" />
    <glyph glyph-name="uni0376" unicode="&#x376;" horiz-adv-x="1550" 
d="M1446 0h-467l37 952l-404 -952h-419l-89 1536h297l88 -1049l492 1033h338z" />
    <glyph glyph-name="uni0377" unicode="&#x377;" horiz-adv-x="1075" 
d="M1004 0h-324l25 662l-281 -662h-291l-61 1065h207l61 -727l340 717h235z" />
    <glyph glyph-name="uni037A" unicode="&#x37a;" horiz-adv-x="645" 
d="M344 1319q0 -32 1 -34q5 -7 54 3q75 16 111 23v-258q-214 -44 -297.5 26t-73.5 289q2 0 5.5 -1t5.5 -1q-13 23 -13 57q0 3 51.5 15t103.5 12t52 -25v-106z" />
    <glyph glyph-name="uni037E" unicode="&#x37e;" horiz-adv-x="712" 
d="M541 1020v-350h-351v350h351zM512 -53v-2l-86 -299h-315l127 348l2 239h354z" />
    <glyph glyph-name="tonos" unicode="&#x384;" horiz-adv-x="587" 
d="M285 1559h215l-140 -426h-284z" />
    <glyph glyph-name="dieresistonos" unicode="&#x385;" horiz-adv-x="1091" 
d="M555 1950h215l-139 -426h-285zM109 1192v317h317v-317h-317zM666 1192v317h317v-317h-317z" />
    <glyph glyph-name="Alphatonos" unicode="&#x386;" horiz-adv-x="1695" 
d="M82 -55l635 1603h264l633 -1603h-414l-57 243h-588l-76 -243h-397zM649 537h400l-203 645zM762 33h215l-139 -426h-285z" />
    <glyph glyph-name="anoteleia" unicode="&#x387;" horiz-adv-x="534" 
d="M109 467v317h317v-317h-317z" />
    <glyph glyph-name="Epsilontonos" unicode="&#x388;" horiz-adv-x="1316" 
d="M106 -55l54 1573l1036 32l-74 -260l-663 -37v-338l502 23v-279l-502 -32v-262h671l93 -420h-1117z" />
    <glyph glyph-name="Etatonos" unicode="&#x389;" horiz-adv-x="1579" 
d="M-23 1741h216l-140 -426h-284zM1473 -2h-441l12 330h-524l12 -330h-426l46 1550h319l33 -813h553l28 813h320z" />
    <glyph glyph-name="Iotatonos" unicode="&#x38a;" horiz-adv-x="614" 
d="M102 -2q31 268 39 583t0 536.5t-24 391.5l-64 -194h-284l208 426h216l-64 -193h326q-35 -713 57 -1550h-410z" />
    <glyph glyph-name="Omicrontonos" unicode="&#x38c;" horiz-adv-x="1955" 
d="M1102 1575q225 0 396.5 -103.5t263 -293t85.5 -435.5q-4 -156 -20.5 -271t-53 -205.5t-91.5 -149t-138.5 -96.5t-190 -53.5t-251.5 -14.5q-212 2 -352.5 43.5t-230 137.5t-127.5 243t-38 368q0 375 204.5 602.5t543.5 227.5zM285 1565h215l-140 -426h-284zM1102 1321
q-193 0 -308.5 -156.5t-115.5 -419.5q0 -182 97 -258.5t327 -76.5t326 76t96 259q0 264 -115 420t-307 156z" />
    <glyph glyph-name="Upsilontonos" unicode="&#x38e;" horiz-adv-x="1564" 
d="M-137 1741h215l-139 -426h-285zM588 500l-512 1048h338l370 -659l367 659h338l-518 -1048l18 -502h-444z" />
    <glyph glyph-name="Omegatonos" unicode="&#x38f;" horiz-adv-x="1757" 
d="M12 1767h215l-139 -426h-285zM1602 225l47 -55v-240q-12 -11 -59 -13.5t-132.5 0.5t-105.5 3h-389q6 208 20 326l39 45q125 38 209 168.5t84 285.5q0 264 -115 420t-307 156q-193 0 -308.5 -156.5t-115.5 -419.5q0 -149 39.5 -266.5t107 -168.5t142.5 -11
q19 -157 26 -379h-419q-32 0 -80.5 -0.5t-73 -0.5t-53.5 1t-49 4v291q78 18 202 35q-74 72 -120 185t-46 310q0 375 204.5 602.5t543.5 227.5q223 0 392 -102.5t261 -290.5t92 -437q0 -107 -13.5 -191.5t-38.5 -142.5t-53.5 -96.5t-66.5 -70.5q58 -10 136 -19z" />
    <glyph glyph-name="iotadieresistonos" unicode="&#x390;" horiz-adv-x="1091" 
d="M770 1929l-139 -426h-285l209 426h215zM426 1489v-318h-317v318h317zM666 1489h317v-318h-317v318zM758 -23q8 -24 30.5 -28.5t63.5 2.5l59 -55v-199h-329q-187 0 -187 246v2h-6l6 90v28h2q20 300 27.5 499t7.5 530h277q-14 -231 -8.5 -499.5t44.5 -529.5h5q0 -28 2 -40z
" />
    <glyph glyph-name="Alpha" unicode="&#x391;" horiz-adv-x="1695" 
d="M82 -55l635 1603h264l633 -1603h-414l-57 243h-588l-76 -243h-397zM649 537h400l-203 645z" />
    <glyph glyph-name="Beta" unicode="&#x392;" horiz-adv-x="1406" 
d="M109 -55v1603h522q253 0 394.5 -111.5t141.5 -312.5q0 -212 -135 -309q131 -54 198.5 -155t67.5 -242q0 -99 -17.5 -175t-40.5 -126t-73.5 -84t-88.5 -51t-114.5 -25.5t-123 -10t-140.5 -1.5h-591zM666 1303h-244v-371h244q125 0 181 41t56 129q0 97 -60.5 149t-176.5 52
zM690 657h-268v-305h268q165 0 220 31.5t55 124.5q0 37 -70 98q-57 51 -205 51z" />
    <glyph glyph-name="Gamma" unicode="&#x393;" horiz-adv-x="1167" 
d="M1059 1583v-313l-680 -2l70 -1413h-340l4 1726h6v2h940z" />
    <glyph glyph-name="uni0394" unicode="&#x394;" horiz-adv-x="1761" 
d="M1616 238h37v-314h-1544v314h38l586 1284l328 -13zM893 1110l-369 -872h709z" />
    <glyph glyph-name="Epsilon" unicode="&#x395;" horiz-adv-x="1316" 
d="M106 -55l54 1573l1036 32l-74 -260l-663 -37v-338l502 23v-279l-502 -32v-262h671l93 -420h-1117z" />
    <glyph glyph-name="Zeta" unicode="&#x396;" horiz-adv-x="1648" 
d="M373 1206l-162 330h1329v-295l-772 -887h616l134 -395l-1409 -16v366l856 887z" />
    <glyph glyph-name="Eta" unicode="&#x397;" horiz-adv-x="1579" 
d="M1473 -2h-441l12 330h-524l12 -330h-426l46 1550h319l33 -813h553l28 813h320z" />
    <glyph glyph-name="Theta" unicode="&#x398;" horiz-adv-x="1710" 
d="M522 1993l656 53l75 -268l-817 -41zM856 1575q225 0 397 -103.5t263.5 -293t85.5 -435.5q-4 -156 -20.5 -271t-53.5 -205.5t-91.5 -149t-138.5 -96.5t-190.5 -53.5t-251.5 -14.5q-212 2 -352.5 43.5t-229.5 137.5t-127 243t-38 368q0 248 92 436t261.5 291t393.5 103z
M856 1321q-193 0 -308.5 -156.5t-115.5 -419.5q0 -182 97 -258.5t327 -76.5t326 76t96 259q0 264 -115 420t-307 156z" />
    <glyph glyph-name="Iota" unicode="&#x399;" horiz-adv-x="614" 
d="M102 -2q33 280 40.5 610t-2.5 557t-27 383h342q-35 -713 57 -1550h-410z" />
    <glyph glyph-name="Kappa" unicode="&#x39a;" horiz-adv-x="1495" 
d="M102 -2l144 1550h315l-47 -587l330 587h391l-526 -870l759 -680h-643l-346 422v-422h-377z" />
    <glyph glyph-name="Lambda" unicode="&#x39b;" horiz-adv-x="1695" 
d="M1087 1591l521 -1603h-322l-446 1013h-21l-405 -1013h-326l500 1603h499z" />
    <glyph glyph-name="Mu" unicode="&#x39c;" horiz-adv-x="1789" 
d="M106 -2l58 1550h391l350 -815l340 815h371l67 -1550h-446l92 987l-276 -911h-287l-326 903l76 -979h-410z" />
    <glyph glyph-name="Nu" unicode="&#x39d;" horiz-adv-x="1550" 
d="M104 0l127 1520h338l492 -1033l88 1049h297l-88 -1536h-420l-403 952l36 -952h-467z" />
    <glyph glyph-name="Xi" unicode="&#x39e;" horiz-adv-x="1562" 
d="M186 1507h1192v-274h-1192v274zM373 803h817v-275h-817v275zM109 276h1345v-331h-1345v331z" />
    <glyph glyph-name="Omicron" unicode="&#x39f;" horiz-adv-x="1710" 
d="M856 1575q225 0 397 -103.5t263.5 -293t85.5 -435.5q-4 -156 -20.5 -271t-53.5 -205.5t-91.5 -149t-138.5 -96.5t-190.5 -53.5t-251.5 -14.5q-212 2 -352.5 43.5t-229.5 137.5t-127 243t-38 368q0 248 92 436t261.5 291t393.5 103zM856 1321q-193 0 -308.5 -156.5
t-115.5 -419.5q0 -182 97 -258.5t327 -76.5t326 76t96 259q0 264 -115 420t-307 156z" />
    <glyph glyph-name="Pi" unicode="&#x3a0;" horiz-adv-x="1277" 
d="M1169 1489v-1544h-288v1306h-484v-1306h-288v1544h1060z" />
    <glyph glyph-name="Rho" unicode="&#x3a1;" horiz-adv-x="1323" 
d="M104 -55l93 1753h432q255 0 414.5 -136t170.5 -352q5 -98 -29.5 -192t-100.5 -171t-173.5 -127.5t-238.5 -57.5l-187 -11l41 -706h-422zM471 1079l217 11q64 3 106.5 9.5t79 20.5t56.5 36.5t29.5 58t7.5 85.5q-3 66 -91 110t-239 44h-166v-375z" />
    <glyph glyph-name="Sigma" unicode="&#x3a3;" horiz-adv-x="1210" 
d="M1110 1489v-256h-643l371 -430l-13 -29l11 -160l-308 -348h582v-334h-1010v334h39l467 369l-481 598h-25v256h1010z" />
    <glyph glyph-name="Tau" unicode="&#x3a4;" horiz-adv-x="1591" 
d="M109 1260v282h1374v-282l-529 20l41 -1282h-397l39 1282z" />
    <glyph glyph-name="Upsilon" unicode="&#x3a5;" horiz-adv-x="1564" 
d="M588 500l-512 1048h338l370 -659l367 659h338l-518 -1048l18 -502h-444z" />
    <glyph glyph-name="Phi" unicode="&#x3a6;" horiz-adv-x="2091" 
d="M1163 1339q244 -18 426.5 -110.5t279.5 -246t91 -347.5q-5 -129 -24.5 -224.5t-60.5 -172t-103.5 -127t-156.5 -84.5t-214.5 -49.5t-282.5 -18.5l-14 -446h-309l14 456q-188 17 -316 62t-208.5 127t-116 197.5t-35.5 279.5q0 280 193 466t526 230l12 389h312zM1130 352
q233 7 333 73.5t100 209.5q0 197 -109 325.5t-299 157.5zM528 635q0 -120 69 -184t224 -86l23 731q-149 -50 -232.5 -170.5t-83.5 -290.5z" />
    <glyph glyph-name="Chi" unicode="&#x3a7;" horiz-adv-x="1615" 
d="M1556 -2h-481l-272 444l-279 -444h-467l555 756l-487 794h328l364 -512l377 514h307l-493 -782z" />
    <glyph glyph-name="Psi" unicode="&#x3a8;" horiz-adv-x="1662" 
d="M1556 1651q-13 -329 -26 -438q-33 -305 -146 -459q-143 -196 -456 -224l-23 -723h-254l23 734q-87 13 -159 41.5t-125.5 60.5t-95.5 89.5t-69.5 101t-48.5 125.5t-31.5 132.5t-18.5 152t-10.5 154.5t-6.5 168q-2 56 -3 85h326q-52 -192 -37.5 -349.5t91 -269.5
t198.5 -153l25 780h254l-25 -785q189 54 276.5 266.5t38.5 510.5h303z" />
    <glyph glyph-name="uni03A9" unicode="&#x3a9;" horiz-adv-x="1757" 
d="M1602 225l47 -55v-240q-12 -11 -59 -13.5t-132.5 0.5t-105.5 3h-389q6 208 20 326l39 45q125 38 209 168.5t84 285.5q0 264 -115 420t-307 156q-193 0 -308.5 -156.5t-115.5 -419.5q0 -149 39.5 -266.5t107 -168.5t142.5 -11q19 -157 26 -379h-419q-32 0 -80.5 -0.5
t-73 -0.5t-53.5 1t-49 4v291q78 18 202 35q-74 72 -120 185t-46 310q0 375 204.5 602.5t543.5 227.5q223 0 392 -102.5t261 -290.5t92 -437q0 -107 -13.5 -191.5t-38.5 -142.5t-53.5 -96.5t-66.5 -70.5q58 -10 136 -19z" />
    <glyph glyph-name="Iotadieresis" unicode="&#x3aa;" horiz-adv-x="614" 
d="M-141 1698v317h317v-317h-317zM416 1698v317h317v-317h-317zM102 -2q33 280 40.5 610t-2.5 557t-27 383h342q-35 -713 57 -1550h-410z" />
    <glyph glyph-name="Upsilondieresis" unicode="&#x3ab;" horiz-adv-x="1564" 
d="M332 1583v318h317v-318h-317zM889 1583v318h317v-318h-317zM588 500l-512 1048h338l370 -659l367 659h338l-518 -1048l18 -502h-444z" />
    <glyph glyph-name="alphatonos" unicode="&#x3ac;" horiz-adv-x="1343" 
d="M639 1716h215l-139 -426h-285zM606 -41q-255 0 -375.5 147t-109.5 418q5 132 39 247.5t92.5 203.5t147.5 138t196 48q70 -2 151 -23t136 -53l-9 66h238l131 -1153h-303v78q-144 -117 -334 -117zM582 338q95 0 157 8t103 26t57 51t14.5 77.5t-20.5 111.5q-6 20 -15.5 58
t-15 57.5t-17 50.5t-23.5 48t-32 37.5t-45 31t-61 18t-80 7.5q-32 0 -54.5 -4.5t-51 -23t-51.5 -52.5t-48.5 -96t-48.5 -150q-15 -59 -21 -98t0 -69t21 -46.5t49 -26.5t75 -13t108 -3z" />
    </font>
</defs>
</svg>
