<svg width="60" height="60" viewBox="0 0 60 60" fill="none" xmlns="http://www.w3.org/2000/svg">
<path d="M30 60C13.431 60 0 46.569 0 30C0 13.431 13.431 0 30 0C46.569 0 60 13.431 60 30C60 46.569 46.569 60 30 60ZM9.987 43.275C11.9589 46.2253 14.5604 48.7016 17.6043 50.5256C20.6482 52.3496 24.0587 53.4759 27.5902 53.8234C31.1217 54.1709 34.6864 53.731 38.0274 52.5353C41.3685 51.3396 44.4028 49.4179 46.9119 46.9086C49.421 44.3992 51.3424 41.3647 52.5378 38.0236C53.7332 34.6824 54.1728 31.1177 53.825 27.5863C53.4772 24.0548 52.3505 20.6444 50.5263 17.6006C48.702 14.5569 46.2255 11.9556 43.275 9.984C44.5686 14.5987 44.6101 19.4746 43.3953 24.1106C42.1806 28.7466 39.7533 32.9756 36.363 36.363C32.9759 39.7528 28.7474 42.1797 24.112 43.3945C19.4765 44.6092 14.6012 44.568 9.987 43.275Z" fill="white"/>
</svg>
