<svg width="50" height="60" viewBox="0 0 50 60" fill="none" xmlns="http://www.w3.org/2000/svg">
<path d="M24.8528 0L42.4265 17.5737C45.9022 21.0494 48.2692 25.4778 49.2281 30.2988C50.187 35.1197 49.6949 40.1168 47.8138 44.658C45.9327 49.1993 42.7473 53.0807 38.6603 55.8116C34.5733 58.5424 29.7682 60 24.8528 60C19.9374 60 15.1324 58.5424 11.0454 55.8116C6.95836 53.0807 3.77291 49.1993 1.89185 44.658C0.0107885 40.1168 -0.481398 35.1197 0.477529 30.2988C1.43646 25.4778 3.80343 21.0494 7.27912 17.5737L24.8528 0ZM24.8528 7.80931L11.1838 21.4784C8.47948 24.1824 6.63803 27.6278 5.89242 31.3786C5.1468 35.1295 5.53053 39.0172 6.99506 42.55C8.45958 46.0827 10.9391 49.1016 14.1198 51.2247C17.3006 53.3479 21.0396 54.4798 24.8639 54.4774L24.8528 7.80931Z" fill="white"/>
</svg>
