<svg width="60" height="48" viewBox="0 0 60 48" fill="none" xmlns="http://www.w3.org/2000/svg">
<path fill-rule="evenodd" clip-rule="evenodd" d="M0 3C0 1.2 1.2 0 3 0L36 0C37.8 0 39 1.2 39 3V6.6C39 7.39565 38.6839 8.15871 38.1213 8.72132C37.5587 9.28393 36.7956 9.6 36 9.6C35.2043 9.6 34.4413 9.28393 33.8787 8.72132C33.3161 8.15871 33 7.39565 33 6.6V6H21V42H27C27.7956 42 28.5587 42.3161 29.1213 42.8787C29.6839 43.4413 30 44.2044 30 45C30 45.7956 29.6839 46.5587 29.1213 47.1213C28.5587 47.6839 27.7956 48 27 48H9C8.20435 48 7.44129 47.6839 6.87868 47.1213C6.31607 46.5587 6 45.7956 6 45C6 44.2044 6.31607 43.4413 6.87868 42.8787C7.44129 42.3161 8.20435 42 9 42H15L15 6H6V6.6C6 7.39565 5.68393 8.15871 5.12132 8.72132C4.55871 9.28393 3.79565 9.6 3 9.6C2.20435 9.6 1.44129 9.28393 0.878679 8.72132C0.31607 8.15871 0 7.39565 0 6.6L0 3ZM30 21C30 19.2 31.2 18 33 18H57C58.8 18 60 19.2 60 21V24.6C60 25.3956 59.6839 26.1587 59.1213 26.7213C58.5587 27.2839 57.7956 27.6 57 27.6C56.2044 27.6 55.4413 27.2839 54.8787 26.7213C54.3161 26.1587 54 25.3956 54 24.6V24H48V42H49.5C50.2957 42 51.0587 42.3161 51.6213 42.8787C52.1839 43.4413 52.5 44.2044 52.5 45C52.5 45.7956 52.1839 46.5587 51.6213 47.1213C51.0587 47.6839 50.2957 48 49.5 48H40.5C39.7043 48 38.9413 47.6839 38.3787 47.1213C37.8161 46.5587 37.5 45.7956 37.5 45C37.5 44.2044 37.8161 43.4413 38.3787 42.8787C38.9413 42.3161 39.7043 42 40.5 42H42V24H36V24.6C36 25.3956 35.6839 26.1587 35.1213 26.7213C34.5587 27.2839 33.7956 27.6 33 27.6C32.2043 27.6 31.4413 27.2839 30.8787 26.7213C30.3161 26.1587 30 25.3956 30 24.6V21Z" fill="#2353FF"/>
</svg>
