<svg width="60" height="42" viewBox="0 0 60 42" fill="none" xmlns="http://www.w3.org/2000/svg">
<path d="M57 5.89286H3C2.20435 5.89286 1.44129 5.58243 0.878679 5.02987C0.31607 4.47731 0 3.72787 0 2.94643C0 2.16499 0.31607 1.41555 0.878679 0.862989C1.44129 0.310427 2.20435 0 3 0H57C57.7956 0 58.5587 0.310427 59.1213 0.862989C59.6839 1.41555 60 2.16499 60 2.94643C60 3.72787 59.6839 4.47731 59.1213 5.02987C58.5587 5.58243 57.7956 5.89286 57 5.89286ZM57 17.6786H15C14.2044 17.6786 13.4413 17.3681 12.8787 16.8156C12.3161 16.263 12 15.5136 12 14.7321C12 13.9507 12.3161 13.2013 12.8787 12.6487C13.4413 12.0961 14.2044 11.7857 15 11.7857H57C57.7956 11.7857 58.5587 12.0961 59.1213 12.6487C59.6839 13.2013 60 13.9507 60 14.7321C60 15.5136 59.6839 16.263 59.1213 16.8156C58.5587 17.3681 57.7956 17.6786 57 17.6786ZM57 29.4643H3C2.20435 29.4643 1.44129 29.1539 0.878679 28.6013C0.31607 28.0487 0 27.2993 0 26.5179C0 25.7364 0.31607 24.987 0.878679 24.4344C1.44129 23.8819 2.20435 23.5714 3 23.5714H57C57.7956 23.5714 58.5587 23.8819 59.1213 24.4344C59.6839 24.987 60 25.7364 60 26.5179C60 27.2993 59.6839 28.0487 59.1213 28.6013C58.5587 29.1539 57.7956 29.4643 57 29.4643ZM57 41.25H15C14.2044 41.25 13.4413 40.9396 12.8787 40.387C12.3161 39.8345 12 39.085 12 38.3036C12 37.5221 12.3161 36.7727 12.8787 36.2201C13.4413 35.6676 14.2044 35.3571 15 35.3571H57C57.7956 35.3571 58.5587 35.6676 59.1213 36.2201C59.6839 36.7727 60 37.5221 60 38.3036C60 39.085 59.6839 39.8345 59.1213 40.387C58.5587 40.9396 57.7956 41.25 57 41.25Z" fill="white"/>
</svg>
