<svg width="164" height="74" viewBox="0 0 164 74" fill="none" xmlns="http://www.w3.org/2000/svg">
<g filter="url(#filter0_dddd_427_3280)">
<rect x="4" width="155.455" height="60" rx="13" fill="white"/>
<rect x="4.5" y="0.5" width="154.455" height="59" rx="12.5" stroke="#00A3FF"/>
</g>
<path d="M28.0063 21.4462C28.1336 21.3054 28.2875 21.1931 28.4584 21.1164C28.6293 21.0396 28.8135 21 28.9998 21C29.1861 21 29.3703 21.0396 29.5412 21.1164C29.7121 21.1931 29.866 21.3054 29.9933 21.4462L38.6285 30.9892C39.445 31.8886 38.8272 33.3616 37.635 33.3616H33.7631V37.5904C33.7631 37.9642 33.6197 38.3228 33.3645 38.5871C33.1093 38.8515 32.7631 39 32.4022 39H25.5974C25.2365 39 24.8903 38.8515 24.6351 38.5871C24.3799 38.3228 24.2365 37.9642 24.2365 37.5904V33.3616H20.3633C19.1738 33.3616 18.5559 31.8886 19.3698 30.9878L28.0063 21.4462ZM37.6363 31.952L28.9998 22.4104L20.3633 31.952H24.2365C24.5975 31.952 24.9436 32.1005 25.1988 32.3648C25.4541 32.6292 25.5974 32.9877 25.5974 33.3616V37.5904H32.4022V33.3616C32.4022 32.9877 32.5455 32.6292 32.8008 32.3648C33.056 32.1005 33.4021 31.952 33.7631 31.952H37.6363Z" fill="#3C3C3C"/>
<path d="M113.561 28.9824L111.227 29.2266C111.129 28.8685 110.917 28.5527 110.592 28.2793C110.266 27.9993 109.807 27.8594 109.215 27.8594C108.681 27.8594 108.232 27.9766 107.867 28.2109C107.509 28.4453 107.33 28.7448 107.33 29.1094C107.33 29.4284 107.447 29.6921 107.682 29.9004C107.923 30.1022 108.32 30.265 108.873 30.3887L110.738 30.7793C111.76 30.9941 112.525 31.3457 113.033 31.834C113.541 32.3223 113.795 32.9538 113.795 33.7285C113.795 34.4121 113.596 35.0176 113.199 35.5449C112.802 36.0723 112.252 36.4824 111.549 36.7754C110.852 37.0684 110.048 37.2148 109.137 37.2148C107.802 37.2148 106.728 36.9349 105.914 36.375C105.107 35.8086 104.622 35.0241 104.459 34.0215L106.969 33.7871C107.079 34.2754 107.32 34.6465 107.691 34.9004C108.069 35.1478 108.551 35.2715 109.137 35.2715C109.749 35.2715 110.24 35.1478 110.611 34.9004C110.982 34.6465 111.168 34.3372 111.168 33.9727C111.168 33.3607 110.68 32.944 109.703 32.7227L107.838 32.332C106.79 32.1042 106.015 31.7363 105.514 31.2285C105.012 30.7142 104.762 30.0599 104.762 29.2656C104.762 28.5885 104.947 28.0026 105.318 27.5078C105.689 27.013 106.207 26.6289 106.871 26.3555C107.535 26.082 108.303 25.9453 109.176 25.9453C110.458 25.9453 111.464 26.222 112.193 26.7754C112.929 27.3223 113.385 28.0579 113.561 28.9824ZM117.75 30.6133V37H115.182V22.4492H117.691V27.9473H117.828C118.082 27.3288 118.476 26.8405 119.01 26.4824C119.544 26.1243 120.23 25.9453 121.07 25.9453C121.826 25.9453 122.483 26.1048 123.043 26.4238C123.609 26.7428 124.049 27.2083 124.361 27.8203C124.674 28.4323 124.83 29.1777 124.83 30.0566V37H122.252V30.457C122.252 29.7148 122.063 29.1419 121.686 28.7383C121.308 28.3281 120.781 28.123 120.104 28.123C119.648 28.123 119.241 28.2207 118.883 28.416C118.531 28.6113 118.255 28.8945 118.053 29.2656C117.851 29.6302 117.75 30.0794 117.75 30.6133ZM126.725 37V26.082H129.293V37H126.725ZM128.014 24.5488C127.604 24.5488 127.252 24.4121 126.959 24.1387C126.666 23.8652 126.52 23.5365 126.52 23.1523C126.52 22.7617 126.666 22.4297 126.959 22.1562C127.252 21.8828 127.604 21.7461 128.014 21.7461C128.417 21.7461 128.766 21.8828 129.059 22.1562C129.352 22.4297 129.498 22.7585 129.498 23.1426C129.498 23.5332 129.352 23.8652 129.059 24.1387C128.766 24.4121 128.417 24.5488 128.014 24.5488ZM136.744 26.082V28.0742H130.309V26.082H136.744ZM131.91 37V25.0566C131.91 24.321 132.063 23.709 132.369 23.2207C132.675 22.7324 133.085 22.3678 133.6 22.127C134.12 21.8861 134.693 21.7656 135.318 21.7656C135.768 21.7656 136.165 21.8014 136.51 21.873C136.861 21.9447 137.118 22.0098 137.281 22.0684L136.754 24.0605C136.65 24.0215 136.516 23.9857 136.354 23.9531C136.191 23.9141 136.005 23.8945 135.797 23.8945C135.322 23.8945 134.98 24.0117 134.771 24.2461C134.57 24.4805 134.469 24.8125 134.469 25.2422V37H131.91ZM143.473 26.082V28.0742H137.213V26.082H143.473ZM138.746 23.4844H141.314V33.7188C141.314 34.1484 141.409 34.4674 141.598 34.6758C141.786 34.8776 142.086 34.9785 142.496 34.9785C142.607 34.9785 142.73 34.9688 142.867 34.9492C143.004 34.9297 143.128 34.9069 143.238 34.8809L143.678 36.8926C143.404 36.9772 143.128 37.0391 142.848 37.0781C142.568 37.1237 142.288 37.1465 142.008 37.1465C140.992 37.1465 140.195 36.8796 139.615 36.3457C139.036 35.8053 138.746 35.0697 138.746 34.1387V23.4844Z" fill="#3C3C3C"/>
<defs>
<filter id="filter0_dddd_427_3280" x="0" y="0" width="163.455" height="74" filterUnits="userSpaceOnUse" color-interpolation-filters="sRGB">
<feFlood flood-opacity="0" result="BackgroundImageFix"/>
<feColorMatrix in="SourceAlpha" type="matrix" values="0 0 0 0 0 0 0 0 0 0 0 0 0 0 0 0 0 0 127 0" result="hardAlpha"/>
<feOffset dy="1"/>
<feGaussianBlur stdDeviation="0.5"/>
<feColorMatrix type="matrix" values="0 0 0 0 0.470588 0 0 0 0 0.470588 0 0 0 0 0.470588 0 0 0 0.1 0"/>
<feBlend mode="normal" in2="BackgroundImageFix" result="effect1_dropShadow_427_3280"/>
<feColorMatrix in="SourceAlpha" type="matrix" values="0 0 0 0 0 0 0 0 0 0 0 0 0 0 0 0 0 0 127 0" result="hardAlpha"/>
<feOffset dy="2"/>
<feGaussianBlur stdDeviation="1"/>
<feColorMatrix type="matrix" values="0 0 0 0 0.470588 0 0 0 0 0.470588 0 0 0 0 0.470588 0 0 0 0.09 0"/>
<feBlend mode="normal" in2="effect1_dropShadow_427_3280" result="effect2_dropShadow_427_3280"/>
<feColorMatrix in="SourceAlpha" type="matrix" values="0 0 0 0 0 0 0 0 0 0 0 0 0 0 0 0 0 0 127 0" result="hardAlpha"/>
<feOffset dy="5"/>
<feGaussianBlur stdDeviation="1.5"/>
<feColorMatrix type="matrix" values="0 0 0 0 0.470588 0 0 0 0 0.470588 0 0 0 0 0.470588 0 0 0 0.05 0"/>
<feBlend mode="normal" in2="effect2_dropShadow_427_3280" result="effect3_dropShadow_427_3280"/>
<feColorMatrix in="SourceAlpha" type="matrix" values="0 0 0 0 0 0 0 0 0 0 0 0 0 0 0 0 0 0 127 0" result="hardAlpha"/>
<feOffset dy="10"/>
<feGaussianBlur stdDeviation="2"/>
<feColorMatrix type="matrix" values="0 0 0 0 0.470588 0 0 0 0 0.470588 0 0 0 0 0.470588 0 0 0 0.01 0"/>
<feBlend mode="normal" in2="effect3_dropShadow_427_3280" result="effect4_dropShadow_427_3280"/>
<feBlend mode="normal" in="SourceGraphic" in2="effect4_dropShadow_427_3280" result="shape"/>
</filter>
</defs>
</svg>
