<svg width="286" height="124" viewBox="0 0 286 124" fill="none" xmlns="http://www.w3.org/2000/svg">
<g clip-path="url(#clip0_427_2344)" filter="url(#filter0_dddd_427_2344)">
<path d="M185.974 61.4003C186.974 61.4003 187.973 61.0003 188.772 60.2003C189.772 59.4003 190.571 58.4003 191.371 57.4003C190.971 55.6003 190.771 54.2003 190.571 53.2003C190.571 52.2003 190.372 51.2003 190.372 50.4003C190.372 49.4003 190.372 48.4003 190.172 47.4003C190.172 46.4003 189.972 45.0003 189.972 43.4003C189.772 42.2003 189.972 41.2003 190.372 40.4003C190.571 39.6003 191.171 38.8003 191.971 38.2003C192.57 37.6003 193.37 37.2003 194.369 36.8003C195.369 36.4003 196.368 36.2003 197.367 36.0003C198.367 35.8003 199.166 35.8003 199.766 36.0003C200.166 36.2003 200.565 36.4003 200.765 36.6003C201.165 37.0003 201.165 37.2003 201.365 37.6003V38.2003C201.365 38.8003 201.165 39.4003 200.965 40.2003C200.765 41.0003 200.765 41.8003 200.565 42.8003V46.6003C200.765 48.0003 200.765 49.4003 200.765 50.8003C200.765 52.0003 200.965 53.4003 200.965 54.8003C201.165 56.0003 201.165 57.2003 201.365 58.2003C201.565 59.2003 201.965 60.0003 202.164 60.6003C202.364 61.2003 202.764 61.4003 203.364 61.4003C203.963 61.4003 204.563 61.2003 205.163 60.8003C205.962 60.4003 206.362 59.8003 206.962 59.2003C207.561 58.4003 207.961 57.6003 208.561 56.8003C208.96 55.8003 209.36 54.8003 209.76 54.0003C208.761 53.6003 208.161 53.4003 207.761 52.8003C207.161 52.4003 206.762 51.8003 206.562 51.4003C206.162 50.8003 206.162 50.0003 205.962 49.4003V47.0003C205.962 46.2003 205.962 45.6003 206.162 45.0003C206.362 44.4003 206.362 43.8003 206.762 43.2003C206.962 42.2003 207.561 41.2003 208.161 40.4003C208.96 39.8003 209.56 39.2003 210.16 38.8003C210.959 38.4003 211.559 38.0003 212.159 37.8003C212.758 37.6003 213.358 37.6003 213.758 37.6003C214.557 37.6003 215.157 37.8003 215.556 38.6003C215.956 39.2003 216.156 40.0003 216.156 41.0003C216.356 42.0003 216.356 43.2003 216.356 44.2003C216.156 45.4003 216.156 46.4003 215.956 47.4003C216.556 47.6003 216.956 47.6003 217.355 47.8003C217.955 47.8003 218.355 47.8003 218.755 47.6003C219.154 47.6003 219.554 47.4003 219.954 47.2003L221.153 46.6003C222.153 46.2003 222.952 45.6003 223.552 45.2003C224.151 44.8003 224.751 44.4003 225.151 44.2003L225.95 43.4003H226.75L227.349 44.0003V44.8003C227.349 45.2003 227.349 45.4003 227.15 45.8003C226.95 46.2003 226.95 46.4003 226.55 46.8003C226.35 47.0003 226.15 47.4003 225.75 47.8003L224.951 48.6003L224.351 49.2003C223.552 49.8003 222.752 50.6003 221.553 51.4003C220.554 52.2003 219.154 52.8003 217.355 53.6003C216.756 53.6003 216.356 53.8003 215.756 54.0003C215.157 54.0003 214.757 54.2003 214.157 54.2003C213.558 55.8003 212.558 57.4003 211.559 59.2003C210.559 61.0003 209.36 62.6003 207.961 64.0003C206.562 65.6003 205.163 66.8003 203.564 67.8003C201.965 68.8003 200.366 69.2003 198.767 69.2003C197.967 69.2003 197.167 69.0003 196.568 68.6003C195.968 68.2003 195.369 67.8003 194.969 67.0003C194.369 66.4003 193.969 65.6003 193.57 64.8003C193.17 64.0003 192.77 63.2003 192.57 62.2003C191.771 63.2003 190.771 64.2003 189.972 65.0003C188.972 65.8003 187.973 66.6003 186.974 67.2003C185.974 67.8003 184.975 68.4003 183.975 68.8003C182.976 69.0003 181.977 69.2003 180.977 69.2003C179.778 69.2003 178.778 68.8003 177.979 68.0003C177.179 67.0003 176.38 66.0003 175.98 64.6003C175.38 63.4003 174.981 62.0003 174.781 60.6003C174.381 59.2003 174.181 58.2003 173.981 57.2003C173.781 56.4003 173.582 55.6003 173.582 54.8003L172.982 51.8003C172.982 50.8003 172.782 49.6003 172.782 48.6003C172.582 47.6003 172.582 46.6003 172.582 45.6003C172.382 45.0003 172.382 44.4003 172.182 43.8003V42.0003C172.182 41.0003 172.382 40.2003 172.782 39.4003C173.182 38.8003 173.781 38.2003 174.381 37.6003C174.981 37.2003 175.78 36.8003 176.58 36.4003C177.379 36.0003 178.179 35.8003 178.778 35.6003C180.178 35.4003 180.977 35.4003 181.777 35.6003C182.376 35.6003 182.776 35.8003 183.176 36.2003C183.376 36.4003 183.576 36.6003 183.576 37.0003C183.775 37.4003 183.775 37.6003 183.775 37.8003C183.775 38.4003 183.576 39.0003 183.376 39.8003C183.176 40.4003 182.976 41.4003 182.976 42.4003V45.6003C183.176 47.4003 183.176 49.2003 183.376 51.0003C183.376 52.8003 183.576 54.6003 183.775 56.2003C183.975 57.6003 184.375 59.0003 184.575 60.0003C184.975 61.0003 185.574 61.4003 185.974 61.4003ZM222.153 39.6003C222.153 39.4003 222.552 39.0003 223.152 38.6003C223.752 38.2003 224.351 38.0003 224.951 37.8003C225.75 37.4003 226.35 37.2003 227.15 37.2003C227.949 37.0003 228.749 37.0003 229.348 37.0003C229.948 37.0003 230.148 37.0003 230.548 37.2003C230.747 37.4003 230.947 37.6003 231.147 38.0003C231.347 38.4003 231.347 38.6003 231.547 39.2003V40.4003C231.547 41.4003 231.547 42.4003 231.347 43.8003C231.347 45.2003 231.147 46.8003 231.147 48.4003C231.147 49.8003 230.947 51.4003 230.947 53.0003V57.2003C231.147 58.4003 231.347 59.4003 231.547 60.2003C231.747 61.0003 232.147 61.4003 232.546 61.4003C233.146 61.4003 233.946 61.2003 234.545 60.8003C235.145 60.4003 235.744 59.8003 236.344 59.2003C236.744 58.4003 237.343 57.8003 237.943 57.0003C238.343 56.2003 238.943 55.6003 239.342 55.0003C239.742 54.2003 240.142 53.8003 240.342 53.2003C240.542 52.8003 240.741 52.6003 240.941 52.6003C241.141 52.6003 241.341 52.8003 241.541 53.0003V55.0003C241.541 55.4003 241.341 55.6003 241.341 55.8003C241.141 56.4003 240.941 57.2003 240.542 58.2003C240.142 59.0003 239.542 60.0003 238.943 61.0003C238.343 62.0003 237.743 63.0003 236.944 64.0003C236.144 65.0003 235.145 65.8003 234.145 66.6003C233.146 67.4003 232.147 68.0003 230.947 68.6003C229.748 69.0003 228.549 69.2003 227.349 69.2003C226.35 69.2003 225.551 69.0003 224.751 68.4003C224.151 67.6003 223.552 66.8003 223.152 65.8003C222.552 64.8003 222.153 63.8003 221.953 62.6003C221.753 61.4003 221.553 60.4003 221.353 59.2003V57.8003C221.153 57.4003 221.153 56.8003 221.153 56.4003V45.4003C221.353 44.2003 221.353 43.0003 221.553 42.0003C221.553 41.0003 221.753 40.2003 222.153 39.6003ZM222.952 26.6003C222.952 25.8003 222.952 24.8003 223.352 23.8003C223.752 22.8003 224.151 22.0003 224.751 21.2003C225.151 20.6003 225.75 19.8003 226.55 19.4003C227.15 19.0003 227.949 18.8003 228.549 18.8003C229.548 18.8003 230.148 19.0003 230.747 19.2003C231.347 19.6003 231.747 20.2003 231.947 20.6003C232.346 21.2003 232.546 21.8003 232.746 22.4003V24.2003C232.746 25.6003 232.546 26.6003 232.346 27.6003C231.947 28.6003 231.347 29.4003 230.947 30.0003C230.348 30.8003 229.748 31.2003 229.148 31.6003C228.349 31.8003 227.949 32.0003 227.349 32.0003C226.55 32.0003 225.75 31.8003 225.351 31.6003C224.751 31.2003 224.151 30.8003 223.951 30.4003C223.552 29.8003 223.352 29.2003 223.152 28.6003C222.952 28.0003 222.952 27.4003 222.952 26.6003ZM252.734 6.00027C252.734 4.60027 253.134 3.60027 253.734 2.80027C254.333 2.20027 255.333 1.80027 256.732 2.00027C258.331 2.40027 259.53 2.60027 260.53 3.20027C261.529 3.60027 262.129 4.20027 262.728 5.00027C263.128 5.80027 263.528 6.60027 263.528 7.60027C263.728 8.80027 263.728 10.0003 263.728 11.4003V16.6003C263.528 21.0003 263.528 25.4003 263.528 29.6003C263.528 33.8003 263.528 37.8003 263.328 42.0003C263.328 44.6003 263.328 47.2003 263.128 49.4003V55.8003C263.128 57.8003 263.328 59.2003 263.928 60.0003C264.327 61.0003 264.927 61.6003 265.727 61.6003C266.326 61.6003 267.126 61.2003 267.725 60.8003C268.325 60.4003 268.925 59.8003 269.524 59.2003C270.124 58.6003 270.724 57.8003 271.323 57.2003C271.723 56.4003 272.123 55.6003 272.522 55.0003C272.922 54.4003 273.322 53.8003 273.722 53.4003C273.922 53.0003 274.122 52.8003 274.122 52.8003C274.521 52.8003 274.721 52.8003 274.721 53.2003C274.921 53.4003 274.921 53.8003 274.921 54.2003V55.2003C274.721 55.6003 274.721 55.8003 274.721 56.0003C274.521 56.6003 274.321 57.2003 273.922 58.2003C273.522 59.0003 272.922 60.0003 272.323 61.0003C271.723 62.0003 271.123 63.0003 270.324 64.0003C269.524 65.0003 268.525 65.8003 267.525 66.6003C266.526 67.4003 265.527 68.0003 264.327 68.4003C263.128 69.0003 261.929 69.2003 260.73 69.2003C259.53 69.2003 258.531 69.0003 257.931 68.4003C257.132 68.0003 256.532 67.2003 256.132 66.4003C255.133 67.4003 254.333 68.0003 253.334 68.6003C252.335 69.2003 251.135 69.4003 249.536 69.4003C248.537 69.4003 247.338 69.4003 246.138 69.0003C244.939 68.8003 243.74 68.2003 242.54 67.6003C241.341 66.8003 240.342 66.0003 239.342 64.8003C238.343 63.8003 237.543 62.4003 237.144 60.8003C236.544 59.2003 236.144 57.4003 236.144 55.2003C236.144 53.0003 236.544 50.8003 237.343 48.8003C237.943 46.6003 238.943 44.6003 240.342 43.0003C241.541 41.4003 243.14 40.0003 245.139 39.0003C246.938 37.8003 248.937 37.4003 251.335 37.4003H253.534C253.534 34.4003 253.334 30.8003 253.134 26.6003C252.934 22.6003 252.734 17.8003 252.734 12.2003V6.00027ZM254.533 61.8003C254.333 60.4003 254.133 59.0003 253.934 57.4003C253.934 55.8003 253.734 54.4003 253.734 52.8003V43.2003C253.534 42.6003 253.134 42.0003 252.934 41.6003C252.534 41.2003 252.135 41.0003 251.735 41.0003C250.735 41.0003 249.936 41.4003 249.136 42.2003C248.537 43.0003 247.937 44.0003 247.338 45.2003C246.938 46.4003 246.538 47.6003 246.338 49.0003C246.138 50.6003 245.938 52.0003 245.938 53.4003C245.938 55.4003 246.138 57.0003 246.538 58.4003C246.938 59.8003 247.537 60.8003 248.137 61.6003C248.737 62.4003 249.336 63.0003 250.136 63.4003C250.735 63.6003 251.535 63.8003 252.135 63.8003C252.534 63.8003 252.934 63.8003 253.334 63.4003C253.934 63.2003 254.133 62.6003 254.533 61.8003Z" fill="white"/>
<path d="M30.0673 42.8008C27.269 42.8008 24.8704 43.8008 23.0715 45.6008C21.0726 47.4008 20.0732 50.2008 20.0732 53.8008C20.0732 57.4008 21.0726 60.0008 22.8716 61.8008C24.6705 63.6008 27.0691 64.6008 30.0673 64.6008C31.8662 64.6008 33.2654 64.2008 34.4647 63.8008C35.6639 63.4008 36.8632 62.8008 37.6627 62.4008C38.4623 62.8008 39.0619 63.4008 39.4617 64.0008C39.8614 64.4008 40.0613 65.2008 40.0613 66.0008C40.0613 67.8008 39.0619 69.0008 37.0631 70.0008C35.0643 71.0008 32.4659 71.6008 29.2678 71.6008C25.6699 71.6008 22.4718 71.0008 19.8734 69.6008C17.075 68.4008 14.8763 66.4008 13.4772 63.6008C11.8781 61.0008 11.0786 57.6008 11.0786 53.8008C11.0786 49.8008 11.8781 46.4008 13.4772 43.8008C15.2761 41.0008 17.4748 39.0008 20.0732 37.8008C22.8716 36.4008 25.8698 35.8008 29.0679 35.8008C32.266 35.8008 34.8644 36.4008 36.6633 37.4008C38.6622 38.6008 39.6616 39.8008 39.6616 41.4008C39.6616 42.2008 39.4617 42.8008 39.0619 43.4008C38.6622 44.2008 38.2624 44.6008 37.6627 45.0008C36.6633 44.4008 35.6639 44.0008 34.4647 43.4008C33.2654 43.0008 31.8662 42.8008 30.0673 42.8008ZM75.0404 53.6008C75.0404 57.4008 74.2409 60.4008 72.8418 63.2008C71.4426 65.8008 69.4438 68.0008 66.8453 69.4008C64.2469 70.8008 61.2487 71.6008 57.6508 71.6008C54.2528 71.6008 51.0548 70.8008 48.4563 69.4008C45.8579 68.0008 43.8591 65.8008 42.4599 63.2008C40.8608 60.6008 40.2612 57.4008 40.2612 53.6008C40.2612 50.0008 40.8608 46.8008 42.4599 44.2008C43.8591 41.4008 45.8579 39.4008 48.4563 38.0008C51.2546 36.6008 54.2528 35.8008 57.6508 35.8008C61.2487 35.8008 64.2469 36.6008 66.8453 38.0008C69.4438 39.4008 71.4426 41.4008 72.8418 44.2008C74.2409 46.8008 75.0404 50.0008 75.0404 53.6008ZM57.6508 42.8008C55.0524 42.8008 53.0536 43.8008 51.4545 45.6008C50.0554 47.6008 49.2558 50.2008 49.2558 53.6008C49.2558 57.2008 50.0554 59.8008 51.4545 61.8008C53.0536 63.6008 55.0524 64.6008 57.6508 64.6008C60.2493 64.6008 62.448 63.6008 63.8471 61.8008C65.2463 59.8008 66.0458 57.2008 66.0458 53.6008C66.0458 50.2008 65.2463 47.6008 63.8471 45.6008C62.448 43.8008 60.2493 42.8008 57.6508 42.8008ZM86.8334 44.8008V54.6008H78.0387V44.2008C78.0387 43.0008 78.4384 42.0008 79.0381 41.2008C79.4378 40.2008 80.2373 39.4008 81.4366 38.8008C82.8358 38.0008 84.6347 37.2008 86.8334 36.6008C89.0321 36.0008 91.4307 35.8008 93.8292 35.8008C98.4265 35.8008 100.625 37.2008 100.625 40.0008C100.625 40.6008 100.425 41.2008 100.225 41.8008C100.026 42.2008 99.8257 42.8008 99.6258 43.2008C99.0261 43.2008 98.4265 43.0008 97.8268 43.0008C97.0273 42.8008 96.4277 42.8008 95.4283 42.8008C93.8292 42.8008 92.2302 43.0008 90.6311 43.4008C89.232 43.8008 87.8328 44.2008 86.8334 44.8008ZM78.0387 51.8008L86.8334 52.2008V70.4008C86.4336 70.6008 86.0339 70.8008 85.2344 70.8008C84.4348 71.0008 83.8352 71.0008 82.8358 71.0008C81.2367 71.0008 80.0375 70.8008 79.2379 70.2008C78.4384 69.6008 78.0387 68.4008 78.0387 67.0008V51.8008ZM117.415 71.6008C115.416 71.6008 113.817 71.4008 112.218 70.8008C110.619 70.4008 109.42 69.8008 108.421 69.2008V61.6008C109.22 62.4008 110.419 63.0008 111.619 63.6008C112.818 64.2008 114.417 64.6008 116.016 64.6008C119.014 64.6008 121.213 63.6008 122.812 61.8008C124.611 60.0008 125.41 57.2008 125.41 53.6008C125.41 50.8008 125.011 48.8008 124.211 47.2008C123.412 45.6008 122.212 44.6008 121.013 43.8008C119.614 43.2008 118.015 42.8008 116.216 42.8008C115.017 42.8008 113.817 43.0008 112.818 43.2008C111.818 43.6008 111.019 44.0008 110.219 44.4008V67.0008H101.425V43.4008C101.425 42.4008 101.625 41.4008 102.024 40.8008C102.424 40.0008 103.224 39.4008 104.223 38.8008C105.622 38.0008 107.221 37.2008 109.42 36.6008C111.419 36.0008 113.617 35.8008 116.216 35.8008C119.814 35.8008 122.812 36.4008 125.61 37.6008C128.209 38.8008 130.407 40.8008 132.006 43.4008C133.605 46.0008 134.205 49.4008 134.205 53.6008C134.205 57.6008 133.605 60.8008 132.006 63.6008C130.607 66.2008 128.608 68.2008 126.01 69.6008C123.611 71.0008 120.613 71.6008 117.415 71.6008ZM106.222 84.0008C104.623 84.0008 103.424 83.6008 102.624 83.0008C101.824 82.4008 101.425 81.4008 101.425 79.8008V64.4008L110.219 64.6008V83.4008C109.82 83.6008 109.22 83.6008 108.62 83.8008C107.821 83.8008 107.021 84.0008 106.222 84.0008ZM170.384 53.6008C170.384 57.4008 169.784 60.4008 168.385 63.2008C166.986 65.8008 164.787 68.0008 162.188 69.4008C159.79 70.8008 156.592 71.6008 153.194 71.6008C149.596 71.6008 146.598 70.8008 143.799 69.4008C141.201 68.0008 139.202 65.8008 137.803 63.2008C136.404 60.6008 135.604 57.4008 135.604 53.6008C135.604 50.0008 136.404 46.8008 137.803 44.2008C139.202 41.4008 141.401 39.4008 143.999 38.0008C146.598 36.6008 149.596 35.8008 153.194 35.8008C156.592 35.8008 159.59 36.6008 162.188 38.0008C164.787 39.4008 166.786 41.4008 168.385 44.2008C169.784 46.8008 170.384 50.0008 170.384 53.6008ZM153.194 42.8008C150.395 42.8008 148.397 43.8008 146.998 45.6008C145.398 47.6008 144.599 50.2008 144.599 53.6008C144.599 57.2008 145.398 59.8008 146.798 61.8008C148.397 63.6008 150.395 64.6008 153.194 64.6008C155.792 64.6008 157.791 63.6008 159.19 61.8008C160.789 59.8008 161.389 57.2008 161.389 53.6008C161.389 50.2008 160.789 47.6008 159.19 45.6008C157.791 43.8008 155.792 42.8008 153.194 42.8008Z" fill="white"/>
</g>
<defs>
<filter id="filter0_dddd_427_2344" x="0" y="0" width="286" height="124" filterUnits="userSpaceOnUse" color-interpolation-filters="sRGB">
<feFlood flood-opacity="0" result="BackgroundImageFix"/>
<feColorMatrix in="SourceAlpha" type="matrix" values="0 0 0 0 0 0 0 0 0 0 0 0 0 0 0 0 0 0 127 0" result="hardAlpha"/>
<feOffset dy="2"/>
<feGaussianBlur stdDeviation="2"/>
<feColorMatrix type="matrix" values="0 0 0 0 0 0 0 0 0 0 0 0 0 0 0 0 0 0 0.1 0"/>
<feBlend mode="normal" in2="BackgroundImageFix" result="effect1_dropShadow_427_2344"/>
<feColorMatrix in="SourceAlpha" type="matrix" values="0 0 0 0 0 0 0 0 0 0 0 0 0 0 0 0 0 0 127 0" result="hardAlpha"/>
<feOffset dy="7"/>
<feGaussianBlur stdDeviation="3.5"/>
<feColorMatrix type="matrix" values="0 0 0 0 0 0 0 0 0 0 0 0 0 0 0 0 0 0 0.09 0"/>
<feBlend mode="normal" in2="effect1_dropShadow_427_2344" result="effect2_dropShadow_427_2344"/>
<feColorMatrix in="SourceAlpha" type="matrix" values="0 0 0 0 0 0 0 0 0 0 0 0 0 0 0 0 0 0 127 0" result="hardAlpha"/>
<feOffset dy="16"/>
<feGaussianBlur stdDeviation="5"/>
<feColorMatrix type="matrix" values="0 0 0 0 0 0 0 0 0 0 0 0 0 0 0 0 0 0 0.05 0"/>
<feBlend mode="normal" in2="effect2_dropShadow_427_2344" result="effect3_dropShadow_427_2344"/>
<feColorMatrix in="SourceAlpha" type="matrix" values="0 0 0 0 0 0 0 0 0 0 0 0 0 0 0 0 0 0 127 0" result="hardAlpha"/>
<feOffset dy="29"/>
<feGaussianBlur stdDeviation="5.5"/>
<feColorMatrix type="matrix" values="0 0 0 0 0 0 0 0 0 0 0 0 0 0 0 0 0 0 0.01 0"/>
<feBlend mode="normal" in2="effect3_dropShadow_427_2344" result="effect4_dropShadow_427_2344"/>
<feBlend mode="normal" in="SourceGraphic" in2="effect4_dropShadow_427_2344" result="shape"/>
</filter>
<clipPath id="clip0_427_2344">
<rect width="264" height="82" fill="white" transform="translate(11 2)"/>
</clipPath>
</defs>
</svg>
