<svg width="264" height="82" viewBox="0 0 264 82" fill="none" xmlns="http://www.w3.org/2000/svg">
<path d="M174.974 59.4003C175.974 59.4003 176.973 59.0003 177.772 58.2003C178.772 57.4003 179.571 56.4003 180.371 55.4003C179.971 53.6003 179.771 52.2003 179.571 51.2003C179.571 50.2003 179.372 49.2003 179.372 48.4003C179.372 47.4003 179.372 46.4003 179.172 45.4003C179.172 44.4003 178.972 43.0003 178.972 41.4003C178.772 40.2003 178.972 39.2003 179.372 38.4003C179.571 37.6003 180.171 36.8003 180.971 36.2003C181.57 35.6003 182.37 35.2003 183.369 34.8003C184.369 34.4003 185.368 34.2003 186.367 34.0003C187.367 33.8003 188.166 33.8003 188.766 34.0003C189.166 34.2003 189.565 34.4003 189.765 34.6003C190.165 35.0003 190.165 35.2003 190.365 35.6003V36.2003C190.365 36.8003 190.165 37.4003 189.965 38.2003C189.765 39.0003 189.765 39.8003 189.565 40.8003V44.6003C189.765 46.0003 189.765 47.4003 189.765 48.8003C189.765 50.0003 189.965 51.4003 189.965 52.8003C190.165 54.0003 190.165 55.2003 190.365 56.2003C190.565 57.2003 190.965 58.0003 191.164 58.6003C191.364 59.2003 191.764 59.4003 192.364 59.4003C192.963 59.4003 193.563 59.2003 194.163 58.8003C194.962 58.4003 195.362 57.8003 195.962 57.2003C196.561 56.4003 196.961 55.6003 197.561 54.8003C197.96 53.8003 198.36 52.8003 198.76 52.0003C197.761 51.6003 197.161 51.4003 196.761 50.8003C196.161 50.4003 195.762 49.8003 195.562 49.4003C195.162 48.8003 195.162 48.0003 194.962 47.4003V45.0003C194.962 44.2003 194.962 43.6003 195.162 43.0003C195.362 42.4003 195.362 41.8003 195.762 41.2003C195.962 40.2003 196.561 39.2003 197.161 38.4003C197.96 37.8003 198.56 37.2003 199.16 36.8003C199.959 36.4003 200.559 36.0003 201.159 35.8003C201.758 35.6003 202.358 35.6003 202.758 35.6003C203.557 35.6003 204.157 35.8003 204.556 36.6003C204.956 37.2003 205.156 38.0003 205.156 39.0003C205.356 40.0003 205.356 41.2003 205.356 42.2003C205.156 43.4003 205.156 44.4003 204.956 45.4003C205.556 45.6003 205.956 45.6003 206.355 45.8003C206.955 45.8003 207.355 45.8003 207.755 45.6003C208.154 45.6003 208.554 45.4003 208.954 45.2003L210.153 44.6003C211.153 44.2003 211.952 43.6003 212.552 43.2003C213.151 42.8003 213.751 42.4003 214.151 42.2003L214.95 41.4003H215.75L216.349 42.0003V42.8003C216.349 43.2003 216.349 43.4003 216.15 43.8003C215.95 44.2003 215.95 44.4003 215.55 44.8003C215.35 45.0003 215.15 45.4003 214.75 45.8003L213.951 46.6003L213.351 47.2003C212.552 47.8003 211.752 48.6003 210.553 49.4003C209.554 50.2003 208.154 50.8003 206.355 51.6003C205.756 51.6003 205.356 51.8003 204.756 52.0003C204.157 52.0003 203.757 52.2003 203.157 52.2003C202.558 53.8003 201.558 55.4003 200.559 57.2003C199.559 59.0003 198.36 60.6003 196.961 62.0003C195.562 63.6003 194.163 64.8003 192.564 65.8003C190.965 66.8003 189.366 67.2003 187.767 67.2003C186.967 67.2003 186.167 67.0003 185.568 66.6003C184.968 66.2003 184.369 65.8003 183.969 65.0003C183.369 64.4003 182.969 63.6003 182.57 62.8003C182.17 62.0003 181.77 61.2003 181.57 60.2003C180.771 61.2003 179.771 62.2003 178.972 63.0003C177.972 63.8003 176.973 64.6003 175.974 65.2003C174.974 65.8003 173.975 66.4003 172.975 66.8003C171.976 67.0003 170.977 67.2003 169.977 67.2003C168.778 67.2003 167.778 66.8003 166.979 66.0003C166.179 65.0003 165.38 64.0003 164.98 62.6003C164.38 61.4003 163.981 60.0003 163.781 58.6003C163.381 57.2003 163.181 56.2003 162.981 55.2003C162.781 54.4003 162.582 53.6003 162.582 52.8003L161.982 49.8003C161.982 48.8003 161.782 47.6003 161.782 46.6003C161.582 45.6003 161.582 44.6003 161.582 43.6003C161.382 43.0003 161.382 42.4003 161.182 41.8003V40.0003C161.182 39.0003 161.382 38.2003 161.782 37.4003C162.182 36.8003 162.781 36.2003 163.381 35.6003C163.981 35.2003 164.78 34.8003 165.58 34.4003C166.379 34.0003 167.179 33.8003 167.778 33.6003C169.178 33.4003 169.977 33.4003 170.777 33.6003C171.376 33.6003 171.776 33.8003 172.176 34.2003C172.376 34.4003 172.576 34.6003 172.576 35.0003C172.775 35.4003 172.775 35.6003 172.775 35.8003C172.775 36.4003 172.576 37.0003 172.376 37.8003C172.176 38.4003 171.976 39.4003 171.976 40.4003V43.6003C172.176 45.4003 172.176 47.2003 172.376 49.0003C172.376 50.8003 172.576 52.6003 172.775 54.2003C172.975 55.6003 173.375 57.0003 173.575 58.0003C173.975 59.0003 174.574 59.4003 174.974 59.4003ZM211.153 37.6003C211.153 37.4003 211.552 37.0003 212.152 36.6003C212.752 36.2003 213.351 36.0003 213.951 35.8003C214.75 35.4003 215.35 35.2003 216.15 35.2003C216.949 35.0003 217.749 35.0003 218.348 35.0003C218.948 35.0003 219.148 35.0003 219.548 35.2003C219.747 35.4003 219.947 35.6003 220.147 36.0003C220.347 36.4003 220.347 36.6003 220.547 37.2003V38.4003C220.547 39.4003 220.547 40.4003 220.347 41.8003C220.347 43.2003 220.147 44.8003 220.147 46.4003C220.147 47.8003 219.947 49.4003 219.947 51.0003V55.2003C220.147 56.4003 220.347 57.4003 220.547 58.2003C220.747 59.0003 221.147 59.4003 221.546 59.4003C222.146 59.4003 222.946 59.2003 223.545 58.8003C224.145 58.4003 224.744 57.8003 225.344 57.2003C225.744 56.4003 226.343 55.8003 226.943 55.0003C227.343 54.2003 227.943 53.6003 228.342 53.0003C228.742 52.2003 229.142 51.8003 229.342 51.2003C229.542 50.8003 229.741 50.6003 229.941 50.6003C230.141 50.6003 230.341 50.8003 230.541 51.0003V53.0003C230.541 53.4003 230.341 53.6003 230.341 53.8003C230.141 54.4003 229.941 55.2003 229.542 56.2003C229.142 57.0003 228.542 58.0003 227.943 59.0003C227.343 60.0003 226.743 61.0003 225.944 62.0003C225.144 63.0003 224.145 63.8003 223.145 64.6003C222.146 65.4003 221.147 66.0003 219.947 66.6003C218.748 67.0003 217.549 67.2003 216.349 67.2003C215.35 67.2003 214.551 67.0003 213.751 66.4003C213.151 65.6003 212.552 64.8003 212.152 63.8003C211.552 62.8003 211.153 61.8003 210.953 60.6003C210.753 59.4003 210.553 58.4003 210.353 57.2003V55.8003C210.153 55.4003 210.153 54.8003 210.153 54.4003V43.4003C210.353 42.2003 210.353 41.0003 210.553 40.0003C210.553 39.0003 210.753 38.2003 211.153 37.6003ZM211.952 24.6003C211.952 23.8003 211.952 22.8003 212.352 21.8003C212.752 20.8003 213.151 20.0003 213.751 19.2003C214.151 18.6003 214.75 17.8003 215.55 17.4003C216.15 17.0003 216.949 16.8003 217.549 16.8003C218.548 16.8003 219.148 17.0003 219.747 17.2003C220.347 17.6003 220.747 18.2003 220.947 18.6003C221.346 19.2003 221.546 19.8003 221.746 20.4003V22.2003C221.746 23.6003 221.546 24.6003 221.346 25.6003C220.947 26.6003 220.347 27.4003 219.947 28.0003C219.348 28.8003 218.748 29.2003 218.148 29.6003C217.349 29.8003 216.949 30.0003 216.349 30.0003C215.55 30.0003 214.75 29.8003 214.351 29.6003C213.751 29.2003 213.151 28.8003 212.951 28.4003C212.552 27.8003 212.352 27.2003 212.152 26.6003C211.952 26.0003 211.952 25.4003 211.952 24.6003ZM241.734 4.00027C241.734 2.60027 242.134 1.60027 242.734 0.800268C243.333 0.200268 244.333 -0.199732 245.732 0.000268108C247.331 0.400268 248.53 0.600268 249.53 1.20027C250.529 1.60027 251.129 2.20027 251.728 3.00027C252.128 3.80027 252.528 4.60027 252.528 5.60027C252.728 6.80027 252.728 8.00027 252.728 9.40027V14.6003C252.528 19.0003 252.528 23.4003 252.528 27.6003C252.528 31.8003 252.528 35.8003 252.328 40.0003C252.328 42.6003 252.328 45.2003 252.128 47.4003V53.8003C252.128 55.8003 252.328 57.2003 252.928 58.0003C253.327 59.0003 253.927 59.6003 254.727 59.6003C255.326 59.6003 256.126 59.2003 256.725 58.8003C257.325 58.4003 257.925 57.8003 258.524 57.2003C259.124 56.6003 259.724 55.8003 260.323 55.2003C260.723 54.4003 261.123 53.6003 261.522 53.0003C261.922 52.4003 262.322 51.8003 262.722 51.4003C262.922 51.0003 263.122 50.8003 263.122 50.8003C263.521 50.8003 263.721 50.8003 263.721 51.2003C263.921 51.4003 263.921 51.8003 263.921 52.2003V53.2003C263.721 53.6003 263.721 53.8003 263.721 54.0003C263.521 54.6003 263.321 55.2003 262.922 56.2003C262.522 57.0003 261.922 58.0003 261.323 59.0003C260.723 60.0003 260.123 61.0003 259.324 62.0003C258.524 63.0003 257.525 63.8003 256.525 64.6003C255.526 65.4003 254.527 66.0003 253.327 66.4003C252.128 67.0003 250.929 67.2003 249.73 67.2003C248.53 67.2003 247.531 67.0003 246.931 66.4003C246.132 66.0003 245.532 65.2003 245.132 64.4003C244.133 65.4003 243.333 66.0003 242.334 66.6003C241.335 67.2003 240.135 67.4003 238.536 67.4003C237.537 67.4003 236.338 67.4003 235.138 67.0003C233.939 66.8003 232.74 66.2003 231.54 65.6003C230.341 64.8003 229.342 64.0003 228.342 62.8003C227.343 61.8003 226.543 60.4003 226.144 58.8003C225.544 57.2003 225.144 55.4003 225.144 53.2003C225.144 51.0003 225.544 48.8003 226.343 46.8003C226.943 44.6003 227.943 42.6003 229.342 41.0003C230.541 39.4003 232.14 38.0003 234.139 37.0003C235.938 35.8003 237.937 35.4003 240.335 35.4003H242.534C242.534 32.4003 242.334 28.8003 242.134 24.6003C241.934 20.6003 241.734 15.8003 241.734 10.2003V4.00027ZM243.533 59.8003C243.333 58.4003 243.133 57.0003 242.934 55.4003C242.934 53.8003 242.734 52.4003 242.734 50.8003V41.2003C242.534 40.6003 242.134 40.0003 241.934 39.6003C241.534 39.2003 241.135 39.0003 240.735 39.0003C239.735 39.0003 238.936 39.4003 238.136 40.2003C237.537 41.0003 236.937 42.0003 236.338 43.2003C235.938 44.4003 235.538 45.6003 235.338 47.0003C235.138 48.6003 234.938 50.0003 234.938 51.4003C234.938 53.4003 235.138 55.0003 235.538 56.4003C235.938 57.8003 236.537 58.8003 237.137 59.6003C237.737 60.4003 238.336 61.0003 239.136 61.4003C239.735 61.6003 240.535 61.8003 241.135 61.8003C241.534 61.8003 241.934 61.8003 242.334 61.4003C242.934 61.2003 243.133 60.6003 243.533 59.8003Z" fill="#AF57ED"/>
<path d="M19.0673 40.8008C16.269 40.8008 13.8704 41.8008 12.0715 43.6008C10.0726 45.4008 9.07325 48.2008 9.07325 51.8008C9.07325 55.4008 10.0726 58.0008 11.8716 59.8008C13.6705 61.6008 16.0691 62.6008 19.0673 62.6008C20.8662 62.6008 22.2654 62.2008 23.4647 61.8008C24.6639 61.4008 25.8632 60.8008 26.6627 60.4008C27.4623 60.8008 28.0619 61.4008 28.4617 62.0008C28.8614 62.4008 29.0613 63.2008 29.0613 64.0008C29.0613 65.8008 28.0619 67.0008 26.0631 68.0008C24.0643 69.0008 21.4659 69.6008 18.2678 69.6008C14.6699 69.6008 11.4718 69.0008 8.87336 67.6008C6.07503 66.4008 3.87635 64.4008 2.47718 61.6008C0.878136 59.0008 0.0786133 55.6008 0.0786133 51.8008C0.0786133 47.8008 0.878136 44.4008 2.47718 41.8008C4.27611 39.0008 6.4748 37.0008 9.07325 35.8008C11.8716 34.4008 14.8698 33.8008 18.0679 33.8008C21.266 33.8008 23.8644 34.4008 25.6633 35.4008C27.6622 36.6008 28.6616 37.8008 28.6616 39.4008C28.6616 40.2008 28.4617 40.8008 28.0619 41.4008C27.6622 42.2008 27.2624 42.6008 26.6627 43.0008C25.6633 42.4008 24.6639 42.0008 23.4647 41.4008C22.2654 41.0008 20.8662 40.8008 19.0673 40.8008ZM64.0404 51.6008C64.0404 55.4008 63.2409 58.4008 61.8418 61.2008C60.4426 63.8008 58.4438 66.0008 55.8453 67.4008C53.2469 68.8008 50.2487 69.6008 46.6508 69.6008C43.2528 69.6008 40.0548 68.8008 37.4563 67.4008C34.8579 66.0008 32.8591 63.8008 31.4599 61.2008C29.8608 58.6008 29.2612 55.4008 29.2612 51.6008C29.2612 48.0008 29.8608 44.8008 31.4599 42.2008C32.8591 39.4008 34.8579 37.4008 37.4563 36.0008C40.2546 34.6008 43.2528 33.8008 46.6508 33.8008C50.2487 33.8008 53.2469 34.6008 55.8453 36.0008C58.4438 37.4008 60.4426 39.4008 61.8418 42.2008C63.2409 44.8008 64.0404 48.0008 64.0404 51.6008ZM46.6508 40.8008C44.0524 40.8008 42.0536 41.8008 40.4545 43.6008C39.0554 45.6008 38.2558 48.2008 38.2558 51.6008C38.2558 55.2008 39.0554 57.8008 40.4545 59.8008C42.0536 61.6008 44.0524 62.6008 46.6508 62.6008C49.2493 62.6008 51.448 61.6008 52.8471 59.8008C54.2463 57.8008 55.0458 55.2008 55.0458 51.6008C55.0458 48.2008 54.2463 45.6008 52.8471 43.6008C51.448 41.8008 49.2493 40.8008 46.6508 40.8008ZM75.8334 42.8008V52.6008H67.0387V42.2008C67.0387 41.0008 67.4384 40.0008 68.0381 39.2008C68.4378 38.2008 69.2373 37.4008 70.4366 36.8008C71.8358 36.0008 73.6347 35.2008 75.8334 34.6008C78.0321 34.0008 80.4307 33.8008 82.8292 33.8008C87.4265 33.8008 89.6252 35.2008 89.6252 38.0008C89.6252 38.6008 89.4253 39.2008 89.2254 39.8008C89.0255 40.2008 88.8257 40.8008 88.6258 41.2008C88.0261 41.2008 87.4265 41.0008 86.8268 41.0008C86.0273 40.8008 85.4277 40.8008 84.4283 40.8008C82.8292 40.8008 81.2302 41.0008 79.6311 41.4008C78.232 41.8008 76.8328 42.2008 75.8334 42.8008ZM67.0387 49.8008L75.8334 50.2008V68.4008C75.4336 68.6008 75.0339 68.8008 74.2344 68.8008C73.4348 69.0008 72.8352 69.0008 71.8358 69.0008C70.2367 69.0008 69.0375 68.8008 68.2379 68.2008C67.4384 67.6008 67.0387 66.4008 67.0387 65.0008V49.8008ZM106.415 69.6008C104.416 69.6008 102.817 69.4008 101.218 68.8008C99.6192 68.4008 98.4199 67.8008 97.4205 67.2008V59.6008C98.22 60.4008 99.4193 61.0008 100.619 61.6008C101.818 62.2008 103.417 62.6008 105.016 62.6008C108.014 62.6008 110.213 61.6008 111.812 59.8008C113.611 58.0008 114.41 55.2008 114.41 51.6008C114.41 48.8008 114.011 46.8008 113.211 45.2008C112.412 43.6008 111.212 42.6008 110.013 41.8008C108.614 41.2008 107.015 40.8008 105.216 40.8008C104.017 40.8008 102.817 41.0008 101.818 41.2008C100.818 41.6008 100.019 42.0008 99.2194 42.4008V65.0008H90.4247V41.4008C90.4247 40.4008 90.6246 39.4008 91.0243 38.8008C91.4241 38.0008 92.2236 37.4008 93.223 36.8008C94.6222 36.0008 96.2212 35.2008 98.4199 34.6008C100.419 34.0008 102.617 33.8008 105.216 33.8008C108.814 33.8008 111.812 34.4008 114.61 35.6008C117.209 36.8008 119.407 38.8008 121.006 41.4008C122.605 44.0008 123.205 47.4008 123.205 51.6008C123.205 55.6008 122.605 58.8008 121.006 61.6008C119.607 64.2008 117.608 66.2008 115.01 67.6008C112.611 69.0008 109.613 69.6008 106.415 69.6008ZM95.2218 82.0008C93.6228 82.0008 92.4235 81.6008 91.624 81.0008C90.8245 80.4008 90.4247 79.4008 90.4247 77.8008V62.4008L99.2194 62.6008V81.4008C98.8197 81.6008 98.22 81.6008 97.6204 81.8008C96.8209 81.8008 96.0214 82.0008 95.2218 82.0008ZM159.384 51.6008C159.384 55.4008 158.784 58.4008 157.385 61.2008C155.986 63.8008 153.787 66.0008 151.188 67.4008C148.79 68.8008 145.592 69.6008 142.194 69.6008C138.596 69.6008 135.598 68.8008 132.799 67.4008C130.201 66.0008 128.202 63.8008 126.803 61.2008C125.404 58.6008 124.604 55.4008 124.604 51.6008C124.604 48.0008 125.404 44.8008 126.803 42.2008C128.202 39.4008 130.401 37.4008 132.999 36.0008C135.598 34.6008 138.596 33.8008 142.194 33.8008C145.592 33.8008 148.59 34.6008 151.188 36.0008C153.787 37.4008 155.786 39.4008 157.385 42.2008C158.784 44.8008 159.384 48.0008 159.384 51.6008ZM142.194 40.8008C139.395 40.8008 137.397 41.8008 135.998 43.6008C134.398 45.6008 133.599 48.2008 133.599 51.6008C133.599 55.2008 134.398 57.8008 135.798 59.8008C137.397 61.6008 139.395 62.6008 142.194 62.6008C144.792 62.6008 146.791 61.6008 148.19 59.8008C149.789 57.8008 150.389 55.2008 150.389 51.6008C150.389 48.2008 149.789 45.6008 148.19 43.6008C146.791 41.8008 144.792 40.8008 142.194 40.8008Z" fill="#2353FF"/>
</svg>
