<?xml version="1.0" encoding="UTF-8"?>
<!DOCTYPE svg PUBLIC "-//W3C//DTD SVG 1.1//EN" "http://www.w3.org/Graphics/SVG/1.1/DTD/svg11.dtd">
<!-- Creator: CorelDRAW X8 -->
<svg xmlns="http://www.w3.org/2000/svg" xml:space="preserve" width="1.44663in" height="0.449059in" version="1.1" style="shape-rendering:geometricPrecision; text-rendering:geometricPrecision; image-rendering:optimizeQuality; fill-rule:evenodd; clip-rule:evenodd"
viewBox="0 0 1320 410"
 xmlns:xlink="http://www.w3.org/1999/xlink">
 <defs>
  <style type="text/css">
   <![CDATA[
    .fil1 {fill:#2353FF;fill-rule:nonzero}
    .fil0 {fill:#AF57ED;fill-rule:nonzero}
   ]]>
  </style>
 </defs>
 <g id="Layer_x0020_1">
  <metadata id="CorelCorpID_0Corel-Layer"/>
  <path class="fil0" d="M875 297c5,0 10,-2 14,-6 5,-4 9,-9 13,-14 -2,-9 -3,-16 -4,-21 0,-5 -1,-10 -1,-14 0,-5 0,-10 -1,-15 0,-5 -1,-12 -1,-20 -1,-6 0,-11 2,-15 1,-4 4,-8 8,-11 3,-3 7,-5 12,-7 5,-2 10,-3 15,-4 5,-1 9,-1 12,0 2,1 4,2 5,3 2,2 2,3 3,5 0,1 0,2 0,3 0,3 -1,6 -2,10 -1,4 -1,8 -2,13 0,6 0,12 0,19 1,7 1,14 1,21 0,6 1,13 1,20 1,6 1,12 2,17 1,5 3,9 4,12 1,3 3,4 6,4 3,0 6,-1 9,-3 4,-2 6,-5 9,-8 3,-4 5,-8 8,-12 2,-5 4,-10 6,-14 -5,-2 -8,-3 -10,-6 -3,-2 -5,-5 -6,-7 -2,-3 -2,-7 -3,-10 0,-4 0,-8 0,-12 0,-4 0,-7 1,-10 1,-3 1,-6 3,-9 1,-5 4,-10 7,-14 4,-3 7,-6 10,-8 4,-2 7,-4 10,-5 3,-1 6,-1 8,-1 4,0 7,1 9,5 2,3 3,7 3,12 1,5 1,11 1,16 -1,6 -1,11 -2,16 3,1 5,1 7,2 3,0 5,0 7,-1 2,0 4,-1 6,-2 2,-1 4,-2 6,-3 5,-2 9,-5 12,-7 3,-2 6,-4 8,-5 2,-2 3,-3 4,-4 1,0 3,0 4,0 1,1 2,2 3,3 0,1 0,3 0,4 0,2 0,3 -1,5 -1,2 -1,3 -3,5 -1,1 -2,3 -4,5 -1,1 -2,2 -4,4 -1,1 -2,2 -3,3 -4,3 -8,7 -14,11 -5,4 -12,7 -21,11 -3,0 -5,1 -8,2 -3,0 -5,1 -8,1 -3,8 -8,16 -13,25 -5,9 -11,17 -18,24 -7,8 -14,14 -22,19 -8,5 -16,7 -24,7 -4,0 -8,-1 -11,-3 -3,-2 -6,-4 -8,-8 -3,-3 -5,-7 -7,-11 -2,-4 -4,-8 -5,-13 -4,5 -9,10 -13,14 -5,4 -10,8 -15,11 -5,3 -10,6 -15,8 -5,1 -10,2 -15,2 -6,0 -11,-2 -15,-6 -4,-5 -8,-10 -10,-17 -3,-6 -5,-13 -6,-20 -2,-7 -3,-12 -4,-17 -1,-4 -2,-8 -2,-12 -1,-5 -2,-10 -3,-15 0,-5 -1,-11 -1,-16 -1,-5 -1,-10 -1,-15 -1,-3 -1,-6 -2,-9 0,-3 0,-6 0,-9 0,-5 1,-9 3,-13 2,-3 5,-6 8,-9 3,-2 7,-4 11,-6 4,-2 8,-3 11,-4 7,-1 11,-1 15,0 3,0 5,1 7,3 1,1 2,2 2,4 1,2 1,3 1,4 0,3 -1,6 -2,10 -1,3 -2,8 -2,13 0,2 0,5 0,8 0,2 0,5 0,8 1,9 1,18 2,27 0,9 1,18 2,26 1,7 3,14 4,19 2,5 5,7 7,7zm181 -109c0,-1 2,-3 5,-5 3,-2 6,-3 9,-4 4,-2 7,-3 11,-3 4,-1 8,-1 11,-1 3,0 4,0 6,1 1,1 2,2 3,4 1,2 1,3 2,6 0,2 0,4 0,6 0,5 0,10 -1,17 0,7 -1,15 -1,23 0,7 -1,15 -1,23 0,8 0,15 0,21 1,6 2,11 3,15 1,4 3,6 5,6 3,0 7,-1 10,-3 3,-2 6,-5 9,-8 2,-4 5,-7 8,-11 2,-4 5,-7 7,-10 2,-4 4,-6 5,-9 1,-2 2,-3 3,-3 1,0 2,1 3,2 0,1 0,3 0,5 0,1 0,3 0,5 0,2 -1,3 -1,4 -1,3 -2,7 -4,12 -2,4 -5,9 -8,14 -3,5 -6,10 -10,15 -4,5 -9,9 -14,13 -5,4 -10,7 -16,10 -6,2 -12,3 -18,3 -5,0 -9,-1 -13,-4 -3,-4 -6,-8 -8,-13 -3,-5 -5,-10 -6,-16 -1,-6 -2,-11 -3,-17 0,-2 0,-5 0,-7 -1,-2 -1,-5 -1,-7 0,1 0,-1 0,-4 0,-3 0,-8 0,-13 0,-5 0,-11 0,-18 0,-7 0,-13 0,-20 1,-6 1,-12 2,-17 0,-5 1,-9 3,-12zm4 -65c0,-4 0,-9 2,-14 2,-5 4,-9 7,-13 2,-3 5,-7 9,-9 3,-2 7,-3 10,-3 5,0 8,1 11,2 3,2 5,5 6,7 2,3 3,6 4,9 0,4 0,6 0,9 0,7 -1,12 -2,17 -2,5 -5,9 -7,12 -3,4 -6,6 -9,8 -4,1 -6,2 -9,2 -4,0 -8,-1 -10,-2 -3,-2 -6,-4 -7,-6 -2,-3 -3,-6 -4,-9 -1,-3 -1,-6 -1,-10zm149 -103c0,-7 2,-12 5,-16 3,-3 8,-5 15,-4 8,2 14,3 19,6 5,2 8,5 11,9 2,4 4,8 4,13 1,6 1,12 1,19 0,4 0,9 0,13 0,4 0,9 0,13 -1,22 -1,44 -1,65 0,21 0,41 -1,62 0,13 0,26 -1,37 0,11 0,22 0,32 0,10 1,17 4,21 2,5 5,8 9,8 3,0 7,-2 10,-4 3,-2 6,-5 9,-8 3,-3 6,-7 9,-10 2,-4 4,-8 6,-11 2,-3 4,-6 6,-8 1,-2 2,-3 2,-3 2,0 3,0 3,2 1,1 1,3 1,5 0,2 0,3 0,5 -1,2 -1,3 -1,4 -1,3 -2,6 -4,11 -2,4 -5,9 -8,14 -3,5 -6,10 -10,15 -4,5 -9,9 -14,13 -5,4 -10,7 -16,9 -6,3 -12,4 -18,4 -6,0 -11,-1 -14,-4 -4,-2 -7,-6 -9,-10 -5,5 -9,8 -14,11 -5,3 -11,4 -19,4 -5,0 -11,0 -17,-2 -6,-1 -12,-4 -18,-7 -6,-4 -11,-8 -16,-14 -5,-5 -9,-12 -11,-20 -3,-8 -5,-17 -5,-28 0,-11 2,-22 6,-32 3,-11 8,-21 15,-29 6,-8 14,-15 24,-20 9,-6 19,-8 31,-8 3,0 7,0 11,0 0,-15 -1,-33 -2,-54 -1,-20 -2,-44 -2,-72 0,-5 0,-10 0,-15 0,-5 0,-10 0,-16zm9 279c-1,-7 -2,-14 -3,-22 0,-8 -1,-15 -1,-23 0,-8 0,-16 0,-24 0,-8 0,-16 0,-24 -1,-3 -3,-6 -4,-8 -2,-2 -4,-3 -6,-3 -5,0 -9,2 -13,6 -3,4 -6,9 -9,15 -2,6 -4,12 -5,19 -1,8 -2,15 -2,22 0,10 1,18 3,25 2,7 5,12 8,16 3,4 6,7 10,9 3,1 7,2 10,2 2,0 4,0 6,-2 3,-1 4,-4 6,-8z"/>
  <path class="fil1" d="M95 204c-14,0 -26,5 -35,14 -10,9 -15,23 -15,41 0,18 5,31 14,40 9,9 21,14 36,14 9,0 16,-2 22,-4 6,-2 12,-5 16,-7 4,2 7,5 9,8 2,2 3,6 3,10 0,9 -5,15 -15,20 -10,5 -23,8 -39,8 -18,0 -34,-3 -47,-10 -14,-6 -25,-16 -32,-30 -8,-13 -12,-30 -12,-49 0,-20 4,-37 12,-50 9,-14 20,-24 33,-30 14,-7 29,-10 45,-10 16,0 29,3 38,8 10,6 15,12 15,20 0,4 -1,7 -3,10 -2,4 -4,6 -7,8 -5,-3 -10,-5 -16,-8 -6,-2 -13,-3 -22,-3zm225 54c0,19 -4,34 -11,48 -7,13 -17,24 -30,31 -13,7 -28,11 -46,11 -17,0 -33,-4 -46,-11 -13,-7 -23,-18 -30,-31 -8,-13 -11,-29 -11,-48 0,-18 3,-34 11,-47 7,-14 17,-24 30,-31 14,-7 29,-11 46,-11 18,0 33,4 46,11 13,7 23,17 30,31 7,13 11,29 11,47zm-87 -54c-13,0 -23,5 -31,14 -7,10 -11,23 -11,40 0,18 4,31 11,41 8,9 18,14 31,14 13,0 24,-5 31,-14 7,-10 11,-23 11,-41 0,-17 -4,-30 -11,-40 -7,-9 -18,-14 -31,-14zm146 10l0 49 -44 0 0 -52c0,-6 2,-11 5,-15 2,-5 6,-9 12,-12 7,-4 16,-8 27,-11 11,-3 23,-4 35,-4 23,0 34,7 34,21 0,3 -1,6 -2,9 -1,2 -2,5 -3,7 -3,0 -6,-1 -9,-1 -4,-1 -7,-1 -12,-1 -8,0 -16,1 -24,3 -7,2 -14,4 -19,7zm-44 35l44 2 0 91c-2,1 -4,2 -8,2 -4,1 -7,1 -12,1 -8,0 -14,-1 -18,-4 -4,-3 -6,-9 -6,-16l0 -76zm197 99c-10,0 -18,-1 -26,-4 -8,-2 -14,-5 -19,-8l0 -38c4,4 10,7 16,10 6,3 14,5 22,5 15,0 26,-5 34,-14 9,-9 13,-23 13,-41 0,-14 -2,-24 -6,-32 -4,-8 -10,-13 -16,-17 -7,-3 -15,-5 -24,-5 -6,0 -12,1 -17,2 -5,2 -9,4 -13,6l0 113 -44 0 0 -118c0,-5 1,-10 3,-13 2,-4 6,-7 11,-10 7,-4 15,-8 26,-11 10,-3 21,-4 34,-4 18,0 33,3 47,9 13,6 24,16 32,29 8,13 11,30 11,51 0,20 -3,36 -11,50 -7,13 -17,23 -30,30 -12,7 -27,10 -43,10zm-56 62c-8,0 -14,-2 -18,-5 -4,-3 -6,-8 -6,-16l0 -77 44 1 0 94c-2,1 -5,1 -8,2 -4,0 -8,1 -12,1zm321 -152c0,19 -3,34 -10,48 -7,13 -18,24 -31,31 -12,7 -28,11 -45,11 -18,0 -33,-4 -47,-11 -13,-7 -23,-18 -30,-31 -7,-13 -11,-29 -11,-48 0,-18 4,-34 11,-47 7,-14 18,-24 31,-31 13,-7 28,-11 46,-11 17,0 32,4 45,11 13,7 23,17 31,31 7,13 10,29 10,47zm-86 -54c-14,0 -24,5 -31,14 -8,10 -12,23 -12,40 0,18 4,31 11,41 8,9 18,14 32,14 13,0 23,-5 30,-14 8,-10 11,-23 11,-41 0,-17 -3,-30 -11,-40 -7,-9 -17,-14 -30,-14z"/>
 </g>
</svg>
