<svg width="20" height="20" viewBox="0 0 20 20" fill="none" xmlns="http://www.w3.org/2000/svg">
<g id="eva:email-outline">
<g id="evaEmailOutline0">
<g id="evaEmailOutline1">
<path id="evaEmailOutline2" d="M15.8332 3.33325H4.1665C3.50346 3.33325 2.86758 3.59664 2.39874 4.06549C1.9299 4.53433 1.6665 5.17021 1.6665 5.83325V14.1666C1.6665 14.8296 1.9299 15.4655 2.39874 15.9344C2.86758 16.4032 3.50346 16.6666 4.1665 16.6666H15.8332C16.4962 16.6666 17.1321 16.4032 17.6009 15.9344C18.0698 15.4655 18.3332 14.8296 18.3332 14.1666V5.83325C18.3332 5.17021 18.0698 4.53433 17.6009 4.06549C17.1321 3.59664 16.4962 3.33325 15.8332 3.33325ZM15.2748 4.99992L9.99984 8.95825L4.72484 4.99992H15.2748ZM15.8332 14.9999H4.1665C3.94549 14.9999 3.73353 14.9121 3.57725 14.7558C3.42097 14.5996 3.33317 14.3876 3.33317 14.1666V6.04159L9.49984 10.6666C9.64408 10.7748 9.81953 10.8333 9.99984 10.8333C10.1801 10.8333 10.3556 10.7748 10.4998 10.6666L16.6665 6.04159V14.1666C16.6665 14.3876 16.5787 14.5996 16.4224 14.7558C16.2661 14.9121 16.0542 14.9999 15.8332 14.9999Z" fill="#2353FF"/>
</g>
</g>
</g>
</svg>
