<svg width="256" height="292" viewBox="0 0 256 292" fill="none" xmlns="http://www.w3.org/2000/svg">
<g filter="url(#filter0_dddd_564_3912)">
<g clip-path="url(#clip0_564_3912)">
<rect x="33" y="6" width="190" height="169" rx="24" fill="#031239"/>
<g filter="url(#filter1_dddd_564_3912)">
<rect x="95.4219" y="38" width="65.1525" height="62" rx="13" fill="white"/>
<rect x="95.9219" y="38.5" width="64.1525" height="61" rx="12.5" stroke="#EAE9F5"/>
</g>
<path d="M129.267 74.2612C129.475 73.7276 129.341 73.1199 128.926 72.7049L125.829 69.6517L125.873 69.6072C128.384 66.8164 130.26 63.5144 131.372 59.9287H134.247C135.048 59.9287 135.715 59.2617 135.715 58.4613V58.4317C135.715 57.6313 135.048 56.9643 134.247 56.9643H125.339V55.4822C125.339 54.667 124.673 54 123.857 54C123.042 54 122.375 54.667 122.375 55.4822V56.9643H113.467C112.667 56.9643 112 57.6313 112 58.4317C112 59.2469 112.667 59.899 113.467 59.899H128.556C127.539 62.8402 125.941 65.547 123.857 67.8582C122.657 66.5391 121.649 65.1014 120.804 63.5896C120.693 63.3796 120.526 63.2039 120.322 63.0812C120.119 62.9585 119.886 62.8934 119.648 62.893C118.625 62.893 117.973 64.0046 118.477 64.8939C119.411 66.5687 120.552 68.1695 121.886 69.6517L115.409 76.0398C115.268 76.1765 115.156 76.3401 115.08 76.5209C115.004 76.7016 114.964 76.8959 114.964 77.0921C114.964 77.2883 115.004 77.4826 115.08 77.6633C115.156 77.8441 115.268 78.0077 115.409 78.1444C115.987 78.7225 116.921 78.7225 117.514 78.1444L123.857 71.786L126.851 74.7799C127.607 75.5358 128.897 75.2542 129.267 74.2612ZM136.456 65.8573C135.566 65.8573 134.766 66.4057 134.455 67.2505L129.015 81.7757C128.66 82.6799 129.341 83.6433 130.305 83.6433C130.883 83.6433 131.402 83.2876 131.609 82.7392L132.928 79.1968H139.968L141.302 82.7392C141.51 83.2727 142.029 83.6433 142.607 83.6433C143.57 83.6433 144.252 82.6799 143.911 81.7757L138.471 67.2505C138.145 66.4057 137.345 65.8573 136.456 65.8573ZM134.055 76.2325L136.456 69.8147L138.857 76.2325H134.055Z" fill="#3C3C3C"/>
<path d="M94.7812 129.125V127.359H104.062V129.125H100.469V139H98.3828V129.125H94.7812ZM104.25 139V130.266H106.242V131.734H106.336C106.492 131.224 106.766 130.833 107.156 130.562C107.547 130.286 107.992 130.148 108.492 130.148C108.602 130.148 108.727 130.154 108.867 130.164C109.013 130.174 109.133 130.188 109.227 130.203V132.094C109.138 132.062 109 132.036 108.812 132.016C108.625 131.995 108.445 131.984 108.273 131.984C107.893 131.984 107.555 132.065 107.258 132.227C106.961 132.388 106.727 132.609 106.555 132.891C106.388 133.172 106.305 133.5 106.305 133.875V139H104.25ZM112.344 139.18C111.786 139.18 111.286 139.081 110.844 138.883C110.401 138.68 110.052 138.383 109.797 137.992C109.542 137.602 109.414 137.12 109.414 136.547C109.414 136.057 109.505 135.651 109.688 135.328C109.87 135.005 110.117 134.747 110.43 134.555C110.747 134.362 111.104 134.216 111.5 134.117C111.896 134.013 112.305 133.94 112.727 133.898C113.242 133.841 113.659 133.792 113.977 133.75C114.294 133.708 114.523 133.641 114.664 133.547C114.81 133.453 114.883 133.307 114.883 133.109V133.07C114.883 132.648 114.758 132.32 114.508 132.086C114.258 131.852 113.893 131.734 113.414 131.734C112.909 131.734 112.508 131.844 112.211 132.062C111.919 132.281 111.721 132.539 111.617 132.836L109.703 132.562C109.854 132.031 110.104 131.589 110.453 131.234C110.802 130.875 111.227 130.607 111.727 130.43C112.232 130.247 112.789 130.156 113.398 130.156C113.815 130.156 114.232 130.206 114.648 130.305C115.065 130.398 115.448 130.56 115.797 130.789C116.146 131.018 116.424 131.326 116.633 131.711C116.841 132.096 116.945 132.578 116.945 133.156V139H114.969V137.797H114.906C114.781 138.036 114.604 138.263 114.375 138.477C114.151 138.685 113.87 138.854 113.531 138.984C113.198 139.115 112.802 139.18 112.344 139.18ZM112.867 137.664C113.284 137.664 113.643 137.583 113.945 137.422C114.247 137.255 114.482 137.036 114.648 136.766C114.815 136.49 114.898 136.19 114.898 135.867V134.844C114.831 134.896 114.721 134.945 114.57 134.992C114.419 135.034 114.247 135.073 114.055 135.109C113.862 135.146 113.672 135.177 113.484 135.203C113.302 135.229 113.143 135.25 113.008 135.266C112.701 135.307 112.424 135.378 112.18 135.477C111.94 135.57 111.75 135.701 111.609 135.867C111.469 136.034 111.398 136.25 111.398 136.516C111.398 136.896 111.536 137.182 111.812 137.375C112.089 137.568 112.44 137.664 112.867 137.664ZM120.523 133.891V139H118.469V130.266H120.484V131.758H120.586C120.784 131.268 121.094 130.88 121.516 130.594C121.943 130.302 122.484 130.156 123.141 130.156C123.745 130.156 124.271 130.284 124.719 130.539C125.167 130.794 125.513 131.169 125.758 131.664C126.008 132.154 126.133 132.747 126.133 133.445V139H124.078V133.766C124.078 133.182 123.927 132.727 123.625 132.398C123.323 132.065 122.906 131.898 122.375 131.898C122.016 131.898 121.695 131.977 121.414 132.133C121.138 132.289 120.919 132.516 120.758 132.812C120.602 133.104 120.523 133.464 120.523 133.891ZM134.547 132.586L132.68 132.781C132.602 132.495 132.432 132.242 132.172 132.023C131.911 131.799 131.544 131.688 131.07 131.688C130.643 131.688 130.284 131.781 129.992 131.969C129.706 132.156 129.562 132.396 129.562 132.688C129.562 132.943 129.656 133.154 129.844 133.32C130.036 133.482 130.354 133.612 130.797 133.711L132.289 134.023C133.107 134.195 133.719 134.477 134.125 134.867C134.531 135.258 134.734 135.763 134.734 136.383C134.734 136.93 134.576 137.414 134.258 137.836C133.94 138.258 133.5 138.586 132.938 138.82C132.38 139.055 131.737 139.172 131.008 139.172C129.94 139.172 129.081 138.948 128.43 138.5C127.784 138.047 127.396 137.419 127.266 136.617L129.273 136.43C129.362 136.82 129.555 137.117 129.852 137.32C130.154 137.518 130.539 137.617 131.008 137.617C131.497 137.617 131.891 137.518 132.188 137.32C132.484 137.117 132.633 136.87 132.633 136.578C132.633 136.089 132.242 135.755 131.461 135.578L129.969 135.266C129.13 135.083 128.51 134.789 128.109 134.383C127.708 133.971 127.508 133.448 127.508 132.812C127.508 132.271 127.656 131.802 127.953 131.406C128.25 131.01 128.664 130.703 129.195 130.484C129.727 130.266 130.341 130.156 131.039 130.156C132.065 130.156 132.87 130.378 133.453 130.82C134.042 131.258 134.406 131.846 134.547 132.586ZM137.898 127.359V139H135.844V127.359H137.898ZM141.938 139.18C141.38 139.18 140.88 139.081 140.438 138.883C139.995 138.68 139.646 138.383 139.391 137.992C139.135 137.602 139.008 137.12 139.008 136.547C139.008 136.057 139.099 135.651 139.281 135.328C139.464 135.005 139.711 134.747 140.023 134.555C140.341 134.362 140.698 134.216 141.094 134.117C141.49 134.013 141.898 133.94 142.32 133.898C142.836 133.841 143.253 133.792 143.57 133.75C143.888 133.708 144.117 133.641 144.258 133.547C144.404 133.453 144.477 133.307 144.477 133.109V133.07C144.477 132.648 144.352 132.32 144.102 132.086C143.852 131.852 143.487 131.734 143.008 131.734C142.503 131.734 142.102 131.844 141.805 132.062C141.513 132.281 141.315 132.539 141.211 132.836L139.297 132.562C139.448 132.031 139.698 131.589 140.047 131.234C140.396 130.875 140.82 130.607 141.32 130.43C141.826 130.247 142.383 130.156 142.992 130.156C143.409 130.156 143.826 130.206 144.242 130.305C144.659 130.398 145.042 130.56 145.391 130.789C145.74 131.018 146.018 131.326 146.227 131.711C146.435 132.096 146.539 132.578 146.539 133.156V139H144.562V137.797H144.5C144.375 138.036 144.198 138.263 143.969 138.477C143.745 138.685 143.464 138.854 143.125 138.984C142.792 139.115 142.396 139.18 141.938 139.18ZM142.461 137.664C142.878 137.664 143.237 137.583 143.539 137.422C143.841 137.255 144.076 137.036 144.242 136.766C144.409 136.49 144.492 136.19 144.492 135.867V134.844C144.424 134.896 144.315 134.945 144.164 134.992C144.013 135.034 143.841 135.073 143.648 135.109C143.456 135.146 143.266 135.177 143.078 135.203C142.896 135.229 142.737 135.25 142.602 135.266C142.294 135.307 142.018 135.378 141.773 135.477C141.534 135.57 141.344 135.701 141.203 135.867C141.062 136.034 140.992 136.25 140.992 136.516C140.992 136.896 141.13 137.182 141.406 137.375C141.682 137.568 142.034 137.664 142.461 137.664ZM152.414 130.266V131.859H147.406V130.266H152.414ZM148.633 128.188H150.688V136.375C150.688 136.719 150.763 136.974 150.914 137.141C151.065 137.302 151.305 137.383 151.633 137.383C151.721 137.383 151.82 137.375 151.93 137.359C152.039 137.344 152.138 137.326 152.227 137.305L152.578 138.914C152.359 138.982 152.138 139.031 151.914 139.062C151.69 139.099 151.466 139.117 151.242 139.117C150.43 139.117 149.792 138.904 149.328 138.477C148.865 138.044 148.633 137.456 148.633 136.711V128.188ZM157.32 139.172C156.445 139.172 155.69 138.99 155.055 138.625C154.419 138.255 153.93 137.734 153.586 137.062C153.247 136.391 153.078 135.599 153.078 134.688C153.078 133.786 153.247 132.997 153.586 132.32C153.924 131.638 154.401 131.107 155.016 130.727C155.63 130.346 156.354 130.156 157.188 130.156C157.724 130.156 158.232 130.242 158.711 130.414C159.195 130.586 159.622 130.852 159.992 131.211C160.367 131.57 160.661 132.029 160.875 132.586C161.089 133.138 161.195 133.797 161.195 134.562V135.203H154.039V133.82H160.172L159.211 134.227C159.211 133.732 159.135 133.302 158.984 132.938C158.833 132.568 158.609 132.279 158.312 132.07C158.016 131.862 157.646 131.758 157.203 131.758C156.76 131.758 156.383 131.862 156.07 132.07C155.758 132.279 155.521 132.56 155.359 132.914C155.198 133.263 155.117 133.654 155.117 134.086V135.047C155.117 135.578 155.208 136.034 155.391 136.414C155.578 136.789 155.839 137.076 156.172 137.273C156.51 137.471 156.904 137.57 157.352 137.57C157.643 137.57 157.909 137.529 158.148 137.445C158.393 137.362 158.602 137.237 158.773 137.07C158.951 136.898 159.086 136.688 159.18 136.438L161.102 136.664C160.977 137.169 160.745 137.612 160.406 137.992C160.073 138.367 159.643 138.659 159.117 138.867C158.596 139.07 157.997 139.172 157.32 139.172Z" fill="white"/>
</g>
<rect x="34" y="7" width="188" height="167" rx="23" stroke="#363636" stroke-opacity="0.1" stroke-width="2"/>
</g>
<defs>
<filter id="filter0_dddd_564_3912" x="0" y="0" width="256" height="292" filterUnits="userSpaceOnUse" color-interpolation-filters="sRGB">
<feFlood flood-opacity="0" result="BackgroundImageFix"/>
<feColorMatrix in="SourceAlpha" type="matrix" values="0 0 0 0 0 0 0 0 0 0 0 0 0 0 0 0 0 0 127 0" result="hardAlpha"/>
<feOffset dy="5"/>
<feGaussianBlur stdDeviation="5.5"/>
<feColorMatrix type="matrix" values="0 0 0 0 0 0 0 0 0 0 0 0 0 0 0 0 0 0 0.1 0"/>
<feBlend mode="normal" in2="BackgroundImageFix" result="effect1_dropShadow_564_3912"/>
<feColorMatrix in="SourceAlpha" type="matrix" values="0 0 0 0 0 0 0 0 0 0 0 0 0 0 0 0 0 0 127 0" result="hardAlpha"/>
<feOffset dy="21"/>
<feGaussianBlur stdDeviation="10.5"/>
<feColorMatrix type="matrix" values="0 0 0 0 0 0 0 0 0 0 0 0 0 0 0 0 0 0 0.09 0"/>
<feBlend mode="normal" in2="effect1_dropShadow_564_3912" result="effect2_dropShadow_564_3912"/>
<feColorMatrix in="SourceAlpha" type="matrix" values="0 0 0 0 0 0 0 0 0 0 0 0 0 0 0 0 0 0 127 0" result="hardAlpha"/>
<feOffset dy="47"/>
<feGaussianBlur stdDeviation="14"/>
<feColorMatrix type="matrix" values="0 0 0 0 0 0 0 0 0 0 0 0 0 0 0 0 0 0 0.05 0"/>
<feBlend mode="normal" in2="effect2_dropShadow_564_3912" result="effect3_dropShadow_564_3912"/>
<feColorMatrix in="SourceAlpha" type="matrix" values="0 0 0 0 0 0 0 0 0 0 0 0 0 0 0 0 0 0 127 0" result="hardAlpha"/>
<feOffset dy="84"/>
<feGaussianBlur stdDeviation="16.5"/>
<feColorMatrix type="matrix" values="0 0 0 0 0 0 0 0 0 0 0 0 0 0 0 0 0 0 0.01 0"/>
<feBlend mode="normal" in2="effect3_dropShadow_564_3912" result="effect4_dropShadow_564_3912"/>
<feBlend mode="normal" in="SourceGraphic" in2="effect4_dropShadow_564_3912" result="shape"/>
</filter>
<filter id="filter1_dddd_564_3912" x="91.4219" y="38" width="73.1523" height="76" filterUnits="userSpaceOnUse" color-interpolation-filters="sRGB">
<feFlood flood-opacity="0" result="BackgroundImageFix"/>
<feColorMatrix in="SourceAlpha" type="matrix" values="0 0 0 0 0 0 0 0 0 0 0 0 0 0 0 0 0 0 127 0" result="hardAlpha"/>
<feOffset dy="1"/>
<feGaussianBlur stdDeviation="0.5"/>
<feColorMatrix type="matrix" values="0 0 0 0 0.470588 0 0 0 0 0.470588 0 0 0 0 0.470588 0 0 0 0.1 0"/>
<feBlend mode="normal" in2="BackgroundImageFix" result="effect1_dropShadow_564_3912"/>
<feColorMatrix in="SourceAlpha" type="matrix" values="0 0 0 0 0 0 0 0 0 0 0 0 0 0 0 0 0 0 127 0" result="hardAlpha"/>
<feOffset dy="2"/>
<feGaussianBlur stdDeviation="1"/>
<feColorMatrix type="matrix" values="0 0 0 0 0.470588 0 0 0 0 0.470588 0 0 0 0 0.470588 0 0 0 0.09 0"/>
<feBlend mode="normal" in2="effect1_dropShadow_564_3912" result="effect2_dropShadow_564_3912"/>
<feColorMatrix in="SourceAlpha" type="matrix" values="0 0 0 0 0 0 0 0 0 0 0 0 0 0 0 0 0 0 127 0" result="hardAlpha"/>
<feOffset dy="5"/>
<feGaussianBlur stdDeviation="1.5"/>
<feColorMatrix type="matrix" values="0 0 0 0 0.470588 0 0 0 0 0.470588 0 0 0 0 0.470588 0 0 0 0.05 0"/>
<feBlend mode="normal" in2="effect2_dropShadow_564_3912" result="effect3_dropShadow_564_3912"/>
<feColorMatrix in="SourceAlpha" type="matrix" values="0 0 0 0 0 0 0 0 0 0 0 0 0 0 0 0 0 0 127 0" result="hardAlpha"/>
<feOffset dy="10"/>
<feGaussianBlur stdDeviation="2"/>
<feColorMatrix type="matrix" values="0 0 0 0 0.470588 0 0 0 0 0.470588 0 0 0 0 0.470588 0 0 0 0.01 0"/>
<feBlend mode="normal" in2="effect3_dropShadow_564_3912" result="effect4_dropShadow_564_3912"/>
<feBlend mode="normal" in="SourceGraphic" in2="effect4_dropShadow_564_3912" result="shape"/>
</filter>
<clipPath id="clip0_564_3912">
<rect x="33" y="6" width="190" height="169" rx="24" fill="white"/>
</clipPath>
</defs>
</svg>
