<svg width="256" height="292" viewBox="0 0 256 292" fill="none" xmlns="http://www.w3.org/2000/svg">
<g filter="url(#filter0_dddd_564_3863)">
<rect x="33" y="6" width="190" height="169" rx="24" fill="#031239"/>
<rect x="34" y="7" width="188" height="167" rx="23" stroke="#363636" stroke-opacity="0.1" stroke-width="2"/>
<g filter="url(#filter1_dddd_564_3863)">
<rect x="95.4219" y="38" width="65.1525" height="62" rx="13" fill="white"/>
<rect x="95.9219" y="38.5" width="64.1525" height="61" rx="12.5" stroke="#EAE9F5"/>
</g>
<path d="M117.2 55.4C116.457 55.4 115.745 55.695 115.22 56.2201C114.695 56.7452 114.4 57.4574 114.4 58.2V63C114.4 63.3183 114.274 63.6235 114.049 63.8485C113.823 64.0736 113.518 64.2 113.2 64.2C112.882 64.2 112.577 64.0736 112.351 63.8485C112.126 63.6235 112 63.3183 112 63V58.2C112 56.8209 112.548 55.4982 113.523 54.523C114.498 53.5479 115.821 53 117.2 53H122C122.318 53 122.623 53.1264 122.849 53.3515C123.074 53.5765 123.2 53.8817 123.2 54.2C123.2 54.5183 123.074 54.8235 122.849 55.0485C122.623 55.2736 122.318 55.4 122 55.4H117.2ZM117.2 82.6C116.457 82.6 115.745 82.305 115.22 81.7799C114.695 81.2548 114.4 80.5426 114.4 79.8V75C114.4 74.6817 114.274 74.3765 114.049 74.1515C113.823 73.9264 113.518 73.8 113.2 73.8C112.882 73.8 112.577 73.9264 112.351 74.1515C112.126 74.3765 112 74.6817 112 75V79.8C112 80.4829 112.135 81.1591 112.396 81.79C112.657 82.4208 113.04 82.9941 113.523 83.477C114.006 83.9598 114.579 84.3429 115.21 84.6042C115.841 84.8655 116.517 85 117.2 85H122C122.318 85 122.623 84.8736 122.849 84.6485C123.074 84.4235 123.2 84.1183 123.2 83.8C123.2 83.4817 123.074 83.1765 122.849 82.9515C122.623 82.7264 122.318 82.6 122 82.6H117.2ZM141.6 58.2C141.6 57.4574 141.305 56.7452 140.78 56.2201C140.255 55.695 139.543 55.4 138.8 55.4H134C133.682 55.4 133.377 55.2736 133.151 55.0485C132.926 54.8235 132.8 54.5183 132.8 54.2C132.8 53.8817 132.926 53.5765 133.151 53.3515C133.377 53.1264 133.682 53 134 53H138.8C139.483 53 140.159 53.1345 140.79 53.3958C141.421 53.6572 141.994 54.0402 142.477 54.523C142.96 55.0059 143.343 55.5792 143.604 56.21C143.865 56.8409 144 57.5171 144 58.2V63C144 63.3183 143.874 63.6235 143.649 63.8485C143.423 64.0736 143.118 64.2 142.8 64.2C142.482 64.2 142.177 64.0736 141.951 63.8485C141.726 63.6235 141.6 63.3183 141.6 63V58.2ZM138.8 82.6C139.543 82.6 140.255 82.305 140.78 81.7799C141.305 81.2548 141.6 80.5426 141.6 79.8V75C141.6 74.6817 141.726 74.3765 141.951 74.1515C142.177 73.9264 142.482 73.8 142.8 73.8C143.118 73.8 143.423 73.9264 143.649 74.1515C143.874 74.3765 144 74.6817 144 75V79.8C144 80.4829 143.865 81.1591 143.604 81.79C143.343 82.4208 142.96 82.9941 142.477 83.477C141.994 83.9598 141.421 84.3429 140.79 84.6042C140.159 84.8655 139.483 85 138.8 85H134C133.682 85 133.377 84.8736 133.151 84.6485C132.926 84.4235 132.8 84.1183 132.8 83.8C132.8 83.4817 132.926 83.1765 133.151 82.9515C133.377 82.7264 133.682 82.6 134 82.6H138.8ZM121.2 61C120.882 61 120.577 61.1264 120.351 61.3515C120.126 61.5765 120 61.8817 120 62.2C120 62.5183 120.126 62.8235 120.351 63.0485C120.577 63.2736 120.882 63.4 121.2 63.4H134.8C135.118 63.4 135.423 63.2736 135.649 63.0485C135.874 62.8235 136 62.5183 136 62.2C136 61.8817 135.874 61.5765 135.649 61.3515C135.423 61.1264 135.118 61 134.8 61H121.2ZM120 68.6C120 68.2817 120.126 67.9765 120.351 67.7515C120.577 67.5264 120.882 67.4 121.2 67.4H134.8C135.118 67.4 135.423 67.5264 135.649 67.7515C135.874 67.9765 136 68.2817 136 68.6C136 68.9183 135.874 69.2235 135.649 69.4485C135.423 69.6736 135.118 69.8 134.8 69.8H121.2C120.882 69.8 120.577 69.6736 120.351 69.4485C120.126 69.2235 120 68.9183 120 68.6ZM121.2 73.8C120.882 73.8 120.577 73.9264 120.351 74.1515C120.126 74.3765 120 74.6817 120 75C120 75.3183 120.126 75.6235 120.351 75.8485C120.577 76.0736 120.882 76.2 121.2 76.2H128.4C128.718 76.2 129.023 76.0736 129.249 75.8485C129.474 75.6235 129.6 75.3183 129.6 75C129.6 74.6817 129.474 74.3765 129.249 74.1515C129.023 73.9264 128.718 73.8 128.4 73.8H121.2Z" fill="#031239"/>
<path d="M78.1641 139V127.359H82.5312C83.4271 127.359 84.1771 127.516 84.7812 127.828C85.3906 128.141 85.8516 128.578 86.1641 129.141C86.4766 129.698 86.6328 130.346 86.6328 131.086C86.6328 131.831 86.474 132.477 86.1562 133.023C85.8438 133.57 85.3802 133.992 84.7656 134.289C84.151 134.586 83.3958 134.734 82.5 134.734H79.3984V132.992H82.2109C82.737 132.992 83.1667 132.919 83.5 132.773C83.8385 132.628 84.0859 132.414 84.2422 132.133C84.4036 131.846 84.4844 131.497 84.4844 131.086C84.4844 130.674 84.4036 130.323 84.2422 130.031C84.0807 129.734 83.8333 129.51 83.5 129.359C83.1667 129.203 82.7344 129.125 82.2031 129.125H80.2734V139H78.1641ZM84.7031 139L81.8828 133.719H84.1797L87.0625 139H84.7031ZM91.6328 139.172C90.7578 139.172 90.0026 138.99 89.3672 138.625C88.7318 138.255 88.2422 137.734 87.8984 137.062C87.5599 136.391 87.3906 135.599 87.3906 134.688C87.3906 133.786 87.5599 132.997 87.8984 132.32C88.237 131.638 88.7135 131.107 89.3281 130.727C89.9427 130.346 90.6667 130.156 91.5 130.156C92.0365 130.156 92.5443 130.242 93.0234 130.414C93.5078 130.586 93.9349 130.852 94.3047 131.211C94.6797 131.57 94.974 132.029 95.1875 132.586C95.401 133.138 95.5078 133.797 95.5078 134.562V135.203H88.3516V133.82H94.4844L93.5234 134.227C93.5234 133.732 93.4479 133.302 93.2969 132.938C93.1458 132.568 92.9219 132.279 92.625 132.07C92.3281 131.862 91.9583 131.758 91.5156 131.758C91.0729 131.758 90.6953 131.862 90.3828 132.07C90.0703 132.279 89.8333 132.56 89.6719 132.914C89.5104 133.263 89.4297 133.654 89.4297 134.086V135.047C89.4297 135.578 89.5208 136.034 89.7031 136.414C89.8906 136.789 90.151 137.076 90.4844 137.273C90.8229 137.471 91.2161 137.57 91.6641 137.57C91.9557 137.57 92.2214 137.529 92.4609 137.445C92.7057 137.362 92.9141 137.237 93.0859 137.07C93.263 136.898 93.3984 136.688 93.4922 136.438L95.4141 136.664C95.2891 137.169 95.0573 137.612 94.7188 137.992C94.3854 138.367 93.9557 138.659 93.4297 138.867C92.9089 139.07 92.3099 139.172 91.6328 139.172ZM99.1406 139.18C98.5833 139.18 98.0833 139.081 97.6406 138.883C97.1979 138.68 96.849 138.383 96.5938 137.992C96.3385 137.602 96.2109 137.12 96.2109 136.547C96.2109 136.057 96.3021 135.651 96.4844 135.328C96.6667 135.005 96.9141 134.747 97.2266 134.555C97.5443 134.362 97.901 134.216 98.2969 134.117C98.6927 134.013 99.1016 133.94 99.5234 133.898C100.039 133.841 100.456 133.792 100.773 133.75C101.091 133.708 101.32 133.641 101.461 133.547C101.607 133.453 101.68 133.307 101.68 133.109V133.07C101.68 132.648 101.555 132.32 101.305 132.086C101.055 131.852 100.69 131.734 100.211 131.734C99.7057 131.734 99.3047 131.844 99.0078 132.062C98.7161 132.281 98.5182 132.539 98.4141 132.836L96.5 132.562C96.651 132.031 96.901 131.589 97.25 131.234C97.599 130.875 98.0234 130.607 98.5234 130.43C99.0286 130.247 99.5859 130.156 100.195 130.156C100.612 130.156 101.029 130.206 101.445 130.305C101.862 130.398 102.245 130.56 102.594 130.789C102.943 131.018 103.221 131.326 103.43 131.711C103.638 132.096 103.742 132.578 103.742 133.156V139H101.766V137.797H101.703C101.578 138.036 101.401 138.263 101.172 138.477C100.948 138.685 100.667 138.854 100.328 138.984C99.9948 139.115 99.599 139.18 99.1406 139.18ZM99.6641 137.664C100.081 137.664 100.44 137.583 100.742 137.422C101.044 137.255 101.279 137.036 101.445 136.766C101.612 136.49 101.695 136.19 101.695 135.867V134.844C101.628 134.896 101.518 134.945 101.367 134.992C101.216 135.034 101.044 135.073 100.852 135.109C100.659 135.146 100.469 135.177 100.281 135.203C100.099 135.229 99.9401 135.25 99.8047 135.266C99.4974 135.307 99.2214 135.378 98.9766 135.477C98.737 135.57 98.5469 135.701 98.4062 135.867C98.2656 136.034 98.1953 136.25 98.1953 136.516C98.1953 136.896 98.3333 137.182 98.6094 137.375C98.8854 137.568 99.237 137.664 99.6641 137.664ZM108.484 139.156C107.802 139.156 107.188 138.982 106.641 138.633C106.099 138.279 105.672 137.766 105.359 137.094C105.047 136.422 104.891 135.607 104.891 134.648C104.891 133.674 105.049 132.854 105.367 132.188C105.69 131.521 106.122 131.016 106.664 130.672C107.206 130.328 107.812 130.156 108.484 130.156C109 130.156 109.422 130.242 109.75 130.414C110.078 130.586 110.339 130.794 110.531 131.039C110.729 131.279 110.88 131.503 110.984 131.711H111.07V127.359H113.117V139H111.109V137.617H110.984C110.875 137.831 110.721 138.057 110.523 138.297C110.326 138.531 110.062 138.734 109.734 138.906C109.406 139.073 108.99 139.156 108.484 139.156ZM109.055 137.469C109.492 137.469 109.862 137.352 110.164 137.117C110.471 136.878 110.706 136.547 110.867 136.125C111.029 135.698 111.109 135.203 111.109 134.641C111.109 134.073 111.029 133.581 110.867 133.164C110.711 132.742 110.479 132.417 110.172 132.188C109.87 131.958 109.497 131.844 109.055 131.844C108.602 131.844 108.221 131.964 107.914 132.203C107.607 132.443 107.375 132.773 107.219 133.195C107.068 133.617 106.992 134.099 106.992 134.641C106.992 135.182 107.07 135.667 107.227 136.094C107.383 136.521 107.612 136.857 107.914 137.102C108.221 137.346 108.602 137.469 109.055 137.469ZM114.641 139V130.266H116.695V139H114.641ZM115.672 129.039C115.344 129.039 115.062 128.93 114.828 128.711C114.594 128.492 114.477 128.229 114.477 127.922C114.477 127.609 114.594 127.344 114.828 127.125C115.062 126.906 115.344 126.797 115.672 126.797C115.995 126.797 116.273 126.906 116.508 127.125C116.742 127.344 116.859 127.607 116.859 127.914C116.859 128.227 116.742 128.492 116.508 128.711C116.273 128.93 115.995 129.039 115.672 129.039ZM120.273 133.891V139H118.219V130.266H120.234V131.758H120.336C120.534 131.268 120.844 130.88 121.266 130.594C121.693 130.302 122.234 130.156 122.891 130.156C123.495 130.156 124.021 130.284 124.469 130.539C124.917 130.794 125.263 131.169 125.508 131.664C125.758 132.154 125.883 132.747 125.883 133.445V139H123.828V133.766C123.828 133.182 123.677 132.727 123.375 132.398C123.073 132.065 122.656 131.898 122.125 131.898C121.766 131.898 121.445 131.977 121.164 132.133C120.888 132.289 120.669 132.516 120.508 132.812C120.352 133.104 120.273 133.464 120.273 133.891ZM131.188 142.453C130.078 142.453 129.206 142.237 128.57 141.805C127.935 141.378 127.526 140.859 127.344 140.25L129.188 139.797C129.271 139.969 129.393 140.138 129.555 140.305C129.716 140.477 129.932 140.617 130.203 140.727C130.474 140.841 130.815 140.898 131.227 140.898C131.81 140.898 132.292 140.755 132.672 140.469C133.057 140.188 133.25 139.727 133.25 139.086V137.438H133.133C133.034 137.646 132.883 137.862 132.68 138.086C132.477 138.305 132.208 138.492 131.875 138.648C131.547 138.799 131.13 138.875 130.625 138.875C129.958 138.875 129.352 138.716 128.805 138.398C128.263 138.081 127.831 137.607 127.508 136.977C127.19 136.346 127.031 135.557 127.031 134.609C127.031 133.651 127.19 132.841 127.508 132.18C127.831 131.518 128.266 131.016 128.812 130.672C129.359 130.328 129.969 130.156 130.641 130.156C131.151 130.156 131.573 130.242 131.906 130.414C132.24 130.586 132.505 130.794 132.703 131.039C132.901 131.279 133.055 131.503 133.164 131.711H133.273V130.266H135.281V139.141C135.281 139.885 135.104 140.503 134.75 140.992C134.396 141.482 133.909 141.846 133.289 142.086C132.674 142.331 131.974 142.453 131.188 142.453ZM131.203 137.258C131.859 137.258 132.365 137.023 132.719 136.555C133.078 136.081 133.258 135.427 133.258 134.594C133.258 134.042 133.18 133.56 133.023 133.148C132.867 132.737 132.635 132.417 132.328 132.188C132.021 131.958 131.646 131.844 131.203 131.844C130.745 131.844 130.362 131.964 130.055 132.203C129.747 132.443 129.516 132.771 129.359 133.188C129.208 133.599 129.133 134.068 129.133 134.594C129.133 135.125 129.211 135.591 129.367 135.992C129.523 136.393 129.755 136.706 130.062 136.93C130.375 137.148 130.755 137.258 131.203 137.258ZM140.258 127.359H142.844L146.297 135.789H146.43L149.891 127.359H152.508V139H150.438V131H150.344L147.109 138.961H145.594L142.398 130.984H142.289V139H140.258V127.359ZM156.625 139.18C156.068 139.18 155.568 139.081 155.125 138.883C154.682 138.68 154.333 138.383 154.078 137.992C153.823 137.602 153.695 137.12 153.695 136.547C153.695 136.057 153.786 135.651 153.969 135.328C154.151 135.005 154.398 134.747 154.711 134.555C155.029 134.362 155.385 134.216 155.781 134.117C156.177 134.013 156.586 133.94 157.008 133.898C157.523 133.841 157.94 133.792 158.258 133.75C158.576 133.708 158.805 133.641 158.945 133.547C159.091 133.453 159.164 133.307 159.164 133.109V133.07C159.164 132.648 159.039 132.32 158.789 132.086C158.539 131.852 158.174 131.734 157.695 131.734C157.19 131.734 156.789 131.844 156.492 132.062C156.201 132.281 156.003 132.539 155.898 132.836L153.984 132.562C154.135 132.031 154.385 131.589 154.734 131.234C155.083 130.875 155.508 130.607 156.008 130.43C156.513 130.247 157.07 130.156 157.68 130.156C158.096 130.156 158.513 130.206 158.93 130.305C159.346 130.398 159.729 130.56 160.078 130.789C160.427 131.018 160.706 131.326 160.914 131.711C161.122 132.096 161.227 132.578 161.227 133.156V139H159.25V137.797H159.188C159.062 138.036 158.885 138.263 158.656 138.477C158.432 138.685 158.151 138.854 157.812 138.984C157.479 139.115 157.083 139.18 156.625 139.18ZM157.148 137.664C157.565 137.664 157.924 137.583 158.227 137.422C158.529 137.255 158.763 137.036 158.93 136.766C159.096 136.49 159.18 136.19 159.18 135.867V134.844C159.112 134.896 159.003 134.945 158.852 134.992C158.701 135.034 158.529 135.073 158.336 135.109C158.143 135.146 157.953 135.177 157.766 135.203C157.583 135.229 157.424 135.25 157.289 135.266C156.982 135.307 156.706 135.378 156.461 135.477C156.221 135.57 156.031 135.701 155.891 135.867C155.75 136.034 155.68 136.25 155.68 136.516C155.68 136.896 155.818 137.182 156.094 137.375C156.37 137.568 156.721 137.664 157.148 137.664ZM169.641 132.586L167.773 132.781C167.695 132.495 167.526 132.242 167.266 132.023C167.005 131.799 166.638 131.688 166.164 131.688C165.737 131.688 165.378 131.781 165.086 131.969C164.799 132.156 164.656 132.396 164.656 132.688C164.656 132.943 164.75 133.154 164.938 133.32C165.13 133.482 165.448 133.612 165.891 133.711L167.383 134.023C168.201 134.195 168.812 134.477 169.219 134.867C169.625 135.258 169.828 135.763 169.828 136.383C169.828 136.93 169.669 137.414 169.352 137.836C169.034 138.258 168.594 138.586 168.031 138.82C167.474 139.055 166.831 139.172 166.102 139.172C165.034 139.172 164.174 138.948 163.523 138.5C162.878 138.047 162.49 137.419 162.359 136.617L164.367 136.43C164.456 136.82 164.648 137.117 164.945 137.32C165.247 137.518 165.633 137.617 166.102 137.617C166.591 137.617 166.984 137.518 167.281 137.32C167.578 137.117 167.727 136.87 167.727 136.578C167.727 136.089 167.336 135.755 166.555 135.578L165.062 135.266C164.224 135.083 163.604 134.789 163.203 134.383C162.802 133.971 162.602 133.448 162.602 132.812C162.602 132.271 162.75 131.802 163.047 131.406C163.344 131.01 163.758 130.703 164.289 130.484C164.82 130.266 165.435 130.156 166.133 130.156C167.159 130.156 167.964 130.378 168.547 130.82C169.135 131.258 169.5 131.846 169.641 132.586ZM172.812 136.266L172.805 133.773H173.141L176.273 130.266H178.68L174.82 134.57H174.391L172.812 136.266ZM170.938 139V127.359H172.992V139H170.938ZM176.414 139L173.57 135.031L174.961 133.578L178.875 139H176.414Z" fill="white"/>
</g>
<defs>
<filter id="filter0_dddd_564_3863" x="0" y="0" width="256" height="292" filterUnits="userSpaceOnUse" color-interpolation-filters="sRGB">
<feFlood flood-opacity="0" result="BackgroundImageFix"/>
<feColorMatrix in="SourceAlpha" type="matrix" values="0 0 0 0 0 0 0 0 0 0 0 0 0 0 0 0 0 0 127 0" result="hardAlpha"/>
<feOffset dy="5"/>
<feGaussianBlur stdDeviation="5.5"/>
<feColorMatrix type="matrix" values="0 0 0 0 0 0 0 0 0 0 0 0 0 0 0 0 0 0 0.1 0"/>
<feBlend mode="normal" in2="BackgroundImageFix" result="effect1_dropShadow_564_3863"/>
<feColorMatrix in="SourceAlpha" type="matrix" values="0 0 0 0 0 0 0 0 0 0 0 0 0 0 0 0 0 0 127 0" result="hardAlpha"/>
<feOffset dy="21"/>
<feGaussianBlur stdDeviation="10.5"/>
<feColorMatrix type="matrix" values="0 0 0 0 0 0 0 0 0 0 0 0 0 0 0 0 0 0 0.09 0"/>
<feBlend mode="normal" in2="effect1_dropShadow_564_3863" result="effect2_dropShadow_564_3863"/>
<feColorMatrix in="SourceAlpha" type="matrix" values="0 0 0 0 0 0 0 0 0 0 0 0 0 0 0 0 0 0 127 0" result="hardAlpha"/>
<feOffset dy="47"/>
<feGaussianBlur stdDeviation="14"/>
<feColorMatrix type="matrix" values="0 0 0 0 0 0 0 0 0 0 0 0 0 0 0 0 0 0 0.05 0"/>
<feBlend mode="normal" in2="effect2_dropShadow_564_3863" result="effect3_dropShadow_564_3863"/>
<feColorMatrix in="SourceAlpha" type="matrix" values="0 0 0 0 0 0 0 0 0 0 0 0 0 0 0 0 0 0 127 0" result="hardAlpha"/>
<feOffset dy="84"/>
<feGaussianBlur stdDeviation="16.5"/>
<feColorMatrix type="matrix" values="0 0 0 0 0 0 0 0 0 0 0 0 0 0 0 0 0 0 0.01 0"/>
<feBlend mode="normal" in2="effect3_dropShadow_564_3863" result="effect4_dropShadow_564_3863"/>
<feBlend mode="normal" in="SourceGraphic" in2="effect4_dropShadow_564_3863" result="shape"/>
</filter>
<filter id="filter1_dddd_564_3863" x="91.4219" y="38" width="73.1523" height="76" filterUnits="userSpaceOnUse" color-interpolation-filters="sRGB">
<feFlood flood-opacity="0" result="BackgroundImageFix"/>
<feColorMatrix in="SourceAlpha" type="matrix" values="0 0 0 0 0 0 0 0 0 0 0 0 0 0 0 0 0 0 127 0" result="hardAlpha"/>
<feOffset dy="1"/>
<feGaussianBlur stdDeviation="0.5"/>
<feColorMatrix type="matrix" values="0 0 0 0 0.470588 0 0 0 0 0.470588 0 0 0 0 0.470588 0 0 0 0.1 0"/>
<feBlend mode="normal" in2="BackgroundImageFix" result="effect1_dropShadow_564_3863"/>
<feColorMatrix in="SourceAlpha" type="matrix" values="0 0 0 0 0 0 0 0 0 0 0 0 0 0 0 0 0 0 127 0" result="hardAlpha"/>
<feOffset dy="2"/>
<feGaussianBlur stdDeviation="1"/>
<feColorMatrix type="matrix" values="0 0 0 0 0.470588 0 0 0 0 0.470588 0 0 0 0 0.470588 0 0 0 0.09 0"/>
<feBlend mode="normal" in2="effect1_dropShadow_564_3863" result="effect2_dropShadow_564_3863"/>
<feColorMatrix in="SourceAlpha" type="matrix" values="0 0 0 0 0 0 0 0 0 0 0 0 0 0 0 0 0 0 127 0" result="hardAlpha"/>
<feOffset dy="5"/>
<feGaussianBlur stdDeviation="1.5"/>
<feColorMatrix type="matrix" values="0 0 0 0 0.470588 0 0 0 0 0.470588 0 0 0 0 0.470588 0 0 0 0.05 0"/>
<feBlend mode="normal" in2="effect2_dropShadow_564_3863" result="effect3_dropShadow_564_3863"/>
<feColorMatrix in="SourceAlpha" type="matrix" values="0 0 0 0 0 0 0 0 0 0 0 0 0 0 0 0 0 0 127 0" result="hardAlpha"/>
<feOffset dy="10"/>
<feGaussianBlur stdDeviation="2"/>
<feColorMatrix type="matrix" values="0 0 0 0 0.470588 0 0 0 0 0.470588 0 0 0 0 0.470588 0 0 0 0.01 0"/>
<feBlend mode="normal" in2="effect3_dropShadow_564_3863" result="effect4_dropShadow_564_3863"/>
<feBlend mode="normal" in="SourceGraphic" in2="effect4_dropShadow_564_3863" result="shape"/>
</filter>
</defs>
</svg>
