<svg width="306" height="383" viewBox="0 0 306 383" fill="none" xmlns="http://www.w3.org/2000/svg">
<g filter="url(#filter0_dddd_564_3925)">
<rect x="58" y="11" width="190" height="169" rx="24" fill="#2353FF"/>
<rect x="59" y="12" width="188" height="167" rx="23" stroke="white" stroke-width="2"/>
<g filter="url(#filter1_dddd_564_3925)">
<rect x="120.422" y="43" width="65.1525" height="62" rx="13" fill="white"/>
<rect x="120.922" y="43.5" width="64.1525" height="61" rx="12.5" stroke="#EAE9F5"/>
</g>
<path d="M137 61.0476C137 60.2393 137.321 59.4642 137.893 58.8926C138.464 58.3211 139.239 58 140.048 58H150.714C151.523 58 152.298 58.3211 152.869 58.8926C153.441 59.4642 153.762 60.2393 153.762 61.0476V70.1905C153.762 70.9988 153.441 71.7739 152.869 72.3455C152.298 72.917 151.523 73.2381 150.714 73.2381H140.048C139.239 73.2381 138.464 72.917 137.893 72.3455C137.321 71.7739 137 70.9988 137 70.1905V61.0476ZM140.81 62.5714C140.607 62.5714 140.414 62.6517 140.271 62.7946C140.128 62.9375 140.048 63.1313 140.048 63.3333C140.048 63.5354 140.128 63.7292 140.271 63.8721C140.414 64.015 140.607 64.0952 140.81 64.0952H149.952C150.154 64.0952 150.348 64.015 150.491 63.8721C150.634 63.7292 150.714 63.5354 150.714 63.3333C150.714 63.1313 150.634 62.9375 150.491 62.7946C150.348 62.6517 150.154 62.5714 149.952 62.5714H140.81ZM140.81 67.1429C140.607 67.1429 140.414 67.2231 140.271 67.366C140.128 67.5089 140.048 67.7027 140.048 67.9048C140.048 68.1068 140.128 68.3006 140.271 68.4435C140.414 68.5864 140.607 68.6667 140.81 68.6667H149.952C150.154 68.6667 150.348 68.5864 150.491 68.4435C150.634 68.3006 150.714 68.1068 150.714 67.9048C150.714 67.7027 150.634 67.5089 150.491 67.366C150.348 67.2231 150.154 67.1429 149.952 67.1429H140.81ZM141.571 74.7619H143.857V85.0476C143.857 85.3646 143.912 85.6693 144.014 85.9528L152.887 77.2655C153.495 76.6701 154.304 76.3222 155.154 76.2895C156.005 76.2568 156.837 76.5417 157.489 77.0888L157.684 77.2655L166.556 85.9543C166.658 85.6709 166.714 85.3661 166.714 85.0476V67.5238C166.714 66.8166 166.433 66.1383 165.933 65.6382C165.433 65.1381 164.755 64.8571 164.048 64.8571H155.286V62.5714H164.048C164.698 62.5714 165.342 62.6995 165.943 62.9484C166.544 63.1973 167.09 63.5621 167.549 64.0219C168.009 64.4818 168.374 65.0278 168.623 65.6286C168.872 66.2295 169 66.8735 169 67.5238V85.0476C169 85.698 168.872 86.342 168.623 86.9428C168.374 87.5437 168.009 88.0896 167.549 88.5495C167.09 89.0094 166.544 89.3741 165.943 89.623C165.342 89.8719 164.698 90 164.048 90H146.524C145.873 90 145.229 89.8719 144.629 89.623C144.028 89.3741 143.482 89.0094 143.022 88.5495C142.562 88.0896 142.197 87.5437 141.948 86.9428C141.7 86.342 141.571 85.698 141.571 85.0476V74.7619ZM164.931 87.5634L156.086 78.899C155.893 78.7099 155.639 78.5953 155.37 78.5755C155.1 78.5557 154.832 78.632 154.614 78.7909L154.486 78.8975L145.637 87.5634C145.914 87.661 146.213 87.7143 146.524 87.7143H164.048C164.357 87.7143 164.656 87.661 164.931 87.5634ZM160.243 67.9048C161.153 67.9048 162.026 68.2663 162.669 68.9099C163.313 69.5534 163.674 70.4263 163.674 71.3364C163.674 72.2465 163.313 73.1193 162.669 73.7629C162.026 74.4065 161.153 74.768 160.243 74.768C159.333 74.768 158.46 74.4065 157.816 73.7629C157.173 73.1193 156.811 72.2465 156.811 71.3364C156.811 70.4263 157.173 69.5534 157.816 68.9099C158.46 68.2663 159.333 67.9048 160.243 67.9048ZM160.243 70.1905C160.092 70.1905 159.943 70.2201 159.804 70.2777C159.665 70.3353 159.539 70.4197 159.432 70.5261C159.326 70.6325 159.242 70.7588 159.184 70.8979C159.126 71.0369 159.097 71.1859 159.097 71.3364C159.097 71.4869 159.126 71.6359 159.184 71.7749C159.242 71.9139 159.326 72.0403 159.432 72.1467C159.539 72.2531 159.665 72.3375 159.804 72.3951C159.943 72.4526 160.092 72.4823 160.243 72.4823C160.547 72.4823 160.838 72.3616 161.053 72.1467C161.268 71.9318 161.389 71.6403 161.389 71.3364C161.389 71.0325 161.268 70.741 161.053 70.5261C160.838 70.3112 160.547 70.1905 160.243 70.1905Z" fill="#2353FF"/>
<path d="M100.43 144H98.1719L102.281 132.359H104.875L108.977 144H106.727L103.617 134.75H103.523L100.43 144ZM100.508 139.438H106.641V141.125H100.508V139.438ZM111.883 132.359V144H109.828V132.359H111.883ZM117.758 135.266V136.859H112.75V135.266H117.758ZM113.977 133.188H116.031V141.375C116.031 141.719 116.107 141.974 116.258 142.141C116.409 142.302 116.648 142.383 116.977 142.383C117.065 142.383 117.164 142.375 117.273 142.359C117.383 142.344 117.482 142.326 117.57 142.305L117.922 143.914C117.703 143.982 117.482 144.031 117.258 144.062C117.034 144.099 116.81 144.117 116.586 144.117C115.773 144.117 115.135 143.904 114.672 143.477C114.208 143.044 113.977 142.456 113.977 141.711V133.188ZM122.664 144.172C121.789 144.172 121.034 143.99 120.398 143.625C119.763 143.255 119.273 142.734 118.93 142.062C118.591 141.391 118.422 140.599 118.422 139.688C118.422 138.786 118.591 137.997 118.93 137.32C119.268 136.638 119.745 136.107 120.359 135.727C120.974 135.346 121.698 135.156 122.531 135.156C123.068 135.156 123.576 135.242 124.055 135.414C124.539 135.586 124.966 135.852 125.336 136.211C125.711 136.57 126.005 137.029 126.219 137.586C126.432 138.138 126.539 138.797 126.539 139.562V140.203H119.383V138.82H125.516L124.555 139.227C124.555 138.732 124.479 138.302 124.328 137.938C124.177 137.568 123.953 137.279 123.656 137.07C123.359 136.862 122.99 136.758 122.547 136.758C122.104 136.758 121.727 136.862 121.414 137.07C121.102 137.279 120.865 137.56 120.703 137.914C120.542 138.263 120.461 138.654 120.461 139.086V140.047C120.461 140.578 120.552 141.034 120.734 141.414C120.922 141.789 121.182 142.076 121.516 142.273C121.854 142.471 122.247 142.57 122.695 142.57C122.987 142.57 123.253 142.529 123.492 142.445C123.737 142.362 123.945 142.237 124.117 142.07C124.294 141.898 124.43 141.688 124.523 141.438L126.445 141.664C126.32 142.169 126.089 142.612 125.75 142.992C125.417 143.367 124.987 143.659 124.461 143.867C123.94 144.07 123.341 144.172 122.664 144.172ZM127.656 144V135.266H129.648V136.734H129.742C129.898 136.224 130.172 135.833 130.562 135.562C130.953 135.286 131.398 135.148 131.898 135.148C132.008 135.148 132.133 135.154 132.273 135.164C132.419 135.174 132.539 135.188 132.633 135.203V137.094C132.544 137.062 132.406 137.036 132.219 137.016C132.031 136.995 131.852 136.984 131.68 136.984C131.299 136.984 130.961 137.065 130.664 137.227C130.367 137.388 130.133 137.609 129.961 137.891C129.794 138.172 129.711 138.5 129.711 138.875V144H127.656ZM135.461 138.891V144H133.406V135.266H135.422V136.758H135.523C135.721 136.268 136.031 135.88 136.453 135.594C136.88 135.302 137.422 135.156 138.078 135.156C138.682 135.156 139.208 135.284 139.656 135.539C140.104 135.794 140.451 136.169 140.695 136.664C140.945 137.154 141.07 137.747 141.07 138.445V144H139.016V138.766C139.016 138.182 138.865 137.727 138.562 137.398C138.26 137.065 137.844 136.898 137.312 136.898C136.953 136.898 136.633 136.977 136.352 137.133C136.076 137.289 135.857 137.516 135.695 137.812C135.539 138.104 135.461 138.464 135.461 138.891ZM145.109 144.18C144.552 144.18 144.052 144.081 143.609 143.883C143.167 143.68 142.818 143.383 142.562 142.992C142.307 142.602 142.18 142.12 142.18 141.547C142.18 141.057 142.271 140.651 142.453 140.328C142.635 140.005 142.883 139.747 143.195 139.555C143.513 139.362 143.87 139.216 144.266 139.117C144.661 139.013 145.07 138.94 145.492 138.898C146.008 138.841 146.424 138.792 146.742 138.75C147.06 138.708 147.289 138.641 147.43 138.547C147.576 138.453 147.648 138.307 147.648 138.109V138.07C147.648 137.648 147.523 137.32 147.273 137.086C147.023 136.852 146.659 136.734 146.18 136.734C145.674 136.734 145.273 136.844 144.977 137.062C144.685 137.281 144.487 137.539 144.383 137.836L142.469 137.562C142.62 137.031 142.87 136.589 143.219 136.234C143.568 135.875 143.992 135.607 144.492 135.43C144.997 135.247 145.555 135.156 146.164 135.156C146.581 135.156 146.997 135.206 147.414 135.305C147.831 135.398 148.214 135.56 148.562 135.789C148.911 136.018 149.19 136.326 149.398 136.711C149.607 137.096 149.711 137.578 149.711 138.156V144H147.734V142.797H147.672C147.547 143.036 147.37 143.263 147.141 143.477C146.917 143.685 146.635 143.854 146.297 143.984C145.964 144.115 145.568 144.18 145.109 144.18ZM145.633 142.664C146.049 142.664 146.409 142.583 146.711 142.422C147.013 142.255 147.247 142.036 147.414 141.766C147.581 141.49 147.664 141.19 147.664 140.867V139.844C147.596 139.896 147.487 139.945 147.336 139.992C147.185 140.034 147.013 140.073 146.82 140.109C146.628 140.146 146.438 140.177 146.25 140.203C146.068 140.229 145.909 140.25 145.773 140.266C145.466 140.307 145.19 140.378 144.945 140.477C144.706 140.57 144.516 140.701 144.375 140.867C144.234 141.034 144.164 141.25 144.164 141.516C144.164 141.896 144.302 142.182 144.578 142.375C144.854 142.568 145.206 142.664 145.633 142.664ZM155.586 135.266V136.859H150.578V135.266H155.586ZM151.805 133.188H153.859V141.375C153.859 141.719 153.935 141.974 154.086 142.141C154.237 142.302 154.477 142.383 154.805 142.383C154.893 142.383 154.992 142.375 155.102 142.359C155.211 142.344 155.31 142.326 155.398 142.305L155.75 143.914C155.531 143.982 155.31 144.031 155.086 144.062C154.862 144.099 154.638 144.117 154.414 144.117C153.602 144.117 152.964 143.904 152.5 143.477C152.036 143.044 151.805 142.456 151.805 141.711V133.188ZM156.719 144V135.266H158.773V144H156.719ZM157.75 134.039C157.422 134.039 157.141 133.93 156.906 133.711C156.672 133.492 156.555 133.229 156.555 132.922C156.555 132.609 156.672 132.344 156.906 132.125C157.141 131.906 157.422 131.797 157.75 131.797C158.073 131.797 158.352 131.906 158.586 132.125C158.82 132.344 158.938 132.607 158.938 132.914C158.938 133.227 158.82 133.492 158.586 133.711C158.352 133.93 158.073 134.039 157.75 134.039ZM168.094 135.266L164.984 144H162.703L159.602 135.266H161.797L163.82 141.758H163.914L165.922 135.266H168.094ZM172.492 144.172C171.617 144.172 170.862 143.99 170.227 143.625C169.591 143.255 169.102 142.734 168.758 142.062C168.419 141.391 168.25 140.599 168.25 139.688C168.25 138.786 168.419 137.997 168.758 137.32C169.096 136.638 169.573 136.107 170.188 135.727C170.802 135.346 171.526 135.156 172.359 135.156C172.896 135.156 173.404 135.242 173.883 135.414C174.367 135.586 174.794 135.852 175.164 136.211C175.539 136.57 175.833 137.029 176.047 137.586C176.26 138.138 176.367 138.797 176.367 139.562V140.203H169.211V138.82H175.344L174.383 139.227C174.383 138.732 174.307 138.302 174.156 137.938C174.005 137.568 173.781 137.279 173.484 137.07C173.188 136.862 172.818 136.758 172.375 136.758C171.932 136.758 171.555 136.862 171.242 137.07C170.93 137.279 170.693 137.56 170.531 137.914C170.37 138.263 170.289 138.654 170.289 139.086V140.047C170.289 140.578 170.38 141.034 170.562 141.414C170.75 141.789 171.01 142.076 171.344 142.273C171.682 142.471 172.076 142.57 172.523 142.57C172.815 142.57 173.081 142.529 173.32 142.445C173.565 142.362 173.773 142.237 173.945 142.07C174.122 141.898 174.258 141.688 174.352 141.438L176.273 141.664C176.148 142.169 175.917 142.612 175.578 142.992C175.245 143.367 174.815 143.659 174.289 143.867C173.768 144.07 173.169 144.172 172.492 144.172ZM185.211 135.266V136.859H180.203V135.266H185.211ZM181.43 133.188H183.484V141.375C183.484 141.719 183.56 141.974 183.711 142.141C183.862 142.302 184.102 142.383 184.43 142.383C184.518 142.383 184.617 142.375 184.727 142.359C184.836 142.344 184.935 142.326 185.023 142.305L185.375 143.914C185.156 143.982 184.935 144.031 184.711 144.062C184.487 144.099 184.263 144.117 184.039 144.117C183.227 144.117 182.589 143.904 182.125 143.477C181.661 143.044 181.43 142.456 181.43 141.711V133.188ZM190.117 144.172C189.242 144.172 188.487 143.99 187.852 143.625C187.216 143.255 186.727 142.734 186.383 142.062C186.044 141.391 185.875 140.599 185.875 139.688C185.875 138.786 186.044 137.997 186.383 137.32C186.721 136.638 187.198 136.107 187.812 135.727C188.427 135.346 189.151 135.156 189.984 135.156C190.521 135.156 191.029 135.242 191.508 135.414C191.992 135.586 192.419 135.852 192.789 136.211C193.164 136.57 193.458 137.029 193.672 137.586C193.885 138.138 193.992 138.797 193.992 139.562V140.203H186.836V138.82H192.969L192.008 139.227C192.008 138.732 191.932 138.302 191.781 137.938C191.63 137.568 191.406 137.279 191.109 137.07C190.812 136.862 190.443 136.758 190 136.758C189.557 136.758 189.18 136.862 188.867 137.07C188.555 137.279 188.318 137.56 188.156 137.914C187.995 138.263 187.914 138.654 187.914 139.086V140.047C187.914 140.578 188.005 141.034 188.188 141.414C188.375 141.789 188.635 142.076 188.969 142.273C189.307 142.471 189.701 142.57 190.148 142.57C190.44 142.57 190.706 142.529 190.945 142.445C191.19 142.362 191.398 142.237 191.57 142.07C191.747 141.898 191.883 141.688 191.977 141.438L193.898 141.664C193.773 142.169 193.542 142.612 193.203 142.992C192.87 143.367 192.44 143.659 191.914 143.867C191.393 144.07 190.794 144.172 190.117 144.172ZM196.461 135.266L198.219 138.5L200.008 135.266H202.188L199.562 139.641L202.234 144H200.07L198.219 140.859L196.398 144H194.219L196.867 139.641L194.281 135.266H196.461ZM207.539 135.266V136.859H202.531V135.266H207.539ZM203.758 133.188H205.812V141.375C205.812 141.719 205.888 141.974 206.039 142.141C206.19 142.302 206.43 142.383 206.758 142.383C206.846 142.383 206.945 142.375 207.055 142.359C207.164 142.344 207.263 142.326 207.352 142.305L207.703 143.914C207.484 143.982 207.263 144.031 207.039 144.062C206.815 144.099 206.591 144.117 206.367 144.117C205.555 144.117 204.917 143.904 204.453 143.477C203.99 143.044 203.758 142.456 203.758 141.711V133.188Z" fill="white"/>
</g>
<defs>
<filter id="filter0_dddd_564_3925" x="0" y="0" width="306" height="383" filterUnits="userSpaceOnUse" color-interpolation-filters="sRGB">
<feFlood flood-opacity="0" result="BackgroundImageFix"/>
<feColorMatrix in="SourceAlpha" type="matrix" values="0 0 0 0 0 0 0 0 0 0 0 0 0 0 0 0 0 0 127 0" result="hardAlpha"/>
<feOffset dy="9"/>
<feGaussianBlur stdDeviation="10"/>
<feColorMatrix type="matrix" values="0 0 0 0 0 0 0 0 0 0 0 0 0 0 0 0 0 0 0.1 0"/>
<feBlend mode="normal" in2="BackgroundImageFix" result="effect1_dropShadow_564_3925"/>
<feColorMatrix in="SourceAlpha" type="matrix" values="0 0 0 0 0 0 0 0 0 0 0 0 0 0 0 0 0 0 127 0" result="hardAlpha"/>
<feOffset dy="36"/>
<feGaussianBlur stdDeviation="18"/>
<feColorMatrix type="matrix" values="0 0 0 0 0 0 0 0 0 0 0 0 0 0 0 0 0 0 0.09 0"/>
<feBlend mode="normal" in2="effect1_dropShadow_564_3925" result="effect2_dropShadow_564_3925"/>
<feColorMatrix in="SourceAlpha" type="matrix" values="0 0 0 0 0 0 0 0 0 0 0 0 0 0 0 0 0 0 127 0" result="hardAlpha"/>
<feOffset dy="82"/>
<feGaussianBlur stdDeviation="24.5"/>
<feColorMatrix type="matrix" values="0 0 0 0 0 0 0 0 0 0 0 0 0 0 0 0 0 0 0.05 0"/>
<feBlend mode="normal" in2="effect2_dropShadow_564_3925" result="effect3_dropShadow_564_3925"/>
<feColorMatrix in="SourceAlpha" type="matrix" values="0 0 0 0 0 0 0 0 0 0 0 0 0 0 0 0 0 0 127 0" result="hardAlpha"/>
<feOffset dy="145"/>
<feGaussianBlur stdDeviation="29"/>
<feColorMatrix type="matrix" values="0 0 0 0 0 0 0 0 0 0 0 0 0 0 0 0 0 0 0.01 0"/>
<feBlend mode="normal" in2="effect3_dropShadow_564_3925" result="effect4_dropShadow_564_3925"/>
<feBlend mode="normal" in="SourceGraphic" in2="effect4_dropShadow_564_3925" result="shape"/>
</filter>
<filter id="filter1_dddd_564_3925" x="116.422" y="43" width="73.1523" height="76" filterUnits="userSpaceOnUse" color-interpolation-filters="sRGB">
<feFlood flood-opacity="0" result="BackgroundImageFix"/>
<feColorMatrix in="SourceAlpha" type="matrix" values="0 0 0 0 0 0 0 0 0 0 0 0 0 0 0 0 0 0 127 0" result="hardAlpha"/>
<feOffset dy="1"/>
<feGaussianBlur stdDeviation="0.5"/>
<feColorMatrix type="matrix" values="0 0 0 0 0.470588 0 0 0 0 0.470588 0 0 0 0 0.470588 0 0 0 0.1 0"/>
<feBlend mode="normal" in2="BackgroundImageFix" result="effect1_dropShadow_564_3925"/>
<feColorMatrix in="SourceAlpha" type="matrix" values="0 0 0 0 0 0 0 0 0 0 0 0 0 0 0 0 0 0 127 0" result="hardAlpha"/>
<feOffset dy="2"/>
<feGaussianBlur stdDeviation="1"/>
<feColorMatrix type="matrix" values="0 0 0 0 0.470588 0 0 0 0 0.470588 0 0 0 0 0.470588 0 0 0 0.09 0"/>
<feBlend mode="normal" in2="effect1_dropShadow_564_3925" result="effect2_dropShadow_564_3925"/>
<feColorMatrix in="SourceAlpha" type="matrix" values="0 0 0 0 0 0 0 0 0 0 0 0 0 0 0 0 0 0 127 0" result="hardAlpha"/>
<feOffset dy="5"/>
<feGaussianBlur stdDeviation="1.5"/>
<feColorMatrix type="matrix" values="0 0 0 0 0.470588 0 0 0 0 0.470588 0 0 0 0 0.470588 0 0 0 0.05 0"/>
<feBlend mode="normal" in2="effect2_dropShadow_564_3925" result="effect3_dropShadow_564_3925"/>
<feColorMatrix in="SourceAlpha" type="matrix" values="0 0 0 0 0 0 0 0 0 0 0 0 0 0 0 0 0 0 127 0" result="hardAlpha"/>
<feOffset dy="10"/>
<feGaussianBlur stdDeviation="2"/>
<feColorMatrix type="matrix" values="0 0 0 0 0.470588 0 0 0 0 0.470588 0 0 0 0 0.470588 0 0 0 0.01 0"/>
<feBlend mode="normal" in2="effect3_dropShadow_564_3925" result="effect4_dropShadow_564_3925"/>
<feBlend mode="normal" in="SourceGraphic" in2="effect4_dropShadow_564_3925" result="shape"/>
</filter>
</defs>
</svg>
