<svg width="306" height="383" viewBox="0 0 306 383" fill="none" xmlns="http://www.w3.org/2000/svg">
<g filter="url(#filter0_dddd_564_3896)">
<rect x="58" y="11" width="190" height="169" rx="24" fill="#2353FF"/>
<rect x="59" y="12" width="188" height="167" rx="23" stroke="white" stroke-width="2"/>
<g filter="url(#filter1_dddd_564_3896)">
<rect x="120.422" y="43" width="65.1525" height="62" rx="13" fill="white"/>
<rect x="120.922" y="43.5" width="64.1525" height="61" rx="12.5" stroke="#EAE9F5"/>
</g>
<g clip-path="url(#clip0_564_3896)">
<path d="M153 90C144.163 90 137 82.8368 137 74C137 65.1632 144.163 58 153 58C161.837 58 169 65.1632 169 74C169 82.8368 161.837 90 153 90ZM142.326 81.08C143.378 82.6535 144.766 83.9742 146.389 84.947C148.012 85.9198 149.831 86.5205 151.715 86.7058C153.598 86.8912 155.499 86.6565 157.281 86.0188C159.063 85.3811 160.681 84.3562 162.02 83.0179C163.358 81.6796 164.383 80.0612 165.02 78.2792C165.658 76.4973 165.892 74.5961 165.707 72.7127C165.521 70.8292 164.92 69.0103 163.947 67.387C162.974 65.7637 161.654 64.3763 160.08 63.3248C160.77 65.786 160.792 68.3864 160.144 70.859C159.496 73.3315 158.202 75.587 156.394 77.3936C154.587 79.2015 152.332 80.4959 149.86 81.1437C147.387 81.7916 144.787 81.7696 142.326 81.08Z" fill="#2353FF"/>
</g>
<path d="M127.383 144.156C126.362 144.156 125.448 143.919 124.641 143.445C123.839 142.971 123.206 142.289 122.742 141.398C122.284 140.508 122.055 139.438 122.055 138.188C122.055 136.932 122.286 135.859 122.75 134.969C123.219 134.073 123.854 133.388 124.656 132.914C125.464 132.44 126.372 132.203 127.383 132.203C128.023 132.203 128.622 132.294 129.18 132.477C129.742 132.659 130.242 132.927 130.68 133.281C131.117 133.63 131.474 134.06 131.75 134.57C132.031 135.076 132.216 135.651 132.305 136.297H130.18C130.122 135.943 130.01 135.63 129.844 135.359C129.682 135.089 129.479 134.859 129.234 134.672C128.995 134.479 128.721 134.336 128.414 134.242C128.107 134.143 127.776 134.094 127.422 134.094C126.786 134.094 126.224 134.253 125.734 134.57C125.245 134.883 124.862 135.346 124.586 135.961C124.31 136.57 124.172 137.312 124.172 138.188C124.172 139.073 124.31 139.82 124.586 140.43C124.867 141.034 125.25 141.492 125.734 141.805C126.224 142.112 126.784 142.266 127.414 142.266C127.763 142.266 128.089 142.221 128.391 142.133C128.693 142.039 128.966 141.901 129.211 141.719C129.461 141.531 129.667 141.307 129.828 141.047C129.995 140.781 130.112 140.477 130.18 140.133H132.305C132.227 140.69 132.055 141.214 131.789 141.703C131.529 142.188 131.185 142.615 130.758 142.984C130.336 143.349 129.841 143.635 129.273 143.844C128.706 144.052 128.076 144.156 127.383 144.156ZM137.375 144.172C136.521 144.172 135.781 143.984 135.156 143.609C134.531 143.234 134.047 142.708 133.703 142.031C133.365 141.354 133.195 140.568 133.195 139.672C133.195 138.771 133.365 137.982 133.703 137.305C134.047 136.622 134.531 136.094 135.156 135.719C135.781 135.344 136.521 135.156 137.375 135.156C138.229 135.156 138.969 135.344 139.594 135.719C140.219 136.094 140.703 136.622 141.047 137.305C141.391 137.982 141.562 138.771 141.562 139.672C141.562 140.568 141.391 141.354 141.047 142.031C140.703 142.708 140.219 143.234 139.594 143.609C138.969 143.984 138.229 144.172 137.375 144.172ZM137.375 142.516C137.849 142.516 138.24 142.391 138.547 142.141C138.854 141.885 139.083 141.542 139.234 141.109C139.391 140.677 139.469 140.198 139.469 139.672C139.469 139.135 139.391 138.651 139.234 138.219C139.083 137.786 138.854 137.445 138.547 137.195C138.24 136.94 137.849 136.812 137.375 136.812C136.911 136.812 136.523 136.94 136.211 137.195C135.898 137.445 135.664 137.786 135.508 138.219C135.357 138.651 135.281 139.135 135.281 139.672C135.281 140.198 135.357 140.677 135.508 141.109C135.664 141.542 135.898 141.885 136.211 142.141C136.523 142.391 136.911 142.516 137.375 142.516ZM144.75 138.891V144H142.695V135.266H144.711V136.758H144.812C145.01 136.268 145.32 135.88 145.742 135.594C146.169 135.302 146.711 135.156 147.367 135.156C147.971 135.156 148.497 135.284 148.945 135.539C149.393 135.794 149.74 136.169 149.984 136.664C150.234 137.154 150.359 137.747 150.359 138.445V144H148.305V138.766C148.305 138.182 148.154 137.727 147.852 137.398C147.549 137.065 147.133 136.898 146.602 136.898C146.242 136.898 145.922 136.977 145.641 137.133C145.365 137.289 145.146 137.516 144.984 137.812C144.828 138.104 144.75 138.464 144.75 138.891ZM156.234 135.266V136.859H151.227V135.266H156.234ZM152.453 133.188H154.508V141.375C154.508 141.719 154.583 141.974 154.734 142.141C154.885 142.302 155.125 142.383 155.453 142.383C155.542 142.383 155.641 142.375 155.75 142.359C155.859 142.344 155.958 142.326 156.047 142.305L156.398 143.914C156.18 143.982 155.958 144.031 155.734 144.062C155.51 144.099 155.286 144.117 155.062 144.117C154.25 144.117 153.612 143.904 153.148 143.477C152.685 143.044 152.453 142.456 152.453 141.711V133.188ZM157.367 144V135.266H159.359V136.734H159.453C159.609 136.224 159.883 135.833 160.273 135.562C160.664 135.286 161.109 135.148 161.609 135.148C161.719 135.148 161.844 135.154 161.984 135.164C162.13 135.174 162.25 135.188 162.344 135.203V137.094C162.255 137.062 162.117 137.036 161.93 137.016C161.742 136.995 161.562 136.984 161.391 136.984C161.01 136.984 160.672 137.065 160.375 137.227C160.078 137.388 159.844 137.609 159.672 137.891C159.505 138.172 159.422 138.5 159.422 138.875V144H157.367ZM165.461 144.18C164.904 144.18 164.404 144.081 163.961 143.883C163.518 143.68 163.169 143.383 162.914 142.992C162.659 142.602 162.531 142.12 162.531 141.547C162.531 141.057 162.622 140.651 162.805 140.328C162.987 140.005 163.234 139.747 163.547 139.555C163.865 139.362 164.221 139.216 164.617 139.117C165.013 139.013 165.422 138.94 165.844 138.898C166.359 138.841 166.776 138.792 167.094 138.75C167.411 138.708 167.641 138.641 167.781 138.547C167.927 138.453 168 138.307 168 138.109V138.07C168 137.648 167.875 137.32 167.625 137.086C167.375 136.852 167.01 136.734 166.531 136.734C166.026 136.734 165.625 136.844 165.328 137.062C165.036 137.281 164.839 137.539 164.734 137.836L162.82 137.562C162.971 137.031 163.221 136.589 163.57 136.234C163.919 135.875 164.344 135.607 164.844 135.43C165.349 135.247 165.906 135.156 166.516 135.156C166.932 135.156 167.349 135.206 167.766 135.305C168.182 135.398 168.565 135.56 168.914 135.789C169.263 136.018 169.542 136.326 169.75 136.711C169.958 137.096 170.062 137.578 170.062 138.156V144H168.086V142.797H168.023C167.898 143.036 167.721 143.263 167.492 143.477C167.268 143.685 166.987 143.854 166.648 143.984C166.315 144.115 165.919 144.18 165.461 144.18ZM165.984 142.664C166.401 142.664 166.76 142.583 167.062 142.422C167.365 142.255 167.599 142.036 167.766 141.766C167.932 141.49 168.016 141.19 168.016 140.867V139.844C167.948 139.896 167.839 139.945 167.688 139.992C167.536 140.034 167.365 140.073 167.172 140.109C166.979 140.146 166.789 140.177 166.602 140.203C166.419 140.229 166.26 140.25 166.125 140.266C165.818 140.307 165.542 140.378 165.297 140.477C165.057 140.57 164.867 140.701 164.727 140.867C164.586 141.034 164.516 141.25 164.516 141.516C164.516 141.896 164.654 142.182 164.93 142.375C165.206 142.568 165.557 142.664 165.984 142.664ZM178.477 137.586L176.609 137.781C176.531 137.495 176.362 137.242 176.102 137.023C175.841 136.799 175.474 136.688 175 136.688C174.573 136.688 174.214 136.781 173.922 136.969C173.635 137.156 173.492 137.396 173.492 137.688C173.492 137.943 173.586 138.154 173.773 138.32C173.966 138.482 174.284 138.612 174.727 138.711L176.219 139.023C177.036 139.195 177.648 139.477 178.055 139.867C178.461 140.258 178.664 140.763 178.664 141.383C178.664 141.93 178.505 142.414 178.188 142.836C177.87 143.258 177.43 143.586 176.867 143.82C176.31 144.055 175.667 144.172 174.938 144.172C173.87 144.172 173.01 143.948 172.359 143.5C171.714 143.047 171.326 142.419 171.195 141.617L173.203 141.43C173.292 141.82 173.484 142.117 173.781 142.32C174.083 142.518 174.469 142.617 174.938 142.617C175.427 142.617 175.82 142.518 176.117 142.32C176.414 142.117 176.562 141.87 176.562 141.578C176.562 141.089 176.172 140.755 175.391 140.578L173.898 140.266C173.06 140.083 172.44 139.789 172.039 139.383C171.638 138.971 171.438 138.448 171.438 137.812C171.438 137.271 171.586 136.802 171.883 136.406C172.18 136.01 172.594 135.703 173.125 135.484C173.656 135.266 174.271 135.156 174.969 135.156C175.995 135.156 176.799 135.378 177.383 135.82C177.971 136.258 178.336 136.846 178.477 137.586ZM184.125 135.266V136.859H179.117V135.266H184.125ZM180.344 133.188H182.398V141.375C182.398 141.719 182.474 141.974 182.625 142.141C182.776 142.302 183.016 142.383 183.344 142.383C183.432 142.383 183.531 142.375 183.641 142.359C183.75 142.344 183.849 142.326 183.938 142.305L184.289 143.914C184.07 143.982 183.849 144.031 183.625 144.062C183.401 144.099 183.177 144.117 182.953 144.117C182.141 144.117 181.503 143.904 181.039 143.477C180.576 143.044 180.344 142.456 180.344 141.711V133.188Z" fill="white"/>
</g>
<defs>
<filter id="filter0_dddd_564_3896" x="0" y="0" width="306" height="383" filterUnits="userSpaceOnUse" color-interpolation-filters="sRGB">
<feFlood flood-opacity="0" result="BackgroundImageFix"/>
<feColorMatrix in="SourceAlpha" type="matrix" values="0 0 0 0 0 0 0 0 0 0 0 0 0 0 0 0 0 0 127 0" result="hardAlpha"/>
<feOffset dy="9"/>
<feGaussianBlur stdDeviation="10"/>
<feColorMatrix type="matrix" values="0 0 0 0 0 0 0 0 0 0 0 0 0 0 0 0 0 0 0.1 0"/>
<feBlend mode="normal" in2="BackgroundImageFix" result="effect1_dropShadow_564_3896"/>
<feColorMatrix in="SourceAlpha" type="matrix" values="0 0 0 0 0 0 0 0 0 0 0 0 0 0 0 0 0 0 127 0" result="hardAlpha"/>
<feOffset dy="36"/>
<feGaussianBlur stdDeviation="18"/>
<feColorMatrix type="matrix" values="0 0 0 0 0 0 0 0 0 0 0 0 0 0 0 0 0 0 0.09 0"/>
<feBlend mode="normal" in2="effect1_dropShadow_564_3896" result="effect2_dropShadow_564_3896"/>
<feColorMatrix in="SourceAlpha" type="matrix" values="0 0 0 0 0 0 0 0 0 0 0 0 0 0 0 0 0 0 127 0" result="hardAlpha"/>
<feOffset dy="82"/>
<feGaussianBlur stdDeviation="24.5"/>
<feColorMatrix type="matrix" values="0 0 0 0 0 0 0 0 0 0 0 0 0 0 0 0 0 0 0.05 0"/>
<feBlend mode="normal" in2="effect2_dropShadow_564_3896" result="effect3_dropShadow_564_3896"/>
<feColorMatrix in="SourceAlpha" type="matrix" values="0 0 0 0 0 0 0 0 0 0 0 0 0 0 0 0 0 0 127 0" result="hardAlpha"/>
<feOffset dy="145"/>
<feGaussianBlur stdDeviation="29"/>
<feColorMatrix type="matrix" values="0 0 0 0 0 0 0 0 0 0 0 0 0 0 0 0 0 0 0.01 0"/>
<feBlend mode="normal" in2="effect3_dropShadow_564_3896" result="effect4_dropShadow_564_3896"/>
<feBlend mode="normal" in="SourceGraphic" in2="effect4_dropShadow_564_3896" result="shape"/>
</filter>
<filter id="filter1_dddd_564_3896" x="116.422" y="43" width="73.1523" height="76" filterUnits="userSpaceOnUse" color-interpolation-filters="sRGB">
<feFlood flood-opacity="0" result="BackgroundImageFix"/>
<feColorMatrix in="SourceAlpha" type="matrix" values="0 0 0 0 0 0 0 0 0 0 0 0 0 0 0 0 0 0 127 0" result="hardAlpha"/>
<feOffset dy="1"/>
<feGaussianBlur stdDeviation="0.5"/>
<feColorMatrix type="matrix" values="0 0 0 0 0.470588 0 0 0 0 0.470588 0 0 0 0 0.470588 0 0 0 0.1 0"/>
<feBlend mode="normal" in2="BackgroundImageFix" result="effect1_dropShadow_564_3896"/>
<feColorMatrix in="SourceAlpha" type="matrix" values="0 0 0 0 0 0 0 0 0 0 0 0 0 0 0 0 0 0 127 0" result="hardAlpha"/>
<feOffset dy="2"/>
<feGaussianBlur stdDeviation="1"/>
<feColorMatrix type="matrix" values="0 0 0 0 0.470588 0 0 0 0 0.470588 0 0 0 0 0.470588 0 0 0 0.09 0"/>
<feBlend mode="normal" in2="effect1_dropShadow_564_3896" result="effect2_dropShadow_564_3896"/>
<feColorMatrix in="SourceAlpha" type="matrix" values="0 0 0 0 0 0 0 0 0 0 0 0 0 0 0 0 0 0 127 0" result="hardAlpha"/>
<feOffset dy="5"/>
<feGaussianBlur stdDeviation="1.5"/>
<feColorMatrix type="matrix" values="0 0 0 0 0.470588 0 0 0 0 0.470588 0 0 0 0 0.470588 0 0 0 0.05 0"/>
<feBlend mode="normal" in2="effect2_dropShadow_564_3896" result="effect3_dropShadow_564_3896"/>
<feColorMatrix in="SourceAlpha" type="matrix" values="0 0 0 0 0 0 0 0 0 0 0 0 0 0 0 0 0 0 127 0" result="hardAlpha"/>
<feOffset dy="10"/>
<feGaussianBlur stdDeviation="2"/>
<feColorMatrix type="matrix" values="0 0 0 0 0.470588 0 0 0 0 0.470588 0 0 0 0 0.470588 0 0 0 0.01 0"/>
<feBlend mode="normal" in2="effect3_dropShadow_564_3896" result="effect4_dropShadow_564_3896"/>
<feBlend mode="normal" in="SourceGraphic" in2="effect4_dropShadow_564_3896" result="shape"/>
</filter>
<clipPath id="clip0_564_3896">
<rect width="32" height="32" fill="white" transform="translate(137 58)"/>
</clipPath>
</defs>
</svg>
