<svg width="256" height="292" viewBox="0 0 256 292" fill="none" xmlns="http://www.w3.org/2000/svg">
<g filter="url(#filter0_dddd_564_3871)">
<rect x="33" y="6" width="190" height="169" rx="24" fill="#BF8EFF"/>
<rect x="34" y="7" width="188" height="167" rx="23" stroke="#363636" stroke-opacity="0.1" stroke-width="2"/>
<g filter="url(#filter1_dddd_564_3871)">
<rect x="95.4219" y="38" width="65.1525" height="62" rx="13" fill="white"/>
<rect x="95.9219" y="38.5" width="64.1525" height="61" rx="12.5" stroke="#EAE9F5"/>
</g>
<g clip-path="url(#clip0_564_3871)">
<path fill-rule="evenodd" clip-rule="evenodd" d="M112.516 80.7097V59.0409H119.991C127.016 59.0409 131.979 63.5197 131.979 69.8595C131.979 76.1993 127.016 80.7097 119.991 80.7097H112.516ZM115.029 76.2606H119.991C125.534 76.2606 129.433 73.3067 129.433 68.7561C129.433 64.234 125.534 61.2803 119.991 61.2803H115.029V76.2606ZM139.121 62.1634L139.132 64.4029H143.275V66.5161H139.144L139.633 80.7097H135.984L136.547 66.5161H134.045V64.4029H136.686L136.764 62.1634C136.847 59.7348 138.426 58 140.591 58C141.615 58 142.635 58.3785 143.483 59.0409L142.49 60.7756C142.13 60.3971 141.507 60.1133 140.809 60.1133C139.899 60.1133 139.114 60.9649 139.121 62.1634Z" fill="#BF8EFF"/>
</g>
<path d="M72.0391 139H69.0859V137.172H71.9297C72.737 137.172 73.4115 137.026 73.9531 136.734C74.5 136.438 74.9089 135.992 75.1797 135.398C75.4557 134.805 75.5938 134.062 75.5938 133.172C75.5938 132.281 75.4583 131.542 75.1875 130.953C74.9167 130.365 74.513 129.924 73.9766 129.633C73.4401 129.336 72.776 129.188 71.9844 129.188H69.0234V127.359H72.1094C73.2656 127.359 74.2578 127.591 75.0859 128.055C75.9193 128.518 76.5599 129.185 77.0078 130.055C77.4557 130.924 77.6797 131.964 77.6797 133.172C77.6797 134.38 77.4557 135.422 77.0078 136.297C76.5599 137.167 75.9141 137.836 75.0703 138.305C74.2318 138.768 73.2214 139 72.0391 139ZM70.1953 127.359V139H68.0859V127.359H70.1953ZM80.2656 142.266C79.9844 142.271 79.724 142.25 79.4844 142.203C79.25 142.161 79.0599 142.112 78.9141 142.055L79.3984 140.453L79.5 140.484C79.9167 140.594 80.2708 140.602 80.5625 140.508C80.8594 140.414 81.0964 140.13 81.2734 139.656L81.4453 139.188L78.2891 130.266H80.4688L82.4766 136.867H82.5703L84.5859 130.266H86.7812L83.2812 140.055C83.1198 140.518 82.9062 140.914 82.6406 141.242C82.375 141.576 82.0469 141.828 81.6562 142C81.2656 142.177 80.8021 142.266 80.2656 142.266ZM94.5 132.586L92.6328 132.781C92.5547 132.495 92.3854 132.242 92.125 132.023C91.8646 131.799 91.4974 131.688 91.0234 131.688C90.5964 131.688 90.237 131.781 89.9453 131.969C89.6589 132.156 89.5156 132.396 89.5156 132.688C89.5156 132.943 89.6094 133.154 89.7969 133.32C89.9896 133.482 90.3073 133.612 90.75 133.711L92.2422 134.023C93.0599 134.195 93.6719 134.477 94.0781 134.867C94.4844 135.258 94.6875 135.763 94.6875 136.383C94.6875 136.93 94.5286 137.414 94.2109 137.836C93.8932 138.258 93.4531 138.586 92.8906 138.82C92.3333 139.055 91.6901 139.172 90.9609 139.172C89.8932 139.172 89.0339 138.948 88.3828 138.5C87.737 138.047 87.349 137.419 87.2188 136.617L89.2266 136.43C89.3151 136.82 89.5078 137.117 89.8047 137.32C90.1068 137.518 90.4922 137.617 90.9609 137.617C91.4505 137.617 91.8438 137.518 92.1406 137.32C92.4375 137.117 92.5859 136.87 92.5859 136.578C92.5859 136.089 92.1953 135.755 91.4141 135.578L89.9219 135.266C89.0833 135.083 88.4635 134.789 88.0625 134.383C87.6615 133.971 87.4609 133.448 87.4609 132.812C87.4609 132.271 87.6094 131.802 87.9062 131.406C88.2031 131.01 88.6172 130.703 89.1484 130.484C89.6797 130.266 90.2943 130.156 90.9922 130.156C92.0182 130.156 92.8229 130.378 93.4062 130.82C93.9948 131.258 94.3594 131.846 94.5 132.586ZM97.8516 127.359V139H95.7969V127.359H97.8516ZM103.242 139.172C102.367 139.172 101.612 138.99 100.977 138.625C100.341 138.255 99.8516 137.734 99.5078 137.062C99.1693 136.391 99 135.599 99 134.688C99 133.786 99.1693 132.997 99.5078 132.32C99.8464 131.638 100.323 131.107 100.938 130.727C101.552 130.346 102.276 130.156 103.109 130.156C103.646 130.156 104.154 130.242 104.633 130.414C105.117 130.586 105.544 130.852 105.914 131.211C106.289 131.57 106.583 132.029 106.797 132.586C107.01 133.138 107.117 133.797 107.117 134.562V135.203H99.9609V133.82H106.094L105.133 134.227C105.133 133.732 105.057 133.302 104.906 132.938C104.755 132.568 104.531 132.279 104.234 132.07C103.938 131.862 103.568 131.758 103.125 131.758C102.682 131.758 102.305 131.862 101.992 132.07C101.68 132.279 101.443 132.56 101.281 132.914C101.12 133.263 101.039 133.654 101.039 134.086V135.047C101.039 135.578 101.13 136.034 101.312 136.414C101.5 136.789 101.76 137.076 102.094 137.273C102.432 137.471 102.826 137.57 103.273 137.57C103.565 137.57 103.831 137.529 104.07 137.445C104.315 137.362 104.523 137.237 104.695 137.07C104.872 136.898 105.008 136.688 105.102 136.438L107.023 136.664C106.898 137.169 106.667 137.612 106.328 137.992C105.995 138.367 105.565 138.659 105.039 138.867C104.518 139.07 103.919 139.172 103.242 139.172ZM109.586 130.266L111.344 133.5L113.133 130.266H115.312L112.688 134.641L115.359 139H113.195L111.344 135.859L109.523 139H107.344L109.992 134.641L107.406 130.266H109.586ZM116.312 139V130.266H118.367V139H116.312ZM117.344 129.039C117.016 129.039 116.734 128.93 116.5 128.711C116.266 128.492 116.148 128.229 116.148 127.922C116.148 127.609 116.266 127.344 116.5 127.125C116.734 126.906 117.016 126.797 117.344 126.797C117.667 126.797 117.945 126.906 118.18 127.125C118.414 127.344 118.531 127.607 118.531 127.914C118.531 128.227 118.414 128.492 118.18 128.711C117.945 128.93 117.667 129.039 117.344 129.039ZM122.406 139.18C121.849 139.18 121.349 139.081 120.906 138.883C120.464 138.68 120.115 138.383 119.859 137.992C119.604 137.602 119.477 137.12 119.477 136.547C119.477 136.057 119.568 135.651 119.75 135.328C119.932 135.005 120.18 134.747 120.492 134.555C120.81 134.362 121.167 134.216 121.562 134.117C121.958 134.013 122.367 133.94 122.789 133.898C123.305 133.841 123.721 133.792 124.039 133.75C124.357 133.708 124.586 133.641 124.727 133.547C124.872 133.453 124.945 133.307 124.945 133.109V133.07C124.945 132.648 124.82 132.32 124.57 132.086C124.32 131.852 123.956 131.734 123.477 131.734C122.971 131.734 122.57 131.844 122.273 132.062C121.982 132.281 121.784 132.539 121.68 132.836L119.766 132.562C119.917 132.031 120.167 131.589 120.516 131.234C120.865 130.875 121.289 130.607 121.789 130.43C122.294 130.247 122.852 130.156 123.461 130.156C123.878 130.156 124.294 130.206 124.711 130.305C125.128 130.398 125.51 130.56 125.859 130.789C126.208 131.018 126.487 131.326 126.695 131.711C126.904 132.096 127.008 132.578 127.008 133.156V139H125.031V137.797H124.969C124.844 138.036 124.667 138.263 124.438 138.477C124.214 138.685 123.932 138.854 123.594 138.984C123.26 139.115 122.865 139.18 122.406 139.18ZM122.93 137.664C123.346 137.664 123.706 137.583 124.008 137.422C124.31 137.255 124.544 137.036 124.711 136.766C124.878 136.49 124.961 136.19 124.961 135.867V134.844C124.893 134.896 124.784 134.945 124.633 134.992C124.482 135.034 124.31 135.073 124.117 135.109C123.924 135.146 123.734 135.177 123.547 135.203C123.365 135.229 123.206 135.25 123.07 135.266C122.763 135.307 122.487 135.378 122.242 135.477C122.003 135.57 121.812 135.701 121.672 135.867C121.531 136.034 121.461 136.25 121.461 136.516C121.461 136.896 121.599 137.182 121.875 137.375C122.151 137.568 122.503 137.664 122.93 137.664ZM131.992 139V127.359H139.461V129.125H134.102V132.617H138.938V134.359H134.102V139H131.992ZM140.562 139V130.266H142.555V131.734H142.648C142.805 131.224 143.078 130.833 143.469 130.562C143.859 130.286 144.305 130.148 144.805 130.148C144.914 130.148 145.039 130.154 145.18 130.164C145.326 130.174 145.445 130.188 145.539 130.203V132.094C145.451 132.062 145.312 132.036 145.125 132.016C144.938 131.995 144.758 131.984 144.586 131.984C144.206 131.984 143.867 132.065 143.57 132.227C143.273 132.388 143.039 132.609 142.867 132.891C142.701 133.172 142.617 133.5 142.617 133.875V139H140.562ZM146.312 139V130.266H148.367V139H146.312ZM147.344 129.039C147.016 129.039 146.734 128.93 146.5 128.711C146.266 128.492 146.148 128.229 146.148 127.922C146.148 127.609 146.266 127.344 146.5 127.125C146.734 126.906 147.016 126.797 147.344 126.797C147.667 126.797 147.945 126.906 148.18 127.125C148.414 127.344 148.531 127.607 148.531 127.914C148.531 128.227 148.414 128.492 148.18 128.711C147.945 128.93 147.667 129.039 147.344 129.039ZM153.758 139.172C152.883 139.172 152.128 138.99 151.492 138.625C150.857 138.255 150.367 137.734 150.023 137.062C149.685 136.391 149.516 135.599 149.516 134.688C149.516 133.786 149.685 132.997 150.023 132.32C150.362 131.638 150.839 131.107 151.453 130.727C152.068 130.346 152.792 130.156 153.625 130.156C154.161 130.156 154.669 130.242 155.148 130.414C155.633 130.586 156.06 130.852 156.43 131.211C156.805 131.57 157.099 132.029 157.312 132.586C157.526 133.138 157.633 133.797 157.633 134.562V135.203H150.477V133.82H156.609L155.648 134.227C155.648 133.732 155.573 133.302 155.422 132.938C155.271 132.568 155.047 132.279 154.75 132.07C154.453 131.862 154.083 131.758 153.641 131.758C153.198 131.758 152.82 131.862 152.508 132.07C152.195 132.279 151.958 132.56 151.797 132.914C151.635 133.263 151.555 133.654 151.555 134.086V135.047C151.555 135.578 151.646 136.034 151.828 136.414C152.016 136.789 152.276 137.076 152.609 137.273C152.948 137.471 153.341 137.57 153.789 137.57C154.081 137.57 154.346 137.529 154.586 137.445C154.831 137.362 155.039 137.237 155.211 137.07C155.388 136.898 155.523 136.688 155.617 136.438L157.539 136.664C157.414 137.169 157.182 137.612 156.844 137.992C156.51 138.367 156.081 138.659 155.555 138.867C155.034 139.07 154.435 139.172 153.758 139.172ZM160.805 133.891V139H158.75V130.266H160.766V131.758H160.867C161.065 131.268 161.375 130.88 161.797 130.594C162.224 130.302 162.766 130.156 163.422 130.156C164.026 130.156 164.552 130.284 165 130.539C165.448 130.794 165.794 131.169 166.039 131.664C166.289 132.154 166.414 132.747 166.414 133.445V139H164.359V133.766C164.359 133.182 164.208 132.727 163.906 132.398C163.604 132.065 163.188 131.898 162.656 131.898C162.297 131.898 161.977 131.977 161.695 132.133C161.419 132.289 161.201 132.516 161.039 132.812C160.883 133.104 160.805 133.464 160.805 133.891ZM171.156 139.156C170.474 139.156 169.859 138.982 169.312 138.633C168.771 138.279 168.344 137.766 168.031 137.094C167.719 136.422 167.562 135.607 167.562 134.648C167.562 133.674 167.721 132.854 168.039 132.188C168.362 131.521 168.794 131.016 169.336 130.672C169.878 130.328 170.484 130.156 171.156 130.156C171.672 130.156 172.094 130.242 172.422 130.414C172.75 130.586 173.01 130.794 173.203 131.039C173.401 131.279 173.552 131.503 173.656 131.711H173.742V127.359H175.789V139H173.781V137.617H173.656C173.547 137.831 173.393 138.057 173.195 138.297C172.997 138.531 172.734 138.734 172.406 138.906C172.078 139.073 171.661 139.156 171.156 139.156ZM171.727 137.469C172.164 137.469 172.534 137.352 172.836 137.117C173.143 136.878 173.378 136.547 173.539 136.125C173.701 135.698 173.781 135.203 173.781 134.641C173.781 134.073 173.701 133.581 173.539 133.164C173.383 132.742 173.151 132.417 172.844 132.188C172.542 131.958 172.169 131.844 171.727 131.844C171.273 131.844 170.893 131.964 170.586 132.203C170.279 132.443 170.047 132.773 169.891 133.195C169.74 133.617 169.664 134.099 169.664 134.641C169.664 135.182 169.742 135.667 169.898 136.094C170.055 136.521 170.284 136.857 170.586 137.102C170.893 137.346 171.273 137.469 171.727 137.469ZM179.367 127.359V139H177.312V127.359H179.367ZM182.172 142.266C181.891 142.271 181.63 142.25 181.391 142.203C181.156 142.161 180.966 142.112 180.82 142.055L181.305 140.453L181.406 140.484C181.823 140.594 182.177 140.602 182.469 140.508C182.766 140.414 183.003 140.13 183.18 139.656L183.352 139.188L180.195 130.266H182.375L184.383 136.867H184.477L186.492 130.266H188.688L185.188 140.055C185.026 140.518 184.812 140.914 184.547 141.242C184.281 141.576 183.953 141.828 183.562 142C183.172 142.177 182.708 142.266 182.172 142.266Z" fill="white"/>
</g>
<defs>
<filter id="filter0_dddd_564_3871" x="0" y="0" width="256" height="292" filterUnits="userSpaceOnUse" color-interpolation-filters="sRGB">
<feFlood flood-opacity="0" result="BackgroundImageFix"/>
<feColorMatrix in="SourceAlpha" type="matrix" values="0 0 0 0 0 0 0 0 0 0 0 0 0 0 0 0 0 0 127 0" result="hardAlpha"/>
<feOffset dy="5"/>
<feGaussianBlur stdDeviation="5.5"/>
<feColorMatrix type="matrix" values="0 0 0 0 0 0 0 0 0 0 0 0 0 0 0 0 0 0 0.1 0"/>
<feBlend mode="normal" in2="BackgroundImageFix" result="effect1_dropShadow_564_3871"/>
<feColorMatrix in="SourceAlpha" type="matrix" values="0 0 0 0 0 0 0 0 0 0 0 0 0 0 0 0 0 0 127 0" result="hardAlpha"/>
<feOffset dy="21"/>
<feGaussianBlur stdDeviation="10.5"/>
<feColorMatrix type="matrix" values="0 0 0 0 0 0 0 0 0 0 0 0 0 0 0 0 0 0 0.09 0"/>
<feBlend mode="normal" in2="effect1_dropShadow_564_3871" result="effect2_dropShadow_564_3871"/>
<feColorMatrix in="SourceAlpha" type="matrix" values="0 0 0 0 0 0 0 0 0 0 0 0 0 0 0 0 0 0 127 0" result="hardAlpha"/>
<feOffset dy="47"/>
<feGaussianBlur stdDeviation="14"/>
<feColorMatrix type="matrix" values="0 0 0 0 0 0 0 0 0 0 0 0 0 0 0 0 0 0 0.05 0"/>
<feBlend mode="normal" in2="effect2_dropShadow_564_3871" result="effect3_dropShadow_564_3871"/>
<feColorMatrix in="SourceAlpha" type="matrix" values="0 0 0 0 0 0 0 0 0 0 0 0 0 0 0 0 0 0 127 0" result="hardAlpha"/>
<feOffset dy="84"/>
<feGaussianBlur stdDeviation="16.5"/>
<feColorMatrix type="matrix" values="0 0 0 0 0 0 0 0 0 0 0 0 0 0 0 0 0 0 0.01 0"/>
<feBlend mode="normal" in2="effect3_dropShadow_564_3871" result="effect4_dropShadow_564_3871"/>
<feBlend mode="normal" in="SourceGraphic" in2="effect4_dropShadow_564_3871" result="shape"/>
</filter>
<filter id="filter1_dddd_564_3871" x="91.4219" y="38" width="73.1523" height="76" filterUnits="userSpaceOnUse" color-interpolation-filters="sRGB">
<feFlood flood-opacity="0" result="BackgroundImageFix"/>
<feColorMatrix in="SourceAlpha" type="matrix" values="0 0 0 0 0 0 0 0 0 0 0 0 0 0 0 0 0 0 127 0" result="hardAlpha"/>
<feOffset dy="1"/>
<feGaussianBlur stdDeviation="0.5"/>
<feColorMatrix type="matrix" values="0 0 0 0 0.470588 0 0 0 0 0.470588 0 0 0 0 0.470588 0 0 0 0.1 0"/>
<feBlend mode="normal" in2="BackgroundImageFix" result="effect1_dropShadow_564_3871"/>
<feColorMatrix in="SourceAlpha" type="matrix" values="0 0 0 0 0 0 0 0 0 0 0 0 0 0 0 0 0 0 127 0" result="hardAlpha"/>
<feOffset dy="2"/>
<feGaussianBlur stdDeviation="1"/>
<feColorMatrix type="matrix" values="0 0 0 0 0.470588 0 0 0 0 0.470588 0 0 0 0 0.470588 0 0 0 0.09 0"/>
<feBlend mode="normal" in2="effect1_dropShadow_564_3871" result="effect2_dropShadow_564_3871"/>
<feColorMatrix in="SourceAlpha" type="matrix" values="0 0 0 0 0 0 0 0 0 0 0 0 0 0 0 0 0 0 127 0" result="hardAlpha"/>
<feOffset dy="5"/>
<feGaussianBlur stdDeviation="1.5"/>
<feColorMatrix type="matrix" values="0 0 0 0 0.470588 0 0 0 0 0.470588 0 0 0 0 0.470588 0 0 0 0.05 0"/>
<feBlend mode="normal" in2="effect2_dropShadow_564_3871" result="effect3_dropShadow_564_3871"/>
<feColorMatrix in="SourceAlpha" type="matrix" values="0 0 0 0 0 0 0 0 0 0 0 0 0 0 0 0 0 0 127 0" result="hardAlpha"/>
<feOffset dy="10"/>
<feGaussianBlur stdDeviation="2"/>
<feColorMatrix type="matrix" values="0 0 0 0 0.470588 0 0 0 0 0.470588 0 0 0 0 0.470588 0 0 0 0.01 0"/>
<feBlend mode="normal" in2="effect3_dropShadow_564_3871" result="effect4_dropShadow_564_3871"/>
<feBlend mode="normal" in="SourceGraphic" in2="effect4_dropShadow_564_3871" result="shape"/>
</filter>
<clipPath id="clip0_564_3871">
<rect width="32" height="22.7097" fill="white" transform="translate(112 58)"/>
</clipPath>
</defs>
</svg>
